ISO-10303-21;
HEADER;
/* Generated by software containing ST-Developer
 * from STEP Tools, Inc. (www.steptools.com) 
 */
/* OPTION: strings as raw bytes, not using required /X/ escapes */

FILE_DESCRIPTION(
/* description */ ('Unknown'),
/* implementation_level */ '2;1');

FILE_NAME(
/* name */ 'BMRF00060630100MA1',
/* time_stamp */ '2025-11-07T12:20:10+02:00',
/* author */ ('Unknown'),
/* organization */ ('Unknown'),
/* preprocessor_version */ 'ST-DEVELOPER v19.4',
/* originating_system */ 'Solid Edge',
/* authorisation */ 'Unknown');

FILE_SCHEMA (('AUTOMOTIVE_DESIGN {1 0 10303 214 3 1 1}'));
ENDSEC;

DATA;
#10=PROPERTY_DEFINITION_REPRESENTATION(#14,#12);
#11=PROPERTY_DEFINITION_REPRESENTATION(#15,#13);
#12=REPRESENTATION('',(#16),#2037);
#13=REPRESENTATION('',(#17),#2037);
#14=PROPERTY_DEFINITION('pmi validation property','',#2042);
#15=PROPERTY_DEFINITION('pmi validation property','',#2042);
#16=VALUE_REPRESENTATION_ITEM('number of annotations',COUNT_MEASURE(0.));
#17=VALUE_REPRESENTATION_ITEM('number of views',COUNT_MEASURE(0.));
#18=SHAPE_REPRESENTATION_RELATIONSHIP('','',#1211,#19);
#19=ADVANCED_BREP_SHAPE_REPRESENTATION('',(#1209),#2037);
#20=TOROIDAL_SURFACE('',#1297,0.65,0.0999999999999995);
#21=TOROIDAL_SURFACE('',#1304,0.65,0.0999999999999995);
#22=TOROIDAL_SURFACE('',#1306,0.65,0.0999999999999995);
#23=TOROIDAL_SURFACE('',#1312,0.65,0.0999999999999995);
#24=TOROIDAL_SURFACE('',#1315,0.65,0.0999999999999995);
#25=TOROIDAL_SURFACE('',#1319,0.65,0.0999999999999995);
#26=TOROIDAL_SURFACE('',#1324,0.65,0.0999999999999995);
#27=TOROIDAL_SURFACE('',#1328,0.65,0.0999999999999995);
#28=CYLINDRICAL_SURFACE('',#1277,0.1);
#29=CYLINDRICAL_SURFACE('',#1278,0.1);
#30=CYLINDRICAL_SURFACE('',#1279,0.1);
#31=CYLINDRICAL_SURFACE('',#1280,0.1);
#32=CYLINDRICAL_SURFACE('',#1281,0.025);
#33=CYLINDRICAL_SURFACE('',#1282,0.025);
#34=CYLINDRICAL_SURFACE('',#1283,0.025);
#35=CYLINDRICAL_SURFACE('',#1284,0.025);
#36=CYLINDRICAL_SURFACE('',#1285,0.75);
#37=CYLINDRICAL_SURFACE('',#1288,0.75);
#38=CYLINDRICAL_SURFACE('',#1291,0.75);
#39=CYLINDRICAL_SURFACE('',#1294,0.75);
#40=CYLINDRICAL_SURFACE('',#1300,0.0999999999999995);
#41=CYLINDRICAL_SURFACE('',#1302,0.0999999999999995);
#42=CYLINDRICAL_SURFACE('',#1308,0.0999999999999995);
#43=CYLINDRICAL_SURFACE('',#1310,0.0999999999999995);
#44=CYLINDRICAL_SURFACE('',#1313,0.0999999999999995);
#45=CYLINDRICAL_SURFACE('',#1317,0.0999999999999995);
#46=CYLINDRICAL_SURFACE('',#1321,0.0999999999999995);
#47=CYLINDRICAL_SURFACE('',#1322,0.0999999999999995);
#48=CYLINDRICAL_SURFACE('',#1326,0.0999999999999995);
#49=CYLINDRICAL_SURFACE('',#1330,0.0999999999999995);
#50=CIRCLE('',#1219,0.65);
#51=CIRCLE('',#1220,0.65);
#52=CIRCLE('',#1221,0.65);
#53=CIRCLE('',#1222,0.65);
#54=CIRCLE('',#1225,0.1);
#55=CIRCLE('',#1226,0.025);
#56=CIRCLE('',#1227,0.025);
#57=CIRCLE('',#1228,0.1);
#58=CIRCLE('',#1230,0.1);
#59=CIRCLE('',#1231,0.1);
#60=CIRCLE('',#1232,0.025);
#61=CIRCLE('',#1233,0.025);
#62=CIRCLE('',#1236,0.65);
#63=CIRCLE('',#1237,0.65);
#64=CIRCLE('',#1238,0.65);
#65=CIRCLE('',#1239,0.65);
#66=CIRCLE('',#1245,0.1);
#67=CIRCLE('',#1246,0.025);
#68=CIRCLE('',#1247,0.025);
#69=CIRCLE('',#1248,0.1);
#70=CIRCLE('',#1250,0.1);
#71=CIRCLE('',#1251,0.1);
#72=CIRCLE('',#1252,0.025);
#73=CIRCLE('',#1253,0.025);
#74=CIRCLE('',#1257,0.0999999999999995);
#75=CIRCLE('',#1260,0.0999999999999995);
#76=CIRCLE('',#1265,0.0999999999999995);
#77=CIRCLE('',#1268,0.0999999999999995);
#78=CIRCLE('',#1286,0.75);
#79=CIRCLE('',#1287,0.75);
#80=CIRCLE('',#1289,0.75);
#81=CIRCLE('',#1290,0.75);
#82=CIRCLE('',#1292,0.75);
#83=CIRCLE('',#1293,0.75);
#84=CIRCLE('',#1295,0.75);
#85=CIRCLE('',#1296,0.75);
#86=CIRCLE('',#1298,0.0999999999999995);
#87=CIRCLE('',#1299,0.0999999999999995);
#88=CIRCLE('',#1301,0.0999999999999995);
#89=CIRCLE('',#1303,0.0999999999999995);
#90=CIRCLE('',#1305,0.0999999999999995);
#91=CIRCLE('',#1307,0.0999999999999995);
#92=CIRCLE('',#1309,0.0999999999999995);
#93=CIRCLE('',#1311,0.0999999999999995);
#94=CIRCLE('',#1314,0.0999999999999995);
#95=CIRCLE('',#1316,0.0999999999999995);
#96=CIRCLE('',#1318,0.0999999999999995);
#97=CIRCLE('',#1320,0.0999999999999995);
#98=CIRCLE('',#1323,0.0999999999999995);
#99=CIRCLE('',#1325,0.0999999999999995);
#100=CIRCLE('',#1327,0.0999999999999995);
#101=CIRCLE('',#1329,0.0999999999999995);
#102=ORIENTED_EDGE('',*,*,#446,.T.);
#103=ORIENTED_EDGE('',*,*,#447,.T.);
#104=ORIENTED_EDGE('',*,*,#448,.F.);
#105=ORIENTED_EDGE('',*,*,#449,.T.);
#106=ORIENTED_EDGE('',*,*,#450,.F.);
#107=ORIENTED_EDGE('',*,*,#451,.F.);
#108=ORIENTED_EDGE('',*,*,#452,.F.);
#109=ORIENTED_EDGE('',*,*,#453,.T.);
#110=ORIENTED_EDGE('',*,*,#454,.T.);
#111=ORIENTED_EDGE('',*,*,#455,.T.);
#112=ORIENTED_EDGE('',*,*,#456,.F.);
#113=ORIENTED_EDGE('',*,*,#457,.T.);
#114=ORIENTED_EDGE('',*,*,#458,.T.);
#115=ORIENTED_EDGE('',*,*,#459,.T.);
#116=ORIENTED_EDGE('',*,*,#460,.F.);
#117=ORIENTED_EDGE('',*,*,#461,.T.);
#118=ORIENTED_EDGE('',*,*,#462,.T.);
#119=ORIENTED_EDGE('',*,*,#463,.T.);
#120=ORIENTED_EDGE('',*,*,#464,.T.);
#121=ORIENTED_EDGE('',*,*,#465,.T.);
#122=ORIENTED_EDGE('',*,*,#466,.T.);
#123=ORIENTED_EDGE('',*,*,#467,.F.);
#124=ORIENTED_EDGE('',*,*,#468,.T.);
#125=ORIENTED_EDGE('',*,*,#469,.T.);
#126=ORIENTED_EDGE('',*,*,#470,.T.);
#127=ORIENTED_EDGE('',*,*,#471,.T.);
#128=ORIENTED_EDGE('',*,*,#472,.F.);
#129=ORIENTED_EDGE('',*,*,#473,.F.);
#130=ORIENTED_EDGE('',*,*,#474,.F.);
#131=ORIENTED_EDGE('',*,*,#475,.T.);
#132=ORIENTED_EDGE('',*,*,#476,.F.);
#133=ORIENTED_EDGE('',*,*,#477,.T.);
#134=ORIENTED_EDGE('',*,*,#478,.T.);
#135=ORIENTED_EDGE('',*,*,#479,.T.);
#136=ORIENTED_EDGE('',*,*,#480,.F.);
#137=ORIENTED_EDGE('',*,*,#481,.T.);
#138=ORIENTED_EDGE('',*,*,#482,.T.);
#139=ORIENTED_EDGE('',*,*,#483,.T.);
#140=ORIENTED_EDGE('',*,*,#484,.T.);
#141=ORIENTED_EDGE('',*,*,#485,.T.);
#142=ORIENTED_EDGE('',*,*,#486,.T.);
#143=ORIENTED_EDGE('',*,*,#487,.T.);
#144=ORIENTED_EDGE('',*,*,#488,.T.);
#145=ORIENTED_EDGE('',*,*,#489,.T.);
#146=ORIENTED_EDGE('',*,*,#490,.T.);
#147=ORIENTED_EDGE('',*,*,#491,.T.);
#148=ORIENTED_EDGE('',*,*,#492,.T.);
#149=ORIENTED_EDGE('',*,*,#493,.T.);
#150=ORIENTED_EDGE('',*,*,#494,.F.);
#151=ORIENTED_EDGE('',*,*,#495,.T.);
#152=ORIENTED_EDGE('',*,*,#496,.F.);
#153=ORIENTED_EDGE('',*,*,#497,.T.);
#154=ORIENTED_EDGE('',*,*,#498,.T.);
#155=ORIENTED_EDGE('',*,*,#499,.T.);
#156=ORIENTED_EDGE('',*,*,#500,.F.);
#157=ORIENTED_EDGE('',*,*,#501,.F.);
#158=ORIENTED_EDGE('',*,*,#472,.T.);
#159=ORIENTED_EDGE('',*,*,#502,.T.);
#160=ORIENTED_EDGE('',*,*,#476,.T.);
#161=ORIENTED_EDGE('',*,*,#503,.T.);
#162=ORIENTED_EDGE('',*,*,#504,.T.);
#163=ORIENTED_EDGE('',*,*,#505,.T.);
#164=ORIENTED_EDGE('',*,*,#496,.T.);
#165=ORIENTED_EDGE('',*,*,#506,.T.);
#166=ORIENTED_EDGE('',*,*,#507,.T.);
#167=ORIENTED_EDGE('',*,*,#508,.T.);
#168=ORIENTED_EDGE('',*,*,#509,.T.);
#169=ORIENTED_EDGE('',*,*,#510,.T.);
#170=ORIENTED_EDGE('',*,*,#511,.T.);
#171=ORIENTED_EDGE('',*,*,#512,.F.);
#172=ORIENTED_EDGE('',*,*,#458,.F.);
#173=ORIENTED_EDGE('',*,*,#513,.T.);
#174=ORIENTED_EDGE('',*,*,#514,.T.);
#175=ORIENTED_EDGE('',*,*,#515,.T.);
#176=ORIENTED_EDGE('',*,*,#516,.T.);
#177=ORIENTED_EDGE('',*,*,#517,.T.);
#178=ORIENTED_EDGE('',*,*,#518,.F.);
#179=ORIENTED_EDGE('',*,*,#519,.T.);
#180=ORIENTED_EDGE('',*,*,#498,.F.);
#181=ORIENTED_EDGE('',*,*,#520,.T.);
#182=ORIENTED_EDGE('',*,*,#521,.T.);
#183=ORIENTED_EDGE('',*,*,#522,.T.);
#184=ORIENTED_EDGE('',*,*,#523,.T.);
#185=ORIENTED_EDGE('',*,*,#524,.T.);
#186=ORIENTED_EDGE('',*,*,#525,.T.);
#187=ORIENTED_EDGE('',*,*,#526,.T.);
#188=ORIENTED_EDGE('',*,*,#527,.T.);
#189=ORIENTED_EDGE('',*,*,#528,.T.);
#190=ORIENTED_EDGE('',*,*,#509,.F.);
#191=ORIENTED_EDGE('',*,*,#529,.T.);
#192=ORIENTED_EDGE('',*,*,#530,.F.);
#193=ORIENTED_EDGE('',*,*,#531,.T.);
#194=ORIENTED_EDGE('',*,*,#532,.F.);
#195=ORIENTED_EDGE('',*,*,#533,.T.);
#196=ORIENTED_EDGE('',*,*,#507,.F.);
#197=ORIENTED_EDGE('',*,*,#534,.T.);
#198=ORIENTED_EDGE('',*,*,#535,.T.);
#199=ORIENTED_EDGE('',*,*,#536,.T.);
#200=ORIENTED_EDGE('',*,*,#537,.T.);
#201=ORIENTED_EDGE('',*,*,#538,.T.);
#202=ORIENTED_EDGE('',*,*,#539,.T.);
#203=ORIENTED_EDGE('',*,*,#540,.T.);
#204=ORIENTED_EDGE('',*,*,#541,.T.);
#205=ORIENTED_EDGE('',*,*,#542,.T.);
#206=ORIENTED_EDGE('',*,*,#530,.T.);
#207=ORIENTED_EDGE('',*,*,#543,.T.);
#208=ORIENTED_EDGE('',*,*,#532,.T.);
#209=ORIENTED_EDGE('',*,*,#544,.F.);
#210=ORIENTED_EDGE('',*,*,#545,.T.);
#211=ORIENTED_EDGE('',*,*,#546,.T.);
#212=ORIENTED_EDGE('',*,*,#547,.T.);
#213=ORIENTED_EDGE('',*,*,#548,.T.);
#214=ORIENTED_EDGE('',*,*,#456,.T.);
#215=ORIENTED_EDGE('',*,*,#549,.T.);
#216=ORIENTED_EDGE('',*,*,#550,.F.);
#217=ORIENTED_EDGE('',*,*,#551,.T.);
#218=ORIENTED_EDGE('',*,*,#552,.T.);
#219=ORIENTED_EDGE('',*,*,#553,.T.);
#220=ORIENTED_EDGE('',*,*,#518,.T.);
#221=ORIENTED_EDGE('',*,*,#554,.T.);
#222=ORIENTED_EDGE('',*,*,#494,.T.);
#223=ORIENTED_EDGE('',*,*,#555,.F.);
#224=ORIENTED_EDGE('',*,*,#556,.T.);
#225=ORIENTED_EDGE('',*,*,#557,.T.);
#226=ORIENTED_EDGE('',*,*,#474,.T.);
#227=ORIENTED_EDGE('',*,*,#558,.T.);
#228=ORIENTED_EDGE('',*,*,#470,.F.);
#229=ORIENTED_EDGE('',*,*,#559,.T.);
#230=ORIENTED_EDGE('',*,*,#560,.T.);
#231=ORIENTED_EDGE('',*,*,#544,.T.);
#232=ORIENTED_EDGE('',*,*,#534,.F.);
#233=ORIENTED_EDGE('',*,*,#517,.F.);
#234=ORIENTED_EDGE('',*,*,#505,.F.);
#235=ORIENTED_EDGE('',*,*,#561,.F.);
#236=ORIENTED_EDGE('',*,*,#555,.T.);
#237=ORIENTED_EDGE('',*,*,#497,.F.);
#238=ORIENTED_EDGE('',*,*,#480,.T.);
#239=ORIENTED_EDGE('',*,*,#562,.T.);
#240=ORIENTED_EDGE('',*,*,#460,.T.);
#241=ORIENTED_EDGE('',*,*,#563,.T.);
#242=ORIENTED_EDGE('',*,*,#564,.T.);
#243=ORIENTED_EDGE('',*,*,#565,.T.);
#244=ORIENTED_EDGE('',*,*,#566,.T.);
#245=ORIENTED_EDGE('',*,*,#566,.F.);
#246=ORIENTED_EDGE('',*,*,#567,.T.);
#247=ORIENTED_EDGE('',*,*,#568,.T.);
#248=ORIENTED_EDGE('',*,*,#481,.F.);
#249=ORIENTED_EDGE('',*,*,#466,.F.);
#250=ORIENTED_EDGE('',*,*,#569,.T.);
#251=ORIENTED_EDGE('',*,*,#482,.F.);
#252=ORIENTED_EDGE('',*,*,#568,.F.);
#253=ORIENTED_EDGE('',*,*,#570,.F.);
#254=ORIENTED_EDGE('',*,*,#571,.F.);
#255=ORIENTED_EDGE('',*,*,#572,.F.);
#256=ORIENTED_EDGE('',*,*,#473,.T.);
#257=ORIENTED_EDGE('',*,*,#501,.T.);
#258=ORIENTED_EDGE('',*,*,#573,.F.);
#259=ORIENTED_EDGE('',*,*,#571,.T.);
#260=ORIENTED_EDGE('',*,*,#574,.F.);
#261=ORIENTED_EDGE('',*,*,#564,.F.);
#262=ORIENTED_EDGE('',*,*,#575,.T.);
#263=ORIENTED_EDGE('',*,*,#559,.F.);
#264=ORIENTED_EDGE('',*,*,#570,.T.);
#265=ORIENTED_EDGE('',*,*,#567,.F.);
#266=ORIENTED_EDGE('',*,*,#565,.F.);
#267=ORIENTED_EDGE('',*,*,#574,.T.);
#268=ORIENTED_EDGE('',*,*,#504,.F.);
#269=ORIENTED_EDGE('',*,*,#576,.T.);
#270=ORIENTED_EDGE('',*,*,#556,.F.);
#271=ORIENTED_EDGE('',*,*,#561,.T.);
#272=ORIENTED_EDGE('',*,*,#448,.T.);
#273=ORIENTED_EDGE('',*,*,#577,.T.);
#274=ORIENTED_EDGE('',*,*,#490,.F.);
#275=ORIENTED_EDGE('',*,*,#578,.T.);
#276=ORIENTED_EDGE('',*,*,#579,.T.);
#277=ORIENTED_EDGE('',*,*,#580,.T.);
#278=ORIENTED_EDGE('',*,*,#581,.T.);
#279=ORIENTED_EDGE('',*,*,#582,.T.);
#280=ORIENTED_EDGE('',*,*,#583,.F.);
#281=ORIENTED_EDGE('',*,*,#578,.F.);
#282=ORIENTED_EDGE('',*,*,#489,.F.);
#283=ORIENTED_EDGE('',*,*,#488,.F.);
#284=ORIENTED_EDGE('',*,*,#584,.T.);
#285=ORIENTED_EDGE('',*,*,#452,.T.);
#286=ORIENTED_EDGE('',*,*,#585,.F.);
#287=ORIENTED_EDGE('',*,*,#586,.F.);
#288=ORIENTED_EDGE('',*,*,#587,.F.);
#289=ORIENTED_EDGE('',*,*,#582,.F.);
#290=ORIENTED_EDGE('',*,*,#587,.T.);
#291=ORIENTED_EDGE('',*,*,#588,.F.);
#292=ORIENTED_EDGE('',*,*,#579,.F.);
#293=ORIENTED_EDGE('',*,*,#583,.T.);
#294=ORIENTED_EDGE('',*,*,#459,.F.);
#295=ORIENTED_EDGE('',*,*,#512,.T.);
#296=ORIENTED_EDGE('',*,*,#589,.T.);
#297=ORIENTED_EDGE('',*,*,#580,.F.);
#298=ORIENTED_EDGE('',*,*,#588,.T.);
#299=ORIENTED_EDGE('',*,*,#586,.T.);
#300=ORIENTED_EDGE('',*,*,#590,.F.);
#301=ORIENTED_EDGE('',*,*,#549,.F.);
#302=ORIENTED_EDGE('',*,*,#514,.F.);
#303=ORIENTED_EDGE('',*,*,#591,.T.);
#304=ORIENTED_EDGE('',*,*,#547,.F.);
#305=ORIENTED_EDGE('',*,*,#592,.T.);
#306=ORIENTED_EDGE('',*,*,#516,.F.);
#307=ORIENTED_EDGE('',*,*,#593,.T.);
#308=ORIENTED_EDGE('',*,*,#545,.F.);
#309=ORIENTED_EDGE('',*,*,#560,.F.);
#310=ORIENTED_EDGE('',*,*,#500,.T.);
#311=ORIENTED_EDGE('',*,*,#467,.T.);
#312=ORIENTED_EDGE('',*,*,#572,.T.);
#313=ORIENTED_EDGE('',*,*,#573,.T.);
#314=ORIENTED_EDGE('',*,*,#563,.F.);
#315=ORIENTED_EDGE('',*,*,#469,.F.);
#316=ORIENTED_EDGE('',*,*,#552,.F.);
#317=ORIENTED_EDGE('',*,*,#575,.F.);
#318=ORIENTED_EDGE('',*,*,#550,.T.);
#319=ORIENTED_EDGE('',*,*,#590,.T.);
#320=ORIENTED_EDGE('',*,*,#585,.T.);
#321=ORIENTED_EDGE('',*,*,#451,.T.);
#322=ORIENTED_EDGE('',*,*,#589,.F.);
#323=ORIENTED_EDGE('',*,*,#511,.F.);
#324=ORIENTED_EDGE('',*,*,#449,.F.);
#325=ORIENTED_EDGE('',*,*,#581,.F.);
#326=ORIENTED_EDGE('',*,*,#551,.F.);
#327=ORIENTED_EDGE('',*,*,#450,.T.);
#328=ORIENTED_EDGE('',*,*,#510,.F.);
#329=ORIENTED_EDGE('',*,*,#531,.F.);
#330=ORIENTED_EDGE('',*,*,#506,.F.);
#331=ORIENTED_EDGE('',*,*,#495,.F.);
#332=ORIENTED_EDGE('',*,*,#554,.F.);
#333=ORIENTED_EDGE('',*,*,#520,.F.);
#334=ORIENTED_EDGE('',*,*,#499,.F.);
#335=ORIENTED_EDGE('',*,*,#519,.F.);
#336=ORIENTED_EDGE('',*,*,#553,.F.);
#337=ORIENTED_EDGE('',*,*,#468,.F.);
#338=ORIENTED_EDGE('',*,*,#508,.F.);
#339=ORIENTED_EDGE('',*,*,#533,.F.);
#340=ORIENTED_EDGE('',*,*,#543,.F.);
#341=ORIENTED_EDGE('',*,*,#529,.F.);
#342=ORIENTED_EDGE('',*,*,#558,.F.);
#343=ORIENTED_EDGE('',*,*,#477,.F.);
#344=ORIENTED_EDGE('',*,*,#502,.F.);
#345=ORIENTED_EDGE('',*,*,#471,.F.);
#346=ORIENTED_EDGE('',*,*,#557,.F.);
#347=ORIENTED_EDGE('',*,*,#576,.F.);
#348=ORIENTED_EDGE('',*,*,#503,.F.);
#349=ORIENTED_EDGE('',*,*,#475,.F.);
#350=ORIENTED_EDGE('',*,*,#515,.F.);
#351=ORIENTED_EDGE('',*,*,#592,.F.);
#352=ORIENTED_EDGE('',*,*,#546,.F.);
#353=ORIENTED_EDGE('',*,*,#593,.F.);
#354=ORIENTED_EDGE('',*,*,#513,.F.);
#355=ORIENTED_EDGE('',*,*,#457,.F.);
#356=ORIENTED_EDGE('',*,*,#548,.F.);
#357=ORIENTED_EDGE('',*,*,#591,.F.);
#358=ORIENTED_EDGE('',*,*,#462,.F.);
#359=ORIENTED_EDGE('',*,*,#594,.T.);
#360=ORIENTED_EDGE('',*,*,#535,.F.);
#361=ORIENTED_EDGE('',*,*,#595,.T.);
#362=ORIENTED_EDGE('',*,*,#454,.F.);
#363=ORIENTED_EDGE('',*,*,#596,.T.);
#364=ORIENTED_EDGE('',*,*,#539,.F.);
#365=ORIENTED_EDGE('',*,*,#597,.T.);
#366=ORIENTED_EDGE('',*,*,#537,.F.);
#367=ORIENTED_EDGE('',*,*,#598,.T.);
#368=ORIENTED_EDGE('',*,*,#446,.F.);
#369=ORIENTED_EDGE('',*,*,#599,.T.);
#370=ORIENTED_EDGE('',*,*,#541,.F.);
#371=ORIENTED_EDGE('',*,*,#600,.T.);
#372=ORIENTED_EDGE('',*,*,#464,.F.);
#373=ORIENTED_EDGE('',*,*,#601,.T.);
#374=ORIENTED_EDGE('',*,*,#602,.F.);
#375=ORIENTED_EDGE('',*,*,#599,.F.);
#376=ORIENTED_EDGE('',*,*,#603,.F.);
#377=ORIENTED_EDGE('',*,*,#526,.F.);
#378=ORIENTED_EDGE('',*,*,#603,.T.);
#379=ORIENTED_EDGE('',*,*,#455,.F.);
#380=ORIENTED_EDGE('',*,*,#604,.F.);
#381=ORIENTED_EDGE('',*,*,#527,.F.);
#382=ORIENTED_EDGE('',*,*,#602,.T.);
#383=ORIENTED_EDGE('',*,*,#525,.F.);
#384=ORIENTED_EDGE('',*,*,#605,.F.);
#385=ORIENTED_EDGE('',*,*,#538,.F.);
#386=ORIENTED_EDGE('',*,*,#604,.T.);
#387=ORIENTED_EDGE('',*,*,#597,.F.);
#388=ORIENTED_EDGE('',*,*,#606,.F.);
#389=ORIENTED_EDGE('',*,*,#528,.F.);
#390=ORIENTED_EDGE('',*,*,#605,.T.);
#391=ORIENTED_EDGE('',*,*,#524,.F.);
#392=ORIENTED_EDGE('',*,*,#607,.F.);
#393=ORIENTED_EDGE('',*,*,#595,.F.);
#394=ORIENTED_EDGE('',*,*,#606,.T.);
#395=ORIENTED_EDGE('',*,*,#542,.F.);
#396=ORIENTED_EDGE('',*,*,#608,.F.);
#397=ORIENTED_EDGE('',*,*,#521,.F.);
#398=ORIENTED_EDGE('',*,*,#607,.T.);
#399=ORIENTED_EDGE('',*,*,#523,.F.);
#400=ORIENTED_EDGE('',*,*,#609,.F.);
#401=ORIENTED_EDGE('',*,*,#463,.F.);
#402=ORIENTED_EDGE('',*,*,#608,.T.);
#403=ORIENTED_EDGE('',*,*,#601,.F.);
#404=ORIENTED_EDGE('',*,*,#609,.T.);
#405=ORIENTED_EDGE('',*,*,#522,.F.);
#406=ORIENTED_EDGE('',*,*,#569,.F.);
#407=ORIENTED_EDGE('',*,*,#465,.F.);
#408=ORIENTED_EDGE('',*,*,#610,.F.);
#409=ORIENTED_EDGE('',*,*,#483,.F.);
#410=ORIENTED_EDGE('',*,*,#610,.T.);
#411=ORIENTED_EDGE('',*,*,#600,.F.);
#412=ORIENTED_EDGE('',*,*,#611,.F.);
#413=ORIENTED_EDGE('',*,*,#484,.F.);
#414=ORIENTED_EDGE('',*,*,#611,.T.);
#415=ORIENTED_EDGE('',*,*,#540,.F.);
#416=ORIENTED_EDGE('',*,*,#612,.F.);
#417=ORIENTED_EDGE('',*,*,#485,.F.);
#418=ORIENTED_EDGE('',*,*,#612,.T.);
#419=ORIENTED_EDGE('',*,*,#596,.F.);
#420=ORIENTED_EDGE('',*,*,#613,.F.);
#421=ORIENTED_EDGE('',*,*,#486,.F.);
#422=ORIENTED_EDGE('',*,*,#584,.F.);
#423=ORIENTED_EDGE('',*,*,#487,.F.);
#424=ORIENTED_EDGE('',*,*,#613,.T.);
#425=ORIENTED_EDGE('',*,*,#453,.F.);
#426=ORIENTED_EDGE('',*,*,#577,.F.);
#427=ORIENTED_EDGE('',*,*,#447,.F.);
#428=ORIENTED_EDGE('',*,*,#614,.F.);
#429=ORIENTED_EDGE('',*,*,#491,.F.);
#430=ORIENTED_EDGE('',*,*,#614,.T.);
#431=ORIENTED_EDGE('',*,*,#598,.F.);
#432=ORIENTED_EDGE('',*,*,#615,.F.);
#433=ORIENTED_EDGE('',*,*,#492,.F.);
#434=ORIENTED_EDGE('',*,*,#615,.T.);
#435=ORIENTED_EDGE('',*,*,#536,.F.);
#436=ORIENTED_EDGE('',*,*,#616,.F.);
#437=ORIENTED_EDGE('',*,*,#493,.F.);
#438=ORIENTED_EDGE('',*,*,#616,.T.);
#439=ORIENTED_EDGE('',*,*,#594,.F.);
#440=ORIENTED_EDGE('',*,*,#617,.F.);
#441=ORIENTED_EDGE('',*,*,#478,.F.);
#442=ORIENTED_EDGE('',*,*,#562,.F.);
#443=ORIENTED_EDGE('',*,*,#479,.F.);
#444=ORIENTED_EDGE('',*,*,#617,.T.);
#445=ORIENTED_EDGE('',*,*,#461,.F.);
#446=EDGE_CURVE('',#618,#619,#726,.F.);
#447=EDGE_CURVE('',#619,#620,#727,.F.);
#448=EDGE_CURVE('',#621,#620,#728,.T.);
#449=EDGE_CURVE('',#621,#622,#729,.T.);
#450=EDGE_CURVE('',#623,#622,#730,.T.);
#451=EDGE_CURVE('',#624,#623,#731,.T.);
#452=EDGE_CURVE('',#625,#624,#732,.T.);
#453=EDGE_CURVE('',#625,#626,#733,.T.);
#454=EDGE_CURVE('',#626,#627,#734,.T.);
#455=EDGE_CURVE('',#627,#618,#735,.F.);
#456=EDGE_CURVE('',#628,#629,#736,.T.);
#457=EDGE_CURVE('',#628,#630,#737,.F.);
#458=EDGE_CURVE('',#630,#631,#738,.T.);
#459=EDGE_CURVE('',#631,#629,#739,.T.);
#460=EDGE_CURVE('',#632,#633,#740,.T.);
#461=EDGE_CURVE('',#632,#634,#741,.T.);
#462=EDGE_CURVE('',#634,#635,#742,.T.);
#463=EDGE_CURVE('',#635,#636,#743,.T.);
#464=EDGE_CURVE('',#636,#637,#744,.F.);
#465=EDGE_CURVE('',#637,#638,#745,.F.);
#466=EDGE_CURVE('',#638,#639,#746,.T.);
#467=EDGE_CURVE('',#640,#639,#747,.T.);
#468=EDGE_CURVE('',#640,#641,#748,.T.);
#469=EDGE_CURVE('',#641,#633,#749,.T.);
#470=EDGE_CURVE('',#642,#643,#750,.T.);
#471=EDGE_CURVE('',#643,#644,#751,.T.);
#472=EDGE_CURVE('',#645,#644,#752,.T.);
#473=EDGE_CURVE('',#642,#645,#753,.T.);
#474=EDGE_CURVE('',#646,#647,#754,.T.);
#475=EDGE_CURVE('',#646,#648,#755,.T.);
#476=EDGE_CURVE('',#649,#648,#756,.T.);
#477=EDGE_CURVE('',#649,#647,#757,.F.);
#478=EDGE_CURVE('',#650,#651,#50,.F.);
#479=EDGE_CURVE('',#651,#652,#758,.F.);
#480=EDGE_CURVE('',#653,#652,#759,.T.);
#481=EDGE_CURVE('',#653,#654,#760,.T.);
#482=EDGE_CURVE('',#654,#655,#761,.T.);
#483=EDGE_CURVE('',#655,#656,#762,.T.);
#484=EDGE_CURVE('',#656,#657,#51,.F.);
#485=EDGE_CURVE('',#657,#658,#763,.T.);
#486=EDGE_CURVE('',#658,#659,#52,.F.);
#487=EDGE_CURVE('',#659,#660,#764,.F.);
#488=EDGE_CURVE('',#660,#661,#765,.T.);
#489=EDGE_CURVE('',#661,#662,#766,.T.);
#490=EDGE_CURVE('',#662,#663,#767,.T.);
#491=EDGE_CURVE('',#663,#664,#768,.T.);
#492=EDGE_CURVE('',#664,#665,#53,.F.);
#493=EDGE_CURVE('',#665,#650,#769,.T.);
#494=EDGE_CURVE('',#666,#667,#770,.T.);
#495=EDGE_CURVE('',#666,#668,#771,.F.);
#496=EDGE_CURVE('',#669,#668,#772,.T.);
#497=EDGE_CURVE('',#669,#667,#773,.T.);
#498=EDGE_CURVE('',#670,#671,#774,.T.);
#499=EDGE_CURVE('',#671,#640,#54,.T.);
#500=EDGE_CURVE('',#672,#640,#775,.T.);
#501=EDGE_CURVE('',#645,#672,#776,.T.);
#502=EDGE_CURVE('',#644,#649,#55,.F.);
#503=EDGE_CURVE('',#648,#673,#56,.F.);
#504=EDGE_CURVE('',#673,#674,#777,.T.);
#505=EDGE_CURVE('',#674,#669,#778,.T.);
#506=EDGE_CURVE('',#668,#670,#57,.T.);
#507=EDGE_CURVE('',#675,#676,#779,.T.);
#508=EDGE_CURVE('',#676,#677,#58,.T.);
#509=EDGE_CURVE('',#677,#678,#780,.T.);
#510=EDGE_CURVE('',#678,#622,#59,.T.);
#511=EDGE_CURVE('',#622,#679,#781,.T.);
#512=EDGE_CURVE('',#631,#679,#782,.T.);
#513=EDGE_CURVE('',#630,#680,#60,.F.);
#514=EDGE_CURVE('',#680,#681,#783,.T.);
#515=EDGE_CURVE('',#681,#682,#61,.F.);
#516=EDGE_CURVE('',#682,#683,#784,.T.);
#517=EDGE_CURVE('',#683,#675,#785,.T.);
#518=EDGE_CURVE('',#684,#685,#786,.T.);
#519=EDGE_CURVE('',#684,#671,#787,.F.);
#520=EDGE_CURVE('',#670,#685,#788,.T.);
#521=EDGE_CURVE('',#686,#687,#789,.T.);
#522=EDGE_CURVE('',#687,#688,#62,.T.);
#523=EDGE_CURVE('',#688,#689,#790,.F.);
#524=EDGE_CURVE('',#689,#690,#63,.T.);
#525=EDGE_CURVE('',#690,#691,#791,.T.);
#526=EDGE_CURVE('',#691,#692,#64,.T.);
#527=EDGE_CURVE('',#692,#693,#792,.T.);
#528=EDGE_CURVE('',#693,#686,#65,.T.);
#529=EDGE_CURVE('',#677,#694,#793,.T.);
#530=EDGE_CURVE('',#695,#694,#794,.T.);
#531=EDGE_CURVE('',#695,#678,#795,.T.);
#532=EDGE_CURVE('',#696,#697,#796,.T.);
#533=EDGE_CURVE('',#696,#676,#797,.F.);
#534=EDGE_CURVE('',#675,#697,#798,.T.);
#535=EDGE_CURVE('',#698,#699,#799,.F.);
#536=EDGE_CURVE('',#699,#700,#800,.F.);
#537=EDGE_CURVE('',#700,#701,#801,.T.);
#538=EDGE_CURVE('',#701,#698,#802,.F.);
#539=EDGE_CURVE('',#702,#703,#803,.F.);
#540=EDGE_CURVE('',#703,#704,#804,.F.);
#541=EDGE_CURVE('',#704,#705,#805,.T.);
#542=EDGE_CURVE('',#705,#702,#806,.F.);
#543=EDGE_CURVE('',#694,#696,#66,.T.);
#544=EDGE_CURVE('',#706,#697,#807,.T.);
#545=EDGE_CURVE('',#706,#707,#808,.T.);
#546=EDGE_CURVE('',#707,#708,#67,.F.);
#547=EDGE_CURVE('',#708,#709,#809,.T.);
#548=EDGE_CURVE('',#709,#628,#68,.F.);
#549=EDGE_CURVE('',#629,#710,#810,.T.);
#550=EDGE_CURVE('',#623,#710,#811,.T.);
#551=EDGE_CURVE('',#623,#695,#69,.T.);
#552=EDGE_CURVE('',#711,#641,#812,.T.);
#553=EDGE_CURVE('',#641,#684,#70,.T.);
#554=EDGE_CURVE('',#685,#666,#71,.T.);
#555=EDGE_CURVE('',#712,#667,#813,.T.);
#556=EDGE_CURVE('',#712,#713,#814,.T.);
#557=EDGE_CURVE('',#713,#646,#72,.F.);
#558=EDGE_CURVE('',#647,#643,#73,.F.);
#559=EDGE_CURVE('',#642,#711,#815,.T.);
#560=EDGE_CURVE('',#683,#706,#816,.T.);
#561=EDGE_CURVE('',#712,#674,#817,.T.);
#562=EDGE_CURVE('',#652,#632,#74,.T.);
#563=EDGE_CURVE('',#633,#714,#818,.T.);
#564=EDGE_CURVE('',#714,#715,#819,.T.);
#565=EDGE_CURVE('',#715,#716,#820,.T.);
#566=EDGE_CURVE('',#716,#653,#821,.T.);
#567=EDGE_CURVE('',#716,#717,#822,.T.);
#568=EDGE_CURVE('',#717,#654,#823,.T.);
#569=EDGE_CURVE('',#638,#655,#75,.F.);
#570=EDGE_CURVE('',#718,#717,#824,.T.);
#571=EDGE_CURVE('',#719,#718,#825,.T.);
#572=EDGE_CURVE('',#639,#719,#826,.T.);
#573=EDGE_CURVE('',#719,#672,#827,.T.);
#574=EDGE_CURVE('',#715,#718,#828,.T.);
#575=EDGE_CURVE('',#714,#711,#829,.T.);
#576=EDGE_CURVE('',#673,#713,#830,.F.);
#577=EDGE_CURVE('',#620,#663,#76,.F.);
#578=EDGE_CURVE('',#662,#720,#831,.T.);
#579=EDGE_CURVE('',#720,#721,#832,.T.);
#580=EDGE_CURVE('',#721,#722,#833,.T.);
#581=EDGE_CURVE('',#722,#621,#834,.T.);
#582=EDGE_CURVE('',#661,#723,#835,.T.);
#583=EDGE_CURVE('',#720,#723,#836,.T.);
#584=EDGE_CURVE('',#660,#625,#77,.T.);
#585=EDGE_CURVE('',#724,#624,#837,.T.);
#586=EDGE_CURVE('',#725,#724,#838,.T.);
#587=EDGE_CURVE('',#723,#725,#839,.T.);
#588=EDGE_CURVE('',#721,#725,#840,.T.);
#589=EDGE_CURVE('',#679,#722,#841,.T.);
#590=EDGE_CURVE('',#710,#724,#842,.T.);
#591=EDGE_CURVE('',#680,#709,#843,.T.);
#592=EDGE_CURVE('',#708,#681,#844,.F.);
#593=EDGE_CURVE('',#682,#707,#845,.T.);
#594=EDGE_CURVE('',#634,#699,#78,.T.);
#595=EDGE_CURVE('',#698,#635,#79,.F.);
#596=EDGE_CURVE('',#626,#703,#80,.T.);
#597=EDGE_CURVE('',#702,#627,#81,.F.);
#598=EDGE_CURVE('',#700,#619,#82,.T.);
#599=EDGE_CURVE('',#618,#701,#83,.F.);
#600=EDGE_CURVE('',#704,#637,#84,.T.);
#601=EDGE_CURVE('',#636,#705,#85,.F.);
#602=EDGE_CURVE('',#701,#691,#86,.T.);
#603=EDGE_CURVE('',#692,#618,#87,.T.);
#604=EDGE_CURVE('',#693,#627,#88,.F.);
#605=EDGE_CURVE('',#698,#690,#89,.F.);
#606=EDGE_CURVE('',#686,#702,#90,.T.);
#607=EDGE_CURVE('',#635,#689,#91,.F.);
#608=EDGE_CURVE('',#687,#705,#92,.F.);
#609=EDGE_CURVE('',#636,#688,#93,.F.);
#610=EDGE_CURVE('',#656,#637,#94,.T.);
#611=EDGE_CURVE('',#657,#704,#95,.F.);
#612=EDGE_CURVE('',#658,#703,#96,.T.);
#613=EDGE_CURVE('',#659,#626,#97,.F.);
#614=EDGE_CURVE('',#664,#619,#98,.T.);
#615=EDGE_CURVE('',#665,#700,#99,.F.);
#616=EDGE_CURVE('',#650,#699,#100,.T.);
#617=EDGE_CURVE('',#651,#634,#101,.F.);
#618=VERTEX_POINT('',#1692);
#619=VERTEX_POINT('',#1693);
#620=VERTEX_POINT('',#1695);
#621=VERTEX_POINT('',#1697);
#622=VERTEX_POINT('',#1699);
#623=VERTEX_POINT('',#1701);
#624=VERTEX_POINT('',#1703);
#625=VERTEX_POINT('',#1705);
#626=VERTEX_POINT('',#1707);
#627=VERTEX_POINT('',#1709);
#628=VERTEX_POINT('',#1713);
#629=VERTEX_POINT('',#1714);
#630=VERTEX_POINT('',#1716);
#631=VERTEX_POINT('',#1718);
#632=VERTEX_POINT('',#1722);
#633=VERTEX_POINT('',#1723);
#634=VERTEX_POINT('',#1725);
#635=VERTEX_POINT('',#1727);
#636=VERTEX_POINT('',#1729);
#637=VERTEX_POINT('',#1731);
#638=VERTEX_POINT('',#1733);
#639=VERTEX_POINT('',#1735);
#640=VERTEX_POINT('',#1737);
#641=VERTEX_POINT('',#1739);
#642=VERTEX_POINT('',#1743);
#643=VERTEX_POINT('',#1744);
#644=VERTEX_POINT('',#1746);
#645=VERTEX_POINT('',#1748);
#646=VERTEX_POINT('',#1752);
#647=VERTEX_POINT('',#1753);
#648=VERTEX_POINT('',#1755);
#649=VERTEX_POINT('',#1757);
#650=VERTEX_POINT('',#1761);
#651=VERTEX_POINT('',#1762);
#652=VERTEX_POINT('',#1764);
#653=VERTEX_POINT('',#1766);
#654=VERTEX_POINT('',#1768);
#655=VERTEX_POINT('',#1770);
#656=VERTEX_POINT('',#1772);
#657=VERTEX_POINT('',#1774);
#658=VERTEX_POINT('',#1776);
#659=VERTEX_POINT('',#1778);
#660=VERTEX_POINT('',#1780);
#661=VERTEX_POINT('',#1782);
#662=VERTEX_POINT('',#1784);
#663=VERTEX_POINT('',#1786);
#664=VERTEX_POINT('',#1788);
#665=VERTEX_POINT('',#1790);
#666=VERTEX_POINT('',#1794);
#667=VERTEX_POINT('',#1795);
#668=VERTEX_POINT('',#1797);
#669=VERTEX_POINT('',#1799);
#670=VERTEX_POINT('',#1803);
#671=VERTEX_POINT('',#1804);
#672=VERTEX_POINT('',#1807);
#673=VERTEX_POINT('',#1811);
#674=VERTEX_POINT('',#1813);
#675=VERTEX_POINT('',#1818);
#676=VERTEX_POINT('',#1819);
#677=VERTEX_POINT('',#1821);
#678=VERTEX_POINT('',#1823);
#679=VERTEX_POINT('',#1826);
#680=VERTEX_POINT('',#1829);
#681=VERTEX_POINT('',#1831);
#682=VERTEX_POINT('',#1833);
#683=VERTEX_POINT('',#1835);
#684=VERTEX_POINT('',#1839);
#685=VERTEX_POINT('',#1840);
#686=VERTEX_POINT('',#1845);
#687=VERTEX_POINT('',#1846);
#688=VERTEX_POINT('',#1848);
#689=VERTEX_POINT('',#1850);
#690=VERTEX_POINT('',#1852);
#691=VERTEX_POINT('',#1854);
#692=VERTEX_POINT('',#1856);
#693=VERTEX_POINT('',#1858);
#694=VERTEX_POINT('',#1862);
#695=VERTEX_POINT('',#1864);
#696=VERTEX_POINT('',#1868);
#697=VERTEX_POINT('',#1869);
#698=VERTEX_POINT('',#1874);
#699=VERTEX_POINT('',#1875);
#700=VERTEX_POINT('',#1877);
#701=VERTEX_POINT('',#1879);
#702=VERTEX_POINT('',#1883);
#703=VERTEX_POINT('',#1884);
#704=VERTEX_POINT('',#1886);
#705=VERTEX_POINT('',#1888);
#706=VERTEX_POINT('',#1893);
#707=VERTEX_POINT('',#1895);
#708=VERTEX_POINT('',#1897);
#709=VERTEX_POINT('',#1899);
#710=VERTEX_POINT('',#1902);
#711=VERTEX_POINT('',#1907);
#712=VERTEX_POINT('',#1911);
#713=VERTEX_POINT('',#1913);
#714=VERTEX_POINT('',#1924);
#715=VERTEX_POINT('',#1926);
#716=VERTEX_POINT('',#1928);
#717=VERTEX_POINT('',#1932);
#718=VERTEX_POINT('',#1937);
#719=VERTEX_POINT('',#1939);
#720=VERTEX_POINT('',#1951);
#721=VERTEX_POINT('',#1953);
#722=VERTEX_POINT('',#1955);
#723=VERTEX_POINT('',#1959);
#724=VERTEX_POINT('',#1964);
#725=VERTEX_POINT('',#1966);
#726=LINE('',#1691,#846);
#727=LINE('',#1694,#847);
#728=LINE('',#1696,#848);
#729=LINE('',#1698,#849);
#730=LINE('',#1700,#850);
#731=LINE('',#1702,#851);
#732=LINE('',#1704,#852);
#733=LINE('',#1706,#853);
#734=LINE('',#1708,#854);
#735=LINE('',#1710,#855);
#736=LINE('',#1712,#856);
#737=LINE('',#1715,#857);
#738=LINE('',#1717,#858);
#739=LINE('',#1719,#859);
#740=LINE('',#1721,#860);
#741=LINE('',#1724,#861);
#742=LINE('',#1726,#862);
#743=LINE('',#1728,#863);
#744=LINE('',#1730,#864);
#745=LINE('',#1732,#865);
#746=LINE('',#1734,#866);
#747=LINE('',#1736,#867);
#748=LINE('',#1738,#868);
#749=LINE('',#1740,#869);
#750=LINE('',#1742,#870);
#751=LINE('',#1745,#871);
#752=LINE('',#1747,#872);
#753=LINE('',#1749,#873);
#754=LINE('',#1751,#874);
#755=LINE('',#1754,#875);
#756=LINE('',#1756,#876);
#757=LINE('',#1758,#877);
#758=LINE('',#1763,#878);
#759=LINE('',#1765,#879);
#760=LINE('',#1767,#880);
#761=LINE('',#1769,#881);
#762=LINE('',#1771,#882);
#763=LINE('',#1775,#883);
#764=LINE('',#1779,#884);
#765=LINE('',#1781,#885);
#766=LINE('',#1783,#886);
#767=LINE('',#1785,#887);
#768=LINE('',#1787,#888);
#769=LINE('',#1791,#889);
#770=LINE('',#1793,#890);
#771=LINE('',#1796,#891);
#772=LINE('',#1798,#892);
#773=LINE('',#1800,#893);
#774=LINE('',#1802,#894);
#775=LINE('',#1806,#895);
#776=LINE('',#1808,#896);
#777=LINE('',#1812,#897);
#778=LINE('',#1814,#898);
#779=LINE('',#1817,#899);
#780=LINE('',#1822,#900);
#781=LINE('',#1825,#901);
#782=LINE('',#1827,#902);
#783=LINE('',#1830,#903);
#784=LINE('',#1834,#904);
#785=LINE('',#1836,#905);
#786=LINE('',#1838,#906);
#787=LINE('',#1841,#907);
#788=LINE('',#1842,#908);
#789=LINE('',#1844,#909);
#790=LINE('',#1849,#910);
#791=LINE('',#1853,#911);
#792=LINE('',#1857,#912);
#793=LINE('',#1861,#913);
#794=LINE('',#1863,#914);
#795=LINE('',#1865,#915);
#796=LINE('',#1867,#916);
#797=LINE('',#1870,#917);
#798=LINE('',#1871,#918);
#799=LINE('',#1873,#919);
#800=LINE('',#1876,#920);
#801=LINE('',#1878,#921);
#802=LINE('',#1880,#922);
#803=LINE('',#1882,#923);
#804=LINE('',#1885,#924);
#805=LINE('',#1887,#925);
#806=LINE('',#1889,#926);
#807=LINE('',#1892,#927);
#808=LINE('',#1894,#928);
#809=LINE('',#1898,#929);
#810=LINE('',#1901,#930);
#811=LINE('',#1903,#931);
#812=LINE('',#1906,#932);
#813=LINE('',#1910,#933);
#814=LINE('',#1912,#934);
#815=LINE('',#1916,#935);
#816=LINE('',#1918,#936);
#817=LINE('',#1920,#937);
#818=LINE('',#1923,#938);
#819=LINE('',#1925,#939);
#820=LINE('',#1927,#940);
#821=LINE('',#1929,#941);
#822=LINE('',#1931,#942);
#823=LINE('',#1933,#943);
#824=LINE('',#1936,#944);
#825=LINE('',#1938,#945);
#826=LINE('',#1940,#946);
#827=LINE('',#1942,#947);
#828=LINE('',#1943,#948);
#829=LINE('',#1944,#949);
#830=LINE('',#1947,#950);
#831=LINE('',#1950,#951);
#832=LINE('',#1952,#952);
#833=LINE('',#1954,#953);
#834=LINE('',#1956,#954);
#835=LINE('',#1958,#955);
#836=LINE('',#1960,#956);
#837=LINE('',#1963,#957);
#838=LINE('',#1965,#958);
#839=LINE('',#1967,#959);
#840=LINE('',#1969,#960);
#841=LINE('',#1971,#961);
#842=LINE('',#1972,#962);
#843=LINE('',#1974,#963);
#844=LINE('',#1975,#964);
#845=LINE('',#1977,#965);
#846=VECTOR('',#1335,1000.);
#847=VECTOR('',#1336,1000.);
#848=VECTOR('',#1337,1000.);
#849=VECTOR('',#1338,1000.);
#850=VECTOR('',#1339,1000.);
#851=VECTOR('',#1340,1000.);
#852=VECTOR('',#1341,1000.);
#853=VECTOR('',#1342,1000.);
#854=VECTOR('',#1343,1000.);
#855=VECTOR('',#1344,1000.);
#856=VECTOR('',#1347,1000.);
#857=VECTOR('',#1348,1000.);
#858=VECTOR('',#1349,1000.);
#859=VECTOR('',#1350,1000.);
#860=VECTOR('',#1353,1000.);
#861=VECTOR('',#1354,1000.);
#862=VECTOR('',#1355,1000.);
#863=VECTOR('',#1356,1000.);
#864=VECTOR('',#1357,1000.);
#865=VECTOR('',#1358,1000.);
#866=VECTOR('',#1359,1000.);
#867=VECTOR('',#1360,1000.);
#868=VECTOR('',#1361,1000.);
#869=VECTOR('',#1362,1000.);
#870=VECTOR('',#1365,1000.);
#871=VECTOR('',#1366,1000.);
#872=VECTOR('',#1367,1000.);
#873=VECTOR('',#1368,1000.);
#874=VECTOR('',#1371,1000.);
#875=VECTOR('',#1372,1000.);
#876=VECTOR('',#1373,1000.);
#877=VECTOR('',#1374,1000.);
#878=VECTOR('',#1379,1000.);
#879=VECTOR('',#1380,1000.);
#880=VECTOR('',#1381,1000.);
#881=VECTOR('',#1382,1000.);
#882=VECTOR('',#1383,1000.);
#883=VECTOR('',#1386,1000.);
#884=VECTOR('',#1389,1000.);
#885=VECTOR('',#1390,1000.);
#886=VECTOR('',#1391,1000.);
#887=VECTOR('',#1392,1000.);
#888=VECTOR('',#1393,1000.);
#889=VECTOR('',#1396,1000.);
#890=VECTOR('',#1399,1000.);
#891=VECTOR('',#1400,1000.);
#892=VECTOR('',#1401,1000.);
#893=VECTOR('',#1402,1000.);
#894=VECTOR('',#1405,1000.);
#895=VECTOR('',#1408,1000.);
#896=VECTOR('',#1409,1000.);
#897=VECTOR('',#1414,1000.);
#898=VECTOR('',#1415,1000.);
#899=VECTOR('',#1420,1000.);
#900=VECTOR('',#1423,1000.);
#901=VECTOR('',#1426,1000.);
#902=VECTOR('',#1427,1000.);
#903=VECTOR('',#1430,1000.);
#904=VECTOR('',#1433,1000.);
#905=VECTOR('',#1434,1000.);
#906=VECTOR('',#1437,1000.);
#907=VECTOR('',#1438,1000.);
#908=VECTOR('',#1439,1000.);
#909=VECTOR('',#1442,1000.);
#910=VECTOR('',#1445,1000.);
#911=VECTOR('',#1448,1000.);
#912=VECTOR('',#1451,1000.);
#913=VECTOR('',#1456,1000.);
#914=VECTOR('',#1457,1000.);
#915=VECTOR('',#1458,1000.);
#916=VECTOR('',#1461,1000.);
#917=VECTOR('',#1462,1000.);
#918=VECTOR('',#1463,1000.);
#919=VECTOR('',#1466,1000.);
#920=VECTOR('',#1467,1000.);
#921=VECTOR('',#1468,1000.);
#922=VECTOR('',#1469,1000.);
#923=VECTOR('',#1472,1000.);
#924=VECTOR('',#1473,1000.);
#925=VECTOR('',#1474,1000.);
#926=VECTOR('',#1475,1000.);
#927=VECTOR('',#1480,1000.);
#928=VECTOR('',#1481,1000.);
#929=VECTOR('',#1484,1000.);
#930=VECTOR('',#1487,1000.);
#931=VECTOR('',#1488,1000.);
#932=VECTOR('',#1493,1000.);
#933=VECTOR('',#1498,1000.);
#934=VECTOR('',#1499,1000.);
#935=VECTOR('',#1504,1000.);
#936=VECTOR('',#1507,1000.);
#937=VECTOR('',#1510,1000.);
#938=VECTOR('',#1515,1000.);
#939=VECTOR('',#1516,1000.);
#940=VECTOR('',#1517,1000.);
#941=VECTOR('',#1518,1000.);
#942=VECTOR('',#1521,1000.);
#943=VECTOR('',#1522,1000.);
#944=VECTOR('',#1527,1000.);
#945=VECTOR('',#1528,1000.);
#946=VECTOR('',#1529,1000.);
#947=VECTOR('',#1532,1000.);
#948=VECTOR('',#1533,1000.);
#949=VECTOR('',#1534,1000.);
#950=VECTOR('',#1539,1000.);
#951=VECTOR('',#1544,1000.);
#952=VECTOR('',#1545,1000.);
#953=VECTOR('',#1546,1000.);
#954=VECTOR('',#1547,1000.);
#955=VECTOR('',#1550,1000.);
#956=VECTOR('',#1551,1000.);
#957=VECTOR('',#1556,1000.);
#958=VECTOR('',#1557,1000.);
#959=VECTOR('',#1558,1000.);
#960=VECTOR('',#1561,1000.);
#961=VECTOR('',#1564,1000.);
#962=VECTOR('',#1565,1000.);
#963=VECTOR('',#1568,1000.);
#964=VECTOR('',#1569,1000.);
#965=VECTOR('',#1572,1000.);
#966=EDGE_LOOP('',(#102,#103,#104,#105,#106,#107,#108,#109,#110,#111));
#967=EDGE_LOOP('',(#112,#113,#114,#115));
#968=EDGE_LOOP('',(#116,#117,#118,#119,#120,#121,#122,#123,#124,#125));
#969=EDGE_LOOP('',(#126,#127,#128,#129));
#970=EDGE_LOOP('',(#130,#131,#132,#133));
#971=EDGE_LOOP('',(#134,#135,#136,#137,#138,#139,#140,#141,#142,#143,#144,
#145,#146,#147,#148,#149));
#972=EDGE_LOOP('',(#150,#151,#152,#153));
#973=EDGE_LOOP('',(#154,#155,#156,#157,#158,#159,#160,#161,#162,#163,#164,
#165));
#974=EDGE_LOOP('',(#166,#167,#168,#169,#170,#171,#172,#173,#174,#175,#176,
#177));
#975=EDGE_LOOP('',(#178,#179,#180,#181));
#976=EDGE_LOOP('',(#182,#183,#184,#185,#186,#187,#188,#189));
#977=EDGE_LOOP('',(#190,#191,#192,#193));
#978=EDGE_LOOP('',(#194,#195,#196,#197));
#979=EDGE_LOOP('',(#198,#199,#200,#201));
#980=EDGE_LOOP('',(#202,#203,#204,#205));
#981=EDGE_LOOP('',(#206,#207,#208,#209,#210,#211,#212,#213,#214,#215,#216,
#217));
#982=EDGE_LOOP('',(#218,#219,#220,#221,#222,#223,#224,#225,#226,#227,#228,
#229));
#983=EDGE_LOOP('',(#230,#231,#232,#233));
#984=EDGE_LOOP('',(#234,#235,#236,#237));
#985=EDGE_LOOP('',(#238,#239,#240,#241,#242,#243,#244));
#986=EDGE_LOOP('',(#245,#246,#247,#248));
#987=EDGE_LOOP('',(#249,#250,#251,#252,#253,#254,#255));
#988=EDGE_LOOP('',(#256,#257,#258,#259,#260,#261,#262,#263));
#989=EDGE_LOOP('',(#264,#265,#266,#267));
#990=EDGE_LOOP('',(#268,#269,#270,#271));
#991=EDGE_LOOP('',(#272,#273,#274,#275,#276,#277,#278));
#992=EDGE_LOOP('',(#279,#280,#281,#282));
#993=EDGE_LOOP('',(#283,#284,#285,#286,#287,#288,#289));
#994=EDGE_LOOP('',(#290,#291,#292,#293));
#995=EDGE_LOOP('',(#294,#295,#296,#297,#298,#299,#300,#301));
#996=EDGE_LOOP('',(#302,#303,#304,#305));
#997=EDGE_LOOP('',(#306,#307,#308,#309));
#998=EDGE_LOOP('',(#310,#311,#312,#313));
#999=EDGE_LOOP('',(#314,#315,#316,#317));
#1000=EDGE_LOOP('',(#318,#319,#320,#321));
#1001=EDGE_LOOP('',(#322,#323,#324,#325));
#1002=EDGE_LOOP('',(#326,#327,#328,#329));
#1003=EDGE_LOOP('',(#330,#331,#332,#333));
#1004=EDGE_LOOP('',(#334,#335,#336,#337));
#1005=EDGE_LOOP('',(#338,#339,#340,#341));
#1006=EDGE_LOOP('',(#342,#343,#344,#345));
#1007=EDGE_LOOP('',(#346,#347,#348,#349));
#1008=EDGE_LOOP('',(#350,#351,#352,#353));
#1009=EDGE_LOOP('',(#354,#355,#356,#357));
#1010=EDGE_LOOP('',(#358,#359,#360,#361));
#1011=EDGE_LOOP('',(#362,#363,#364,#365));
#1012=EDGE_LOOP('',(#366,#367,#368,#369));
#1013=EDGE_LOOP('',(#370,#371,#372,#373));
#1014=EDGE_LOOP('',(#374,#375,#376,#377));
#1015=EDGE_LOOP('',(#378,#379,#380,#381));
#1016=EDGE_LOOP('',(#382,#383,#384,#385));
#1017=EDGE_LOOP('',(#386,#387,#388,#389));
#1018=EDGE_LOOP('',(#390,#391,#392,#393));
#1019=EDGE_LOOP('',(#394,#395,#396,#397));
#1020=EDGE_LOOP('',(#398,#399,#400,#401));
#1021=EDGE_LOOP('',(#402,#403,#404,#405));
#1022=EDGE_LOOP('',(#406,#407,#408,#409));
#1023=EDGE_LOOP('',(#410,#411,#412,#413));
#1024=EDGE_LOOP('',(#414,#415,#416,#417));
#1025=EDGE_LOOP('',(#418,#419,#420,#421));
#1026=EDGE_LOOP('',(#422,#423,#424,#425));
#1027=EDGE_LOOP('',(#426,#427,#428,#429));
#1028=EDGE_LOOP('',(#430,#431,#432,#433));
#1029=EDGE_LOOP('',(#434,#435,#436,#437));
#1030=EDGE_LOOP('',(#438,#439,#440,#441));
#1031=EDGE_LOOP('',(#442,#443,#444,#445));
#1032=FACE_BOUND('',#966,.T.);
#1033=FACE_BOUND('',#967,.T.);
#1034=FACE_BOUND('',#968,.T.);
#1035=FACE_BOUND('',#969,.T.);
#1036=FACE_BOUND('',#970,.T.);
#1037=FACE_BOUND('',#971,.T.);
#1038=FACE_BOUND('',#972,.T.);
#1039=FACE_BOUND('',#973,.T.);
#1040=FACE_BOUND('',#974,.T.);
#1041=FACE_BOUND('',#975,.T.);
#1042=FACE_BOUND('',#976,.T.);
#1043=FACE_BOUND('',#977,.T.);
#1044=FACE_BOUND('',#978,.T.);
#1045=FACE_BOUND('',#979,.T.);
#1046=FACE_BOUND('',#980,.T.);
#1047=FACE_BOUND('',#981,.T.);
#1048=FACE_BOUND('',#982,.T.);
#1049=FACE_BOUND('',#983,.T.);
#1050=FACE_BOUND('',#984,.T.);
#1051=FACE_BOUND('',#985,.T.);
#1052=FACE_BOUND('',#986,.T.);
#1053=FACE_BOUND('',#987,.T.);
#1054=FACE_BOUND('',#988,.T.);
#1055=FACE_BOUND('',#989,.T.);
#1056=FACE_BOUND('',#990,.T.);
#1057=FACE_BOUND('',#991,.T.);
#1058=FACE_BOUND('',#992,.T.);
#1059=FACE_BOUND('',#993,.T.);
#1060=FACE_BOUND('',#994,.T.);
#1061=FACE_BOUND('',#995,.T.);
#1062=FACE_BOUND('',#996,.T.);
#1063=FACE_BOUND('',#997,.T.);
#1064=FACE_BOUND('',#998,.T.);
#1065=FACE_BOUND('',#999,.T.);
#1066=FACE_BOUND('',#1000,.T.);
#1067=FACE_BOUND('',#1001,.T.);
#1068=FACE_BOUND('',#1002,.T.);
#1069=FACE_BOUND('',#1003,.T.);
#1070=FACE_BOUND('',#1004,.T.);
#1071=FACE_BOUND('',#1005,.T.);
#1072=FACE_BOUND('',#1006,.T.);
#1073=FACE_BOUND('',#1007,.T.);
#1074=FACE_BOUND('',#1008,.T.);
#1075=FACE_BOUND('',#1009,.T.);
#1076=FACE_BOUND('',#1010,.T.);
#1077=FACE_BOUND('',#1011,.T.);
#1078=FACE_BOUND('',#1012,.T.);
#1079=FACE_BOUND('',#1013,.T.);
#1080=FACE_BOUND('',#1014,.T.);
#1081=FACE_BOUND('',#1015,.T.);
#1082=FACE_BOUND('',#1016,.T.);
#1083=FACE_BOUND('',#1017,.T.);
#1084=FACE_BOUND('',#1018,.T.);
#1085=FACE_BOUND('',#1019,.T.);
#1086=FACE_BOUND('',#1020,.T.);
#1087=FACE_BOUND('',#1021,.T.);
#1088=FACE_BOUND('',#1022,.T.);
#1089=FACE_BOUND('',#1023,.T.);
#1090=FACE_BOUND('',#1024,.T.);
#1091=FACE_BOUND('',#1025,.T.);
#1092=FACE_BOUND('',#1026,.T.);
#1093=FACE_BOUND('',#1027,.T.);
#1094=FACE_BOUND('',#1028,.T.);
#1095=FACE_BOUND('',#1029,.T.);
#1096=FACE_BOUND('',#1030,.T.);
#1097=FACE_BOUND('',#1031,.T.);
#1098=PLANE('',#1213);
#1099=PLANE('',#1214);
#1100=PLANE('',#1215);
#1101=PLANE('',#1216);
#1102=PLANE('',#1217);
#1103=PLANE('',#1218);
#1104=PLANE('',#1223);
#1105=PLANE('',#1224);
#1106=PLANE('',#1229);
#1107=PLANE('',#1234);
#1108=PLANE('',#1235);
#1109=PLANE('',#1240);
#1110=PLANE('',#1241);
#1111=PLANE('',#1242);
#1112=PLANE('',#1243);
#1113=PLANE('',#1244);
#1114=PLANE('',#1249);
#1115=PLANE('',#1254);
#1116=PLANE('',#1255);
#1117=PLANE('',#1256);
#1118=PLANE('',#1258);
#1119=PLANE('',#1259);
#1120=PLANE('',#1261);
#1121=PLANE('',#1262);
#1122=PLANE('',#1263);
#1123=PLANE('',#1264);
#1124=PLANE('',#1266);
#1125=PLANE('',#1267);
#1126=PLANE('',#1269);
#1127=PLANE('',#1270);
#1128=PLANE('',#1271);
#1129=PLANE('',#1272);
#1130=PLANE('',#1273);
#1131=PLANE('',#1274);
#1132=PLANE('',#1275);
#1133=PLANE('',#1276);
#1134=ADVANCED_FACE('',(#1032),#1098,.F.);
#1135=ADVANCED_FACE('',(#1033),#1099,.F.);
#1136=ADVANCED_FACE('',(#1034),#1100,.F.);
#1137=ADVANCED_FACE('',(#1035),#1101,.F.);
#1138=ADVANCED_FACE('',(#1036),#1102,.F.);
#1139=ADVANCED_FACE('',(#1037),#1103,.F.);
#1140=ADVANCED_FACE('',(#1038),#1104,.F.);
#1141=ADVANCED_FACE('',(#1039),#1105,.T.);
#1142=ADVANCED_FACE('',(#1040),#1106,.T.);
#1143=ADVANCED_FACE('',(#1041),#1107,.F.);
#1144=ADVANCED_FACE('',(#1042),#1108,.T.);
#1145=ADVANCED_FACE('',(#1043),#1109,.F.);
#1146=ADVANCED_FACE('',(#1044),#1110,.F.);
#1147=ADVANCED_FACE('',(#1045),#1111,.F.);
#1148=ADVANCED_FACE('',(#1046),#1112,.F.);
#1149=ADVANCED_FACE('',(#1047),#1113,.T.);
#1150=ADVANCED_FACE('',(#1048),#1114,.T.);
#1151=ADVANCED_FACE('',(#1049),#1115,.T.);
#1152=ADVANCED_FACE('',(#1050),#1116,.T.);
#1153=ADVANCED_FACE('',(#1051),#1117,.T.);
#1154=ADVANCED_FACE('',(#1052),#1118,.F.);
#1155=ADVANCED_FACE('',(#1053),#1119,.F.);
#1156=ADVANCED_FACE('',(#1054),#1120,.F.);
#1157=ADVANCED_FACE('',(#1055),#1121,.F.);
#1158=ADVANCED_FACE('',(#1056),#1122,.F.);
#1159=ADVANCED_FACE('',(#1057),#1123,.F.);
#1160=ADVANCED_FACE('',(#1058),#1124,.F.);
#1161=ADVANCED_FACE('',(#1059),#1125,.T.);
#1162=ADVANCED_FACE('',(#1060),#1126,.F.);
#1163=ADVANCED_FACE('',(#1061),#1127,.F.);
#1164=ADVANCED_FACE('',(#1062),#1128,.F.);
#1165=ADVANCED_FACE('',(#1063),#1129,.F.);
#1166=ADVANCED_FACE('',(#1064),#1130,.T.);
#1167=ADVANCED_FACE('',(#1065),#1131,.F.);
#1168=ADVANCED_FACE('',(#1066),#1132,.T.);
#1169=ADVANCED_FACE('',(#1067),#1133,.F.);
#1170=ADVANCED_FACE('',(#1068),#28,.T.);
#1171=ADVANCED_FACE('',(#1069),#29,.T.);
#1172=ADVANCED_FACE('',(#1070),#30,.T.);
#1173=ADVANCED_FACE('',(#1071),#31,.T.);
#1174=ADVANCED_FACE('',(#1072),#32,.F.);
#1175=ADVANCED_FACE('',(#1073),#33,.F.);
#1176=ADVANCED_FACE('',(#1074),#34,.F.);
#1177=ADVANCED_FACE('',(#1075),#35,.F.);
#1178=ADVANCED_FACE('',(#1076),#36,.T.);
#1179=ADVANCED_FACE('',(#1077),#37,.T.);
#1180=ADVANCED_FACE('',(#1078),#38,.T.);
#1181=ADVANCED_FACE('',(#1079),#39,.T.);
#1182=ADVANCED_FACE('',(#1080),#20,.T.);
#1183=ADVANCED_FACE('',(#1081),#40,.T.);
#1184=ADVANCED_FACE('',(#1082),#41,.T.);
#1185=ADVANCED_FACE('',(#1083),#21,.T.);
#1186=ADVANCED_FACE('',(#1084),#22,.T.);
#1187=ADVANCED_FACE('',(#1085),#42,.T.);
#1188=ADVANCED_FACE('',(#1086),#43,.T.);
#1189=ADVANCED_FACE('',(#1087),#23,.T.);
#1190=ADVANCED_FACE('',(#1088),#44,.T.);
#1191=ADVANCED_FACE('',(#1089),#24,.T.);
#1192=ADVANCED_FACE('',(#1090),#45,.T.);
#1193=ADVANCED_FACE('',(#1091),#25,.T.);
#1194=ADVANCED_FACE('',(#1092),#46,.T.);
#1195=ADVANCED_FACE('',(#1093),#47,.T.);
#1196=ADVANCED_FACE('',(#1094),#26,.T.);
#1197=ADVANCED_FACE('',(#1095),#48,.T.);
#1198=ADVANCED_FACE('',(#1096),#27,.T.);
#1199=ADVANCED_FACE('',(#1097),#49,.T.);
#1200=CLOSED_SHELL('',(#1134,#1135,#1136,#1137,#1138,#1139,#1140,#1141,
#1142,#1143,#1144,#1145,#1146,#1147,#1148,#1149,#1150,#1151,#1152,#1153,
#1154,#1155,#1156,#1157,#1158,#1159,#1160,#1161,#1162,#1163,#1164,#1165,
#1166,#1167,#1168,#1169,#1170,#1171,#1172,#1173,#1174,#1175,#1176,#1177,
#1178,#1179,#1180,#1181,#1182,#1183,#1184,#1185,#1186,#1187,#1188,#1189,
#1190,#1191,#1192,#1193,#1194,#1195,#1196,#1197,#1198,#1199));
#1201=STYLED_ITEM('',(#1202),#1209);
#1202=PRESENTATION_STYLE_ASSIGNMENT((#1203));
#1203=SURFACE_STYLE_USAGE(.BOTH.,#1204);
#1204=SURFACE_SIDE_STYLE('',(#1205));
#1205=SURFACE_STYLE_FILL_AREA(#1206);
#1206=FILL_AREA_STYLE('',(#1207));
#1207=FILL_AREA_STYLE_COLOUR('',#1208);
#1208=COLOUR_RGB('',0.699999988079071,0.699999988079071,0.699999988079071);
#1209=MANIFOLD_SOLID_BREP('',#1200);
#1210=SHAPE_DEFINITION_REPRESENTATION(#2042,#1211);
#1211=SHAPE_REPRESENTATION('BMRF00060630100MA1',(#1212),#2037);
#1212=AXIS2_PLACEMENT_3D('',#1689,#1331,#1332);
#1213=AXIS2_PLACEMENT_3D('',#1690,#1333,#1334);
#1214=AXIS2_PLACEMENT_3D('',#1711,#1345,#1346);
#1215=AXIS2_PLACEMENT_3D('',#1720,#1351,#1352);
#1216=AXIS2_PLACEMENT_3D('',#1741,#1363,#1364);
#1217=AXIS2_PLACEMENT_3D('',#1750,#1369,#1370);
#1218=AXIS2_PLACEMENT_3D('',#1759,#1375,#1376);
#1219=AXIS2_PLACEMENT_3D('',#1760,#1377,#1378);
#1220=AXIS2_PLACEMENT_3D('',#1773,#1384,#1385);
#1221=AXIS2_PLACEMENT_3D('',#1777,#1387,#1388);
#1222=AXIS2_PLACEMENT_3D('',#1789,#1394,#1395);
#1223=AXIS2_PLACEMENT_3D('',#1792,#1397,#1398);
#1224=AXIS2_PLACEMENT_3D('',#1801,#1403,#1404);
#1225=AXIS2_PLACEMENT_3D('',#1805,#1406,#1407);
#1226=AXIS2_PLACEMENT_3D('',#1809,#1410,#1411);
#1227=AXIS2_PLACEMENT_3D('',#1810,#1412,#1413);
#1228=AXIS2_PLACEMENT_3D('',#1815,#1416,#1417);
#1229=AXIS2_PLACEMENT_3D('',#1816,#1418,#1419);
#1230=AXIS2_PLACEMENT_3D('',#1820,#1421,#1422);
#1231=AXIS2_PLACEMENT_3D('',#1824,#1424,#1425);
#1232=AXIS2_PLACEMENT_3D('',#1828,#1428,#1429);
#1233=AXIS2_PLACEMENT_3D('',#1832,#1431,#1432);
#1234=AXIS2_PLACEMENT_3D('',#1837,#1435,#1436);
#1235=AXIS2_PLACEMENT_3D('',#1843,#1440,#1441);
#1236=AXIS2_PLACEMENT_3D('',#1847,#1443,#1444);
#1237=AXIS2_PLACEMENT_3D('',#1851,#1446,#1447);
#1238=AXIS2_PLACEMENT_3D('',#1855,#1449,#1450);
#1239=AXIS2_PLACEMENT_3D('',#1859,#1452,#1453);
#1240=AXIS2_PLACEMENT_3D('',#1860,#1454,#1455);
#1241=AXIS2_PLACEMENT_3D('',#1866,#1459,#1460);
#1242=AXIS2_PLACEMENT_3D('',#1872,#1464,#1465);
#1243=AXIS2_PLACEMENT_3D('',#1881,#1470,#1471);
#1244=AXIS2_PLACEMENT_3D('',#1890,#1476,#1477);
#1245=AXIS2_PLACEMENT_3D('',#1891,#1478,#1479);
#1246=AXIS2_PLACEMENT_3D('',#1896,#1482,#1483);
#1247=AXIS2_PLACEMENT_3D('',#1900,#1485,#1486);
#1248=AXIS2_PLACEMENT_3D('',#1904,#1489,#1490);
#1249=AXIS2_PLACEMENT_3D('',#1905,#1491,#1492);
#1250=AXIS2_PLACEMENT_3D('',#1908,#1494,#1495);
#1251=AXIS2_PLACEMENT_3D('',#1909,#1496,#1497);
#1252=AXIS2_PLACEMENT_3D('',#1914,#1500,#1501);
#1253=AXIS2_PLACEMENT_3D('',#1915,#1502,#1503);
#1254=AXIS2_PLACEMENT_3D('',#1917,#1505,#1506);
#1255=AXIS2_PLACEMENT_3D('',#1919,#1508,#1509);
#1256=AXIS2_PLACEMENT_3D('',#1921,#1511,#1512);
#1257=AXIS2_PLACEMENT_3D('',#1922,#1513,#1514);
#1258=AXIS2_PLACEMENT_3D('',#1930,#1519,#1520);
#1259=AXIS2_PLACEMENT_3D('',#1934,#1523,#1524);
#1260=AXIS2_PLACEMENT_3D('',#1935,#1525,#1526);
#1261=AXIS2_PLACEMENT_3D('',#1941,#1530,#1531);
#1262=AXIS2_PLACEMENT_3D('',#1945,#1535,#1536);
#1263=AXIS2_PLACEMENT_3D('',#1946,#1537,#1538);
#1264=AXIS2_PLACEMENT_3D('',#1948,#1540,#1541);
#1265=AXIS2_PLACEMENT_3D('',#1949,#1542,#1543);
#1266=AXIS2_PLACEMENT_3D('',#1957,#1548,#1549);
#1267=AXIS2_PLACEMENT_3D('',#1961,#1552,#1553);
#1268=AXIS2_PLACEMENT_3D('',#1962,#1554,#1555);
#1269=AXIS2_PLACEMENT_3D('',#1968,#1559,#1560);
#1270=AXIS2_PLACEMENT_3D('',#1970,#1562,#1563);
#1271=AXIS2_PLACEMENT_3D('',#1973,#1566,#1567);
#1272=AXIS2_PLACEMENT_3D('',#1976,#1570,#1571);
#1273=AXIS2_PLACEMENT_3D('',#1978,#1573,#1574);
#1274=AXIS2_PLACEMENT_3D('',#1979,#1575,#1576);
#1275=AXIS2_PLACEMENT_3D('',#1980,#1577,#1578);
#1276=AXIS2_PLACEMENT_3D('',#1981,#1579,#1580);
#1277=AXIS2_PLACEMENT_3D('',#1982,#1581,#1582);
#1278=AXIS2_PLACEMENT_3D('',#1983,#1583,#1584);
#1279=AXIS2_PLACEMENT_3D('',#1984,#1585,#1586);
#1280=AXIS2_PLACEMENT_3D('',#1985,#1587,#1588);
#1281=AXIS2_PLACEMENT_3D('',#1986,#1589,#1590);
#1282=AXIS2_PLACEMENT_3D('',#1987,#1591,#1592);
#1283=AXIS2_PLACEMENT_3D('',#1988,#1593,#1594);
#1284=AXIS2_PLACEMENT_3D('',#1989,#1595,#1596);
#1285=AXIS2_PLACEMENT_3D('',#1990,#1597,#1598);
#1286=AXIS2_PLACEMENT_3D('',#1991,#1599,#1600);
#1287=AXIS2_PLACEMENT_3D('',#1992,#1601,#1602);
#1288=AXIS2_PLACEMENT_3D('',#1993,#1603,#1604);
#1289=AXIS2_PLACEMENT_3D('',#1994,#1605,#1606);
#1290=AXIS2_PLACEMENT_3D('',#1995,#1607,#1608);
#1291=AXIS2_PLACEMENT_3D('',#1996,#1609,#1610);
#1292=AXIS2_PLACEMENT_3D('',#1997,#1611,#1612);
#1293=AXIS2_PLACEMENT_3D('',#1998,#1613,#1614);
#1294=AXIS2_PLACEMENT_3D('',#1999,#1615,#1616);
#1295=AXIS2_PLACEMENT_3D('',#2000,#1617,#1618);
#1296=AXIS2_PLACEMENT_3D('',#2001,#1619,#1620);
#1297=AXIS2_PLACEMENT_3D('',#2002,#1621,#1622);
#1298=AXIS2_PLACEMENT_3D('',#2003,#1623,#1624);
#1299=AXIS2_PLACEMENT_3D('',#2004,#1625,#1626);
#1300=AXIS2_PLACEMENT_3D('',#2005,#1627,#1628);
#1301=AXIS2_PLACEMENT_3D('',#2006,#1629,#1630);
#1302=AXIS2_PLACEMENT_3D('',#2007,#1631,#1632);
#1303=AXIS2_PLACEMENT_3D('',#2008,#1633,#1634);
#1304=AXIS2_PLACEMENT_3D('',#2009,#1635,#1636);
#1305=AXIS2_PLACEMENT_3D('',#2010,#1637,#1638);
#1306=AXIS2_PLACEMENT_3D('',#2011,#1639,#1640);
#1307=AXIS2_PLACEMENT_3D('',#2012,#1641,#1642);
#1308=AXIS2_PLACEMENT_3D('',#2013,#1643,#1644);
#1309=AXIS2_PLACEMENT_3D('',#2014,#1645,#1646);
#1310=AXIS2_PLACEMENT_3D('',#2015,#1647,#1648);
#1311=AXIS2_PLACEMENT_3D('',#2016,#1649,#1650);
#1312=AXIS2_PLACEMENT_3D('',#2017,#1651,#1652);
#1313=AXIS2_PLACEMENT_3D('',#2018,#1653,#1654);
#1314=AXIS2_PLACEMENT_3D('',#2019,#1655,#1656);
#1315=AXIS2_PLACEMENT_3D('',#2020,#1657,#1658);
#1316=AXIS2_PLACEMENT_3D('',#2021,#1659,#1660);
#1317=AXIS2_PLACEMENT_3D('',#2022,#1661,#1662);
#1318=AXIS2_PLACEMENT_3D('',#2023,#1663,#1664);
#1319=AXIS2_PLACEMENT_3D('',#2024,#1665,#1666);
#1320=AXIS2_PLACEMENT_3D('',#2025,#1667,#1668);
#1321=AXIS2_PLACEMENT_3D('',#2026,#1669,#1670);
#1322=AXIS2_PLACEMENT_3D('',#2027,#1671,#1672);
#1323=AXIS2_PLACEMENT_3D('',#2028,#1673,#1674);
#1324=AXIS2_PLACEMENT_3D('',#2029,#1675,#1676);
#1325=AXIS2_PLACEMENT_3D('',#2030,#1677,#1678);
#1326=AXIS2_PLACEMENT_3D('',#2031,#1679,#1680);
#1327=AXIS2_PLACEMENT_3D('',#2032,#1681,#1682);
#1328=AXIS2_PLACEMENT_3D('',#2033,#1683,#1684);
#1329=AXIS2_PLACEMENT_3D('',#2034,#1685,#1686);
#1330=AXIS2_PLACEMENT_3D('',#2035,#1687,#1688);
#1331=DIRECTION('',(0.,0.,1.));
#1332=DIRECTION('',(1.,0.,0.));
#1333=DIRECTION('',(-1.,0.,1.4954512723938E-16));
#1334=DIRECTION('',(1.4954512723938E-16,0.,1.));
#1335=DIRECTION('',(1.4954512723938E-16,0.,1.));
#1336=DIRECTION('',(0.,-1.,0.));
#1337=DIRECTION('',(-2.64402186271665E-16,0.,-1.));
#1338=DIRECTION('',(0.,1.,0.));
#1339=DIRECTION('',(0.,-1.,0.));
#1340=DIRECTION('',(0.,-1.,0.));
#1341=DIRECTION('',(1.4954512723938E-16,0.,1.));
#1342=DIRECTION('',(0.,1.,0.));
#1343=DIRECTION('',(1.4954512723938E-16,0.,1.));
#1344=DIRECTION('',(0.,1.,0.));
#1345=DIRECTION('',(-1.08420217248551E-15,0.,1.));
#1346=DIRECTION('',(1.,0.,1.08420217248551E-15));
#1347=DIRECTION('',(-1.,0.,-1.08420217248551E-15));
#1348=DIRECTION('',(0.,1.,0.));
#1349=DIRECTION('',(-1.,0.,-1.08420217248551E-15));
#1350=DIRECTION('',(0.,1.,0.));
#1351=DIRECTION('',(1.,0.,1.4954512723938E-16));
#1352=DIRECTION('',(1.4954512723938E-16,0.,-1.));
#1353=DIRECTION('',(-2.64402186271665E-16,0.,1.));
#1354=DIRECTION('',(0.,-1.,0.));
#1355=DIRECTION('',(-1.4954512723938E-16,0.,1.));
#1356=DIRECTION('',(0.,1.,0.));
#1357=DIRECTION('',(-1.4954512723938E-16,0.,1.));
#1358=DIRECTION('',(0.,1.,0.));
#1359=DIRECTION('',(-2.64402186271665E-16,0.,1.));
#1360=DIRECTION('',(0.,1.,0.));
#1361=DIRECTION('',(0.,-1.,0.));
#1362=DIRECTION('',(0.,-1.,0.));
#1363=DIRECTION('',(0.,0.,1.));
#1364=DIRECTION('',(1.,0.,0.));
#1365=DIRECTION('',(-1.,0.,0.));
#1366=DIRECTION('',(0.,1.,0.));
#1367=DIRECTION('',(-1.,0.,0.));
#1368=DIRECTION('',(0.,1.,0.));
#1369=DIRECTION('',(-1.,0.,-2.64402186271665E-16));
#1370=DIRECTION('',(-2.64402186271665E-16,0.,1.));
#1371=DIRECTION('',(-1.4954512723938E-16,0.,1.));
#1372=DIRECTION('',(0.,1.,0.));
#1373=DIRECTION('',(1.4954512723938E-16,0.,-1.));
#1374=DIRECTION('',(0.,1.,0.));
#1375=DIRECTION('',(0.,0.,1.));
#1376=DIRECTION('',(1.,0.,0.));
#1377=DIRECTION('',(0.,0.,1.));
#1378=DIRECTION('',(1.,0.,0.));
#1379=DIRECTION('',(0.,-1.,0.));
#1380=DIRECTION('',(-1.,0.,0.));
#1381=DIRECTION('',(0.,1.,0.));
#1382=DIRECTION('',(-1.,0.,0.));
#1383=DIRECTION('',(0.,1.,0.));
#1384=DIRECTION('',(0.,0.,1.));
#1385=DIRECTION('',(1.,0.,0.));
#1386=DIRECTION('',(1.,0.,0.));
#1387=DIRECTION('',(0.,0.,1.));
#1388=DIRECTION('',(1.,0.,0.));
#1389=DIRECTION('',(0.,1.,0.));
#1390=DIRECTION('',(-1.,0.,0.));
#1391=DIRECTION('',(0.,-1.,0.));
#1392=DIRECTION('',(1.,0.,0.));
#1393=DIRECTION('',(0.,-1.,0.));
#1394=DIRECTION('',(0.,0.,1.));
#1395=DIRECTION('',(1.,0.,0.));
#1396=DIRECTION('',(-1.,0.,0.));
#1397=DIRECTION('',(0.,0.,1.));
#1398=DIRECTION('',(1.,0.,0.));
#1399=DIRECTION('',(1.,0.,0.));
#1400=DIRECTION('',(0.,-1.,0.));
#1401=DIRECTION('',(-1.,0.,0.));
#1402=DIRECTION('',(-2.97041691091919E-17,-1.,0.));
#1403=DIRECTION('',(0.,1.,0.));
#1404=DIRECTION('',(0.,0.,1.));
#1405=DIRECTION('',(0.,0.,1.));
#1406=DIRECTION('',(0.,1.,0.));
#1407=DIRECTION('',(0.,0.,1.));
#1408=DIRECTION('',(-1.,0.,0.));
#1409=DIRECTION('',(0.,0.,1.));
#1410=DIRECTION('',(0.,1.,0.));
#1411=DIRECTION('',(0.,0.,1.));
#1412=DIRECTION('',(0.,1.,0.));
#1413=DIRECTION('',(0.,0.,1.));
#1414=DIRECTION('',(1.,0.,0.));
#1415=DIRECTION('',(0.,0.,-1.));
#1416=DIRECTION('',(0.,1.,0.));
#1417=DIRECTION('',(0.,0.,1.));
#1418=DIRECTION('',(0.,-1.,0.));
#1419=DIRECTION('',(0.,0.,-1.));
#1420=DIRECTION('',(1.,0.,0.));
#1421=DIRECTION('',(0.,-1.,0.));
#1422=DIRECTION('',(0.,0.,-1.));
#1423=DIRECTION('',(0.,0.,1.));
#1424=DIRECTION('',(0.,-1.,0.));
#1425=DIRECTION('',(0.,0.,-1.));
#1426=DIRECTION('',(-1.,0.,0.));
#1427=DIRECTION('',(0.,0.,1.));
#1428=DIRECTION('',(0.,-1.,0.));
#1429=DIRECTION('',(0.,0.,-1.));
#1430=DIRECTION('',(-1.4954512723938E-16,0.,-1.));
#1431=DIRECTION('',(0.,-1.,0.));
#1432=DIRECTION('',(0.,0.,-1.));
#1433=DIRECTION('',(-1.,0.,0.));
#1434=DIRECTION('',(0.,0.,-1.));
#1435=DIRECTION('',(1.,0.,0.));
#1436=DIRECTION('',(0.,0.,-1.));
#1437=DIRECTION('',(0.,0.,-1.));
#1438=DIRECTION('',(0.,-1.,0.));
#1439=DIRECTION('',(0.,-1.,0.));
#1440=DIRECTION('',(0.,0.,1.));
#1441=DIRECTION('',(1.,0.,0.));
#1442=DIRECTION('',(-1.,0.,0.));
#1443=DIRECTION('',(0.,0.,1.));
#1444=DIRECTION('',(1.,0.,0.));
#1445=DIRECTION('',(0.,1.,0.));
#1446=DIRECTION('',(0.,0.,1.));
#1447=DIRECTION('',(1.,0.,0.));
#1448=DIRECTION('',(1.,0.,0.));
#1449=DIRECTION('',(0.,0.,1.));
#1450=DIRECTION('',(1.,0.,0.));
#1451=DIRECTION('',(0.,1.,0.));
#1452=DIRECTION('',(0.,0.,1.));
#1453=DIRECTION('',(1.,0.,0.));
#1454=DIRECTION('',(-1.,0.,0.));
#1455=DIRECTION('',(0.,0.,1.));
#1456=DIRECTION('',(0.,1.,0.));
#1457=DIRECTION('',(0.,0.,-1.));
#1458=DIRECTION('',(0.,-1.,0.));
#1459=DIRECTION('',(0.,0.,1.));
#1460=DIRECTION('',(1.,0.,0.));
#1461=DIRECTION('',(-1.,0.,0.));
#1462=DIRECTION('',(0.,1.,0.));
#1463=DIRECTION('',(2.97041691091919E-17,1.,0.));
#1464=DIRECTION('',(0.,1.,0.));
#1465=DIRECTION('',(0.,0.,1.));
#1466=DIRECTION('',(-1.4954512723938E-16,0.,1.));
#1467=DIRECTION('',(-1.,0.,0.));
#1468=DIRECTION('',(1.4954512723938E-16,0.,1.));
#1469=DIRECTION('',(1.,0.,0.));
#1470=DIRECTION('',(0.,-1.,0.));
#1471=DIRECTION('',(0.,0.,-1.));
#1472=DIRECTION('',(1.4954512723938E-16,0.,1.));
#1473=DIRECTION('',(1.,0.,0.));
#1474=DIRECTION('',(-1.4954512723938E-16,0.,1.));
#1475=DIRECTION('',(-1.,0.,0.));
#1476=DIRECTION('',(0.,1.,0.));
#1477=DIRECTION('',(0.,0.,1.));
#1478=DIRECTION('',(0.,1.,0.));
#1479=DIRECTION('',(0.,0.,1.));
#1480=DIRECTION('',(0.,0.,-1.));
#1481=DIRECTION('',(1.,0.,0.));
#1482=DIRECTION('',(0.,1.,0.));
#1483=DIRECTION('',(0.,0.,1.));
#1484=DIRECTION('',(2.64402186271665E-16,0.,1.));
#1485=DIRECTION('',(0.,1.,0.));
#1486=DIRECTION('',(0.,0.,1.));
#1487=DIRECTION('',(0.,0.,1.));
#1488=DIRECTION('',(-1.,0.,0.));
#1489=DIRECTION('',(0.,1.,0.));
#1490=DIRECTION('',(0.,0.,1.));
#1491=DIRECTION('',(0.,-1.,0.));
#1492=DIRECTION('',(0.,0.,-1.));
#1493=DIRECTION('',(-1.,0.,0.));
#1494=DIRECTION('',(0.,-1.,0.));
#1495=DIRECTION('',(0.,0.,-1.));
#1496=DIRECTION('',(0.,-1.,0.));
#1497=DIRECTION('',(0.,0.,-1.));
#1498=DIRECTION('',(0.,0.,-1.));
#1499=DIRECTION('',(-1.,0.,0.));
#1500=DIRECTION('',(0.,-1.,0.));
#1501=DIRECTION('',(0.,0.,-1.));
#1502=DIRECTION('',(0.,-1.,0.));
#1503=DIRECTION('',(0.,0.,-1.));
#1504=DIRECTION('',(0.,0.,1.));
#1505=DIRECTION('',(-1.,2.97041691091919E-17,0.));
#1506=DIRECTION('',(-2.97041691091919E-17,-1.,0.));
#1507=DIRECTION('',(2.97041691091919E-17,1.,0.));
#1508=DIRECTION('',(1.,-2.97041691091919E-17,0.));
#1509=DIRECTION('',(2.97041691091919E-17,1.,0.));
#1510=DIRECTION('',(0.,1.,0.));
#1511=DIRECTION('',(0.,1.,0.));
#1512=DIRECTION('',(0.,0.,1.));
#1513=DIRECTION('',(0.,1.,0.));
#1514=DIRECTION('',(0.,0.,1.));
#1515=DIRECTION('',(1.,0.,0.));
#1516=DIRECTION('',(0.,0.,-1.));
#1517=DIRECTION('',(1.,0.,0.));
#1518=DIRECTION('',(0.,0.,-1.));
#1519=DIRECTION('',(1.,0.,0.));
#1520=DIRECTION('',(0.,0.,-1.));
#1521=DIRECTION('',(0.,1.,0.));
#1522=DIRECTION('',(0.,0.,-1.));
#1523=DIRECTION('',(0.,1.,0.));
#1524=DIRECTION('',(0.,0.,1.));
#1525=DIRECTION('',(0.,1.,0.));
#1526=DIRECTION('',(0.,0.,1.));
#1527=DIRECTION('',(1.,0.,0.));
#1528=DIRECTION('',(0.,0.,-1.));
#1529=DIRECTION('',(1.,0.,0.));
#1530=DIRECTION('',(1.,0.,0.));
#1531=DIRECTION('',(0.,0.,-1.));
#1532=DIRECTION('',(0.,-1.,0.));
#1533=DIRECTION('',(0.,1.,0.));
#1534=DIRECTION('',(0.,1.,0.));
#1535=DIRECTION('',(0.,0.,1.));
#1536=DIRECTION('',(1.,0.,0.));
#1537=DIRECTION('',(0.,0.,-1.));
#1538=DIRECTION('',(-1.,0.,0.));
#1539=DIRECTION('',(0.,1.,0.));
#1540=DIRECTION('',(0.,-1.,0.));
#1541=DIRECTION('',(0.,0.,-1.));
#1542=DIRECTION('',(0.,-1.,0.));
#1543=DIRECTION('',(0.,0.,-1.));
#1544=DIRECTION('',(0.,0.,1.));
#1545=DIRECTION('',(1.,0.,0.));
#1546=DIRECTION('',(0.,0.,1.));
#1547=DIRECTION('',(1.,0.,0.));
#1548=DIRECTION('',(-1.,0.,0.));
#1549=DIRECTION('',(0.,0.,1.));
#1550=DIRECTION('',(0.,0.,1.));
#1551=DIRECTION('',(0.,1.,0.));
#1552=DIRECTION('',(0.,-1.,0.));
#1553=DIRECTION('',(0.,0.,-1.));
#1554=DIRECTION('',(0.,-1.,0.));
#1555=DIRECTION('',(0.,0.,-1.));
#1556=DIRECTION('',(1.,0.,0.));
#1557=DIRECTION('',(0.,0.,1.));
#1558=DIRECTION('',(1.,0.,0.));
#1559=DIRECTION('',(0.,0.,1.));
#1560=DIRECTION('',(1.,0.,0.));
#1561=DIRECTION('',(0.,1.,0.));
#1562=DIRECTION('',(-1.,0.,0.));
#1563=DIRECTION('',(0.,0.,1.));
#1564=DIRECTION('',(0.,-1.,0.));
#1565=DIRECTION('',(0.,1.,0.));
#1566=DIRECTION('',(1.,0.,-2.64402186271665E-16));
#1567=DIRECTION('',(-2.64402186271665E-16,0.,-1.));
#1568=DIRECTION('',(0.,1.,0.));
#1569=DIRECTION('',(0.,1.,0.));
#1570=DIRECTION('',(0.,0.,-1.));
#1571=DIRECTION('',(-1.,0.,0.));
#1572=DIRECTION('',(0.,1.,0.));
#1573=DIRECTION('',(0.,0.,-1.));
#1574=DIRECTION('',(-1.,0.,0.));
#1575=DIRECTION('',(0.,0.,1.));
#1576=DIRECTION('',(1.,0.,0.));
#1577=DIRECTION('',(0.,0.,-1.));
#1578=DIRECTION('',(-1.,0.,0.));
#1579=DIRECTION('',(0.,0.,1.));
#1580=DIRECTION('',(1.,0.,0.));
#1581=DIRECTION('',(0.,-1.,0.));
#1582=DIRECTION('',(0.,0.,-1.));
#1583=DIRECTION('',(0.,-1.,0.));
#1584=DIRECTION('',(0.,0.,-1.));
#1585=DIRECTION('',(0.,-1.,0.));
#1586=DIRECTION('',(0.,0.,-1.));
#1587=DIRECTION('',(0.,1.,0.));
#1588=DIRECTION('',(0.,0.,1.));
#1589=DIRECTION('',(0.,-1.,0.));
#1590=DIRECTION('',(0.,0.,-1.));
#1591=DIRECTION('',(0.,-1.,0.));
#1592=DIRECTION('',(0.,0.,-1.));
#1593=DIRECTION('',(0.,-1.,0.));
#1594=DIRECTION('',(0.,0.,-1.));
#1595=DIRECTION('',(0.,-1.,0.));
#1596=DIRECTION('',(0.,0.,-1.));
#1597=DIRECTION('',(-1.4954512723938E-16,0.,1.));
#1598=DIRECTION('',(1.,0.,1.4954512723938E-16));
#1599=DIRECTION('',(0.,0.,1.));
#1600=DIRECTION('',(1.,0.,0.));
#1601=DIRECTION('',(0.,0.,1.));
#1602=DIRECTION('',(1.,0.,0.));
#1603=DIRECTION('',(1.4954512723938E-16,0.,1.));
#1604=DIRECTION('',(1.,0.,-1.4954512723938E-16));
#1605=DIRECTION('',(0.,0.,1.));
#1606=DIRECTION('',(1.,0.,0.));
#1607=DIRECTION('',(0.,0.,1.));
#1608=DIRECTION('',(1.,0.,0.));
#1609=DIRECTION('',(1.4954512723938E-16,0.,1.));
#1610=DIRECTION('',(1.,0.,-1.4954512723938E-16));
#1611=DIRECTION('',(0.,0.,1.));
#1612=DIRECTION('',(1.,0.,0.));
#1613=DIRECTION('',(0.,0.,1.));
#1614=DIRECTION('',(1.,0.,0.));
#1615=DIRECTION('',(-1.4954512723938E-16,0.,1.));
#1616=DIRECTION('',(1.,0.,1.4954512723938E-16));
#1617=DIRECTION('',(0.,0.,1.));
#1618=DIRECTION('',(1.,0.,0.));
#1619=DIRECTION('',(0.,0.,1.));
#1620=DIRECTION('',(1.,0.,0.));
#1621=DIRECTION('',(0.,0.,1.));
#1622=DIRECTION('',(1.,0.,0.));
#1623=DIRECTION('',(-1.,0.,0.));
#1624=DIRECTION('',(0.,0.,1.));
#1625=DIRECTION('',(-6.67201336914156E-16,1.,0.));
#1626=DIRECTION('',(-1.,-6.67201336914156E-16,0.));
#1627=DIRECTION('',(0.,-1.,0.));
#1628=DIRECTION('',(0.,0.,-1.));
#1629=DIRECTION('',(0.,-1.,0.));
#1630=DIRECTION('',(0.,0.,-1.));
#1631=DIRECTION('',(-1.,0.,0.));
#1632=DIRECTION('',(0.,0.,1.));
#1633=DIRECTION('',(1.,0.,0.));
#1634=DIRECTION('',(0.,0.,-1.));
#1635=DIRECTION('',(0.,0.,1.));
#1636=DIRECTION('',(1.,0.,0.));
#1637=DIRECTION('',(-1.,0.,0.));
#1638=DIRECTION('',(0.,0.,1.));
#1639=DIRECTION('',(0.,0.,1.));
#1640=DIRECTION('',(1.,0.,0.));
#1641=DIRECTION('',(0.,-1.,0.));
#1642=DIRECTION('',(0.,0.,-1.));
#1643=DIRECTION('',(1.,0.,0.));
#1644=DIRECTION('',(0.,0.,-1.));
#1645=DIRECTION('',(1.,0.,0.));
#1646=DIRECTION('',(0.,0.,-1.));
#1647=DIRECTION('',(0.,-1.,0.));
#1648=DIRECTION('',(0.,0.,-1.));
#1649=DIRECTION('',(0.,-1.,0.));
#1650=DIRECTION('',(0.,0.,-1.));
#1651=DIRECTION('',(0.,0.,1.));
#1652=DIRECTION('',(1.,0.,0.));
#1653=DIRECTION('',(0.,1.,0.));
#1654=DIRECTION('',(0.,0.,1.));
#1655=DIRECTION('',(0.,1.,0.));
#1656=DIRECTION('',(0.,0.,1.));
#1657=DIRECTION('',(0.,0.,1.));
#1658=DIRECTION('',(1.,0.,0.));
#1659=DIRECTION('',(-1.,0.,0.));
#1660=DIRECTION('',(0.,0.,1.));
#1661=DIRECTION('',(1.,0.,0.));
#1662=DIRECTION('',(0.,0.,-1.));
#1663=DIRECTION('',(1.,0.,0.));
#1664=DIRECTION('',(0.,0.,-1.));
#1665=DIRECTION('',(0.,0.,1.));
#1666=DIRECTION('',(1.,0.,0.));
#1667=DIRECTION('',(0.,1.,0.));
#1668=DIRECTION('',(0.,0.,1.));
#1669=DIRECTION('',(0.,1.,0.));
#1670=DIRECTION('',(0.,0.,1.));
#1671=DIRECTION('',(0.,-1.,0.));
#1672=DIRECTION('',(0.,0.,-1.));
#1673=DIRECTION('',(0.,-1.,0.));
#1674=DIRECTION('',(0.,0.,-1.));
#1675=DIRECTION('',(0.,0.,1.));
#1676=DIRECTION('',(1.,0.,0.));
#1677=DIRECTION('',(1.,0.,0.));
#1678=DIRECTION('',(0.,0.,-1.));
#1679=DIRECTION('',(-1.,0.,0.));
#1680=DIRECTION('',(0.,0.,1.));
#1681=DIRECTION('',(-1.,0.,0.));
#1682=DIRECTION('',(0.,0.,1.));
#1683=DIRECTION('',(0.,0.,1.));
#1684=DIRECTION('',(1.,0.,0.));
#1685=DIRECTION('',(0.,-1.,0.));
#1686=DIRECTION('',(0.,0.,-1.));
#1687=DIRECTION('',(0.,-1.,0.));
#1688=DIRECTION('',(0.,0.,-1.));
#1689=CARTESIAN_POINT('',(0.,0.,0.));
#1690=CARTESIAN_POINT('',(3.55,2.3,1.5));
#1691=CARTESIAN_POINT('',(3.55,-2.55,1.5));
#1692=CARTESIAN_POINT('',(3.55,-2.55,1.4));
#1693=CARTESIAN_POINT('',(3.55,-2.55,-1.3));
#1694=CARTESIAN_POINT('',(3.55,2.3,-1.3));
#1695=CARTESIAN_POINT('',(3.55,-1.5,-1.3));
#1696=CARTESIAN_POINT('',(3.55,-1.5,0.240231781399147));
#1697=CARTESIAN_POINT('',(3.55,-1.5,0.340231781399147));
#1698=CARTESIAN_POINT('',(3.55,-1.5,0.340231781399147));
#1699=CARTESIAN_POINT('',(3.55,-1.45,0.340231781399147));
#1700=CARTESIAN_POINT('',(3.55,3.26545602122664,0.340231781399148));
#1701=CARTESIAN_POINT('',(3.55,1.45,0.340231781399147));
#1702=CARTESIAN_POINT('',(3.55,1.45,0.340231781399147));
#1703=CARTESIAN_POINT('',(3.55,1.5,0.340231781399147));
#1704=CARTESIAN_POINT('',(3.55,1.5,1.5));
#1705=CARTESIAN_POINT('',(3.55,1.5,-1.3));
#1706=CARTESIAN_POINT('',(3.55,2.3,-1.3));
#1707=CARTESIAN_POINT('',(3.55,2.55,-1.3));
#1708=CARTESIAN_POINT('',(3.55,2.55,1.5));
#1709=CARTESIAN_POINT('',(3.55,2.55,1.4));
#1710=CARTESIAN_POINT('',(3.55,-2.8,1.4));
#1711=CARTESIAN_POINT('',(3.5,-1.5,0.240231781399147));
#1712=CARTESIAN_POINT('',(3.5,1.45,0.240231781399147));
#1713=CARTESIAN_POINT('',(3.525,1.45,0.240231781399147));
#1714=CARTESIAN_POINT('',(3.5,1.45,0.240231781399147));
#1715=CARTESIAN_POINT('',(3.525,-1.45,0.240231781399147));
#1716=CARTESIAN_POINT('',(3.525,-1.45,0.240231781399147));
#1717=CARTESIAN_POINT('',(3.5,-1.45,0.240231781399147));
#1718=CARTESIAN_POINT('',(3.5,-1.45,0.240231781399147));
#1719=CARTESIAN_POINT('',(3.5,-1.5,0.240231781399147));
#1720=CARTESIAN_POINT('',(-3.55,2.3,1.5));
#1721=CARTESIAN_POINT('',(-3.55,-1.5,-1.4));
#1722=CARTESIAN_POINT('',(-3.55,-1.5,-1.3));
#1723=CARTESIAN_POINT('',(-3.55,-1.5,0.340231781399147));
#1724=CARTESIAN_POINT('',(-3.55,2.3,-1.3));
#1725=CARTESIAN_POINT('',(-3.55,-2.55,-1.3));
#1726=CARTESIAN_POINT('',(-3.55,-2.55,1.5));
#1727=CARTESIAN_POINT('',(-3.55,-2.55,1.4));
#1728=CARTESIAN_POINT('',(-3.55,2.8,1.4));
#1729=CARTESIAN_POINT('',(-3.55,2.55,1.4));
#1730=CARTESIAN_POINT('',(-3.55,2.55,1.5));
#1731=CARTESIAN_POINT('',(-3.55,2.55,-1.3));
#1732=CARTESIAN_POINT('',(-3.55,2.3,-1.3));
#1733=CARTESIAN_POINT('',(-3.55,1.5,-1.3));
#1734=CARTESIAN_POINT('',(-3.55,1.5,-1.4));
#1735=CARTESIAN_POINT('',(-3.55,1.5,0.340231781399147));
#1736=CARTESIAN_POINT('',(-3.55,1.45,0.340231781399147));
#1737=CARTESIAN_POINT('',(-3.55,1.45,0.340231781399147));
#1738=CARTESIAN_POINT('',(-3.55,3.26545602122664,0.340231781399147));
#1739=CARTESIAN_POINT('',(-3.55,-1.45,0.340231781399147));
#1740=CARTESIAN_POINT('',(-3.55,-1.5,0.340231781399147));
#1741=CARTESIAN_POINT('',(-3.5,-1.5,0.240231781399147));
#1742=CARTESIAN_POINT('',(-3.5,-1.45,0.240231781399147));
#1743=CARTESIAN_POINT('',(-3.5,-1.45,0.240231781399147));
#1744=CARTESIAN_POINT('',(-3.525,-1.45,0.240231781399147));
#1745=CARTESIAN_POINT('',(-3.525,1.45,0.240231781399147));
#1746=CARTESIAN_POINT('',(-3.525,1.45,0.240231781399147));
#1747=CARTESIAN_POINT('',(-3.5,1.45,0.240231781399147));
#1748=CARTESIAN_POINT('',(-3.5,1.45,0.240231781399147));
#1749=CARTESIAN_POINT('',(-3.5,-1.5,0.240231781399147));
#1750=CARTESIAN_POINT('',(-3.55,-1.5,-1.4));
#1751=CARTESIAN_POINT('',(-3.55,-1.45,1.5));
#1752=CARTESIAN_POINT('',(-3.55,-1.45,-1.375));
#1753=CARTESIAN_POINT('',(-3.55,-1.45,0.215231781399147));
#1754=CARTESIAN_POINT('',(-3.55,1.45,-1.375));
#1755=CARTESIAN_POINT('',(-3.55,1.45,-1.375));
#1756=CARTESIAN_POINT('',(-3.55,1.45,1.5));
#1757=CARTESIAN_POINT('',(-3.55,1.45,0.215231781399147));
#1758=CARTESIAN_POINT('',(-3.55,-1.45,0.215231781399147));
#1759=CARTESIAN_POINT('',(-3.55,2.3,-1.4));
#1760=CARTESIAN_POINT('',(-2.8,-2.55,-1.4));
#1761=CARTESIAN_POINT('',(-2.8,-3.2,-1.4));
#1762=CARTESIAN_POINT('',(-3.45,-2.55,-1.4));
#1763=CARTESIAN_POINT('',(-3.45,2.3,-1.4));
#1764=CARTESIAN_POINT('',(-3.45,-1.5,-1.4));
#1765=CARTESIAN_POINT('',(-3.55,-1.5,-1.4));
#1766=CARTESIAN_POINT('',(-1.9602395948308,-1.5,-1.4));
#1767=CARTESIAN_POINT('',(-1.9602395948308,2.3,-1.4));
#1768=CARTESIAN_POINT('',(-1.9602395948308,1.5,-1.4));
#1769=CARTESIAN_POINT('',(-3.55,1.5,-1.4));
#1770=CARTESIAN_POINT('',(-3.45,1.5,-1.4));
#1771=CARTESIAN_POINT('',(-3.45,2.3,-1.4));
#1772=CARTESIAN_POINT('',(-3.45,2.55,-1.4));
#1773=CARTESIAN_POINT('',(-2.8,2.55,-1.4));
#1774=CARTESIAN_POINT('',(-2.8,3.2,-1.4));
#1775=CARTESIAN_POINT('',(-3.55,3.2,-1.4));
#1776=CARTESIAN_POINT('',(2.8,3.2,-1.4));
#1777=CARTESIAN_POINT('',(2.8,2.55,-1.4));
#1778=CARTESIAN_POINT('',(3.45,2.55,-1.4));
#1779=CARTESIAN_POINT('',(3.45,2.3,-1.4));
#1780=CARTESIAN_POINT('',(3.45,1.5,-1.4));
#1781=CARTESIAN_POINT('',(3.55,1.5,-1.4));
#1782=CARTESIAN_POINT('',(1.9602395948308,1.5,-1.4));
#1783=CARTESIAN_POINT('',(1.9602395948308,2.3,-1.4));
#1784=CARTESIAN_POINT('',(1.9602395948308,-1.5,-1.4));
#1785=CARTESIAN_POINT('',(-3.55,-1.5,-1.4));
#1786=CARTESIAN_POINT('',(3.45,-1.5,-1.4));
#1787=CARTESIAN_POINT('',(3.45,2.3,-1.4));
#1788=CARTESIAN_POINT('',(3.45,-2.55,-1.4));
#1789=CARTESIAN_POINT('',(2.8,-2.55,-1.4));
#1790=CARTESIAN_POINT('',(2.8,-3.2,-1.4));
#1791=CARTESIAN_POINT('',(-3.55,-3.2,-1.4));
#1792=CARTESIAN_POINT('',(0.,0.,-1.5));
#1793=CARTESIAN_POINT('',(0.,-1.45,-1.5));
#1794=CARTESIAN_POINT('',(-3.55,-1.45,-1.5));
#1795=CARTESIAN_POINT('',(-2.05,-1.45,-1.5));
#1796=CARTESIAN_POINT('',(-3.55,0.,-1.5));
#1797=CARTESIAN_POINT('',(-3.55,1.45,-1.5));
#1798=CARTESIAN_POINT('',(0.,1.45,-1.5));
#1799=CARTESIAN_POINT('',(-2.05,1.45,-1.5));
#1800=CARTESIAN_POINT('',(-2.05,-1.20370621524202E-32,-1.5));
#1801=CARTESIAN_POINT('',(0.,1.45,1.5));
#1802=CARTESIAN_POINT('',(-3.65,1.45,1.5));
#1803=CARTESIAN_POINT('',(-3.65,1.45,-1.4));
#1804=CARTESIAN_POINT('',(-3.65,1.45,0.240231781399147));
#1805=CARTESIAN_POINT('',(-3.55,1.45,0.240231781399147));
#1806=CARTESIAN_POINT('',(-3.55,1.45,0.340231781399147));
#1807=CARTESIAN_POINT('',(-3.5,1.45,0.340231781399147));
#1808=CARTESIAN_POINT('',(-3.5,1.45,0.140231781399147));
#1809=CARTESIAN_POINT('',(-3.525,1.45,0.215231781399147));
#1810=CARTESIAN_POINT('',(-3.525,1.45,-1.375));
#1811=CARTESIAN_POINT('',(-3.525,1.45,-1.4));
#1812=CARTESIAN_POINT('',(-3.55,1.45,-1.4));
#1813=CARTESIAN_POINT('',(-2.05,1.45,-1.4));
#1814=CARTESIAN_POINT('',(-2.05,1.45,-1.4));
#1815=CARTESIAN_POINT('',(-3.55,1.45,-1.4));
#1816=CARTESIAN_POINT('',(0.,-1.45,1.5));
#1817=CARTESIAN_POINT('',(0.,-1.45,-1.5));
#1818=CARTESIAN_POINT('',(2.05,-1.45,-1.5));
#1819=CARTESIAN_POINT('',(3.55,-1.45,-1.5));
#1820=CARTESIAN_POINT('',(3.55,-1.45,-1.4));
#1821=CARTESIAN_POINT('',(3.65,-1.45,-1.4));
#1822=CARTESIAN_POINT('',(3.65,-1.45,1.5));
#1823=CARTESIAN_POINT('',(3.65,-1.45,0.240231781399148));
#1824=CARTESIAN_POINT('',(3.55,-1.45,0.240231781399148));
#1825=CARTESIAN_POINT('',(3.55,-1.45,0.340231781399147));
#1826=CARTESIAN_POINT('',(3.5,-1.45,0.340231781399147));
#1827=CARTESIAN_POINT('',(3.5,-1.45,0.140231781399147));
#1828=CARTESIAN_POINT('',(3.525,-1.45,0.215231781399147));
#1829=CARTESIAN_POINT('',(3.55,-1.45,0.215231781399147));
#1830=CARTESIAN_POINT('',(3.55,-1.45,1.5));
#1831=CARTESIAN_POINT('',(3.55,-1.45,-1.375));
#1832=CARTESIAN_POINT('',(3.525,-1.45,-1.375));
#1833=CARTESIAN_POINT('',(3.525,-1.45,-1.4));
#1834=CARTESIAN_POINT('',(-3.55,-1.45,-1.4));
#1835=CARTESIAN_POINT('',(2.05,-1.45,-1.4));
#1836=CARTESIAN_POINT('',(2.05,-1.45,-1.4));
#1837=CARTESIAN_POINT('',(-3.65,3.3,1.5));
#1838=CARTESIAN_POINT('',(-3.65,-1.45,1.5));
#1839=CARTESIAN_POINT('',(-3.65,-1.45,0.240231781399147));
#1840=CARTESIAN_POINT('',(-3.65,-1.45,-1.4));
#1841=CARTESIAN_POINT('',(-3.65,3.3,0.240231781399147));
#1842=CARTESIAN_POINT('',(-3.65,3.3,-1.4));
#1843=CARTESIAN_POINT('',(0.,0.,1.5));
#1844=CARTESIAN_POINT('',(-3.05,3.2,1.5));
#1845=CARTESIAN_POINT('',(2.8,3.2,1.5));
#1846=CARTESIAN_POINT('',(-2.8,3.2,1.5));
#1847=CARTESIAN_POINT('',(-2.8,2.55,1.5));
#1848=CARTESIAN_POINT('',(-3.45,2.55,1.5));
#1849=CARTESIAN_POINT('',(-3.45,-2.8,1.5));
#1850=CARTESIAN_POINT('',(-3.45,-2.55,1.5));
#1851=CARTESIAN_POINT('',(-2.8,-2.55,1.5));
#1852=CARTESIAN_POINT('',(-2.8,-3.2,1.5));
#1853=CARTESIAN_POINT('',(3.05,-3.2,1.5));
#1854=CARTESIAN_POINT('',(2.8,-3.2,1.5));
#1855=CARTESIAN_POINT('',(2.8,-2.55,1.5));
#1856=CARTESIAN_POINT('',(3.45,-2.55,1.5));
#1857=CARTESIAN_POINT('',(3.45,2.8,1.5));
#1858=CARTESIAN_POINT('',(3.45,2.55,1.5));
#1859=CARTESIAN_POINT('',(2.8,2.55,1.5));
#1860=CARTESIAN_POINT('',(3.65,-3.3,1.5));
#1861=CARTESIAN_POINT('',(3.65,-3.3,-1.4));
#1862=CARTESIAN_POINT('',(3.65,1.45,-1.4));
#1863=CARTESIAN_POINT('',(3.65,1.45,1.5));
#1864=CARTESIAN_POINT('',(3.65,1.45,0.240231781399148));
#1865=CARTESIAN_POINT('',(3.65,-3.3,0.240231781399148));
#1866=CARTESIAN_POINT('',(0.,0.,-1.5));
#1867=CARTESIAN_POINT('',(0.,1.45,-1.5));
#1868=CARTESIAN_POINT('',(3.55,1.45,-1.5));
#1869=CARTESIAN_POINT('',(2.05,1.45,-1.5));
#1870=CARTESIAN_POINT('',(3.55,0.,-1.5));
#1871=CARTESIAN_POINT('',(2.05,-6.68343804956817E-18,-1.5));
#1872=CARTESIAN_POINT('',(-3.65,-3.3,1.5));
#1873=CARTESIAN_POINT('',(-2.8,-3.3,1.5));
#1874=CARTESIAN_POINT('',(-2.8,-3.3,1.4));
#1875=CARTESIAN_POINT('',(-2.8,-3.3,-1.3));
#1876=CARTESIAN_POINT('',(-3.65,-3.3,-1.3));
#1877=CARTESIAN_POINT('',(2.8,-3.3,-1.3));
#1878=CARTESIAN_POINT('',(2.8,-3.3,1.5));
#1879=CARTESIAN_POINT('',(2.8,-3.3,1.4));
#1880=CARTESIAN_POINT('',(-3.05,-3.3,1.4));
#1881=CARTESIAN_POINT('',(3.65,3.3,1.5));
#1882=CARTESIAN_POINT('',(2.8,3.3,1.5));
#1883=CARTESIAN_POINT('',(2.8,3.3,1.4));
#1884=CARTESIAN_POINT('',(2.8,3.3,-1.3));
#1885=CARTESIAN_POINT('',(3.65,3.3,-1.3));
#1886=CARTESIAN_POINT('',(-2.8,3.3,-1.3));
#1887=CARTESIAN_POINT('',(-2.8,3.3,1.5));
#1888=CARTESIAN_POINT('',(-2.8,3.3,1.4));
#1889=CARTESIAN_POINT('',(3.05,3.3,1.4));
#1890=CARTESIAN_POINT('',(0.,1.45,1.5));
#1891=CARTESIAN_POINT('',(3.55,1.45,-1.4));
#1892=CARTESIAN_POINT('',(2.05,1.45,-1.4));
#1893=CARTESIAN_POINT('',(2.05,1.45,-1.4));
#1894=CARTESIAN_POINT('',(-3.55,1.45,-1.4));
#1895=CARTESIAN_POINT('',(3.525,1.45,-1.4));
#1896=CARTESIAN_POINT('',(3.525,1.45,-1.375));
#1897=CARTESIAN_POINT('',(3.55,1.45,-1.375));
#1898=CARTESIAN_POINT('',(3.55,1.45,0.240231781399147));
#1899=CARTESIAN_POINT('',(3.55,1.45,0.215231781399147));
#1900=CARTESIAN_POINT('',(3.525,1.45,0.215231781399147));
#1901=CARTESIAN_POINT('',(3.5,1.45,0.140231781399147));
#1902=CARTESIAN_POINT('',(3.5,1.45,0.340231781399147));
#1903=CARTESIAN_POINT('',(3.55,1.45,0.340231781399147));
#1904=CARTESIAN_POINT('',(3.55,1.45,0.240231781399148));
#1905=CARTESIAN_POINT('',(0.,-1.45,1.5));
#1906=CARTESIAN_POINT('',(-3.55,-1.45,0.340231781399147));
#1907=CARTESIAN_POINT('',(-3.5,-1.45,0.340231781399147));
#1908=CARTESIAN_POINT('',(-3.55,-1.45,0.240231781399147));
#1909=CARTESIAN_POINT('',(-3.55,-1.45,-1.4));
#1910=CARTESIAN_POINT('',(-2.05,-1.45,-1.4));
#1911=CARTESIAN_POINT('',(-2.05,-1.45,-1.4));
#1912=CARTESIAN_POINT('',(-3.55,-1.45,-1.4));
#1913=CARTESIAN_POINT('',(-3.525,-1.45,-1.4));
#1914=CARTESIAN_POINT('',(-3.525,-1.45,-1.375));
#1915=CARTESIAN_POINT('',(-3.525,-1.45,0.215231781399147));
#1916=CARTESIAN_POINT('',(-3.5,-1.45,0.140231781399147));
#1917=CARTESIAN_POINT('',(2.05,-6.68343804956817E-18,-1.4));
#1918=CARTESIAN_POINT('',(2.05,-6.68343804956817E-18,-1.4));
#1919=CARTESIAN_POINT('',(-2.05,-1.20370621524202E-32,-1.4));
#1920=CARTESIAN_POINT('',(-2.05,-1.5,-1.4));
#1921=CARTESIAN_POINT('',(0.,-1.5,0.));
#1922=CARTESIAN_POINT('',(-3.45,-1.5,-1.3));
#1923=CARTESIAN_POINT('',(-3.55,-1.5,0.340231781399147));
#1924=CARTESIAN_POINT('',(-3.5,-1.5,0.340231781399147));
#1925=CARTESIAN_POINT('',(-3.5,-1.5,0.240231781399147));
#1926=CARTESIAN_POINT('',(-3.5,-1.5,-1.34976821860085));
#1927=CARTESIAN_POINT('',(-3.5,-1.5,-1.34976821860085));
#1928=CARTESIAN_POINT('',(-1.9602395948308,-1.5,-1.34976821860085));
#1929=CARTESIAN_POINT('',(-1.9602395948308,-1.5,-1.34976821860085));
#1930=CARTESIAN_POINT('',(-1.9602395948308,-1.5,-1.34976821860085));
#1931=CARTESIAN_POINT('',(-1.9602395948308,-1.5,-1.34976821860085));
#1932=CARTESIAN_POINT('',(-1.9602395948308,1.5,-1.34976821860085));
#1933=CARTESIAN_POINT('',(-1.9602395948308,1.5,-1.34976821860085));
#1934=CARTESIAN_POINT('',(0.,1.5,0.));
#1935=CARTESIAN_POINT('',(-3.45,1.5,-1.3));
#1936=CARTESIAN_POINT('',(-3.5,1.5,-1.34976821860085));
#1937=CARTESIAN_POINT('',(-3.5,1.5,-1.34976821860085));
#1938=CARTESIAN_POINT('',(-3.5,1.5,0.240231781399147));
#1939=CARTESIAN_POINT('',(-3.5,1.5,0.340231781399147));
#1940=CARTESIAN_POINT('',(-3.55,1.5,0.340231781399147));
#1941=CARTESIAN_POINT('',(-3.5,-1.5,0.240231781399147));
#1942=CARTESIAN_POINT('',(-3.5,1.45,0.340231781399147));
#1943=CARTESIAN_POINT('',(-3.5,-1.5,-1.34976821860085));
#1944=CARTESIAN_POINT('',(-3.5,-1.5,0.340231781399147));
#1945=CARTESIAN_POINT('',(-3.5,-1.5,-1.34976821860085));
#1946=CARTESIAN_POINT('',(-2.05,-1.5,-1.4));
#1947=CARTESIAN_POINT('',(-3.525,-1.45,-1.4));
#1948=CARTESIAN_POINT('',(0.,-1.5,0.));
#1949=CARTESIAN_POINT('',(3.45,-1.5,-1.3));
#1950=CARTESIAN_POINT('',(1.9602395948308,-1.5,-1.34976821860085));
#1951=CARTESIAN_POINT('',(1.9602395948308,-1.5,-1.34976821860085));
#1952=CARTESIAN_POINT('',(3.5,-1.5,-1.34976821860085));
#1953=CARTESIAN_POINT('',(3.5,-1.5,-1.34976821860085));
#1954=CARTESIAN_POINT('',(3.5,-1.5,0.240231781399147));
#1955=CARTESIAN_POINT('',(3.5,-1.5,0.340231781399147));
#1956=CARTESIAN_POINT('',(3.5,-1.5,0.340231781399147));
#1957=CARTESIAN_POINT('',(1.9602395948308,-1.5,-1.34976821860085));
#1958=CARTESIAN_POINT('',(1.9602395948308,1.5,-1.34976821860085));
#1959=CARTESIAN_POINT('',(1.9602395948308,1.5,-1.34976821860085));
#1960=CARTESIAN_POINT('',(1.9602395948308,-1.5,-1.34976821860085));
#1961=CARTESIAN_POINT('',(0.,1.5,0.));
#1962=CARTESIAN_POINT('',(3.45,1.5,-1.3));
#1963=CARTESIAN_POINT('',(3.5,1.5,0.340231781399147));
#1964=CARTESIAN_POINT('',(3.5,1.5,0.340231781399147));
#1965=CARTESIAN_POINT('',(3.5,1.5,0.240231781399147));
#1966=CARTESIAN_POINT('',(3.5,1.5,-1.34976821860085));
#1967=CARTESIAN_POINT('',(3.5,1.5,-1.34976821860085));
#1968=CARTESIAN_POINT('',(3.5,-1.5,-1.34976821860085));
#1969=CARTESIAN_POINT('',(3.5,-1.5,-1.34976821860085));
#1970=CARTESIAN_POINT('',(3.5,-1.5,0.240231781399147));
#1971=CARTESIAN_POINT('',(3.5,-1.5,0.340231781399147));
#1972=CARTESIAN_POINT('',(3.5,1.45,0.340231781399147));
#1973=CARTESIAN_POINT('',(3.55,-1.5,0.240231781399147));
#1974=CARTESIAN_POINT('',(3.55,1.45,0.215231781399147));
#1975=CARTESIAN_POINT('',(3.55,-1.45,-1.375));
#1976=CARTESIAN_POINT('',(3.55,-1.5,-1.4));
#1977=CARTESIAN_POINT('',(3.525,1.45,-1.4));
#1978=CARTESIAN_POINT('',(0.,0.,0.340231781399147));
#1979=CARTESIAN_POINT('',(0.,0.,0.340231781399147));
#1980=CARTESIAN_POINT('',(0.,0.,0.340231781399147));
#1981=CARTESIAN_POINT('',(0.,0.,0.340231781399147));
#1982=CARTESIAN_POINT('',(3.55,-3.3,0.240231781399148));
#1983=CARTESIAN_POINT('',(-3.55,3.3,-1.4));
#1984=CARTESIAN_POINT('',(-3.55,3.26545602122664,0.240231781399147));
#1985=CARTESIAN_POINT('',(3.55,-3.3,-1.4));
#1986=CARTESIAN_POINT('',(-3.525,-1.5,0.215231781399147));
#1987=CARTESIAN_POINT('',(-3.525,-1.5,-1.375));
#1988=CARTESIAN_POINT('',(3.525,-1.5,-1.375));
#1989=CARTESIAN_POINT('',(3.525,-1.5,0.215231781399147));
#1990=CARTESIAN_POINT('',(-2.8,-2.55,1.5));
#1991=CARTESIAN_POINT('',(-2.8,-2.55,-1.3));
#1992=CARTESIAN_POINT('',(-2.8,-2.55,1.4));
#1993=CARTESIAN_POINT('',(2.8,2.55,1.5));
#1994=CARTESIAN_POINT('',(2.8,2.55,-1.3));
#1995=CARTESIAN_POINT('',(2.8,2.55,1.4));
#1996=CARTESIAN_POINT('',(2.8,-2.55,1.5));
#1997=CARTESIAN_POINT('',(2.8,-2.55,-1.3));
#1998=CARTESIAN_POINT('',(2.8,-2.55,1.4));
#1999=CARTESIAN_POINT('',(-2.8,2.55,1.5));
#2000=CARTESIAN_POINT('',(-2.8,2.55,-1.3));
#2001=CARTESIAN_POINT('',(-2.8,2.55,1.4));
#2002=CARTESIAN_POINT('',(2.8,-2.55,1.4));
#2003=CARTESIAN_POINT('',(2.8,-3.2,1.4));
#2004=CARTESIAN_POINT('',(3.45,-2.55,1.4));
#2005=CARTESIAN_POINT('',(3.45,0.,1.4));
#2006=CARTESIAN_POINT('',(3.45,2.55,1.4));
#2007=CARTESIAN_POINT('',(0.,-3.2,1.4));
#2008=CARTESIAN_POINT('',(-2.8,-3.2,1.4));
#2009=CARTESIAN_POINT('',(2.8,2.55,1.4));
#2010=CARTESIAN_POINT('',(2.8,3.2,1.4));
#2011=CARTESIAN_POINT('',(-2.8,-2.55,1.4));
#2012=CARTESIAN_POINT('',(-3.45,-2.55,1.4));
#2013=CARTESIAN_POINT('',(0.,3.2,1.4));
#2014=CARTESIAN_POINT('',(-2.8,3.2,1.4));
#2015=CARTESIAN_POINT('',(-3.45,2.3,1.4));
#2016=CARTESIAN_POINT('',(-3.45,2.55,1.4));
#2017=CARTESIAN_POINT('',(-2.8,2.55,1.4));
#2018=CARTESIAN_POINT('',(-3.45,2.3,-1.3));
#2019=CARTESIAN_POINT('',(-3.45,2.55,-1.3));
#2020=CARTESIAN_POINT('',(-2.8,2.55,-1.3));
#2021=CARTESIAN_POINT('',(-2.8,3.2,-1.3));
#2022=CARTESIAN_POINT('',(-3.55,3.2,-1.3));
#2023=CARTESIAN_POINT('',(2.8,3.2,-1.3));
#2024=CARTESIAN_POINT('',(2.8,2.55,-1.3));
#2025=CARTESIAN_POINT('',(3.45,2.55,-1.3));
#2026=CARTESIAN_POINT('',(3.45,2.3,-1.3));
#2027=CARTESIAN_POINT('',(3.45,2.3,-1.3));
#2028=CARTESIAN_POINT('',(3.45,-2.55,-1.3));
#2029=CARTESIAN_POINT('',(2.8,-2.55,-1.3));
#2030=CARTESIAN_POINT('',(2.8,-3.2,-1.3));
#2031=CARTESIAN_POINT('',(-3.55,-3.2,-1.3));
#2032=CARTESIAN_POINT('',(-2.8,-3.2,-1.3));
#2033=CARTESIAN_POINT('',(-2.8,-2.55,-1.3));
#2034=CARTESIAN_POINT('',(-3.45,-2.55,-1.3));
#2035=CARTESIAN_POINT('',(-3.45,2.3,-1.3));
#2036=MECHANICAL_DESIGN_GEOMETRIC_PRESENTATION_REPRESENTATION('',(#1201),
#2037);
#2037=(
GEOMETRIC_REPRESENTATION_CONTEXT(3)
GLOBAL_UNCERTAINTY_ASSIGNED_CONTEXT((#2038))
GLOBAL_UNIT_ASSIGNED_CONTEXT((#2041,#2040,#2039))
REPRESENTATION_CONTEXT('BMRF00060630100MA1','TOP_LEVEL_ASSEMBLY_PART')
);
#2038=UNCERTAINTY_MEASURE_WITH_UNIT(LENGTH_MEASURE(0.005),#2041,
'DISTANCE_ACCURACY_VALUE','Maximum Tolerance applied to model');
#2039=(
NAMED_UNIT(*)
SI_UNIT($,.STERADIAN.)
SOLID_ANGLE_UNIT()
);
#2040=(
NAMED_UNIT(*)
PLANE_ANGLE_UNIT()
SI_UNIT($,.RADIAN.)
);
#2041=(
LENGTH_UNIT()
NAMED_UNIT(*)
SI_UNIT(.MILLI.,.METRE.)
);
#2042=PRODUCT_DEFINITION_SHAPE('','',#2043);
#2043=PRODUCT_DEFINITION('','',#2045,#2044);
#2044=PRODUCT_DEFINITION_CONTEXT('',#2051,'design');
#2045=PRODUCT_DEFINITION_FORMATION_WITH_SPECIFIED_SOURCE('','',#2047,
 .NOT_KNOWN.);
#2046=PRODUCT_RELATED_PRODUCT_CATEGORY('','',(#2047));
#2047=PRODUCT('BMRF00060630100MA1','BMRF00060630100MA1',
'BMRF00060630100MA1',(#2049));
#2048=PRODUCT_CATEGORY('','');
#2049=PRODUCT_CONTEXT('',#2051,'mechanical');
#2050=APPLICATION_PROTOCOL_DEFINITION('international standard',
'automotive_design',2010,#2051);
#2051=APPLICATION_CONTEXT(
'core data for automotive mechanical design processes');
ENDSEC;
END-ISO-10303-21;
