%TF.GenerationSoftware,KiCad,Pcbnew,9.0.9-9.0.9~ubuntu24.04.1*%
%TF.CreationDate,2026-08-12T11:20:00-04:00*%
%TF.ProjectId,tv070hat,74763037-3068-4617-942e-6b696361645f,rev?*%
%TF.SameCoordinates,Original*%
%TF.FileFunction,Copper,L3,Inr*%
%TF.FilePolarity,Positive*%
%FSLAX46Y46*%
G04 Gerber Fmt 4.6, Leading zero omitted, Abs format (unit mm)*
G04 Created by KiCad (PCBNEW 9.0.9-9.0.9~ubuntu24.04.1) date 2026-08-12 11:20:00*
%MOMM*%
%LPD*%
G01*
G04 APERTURE LIST*
%TA.AperFunction,ComponentPad*%
%ADD10C,0.400000*%
%TD*%
%TA.AperFunction,ComponentPad*%
%ADD11R,1.700000X1.700000*%
%TD*%
%TA.AperFunction,ComponentPad*%
%ADD12C,1.700000*%
%TD*%
%TA.AperFunction,ViaPad*%
%ADD13C,0.500000*%
%TD*%
%TA.AperFunction,Conductor*%
%ADD14C,0.200000*%
%TD*%
%TA.AperFunction,Conductor*%
%ADD15C,0.250000*%
%TD*%
G04 APERTURE END LIST*
D10*
%TO.N,GND1*%
%TO.C,U3*%
X144050000Y-104250000D03*
X145350000Y-104250000D03*
X146650000Y-104250000D03*
X147950000Y-104250000D03*
X149250000Y-104250000D03*
X144050000Y-102950000D03*
X145350000Y-102950000D03*
X146650000Y-102950000D03*
X147950000Y-102950000D03*
X149250000Y-102950000D03*
X144050000Y-101650000D03*
X145350000Y-101650000D03*
X146650000Y-101650000D03*
X147950000Y-101650000D03*
X149250000Y-101650000D03*
%TD*%
D11*
%TO.N,Net-(J5-3V3-Pad1)*%
%TO.C,J5*%
X155460000Y-74600000D03*
D12*
%TO.N,/PWR-BL-TOUCH/+5V*%
X158000000Y-74600000D03*
%TO.N,unconnected-(J5-SDA_I2C1{slash}GPIO02-Pad3)*%
X155460000Y-77140000D03*
%TO.N,/PWR-BL-TOUCH/+5V*%
X158000000Y-77140000D03*
%TO.N,unconnected-(J5-SCL_I2C1{slash}GPIO03-Pad5)*%
X155460000Y-79680000D03*
%TO.N,GND*%
X158000000Y-79680000D03*
%TO.N,unconnected-(J5-GPCLK0{slash}GPIO04-Pad7)*%
X155460000Y-82220000D03*
%TO.N,unconnected-(J5-GPIO14{slash}UART_TXD-Pad8)*%
X158000000Y-82220000D03*
%TO.N,GND*%
X155460000Y-84760000D03*
%TO.N,unconnected-(J5-GPIO15{slash}UART_RXD-Pad10)*%
X158000000Y-84760000D03*
%TO.N,unconnected-(J5-GPIO17{slash}SPI1_~{CE1}-Pad11)*%
X155460000Y-87300000D03*
%TO.N,unconnected-(J5-GPIO18{slash}SPI1_~{CE0}{slash}PCM_CLK{slash}PWM0-Pad12)*%
X158000000Y-87300000D03*
%TO.N,/MIPI-lanes/DSI_RST_CM4*%
X155460000Y-89840000D03*
%TO.N,GND*%
X158000000Y-89840000D03*
%TO.N,/PWR-BL-TOUCH/SDA6*%
X155460000Y-92380000D03*
%TO.N,/PWR-BL-TOUCH/SCL6*%
X158000000Y-92380000D03*
%TO.N,Net-(J5-3V3-Pad1)*%
X155460000Y-94920000D03*
%TO.N,unconnected-(J5-GPIO24{slash}SDIO_DAT0-Pad18)*%
X158000000Y-94920000D03*
%TO.N,unconnected-(J5-MOSI_SPI0{slash}GPIO10-Pad19)*%
X155460000Y-97460000D03*
%TO.N,GND*%
X158000000Y-97460000D03*
%TO.N,unconnected-(J5-MISO_SPI0{slash}GPIO09-Pad21)*%
X155460000Y-100000000D03*
%TO.N,unconnected-(J5-GPIO25{slash}SDIO_DAT1-Pad22)*%
X158000000Y-100000000D03*
%TO.N,unconnected-(J5-SCLK_SPI0{slash}GPIO11-Pad23)*%
X155460000Y-102540000D03*
%TO.N,unconnected-(J5-~{CE0}_SPI0{slash}GPIO08-Pad24)*%
X158000000Y-102540000D03*
%TO.N,GND*%
X155460000Y-105080000D03*
%TO.N,unconnected-(J5-~{CE1}_SPI0{slash}GPIO07-Pad26)*%
X158000000Y-105080000D03*
%TO.N,unconnected-(J5-ID_SD_I2C0{slash}GPIO00-Pad27)*%
X155460000Y-107620000D03*
%TO.N,unconnected-(J5-ID_SC_I2C0{slash}GPIO01-Pad28)*%
X158000000Y-107620000D03*
%TO.N,unconnected-(J5-GPCLK1{slash}GPIO05-Pad29)*%
X155460000Y-110160000D03*
%TO.N,GND*%
X158000000Y-110160000D03*
%TO.N,unconnected-(J5-GPCLK2{slash}GPIO06-Pad31)*%
X155460000Y-112700000D03*
%TO.N,/PWR-BL-TOUCH/PWM_IN*%
X158000000Y-112700000D03*
%TO.N,unconnected-(J5-GPIO13{slash}PWM1-Pad33)*%
X155460000Y-115240000D03*
%TO.N,GND*%
X158000000Y-115240000D03*
%TO.N,unconnected-(J5-GPIO19{slash}SPI1_MISO{slash}PCM_FS-Pad35)*%
X155460000Y-117780000D03*
%TO.N,unconnected-(J5-GPIO16{slash}SPI1_~{CE2}-Pad36)*%
X158000000Y-117780000D03*
%TO.N,/PWR-BL-TOUCH/TP_RST_CM4*%
X155460000Y-120320000D03*
%TO.N,unconnected-(J5-GPIO20{slash}SPI1_MOSI{slash}PCM_DIN{slash}PWM1-Pad38)*%
X158000000Y-120320000D03*
%TO.N,GND*%
X155460000Y-122860000D03*
%TO.N,/PWR-BL-TOUCH/TP_INT_CM4*%
X158000000Y-122860000D03*
%TD*%
D13*
%TO.N,GND*%
X106250000Y-67000000D03*
X111500000Y-79250000D03*
X118190000Y-105570000D03*
X110140000Y-99140000D03*
X112500000Y-124500000D03*
X114760000Y-107760000D03*
X140500000Y-86500000D03*
X114700000Y-89600000D03*
X105100000Y-88400000D03*
X133950000Y-76750000D03*
X105100000Y-73650000D03*
X145250000Y-85750000D03*
X115750000Y-130000000D03*
X120500000Y-67000000D03*
X115020000Y-109860000D03*
X146000000Y-72000000D03*
X106750000Y-112750000D03*
X119750000Y-124500000D03*
X104500000Y-102100000D03*
X143500000Y-67250000D03*
X146250000Y-97000000D03*
X105200000Y-78450000D03*
X108730000Y-105230000D03*
X122600000Y-87550000D03*
X153250000Y-126000000D03*
X110850000Y-93150000D03*
X117810000Y-107920000D03*
X104650000Y-107500000D03*
X145250000Y-97750000D03*
X113210000Y-105540000D03*
X109330000Y-99150000D03*
X114980000Y-98890000D03*
X146000000Y-97750000D03*
X122250000Y-75000000D03*
X115400000Y-102900000D03*
X105750000Y-124750000D03*
X142500000Y-86250000D03*
X142000000Y-69250000D03*
X145000000Y-97000000D03*
X115020000Y-112170000D03*
X122750000Y-77450000D03*
X110500000Y-74750000D03*
X109250000Y-77500000D03*
X149250000Y-130250000D03*
X132250000Y-81900000D03*
X109750000Y-67000000D03*
X122890000Y-80600000D03*
X141000000Y-83250000D03*
X115000000Y-73500000D03*
X136750000Y-83700000D03*
X105450000Y-93350000D03*
X111790000Y-105150000D03*
X112500000Y-112750000D03*
X108750000Y-107820000D03*
X145500000Y-82250000D03*
X116500000Y-70500000D03*
X125000000Y-130250000D03*
X113750000Y-67000000D03*
X116750000Y-67000000D03*
X138500000Y-102950000D03*
X159000000Y-125000000D03*
X116290000Y-107930000D03*
X140500000Y-84250000D03*
X113610000Y-102590000D03*
X141250000Y-76000000D03*
X120500000Y-113000000D03*
X120000000Y-73250000D03*
X153250000Y-123500000D03*
X105100000Y-84900000D03*
X128750000Y-76750000D03*
X131750000Y-76750000D03*
X145250000Y-84750000D03*
X111750000Y-70750000D03*
X117750000Y-112500000D03*
X143000000Y-82250000D03*
X144250000Y-86750000D03*
X122250000Y-72000000D03*
X114410000Y-102570000D03*
X120500000Y-119000000D03*
X149000000Y-67250000D03*
X153750000Y-130000000D03*
X145750000Y-75000000D03*
X143000000Y-83250000D03*
X122500000Y-69000000D03*
X141750000Y-88000000D03*
X153250000Y-67000000D03*
X106400000Y-104160000D03*
X116690000Y-104030000D03*
X108800000Y-84200000D03*
X113340000Y-107880000D03*
X111660000Y-107950000D03*
X123570000Y-81020000D03*
X134950000Y-77350000D03*
X135650000Y-85800000D03*
X130200000Y-82750000D03*
X149250000Y-76000000D03*
X129450000Y-88350000D03*
X141750000Y-72250000D03*
X133050000Y-77300000D03*
X142500000Y-84500000D03*
X107110000Y-102090000D03*
X132250000Y-130000000D03*
X134950000Y-82450000D03*
X142000000Y-130250000D03*
X114700000Y-88800000D03*
X121850000Y-87400000D03*
X146000000Y-69500000D03*
%TO.N,GND1*%
X143900000Y-110600000D03*
X150200000Y-97100000D03*
X144700000Y-110600000D03*
%TO.N,Net-(U3-FAULT)*%
X148700000Y-107150000D03*
X146400000Y-107100000D03*
%TO.N,/PWR-BL-TOUCH/+5V*%
X136250000Y-118150000D03*
X136250000Y-118800000D03*
X130050000Y-118850000D03*
X137100000Y-118750000D03*
X138050000Y-118150000D03*
X124450000Y-110750000D03*
X129050000Y-118900000D03*
X137950000Y-118750000D03*
X125100000Y-112100000D03*
X124450000Y-111450000D03*
X137100000Y-118150000D03*
X125100000Y-111450000D03*
X129500000Y-118500000D03*
X129000000Y-118200000D03*
X125100000Y-110700000D03*
X124500000Y-112100000D03*
X130050000Y-118200000D03*
%TO.N,/MIPI-lanes/+1V8*%
X123900000Y-101800000D03*
X124700000Y-80950000D03*
X124300000Y-90450000D03*
X117750000Y-91350000D03*
X118050000Y-92050000D03*
X123950000Y-101050000D03*
X124300000Y-81450000D03*
%TO.N,/MIPI-lanes/+3V3*%
X145900000Y-108000000D03*
X130200000Y-107500000D03*
X130860000Y-77140000D03*
X131850000Y-82650000D03*
X129200000Y-108500000D03*
X116350000Y-98250000D03*
X146800000Y-108100000D03*
X130200000Y-96150000D03*
X127500000Y-83020000D03*
X128300000Y-108500000D03*
X129300000Y-107500000D03*
X149150000Y-110350000D03*
X117100000Y-98200000D03*
X130100000Y-108500000D03*
X128300000Y-107500000D03*
%TO.N,/MIPI-lanes/DSI1_D0_P*%
X132250000Y-80176200D03*
X109383800Y-100020000D03*
%TO.N,/MIPI-lanes/DSI1_C_N*%
X114326200Y-103390000D03*
X133112270Y-80111276D03*
%TO.N,/MIPI-lanes/DSI1_D2_N*%
X115000000Y-110673800D03*
X136550000Y-80026200D03*
%TO.N,/MIPI-lanes/DSI1_D0_N*%
X132250000Y-79523800D03*
X110036200Y-100020000D03*
%TO.N,/MIPI-lanes/DSI1_D2_P*%
X115000000Y-111326200D03*
X136550000Y-79373800D03*
%TO.N,/MIPI-lanes/DSI1_D3_N*%
X107130659Y-102969341D03*
X130300000Y-80076200D03*
%TO.N,/MIPI-lanes/DSI1_C_P*%
X133112270Y-79458876D03*
X113673800Y-103390000D03*
%TO.N,/PWR-BL-TOUCH/FB2*%
X137170000Y-77210000D03*
X147760000Y-98860000D03*
%TO.N,/MIPI-lanes/DSI1_D1_N*%
X116670659Y-103240659D03*
X134842509Y-79439772D03*
%TO.N,/MIPI-lanes/DSI1_D3_P*%
X106669341Y-103430659D03*
X130300000Y-79423800D03*
%TO.N,/PWR-BL-TOUCH/FB1*%
X140980000Y-81930000D03*
X147900000Y-97370000D03*
%TO.N,/MIPI-lanes/DSI1_D1_P*%
X134842509Y-80092172D03*
X116209341Y-102779341D03*
%TO.N,/PWR-BL-TOUCH/FB3*%
X143730000Y-80970000D03*
X147020000Y-98820000D03*
%TO.N,/PWR-BL-TOUCH/SDA6*%
X126880000Y-98650000D03*
%TO.N,/PWR-BL-TOUCH/SCL6*%
X126670000Y-99420000D03*
%TO.N,/PWR-BL-TOUCH/TP_RST*%
X116600000Y-86900000D03*
X119000000Y-84300000D03*
%TO.N,/MIPI-lanes/DSI_RST_CM4*%
X132950000Y-93800000D03*
%TD*%
D14*
%TO.N,/MIPI-lanes/+3V3*%
X149150000Y-110350000D02*
X146900000Y-110350000D01*
D15*
%TO.N,/PWR-BL-TOUCH/FB2*%
X139340000Y-77210000D02*
X139830000Y-77700000D01*
X148760000Y-97860000D02*
X148760000Y-80680000D01*
X137170000Y-77210000D02*
X139340000Y-77210000D01*
X147760000Y-98860000D02*
X148760000Y-97860000D01*
X139830000Y-77700000D02*
X139830000Y-79360000D01*
X148760000Y-80680000D02*
X147580000Y-79500000D01*
X139970000Y-79500000D02*
X139830000Y-79360000D01*
X147580000Y-79500000D02*
X139970000Y-79500000D01*
%TO.N,/PWR-BL-TOUCH/FB1*%
X147900000Y-80770000D02*
X147480000Y-80350000D01*
X147900000Y-97370000D02*
X147900000Y-80770000D01*
X147480000Y-80350000D02*
X142560000Y-80350000D01*
X142560000Y-80350000D02*
X140980000Y-81930000D01*
%TO.N,/PWR-BL-TOUCH/FB3*%
X147080000Y-81470000D02*
X146610000Y-81000000D01*
X147020000Y-98820000D02*
X147080000Y-98760000D01*
X143760000Y-81000000D02*
X143730000Y-80970000D01*
X146610000Y-81000000D02*
X143760000Y-81000000D01*
X147080000Y-98760000D02*
X147080000Y-81470000D01*
%TD*%
%TA.AperFunction,Conductor*%
%TO.N,GND1*%
G36*
X145000000Y-104567655D02*
G01*
X145000000Y-106799999D01*
X145191131Y-107277827D01*
X145200000Y-107323879D01*
X145200000Y-111876000D01*
X145180315Y-111943039D01*
X145127511Y-111988794D01*
X145076000Y-112000000D01*
X143624000Y-112000000D01*
X143556961Y-111980315D01*
X143511206Y-111927511D01*
X143500000Y-111876000D01*
X143500000Y-107389374D01*
X143519685Y-107322335D01*
X143572489Y-107276580D01*
X143584782Y-107271739D01*
X144400000Y-107000000D01*
X144400000Y-104564728D01*
X144400000Y-104500000D01*
X145000000Y-104500000D01*
X145000000Y-104567655D01*
G37*
%TD.AperFunction*%
%TD*%
%TA.AperFunction,Conductor*%
%TO.N,GND*%
G36*
X157503243Y-66210669D02*
G01*
X157806001Y-66226537D01*
X157818909Y-66227894D01*
X158115133Y-66274811D01*
X158127817Y-66277506D01*
X158417536Y-66355136D01*
X158429873Y-66359146D01*
X158520450Y-66393915D01*
X158575983Y-66436317D01*
X158599776Y-66502010D01*
X158584275Y-66570139D01*
X158534401Y-66619072D01*
X158474482Y-66633670D01*
X156098250Y-66604334D01*
X155355834Y-66595169D01*
X155355831Y-66595169D01*
X155355821Y-66595169D01*
X155355819Y-66595169D01*
X155326213Y-66596525D01*
X155326168Y-66596528D01*
X155300449Y-66599210D01*
X155297593Y-66599508D01*
X155295299Y-66599758D01*
X155295296Y-66599758D01*
X155200337Y-66630099D01*
X155200336Y-66630100D01*
X155139213Y-66663939D01*
X155139208Y-66663942D01*
X155081251Y-66707857D01*
X155081247Y-66707861D01*
X152425872Y-69394430D01*
X152228477Y-69594144D01*
X150953428Y-70884171D01*
X150935733Y-70904047D01*
X150919617Y-70924168D01*
X150919613Y-70924174D01*
X150873882Y-71011912D01*
X150854195Y-71078957D01*
X150854194Y-71078960D01*
X150843846Y-71150937D01*
X150843846Y-96751399D01*
X150824161Y-96818438D01*
X150771357Y-96864193D01*
X150702199Y-96874137D01*
X150638643Y-96845112D01*
X150612459Y-96813400D01*
X150600500Y-96792686D01*
X150507314Y-96699500D01*
X150422442Y-96650499D01*
X150393187Y-96633608D01*
X150328931Y-96616391D01*
X150265892Y-96599500D01*
X150134108Y-96599500D01*
X150006812Y-96633608D01*
X149892686Y-96699500D01*
X149892683Y-96699502D01*
X149799502Y-96792683D01*
X149799500Y-96792686D01*
X149733608Y-96906812D01*
X149699500Y-97034108D01*
X149699500Y-97165891D01*
X149733608Y-97293187D01*
X149752069Y-97325161D01*
X149799500Y-97407314D01*
X149892686Y-97500500D01*
X150006814Y-97566392D01*
X150134108Y-97600500D01*
X150134110Y-97600500D01*
X150265890Y-97600500D01*
X150265892Y-97600500D01*
X150393186Y-97566392D01*
X150507314Y-97500500D01*
X150600500Y-97407314D01*
X150612459Y-97386601D01*
X150663025Y-97338385D01*
X150731632Y-97325161D01*
X150796497Y-97351129D01*
X150837026Y-97408043D01*
X150843846Y-97448600D01*
X150843846Y-100816051D01*
X150824161Y-100883090D01*
X150771357Y-100928845D01*
X150719241Y-100940050D01*
X148861769Y-100930989D01*
X141506502Y-100895110D01*
X141506501Y-100895110D01*
X141506498Y-100895110D01*
X141451556Y-100900815D01*
X141451554Y-100900815D01*
X141451547Y-100900816D01*
X141451541Y-100900817D01*
X141451536Y-100900818D01*
X141399451Y-100912017D01*
X141399415Y-100912026D01*
X141372460Y-100919386D01*
X141372452Y-100919389D01*
X141285832Y-100968714D01*
X141285828Y-100968717D01*
X141233026Y-101014469D01*
X141201398Y-101047246D01*
X141155189Y-101135583D01*
X141155188Y-101135583D01*
X141135506Y-101202615D01*
X141135503Y-101202627D01*
X141125155Y-101274604D01*
X141125155Y-104426604D01*
X141130862Y-104480305D01*
X141141814Y-104531251D01*
X141141817Y-104531262D01*
X141148796Y-104557067D01*
X141148797Y-104557071D01*
X141197698Y-104643928D01*
X141197700Y-104643932D01*
X141209386Y-104657552D01*
X141243199Y-104696961D01*
X141275819Y-104728746D01*
X141275821Y-104728747D01*
X141275822Y-104728748D01*
X141327185Y-104755935D01*
X141363928Y-104775385D01*
X141430871Y-104795397D01*
X141430874Y-104795397D01*
X141430876Y-104795398D01*
X141481550Y-104802936D01*
X141502804Y-104806098D01*
X144021105Y-104818382D01*
X144088048Y-104838394D01*
X144133544Y-104891420D01*
X144144500Y-104942381D01*
X144144500Y-106726470D01*
X144124815Y-106793509D01*
X144072011Y-106839264D01*
X144059712Y-106844107D01*
X143503963Y-107029357D01*
X143491183Y-107034000D01*
X143478870Y-107038849D01*
X143405173Y-107083485D01*
X143405166Y-107083490D01*
X143352379Y-107129230D01*
X143352374Y-107129234D01*
X143320743Y-107162014D01*
X143274534Y-107250351D01*
X143274533Y-107250351D01*
X143254851Y-107317383D01*
X143254848Y-107317395D01*
X143244500Y-107389372D01*
X143244500Y-111876002D01*
X143250338Y-111930312D01*
X143261543Y-111981818D01*
X143261545Y-111981824D01*
X143263957Y-111990615D01*
X143268779Y-112008192D01*
X143268783Y-112008203D01*
X143318105Y-112094818D01*
X143318110Y-112094825D01*
X143318112Y-112094828D01*
X143342706Y-112123211D01*
X143363866Y-112147631D01*
X143363871Y-112147636D01*
X143396878Y-112179486D01*
X143431452Y-112240202D01*
X143427711Y-112309971D01*
X143386844Y-112366643D01*
X143321826Y-112392224D01*
X143314125Y-112392672D01*
X141490331Y-112441964D01*
X141430293Y-112428293D01*
X130843492Y-106986479D01*
X130843474Y-106986471D01*
X130786770Y-106965381D01*
X130730075Y-106951664D01*
X130701999Y-106948316D01*
X130669996Y-106944500D01*
X128024000Y-106944500D01*
X128023997Y-106944500D01*
X127969687Y-106950338D01*
X127918181Y-106961543D01*
X127918172Y-106961546D01*
X127891807Y-106968779D01*
X127891796Y-106968783D01*
X127805181Y-107018105D01*
X127805173Y-107018111D01*
X127752371Y-107063863D01*
X127720743Y-107096640D01*
X127674534Y-107184977D01*
X127674533Y-107184977D01*
X127654851Y-107252009D01*
X127654848Y-107252021D01*
X127644500Y-107323998D01*
X127644500Y-108776002D01*
X127650338Y-108830312D01*
X127661543Y-108881818D01*
X127661546Y-108881827D01*
X127668779Y-108908192D01*
X127668783Y-108908203D01*
X127718105Y-108994818D01*
X127718110Y-108994825D01*
X127718112Y-108994828D01*
X127744580Y-109025374D01*
X127763863Y-109047628D01*
X127763866Y-109047631D01*
X127763867Y-109047632D01*
X127796641Y-109079257D01*
X127884976Y-109125465D01*
X127884977Y-109125465D01*
X127884977Y-109125466D01*
X127934909Y-109140127D01*
X127952015Y-109145150D01*
X127952019Y-109145150D01*
X127952021Y-109145151D01*
X127963652Y-109146823D01*
X128024000Y-109155500D01*
X130407349Y-109155500D01*
X130464489Y-109169449D01*
X140754151Y-114512159D01*
X140813936Y-114534245D01*
X140873715Y-114548167D01*
X140937103Y-114554768D01*
X145574367Y-114456103D01*
X145636304Y-114447119D01*
X145694458Y-114431222D01*
X145752348Y-114407452D01*
X145764555Y-114400586D01*
X146111818Y-114205250D01*
X147262054Y-113558242D01*
X147312068Y-113521453D01*
X147355591Y-113480417D01*
X147379257Y-113454838D01*
X147425465Y-113366503D01*
X147445150Y-113299464D01*
X147455500Y-113227479D01*
X147455500Y-110824500D01*
X147475185Y-110757461D01*
X147527989Y-110711706D01*
X147579500Y-110700500D01*
X148741324Y-110700500D01*
X148808363Y-110720185D01*
X148829005Y-110736819D01*
X148842686Y-110750500D01*
X148956814Y-110816392D01*
X149084108Y-110850500D01*
X149084110Y-110850500D01*
X149215890Y-110850500D01*
X149215892Y-110850500D01*
X149343186Y-110816392D01*
X149457314Y-110750500D01*
X149550500Y-110657314D01*
X149616392Y-110543186D01*
X149650500Y-110415892D01*
X149650500Y-110284108D01*
X149616392Y-110156814D01*
X149550500Y-110042686D01*
X149457314Y-109949500D01*
X149375560Y-109902299D01*
X149343187Y-109883608D01*
X149279539Y-109866554D01*
X149215892Y-109849500D01*
X149084108Y-109849500D01*
X148956812Y-109883608D01*
X148842686Y-109949500D01*
X148842683Y-109949502D01*
X148829005Y-109963181D01*
X148767682Y-109996666D01*
X148741324Y-109999500D01*
X147579500Y-109999500D01*
X147512461Y-109979815D01*
X147466706Y-109927011D01*
X147455500Y-109875500D01*
X147455500Y-107724000D01*
X147449661Y-107669687D01*
X147438455Y-107618176D01*
X147431219Y-107591802D01*
X147407700Y-107550500D01*
X147381894Y-107505181D01*
X147381890Y-107505176D01*
X147381888Y-107505172D01*
X147343745Y-107461153D01*
X147336136Y-107452371D01*
X147303359Y-107420743D01*
X147215022Y-107374534D01*
X147215022Y-107374533D01*
X147147990Y-107354851D01*
X147147978Y-107354848D01*
X147076001Y-107344500D01*
X147076000Y-107344500D01*
X147014242Y-107344500D01*
X146947203Y-107324815D01*
X146901448Y-107272011D01*
X146890553Y-107211721D01*
X146891393Y-107199877D01*
X146900500Y-107165892D01*
X146900500Y-107084108D01*
X148199500Y-107084108D01*
X148199500Y-107215892D01*
X148209179Y-107252015D01*
X148233608Y-107343187D01*
X148260275Y-107389374D01*
X148299500Y-107457314D01*
X148392686Y-107550500D01*
X148506814Y-107616392D01*
X148634108Y-107650500D01*
X148634110Y-107650500D01*
X148765890Y-107650500D01*
X148765892Y-107650500D01*
X148893186Y-107616392D01*
X149007314Y-107550500D01*
X149100500Y-107457314D01*
X149166392Y-107343186D01*
X149200500Y-107215892D01*
X149200500Y-107084108D01*
X149166392Y-106956814D01*
X149159282Y-106944500D01*
X149135364Y-106903072D01*
X149100500Y-106842686D01*
X149007314Y-106749500D01*
X148950250Y-106716554D01*
X148893187Y-106683608D01*
X148829539Y-106666554D01*
X148765892Y-106649500D01*
X148634108Y-106649500D01*
X148506812Y-106683608D01*
X148392686Y-106749500D01*
X148392683Y-106749502D01*
X148299502Y-106842683D01*
X148299500Y-106842686D01*
X148233608Y-106956812D01*
X148202856Y-107071583D01*
X148199500Y-107084108D01*
X146900500Y-107084108D01*
X146900500Y-107034108D01*
X146866392Y-106906814D01*
X146864230Y-106903070D01*
X146830188Y-106844107D01*
X146800500Y-106792686D01*
X146707314Y-106699500D01*
X146620712Y-106649500D01*
X146593187Y-106633608D01*
X146529539Y-106616554D01*
X146465892Y-106599500D01*
X146334108Y-106599500D01*
X146206812Y-106633608D01*
X146092686Y-106699500D01*
X146092683Y-106699502D01*
X145999502Y-106792683D01*
X145999500Y-106792686D01*
X145933608Y-106906812D01*
X145912262Y-106986479D01*
X145899500Y-107034108D01*
X145899500Y-107165892D01*
X145904614Y-107184977D01*
X145905533Y-107188407D01*
X145905106Y-107206325D01*
X145909718Y-107223645D01*
X145904292Y-107240527D01*
X145903870Y-107258257D01*
X145893823Y-107273100D01*
X145888340Y-107290163D01*
X145874648Y-107301431D01*
X145864707Y-107316120D01*
X145848228Y-107323176D01*
X145834392Y-107334564D01*
X145809992Y-107339548D01*
X145800478Y-107343623D01*
X145800287Y-107343646D01*
X145793049Y-107344500D01*
X145724000Y-107344500D01*
X145669687Y-107350339D01*
X145618176Y-107361545D01*
X145595241Y-107367837D01*
X145585963Y-107368932D01*
X145560349Y-107364583D01*
X145534375Y-107364119D01*
X145526461Y-107358830D01*
X145517079Y-107357238D01*
X145497881Y-107339731D01*
X145476283Y-107325298D01*
X145471878Y-107316019D01*
X145465452Y-107310159D01*
X145460794Y-107292669D01*
X145449671Y-107269235D01*
X145442021Y-107229509D01*
X145428357Y-107182937D01*
X145264369Y-106772966D01*
X145255500Y-106726914D01*
X145255500Y-104949010D01*
X145275185Y-104881971D01*
X145327989Y-104836216D01*
X145380101Y-104825011D01*
X150706016Y-104850990D01*
X150772952Y-104871001D01*
X150818449Y-104924027D01*
X150829392Y-104976764D01*
X150649880Y-117512414D01*
X150629238Y-117579164D01*
X150575784Y-117624158D01*
X150525939Y-117634638D01*
X125779546Y-117643819D01*
X125712499Y-117624159D01*
X125666725Y-117571372D01*
X125655500Y-117519819D01*
X125655500Y-110528684D01*
X125655500Y-110528677D01*
X125648613Y-110469757D01*
X125635424Y-110414106D01*
X125626083Y-110383421D01*
X125577990Y-110305795D01*
X125573583Y-110298682D01*
X125573581Y-110298680D01*
X125573579Y-110298676D01*
X125559980Y-110284108D01*
X125525903Y-110247603D01*
X125525901Y-110247602D01*
X125491982Y-110217215D01*
X125491980Y-110217213D01*
X125401994Y-110174306D01*
X125401991Y-110174305D01*
X125401987Y-110174303D01*
X125334279Y-110157117D01*
X125334275Y-110157116D01*
X125334273Y-110157116D01*
X125261956Y-110149437D01*
X125261951Y-110149437D01*
X125261950Y-110149437D01*
X124158363Y-110190310D01*
X124110567Y-110196631D01*
X124110562Y-110196632D01*
X124065151Y-110207073D01*
X124044990Y-110212587D01*
X124044982Y-110212590D01*
X123957707Y-110260749D01*
X123957700Y-110260754D01*
X123904294Y-110305790D01*
X123904282Y-110305802D01*
X123872228Y-110338141D01*
X123824839Y-110425847D01*
X123804255Y-110492614D01*
X123792940Y-110564450D01*
X123792940Y-110564452D01*
X123694576Y-117892596D01*
X123694513Y-117895208D01*
X123559899Y-121796878D01*
X123559900Y-121796890D01*
X123564562Y-121855069D01*
X123564563Y-121855078D01*
X123575436Y-121910292D01*
X123575439Y-121910303D01*
X123583294Y-121940391D01*
X123583295Y-121940392D01*
X123632190Y-122027269D01*
X123632192Y-122027271D01*
X123632193Y-122027273D01*
X123677676Y-122080299D01*
X123710292Y-122112090D01*
X123710294Y-122112091D01*
X123710295Y-122112092D01*
X123768796Y-122143069D01*
X123786510Y-122152449D01*
X123798397Y-122158743D01*
X123865336Y-122178764D01*
X123937265Y-122189475D01*
X153030995Y-122335798D01*
X153030995Y-122335797D01*
X153031007Y-122335798D01*
X153085730Y-122330150D01*
X153137647Y-122319046D01*
X153164428Y-122311777D01*
X153251153Y-122262613D01*
X153304045Y-122216960D01*
X153335732Y-122184249D01*
X153382111Y-122096004D01*
X153401926Y-122029003D01*
X153412416Y-121957038D01*
X153420680Y-117693389D01*
X154359500Y-117693389D01*
X154359500Y-117866611D01*
X154386598Y-118037701D01*
X154440127Y-118202445D01*
X154518768Y-118356788D01*
X154620586Y-118496928D01*
X154743072Y-118619414D01*
X154883212Y-118721232D01*
X155037555Y-118799873D01*
X155202299Y-118853402D01*
X155373389Y-118880500D01*
X155373390Y-118880500D01*
X155546610Y-118880500D01*
X155546611Y-118880500D01*
X155717701Y-118853402D01*
X155882445Y-118799873D01*
X156036788Y-118721232D01*
X156176928Y-118619414D01*
X156299414Y-118496928D01*
X156401232Y-118356788D01*
X156479873Y-118202445D01*
X156533402Y-118037701D01*
X156560500Y-117866611D01*
X156560500Y-117693389D01*
X156533402Y-117522299D01*
X156479873Y-117357555D01*
X156401232Y-117203212D01*
X156299414Y-117063072D01*
X156176928Y-116940586D01*
X156036788Y-116838768D01*
X155882445Y-116760127D01*
X155717701Y-116706598D01*
X155717699Y-116706597D01*
X155717698Y-116706597D01*
X155586271Y-116685781D01*
X155546611Y-116679500D01*
X155373389Y-116679500D01*
X155333728Y-116685781D01*
X155202302Y-116706597D01*
X155202299Y-116706598D01*
X155042923Y-116758383D01*
X155037552Y-116760128D01*
X154883211Y-116838768D01*
X154803256Y-116896859D01*
X154743072Y-116940586D01*
X154743070Y-116940588D01*
X154743069Y-116940588D01*
X154620588Y-117063069D01*
X154620588Y-117063070D01*
X154620586Y-117063072D01*
X154576859Y-117123256D01*
X154518768Y-117203211D01*
X154440128Y-117357552D01*
X154386597Y-117522302D01*
X154377591Y-117579164D01*
X154359500Y-117693389D01*
X153420680Y-117693389D01*
X153420916Y-117571372D01*
X153424191Y-115881030D01*
X153424191Y-115880570D01*
X153423870Y-115148571D01*
X153422757Y-112613389D01*
X154359500Y-112613389D01*
X154359500Y-112786611D01*
X154367677Y-112838239D01*
X154372996Y-112871825D01*
X154386598Y-112957701D01*
X154440127Y-113122445D01*
X154518768Y-113276788D01*
X154620586Y-113416928D01*
X154743072Y-113539414D01*
X154883212Y-113641232D01*
X155037555Y-113719873D01*
X155202299Y-113773402D01*
X155373389Y-113800500D01*
X155373390Y-113800500D01*
X155546610Y-113800500D01*
X155546611Y-113800500D01*
X155717701Y-113773402D01*
X155882445Y-113719873D01*
X156036788Y-113641232D01*
X156176928Y-113539414D01*
X156299414Y-113416928D01*
X156401232Y-113276788D01*
X156479873Y-113122445D01*
X156533402Y-112957701D01*
X156560500Y-112786611D01*
X156560500Y-112613389D01*
X156533402Y-112442299D01*
X156479873Y-112277555D01*
X156401232Y-112123212D01*
X156299414Y-111983072D01*
X156176928Y-111860586D01*
X156036788Y-111758768D01*
X155973850Y-111726700D01*
X155882447Y-111680128D01*
X155882446Y-111680127D01*
X155882445Y-111680127D01*
X155717701Y-111626598D01*
X155717699Y-111626597D01*
X155717698Y-111626597D01*
X155586271Y-111605781D01*
X155546611Y-111599500D01*
X155373389Y-111599500D01*
X155333728Y-111605781D01*
X155202302Y-111626597D01*
X155202299Y-111626598D01*
X155042923Y-111678383D01*
X155037552Y-111680128D01*
X154883211Y-111758768D01*
X154836657Y-111792592D01*
X154743072Y-111860586D01*
X154743070Y-111860588D01*
X154743069Y-111860588D01*
X154620588Y-111983069D01*
X154620588Y-111983070D01*
X154620586Y-111983072D01*
X154576859Y-112043256D01*
X154518768Y-112123211D01*
X154440128Y-112277552D01*
X154386597Y-112442302D01*
X154359500Y-112613389D01*
X153422757Y-112613389D01*
X153421642Y-110073389D01*
X154359500Y-110073389D01*
X154359500Y-110246611D01*
X154365439Y-110284108D01*
X154386028Y-110414106D01*
X154386598Y-110417701D01*
X154438675Y-110577977D01*
X154440128Y-110582447D01*
X154505988Y-110711706D01*
X154518768Y-110736788D01*
X154620586Y-110876928D01*
X154743072Y-110999414D01*
X154883212Y-111101232D01*
X155037555Y-111179873D01*
X155202299Y-111233402D01*
X155373389Y-111260500D01*
X155373390Y-111260500D01*
X155546610Y-111260500D01*
X155546611Y-111260500D01*
X155717701Y-111233402D01*
X155882445Y-111179873D01*
X156036788Y-111101232D01*
X156176928Y-110999414D01*
X156299414Y-110876928D01*
X156401232Y-110736788D01*
X156479873Y-110582445D01*
X156480896Y-110579294D01*
X156481610Y-110578250D01*
X156481734Y-110577952D01*
X156481796Y-110577977D01*
X156520327Y-110521618D01*
X156584683Y-110494415D01*
X156653530Y-110506323D01*
X156705011Y-110553562D01*
X156716760Y-110579287D01*
X156748904Y-110678217D01*
X156845375Y-110867550D01*
X156884728Y-110921716D01*
X157517037Y-110289408D01*
X157534075Y-110352993D01*
X157599901Y-110467007D01*
X157692993Y-110560099D01*
X157807007Y-110625925D01*
X157870590Y-110642962D01*
X157238282Y-111275269D01*
X157238282Y-111275270D01*
X157292449Y-111314624D01*
X157481784Y-111411096D01*
X157580711Y-111443239D01*
X157638387Y-111482676D01*
X157665586Y-111547034D01*
X157653672Y-111615881D01*
X157606428Y-111667357D01*
X157580722Y-111679097D01*
X157579522Y-111679487D01*
X157577550Y-111680128D01*
X157423211Y-111758768D01*
X157376657Y-111792592D01*
X157283072Y-111860586D01*
X157283070Y-111860588D01*
X157283069Y-111860588D01*
X157160588Y-111983069D01*
X157160588Y-111983070D01*
X157160586Y-111983072D01*
X157116859Y-112043256D01*
X157058768Y-112123211D01*
X156980128Y-112277552D01*
X156926597Y-112442302D01*
X156899500Y-112613389D01*
X156899500Y-112786611D01*
X156907677Y-112838239D01*
X156912996Y-112871825D01*
X156926598Y-112957701D01*
X156980127Y-113122445D01*
X157058768Y-113276788D01*
X157160586Y-113416928D01*
X157283072Y-113539414D01*
X157423212Y-113641232D01*
X157577555Y-113719873D01*
X157580708Y-113720897D01*
X157581752Y-113721611D01*
X157582048Y-113721734D01*
X157582022Y-113721795D01*
X157638383Y-113760330D01*
X157665585Y-113824688D01*
X157653674Y-113893535D01*
X157606433Y-113945013D01*
X157580712Y-113956760D01*
X157481783Y-113988904D01*
X157292439Y-114085380D01*
X157238282Y-114124727D01*
X157238282Y-114124728D01*
X157870591Y-114757037D01*
X157807007Y-114774075D01*
X157692993Y-114839901D01*
X157599901Y-114932993D01*
X157534075Y-115047007D01*
X157517037Y-115110591D01*
X156884728Y-114478282D01*
X156884727Y-114478282D01*
X156845380Y-114532439D01*
X156748904Y-114721783D01*
X156716760Y-114820712D01*
X156677322Y-114878388D01*
X156612964Y-114905586D01*
X156544117Y-114893671D01*
X156492642Y-114846427D01*
X156480898Y-114820712D01*
X156479873Y-114817555D01*
X156401232Y-114663212D01*
X156299414Y-114523072D01*
X156176928Y-114400586D01*
X156036788Y-114298768D01*
X155882445Y-114220127D01*
X155717701Y-114166598D01*
X155717699Y-114166597D01*
X155717698Y-114166597D01*
X155586271Y-114145781D01*
X155546611Y-114139500D01*
X155373389Y-114139500D01*
X155333728Y-114145781D01*
X155202302Y-114166597D01*
X155037552Y-114220128D01*
X154883211Y-114298768D01*
X154803256Y-114356859D01*
X154743072Y-114400586D01*
X154743070Y-114400588D01*
X154743069Y-114400588D01*
X154620588Y-114523069D01*
X154620588Y-114523070D01*
X154620586Y-114523072D01*
X154576859Y-114583256D01*
X154518768Y-114663211D01*
X154440128Y-114817552D01*
X154386597Y-114982302D01*
X154376349Y-115047007D01*
X154359500Y-115153389D01*
X154359500Y-115326611D01*
X154386598Y-115497701D01*
X154440127Y-115662445D01*
X154518768Y-115816788D01*
X154620586Y-115956928D01*
X154743072Y-116079414D01*
X154883212Y-116181232D01*
X155037555Y-116259873D01*
X155202299Y-116313402D01*
X155373389Y-116340500D01*
X155373390Y-116340500D01*
X155546610Y-116340500D01*
X155546611Y-116340500D01*
X155717701Y-116313402D01*
X155882445Y-116259873D01*
X156036788Y-116181232D01*
X156176928Y-116079414D01*
X156299414Y-115956928D01*
X156401232Y-115816788D01*
X156479873Y-115662445D01*
X156480896Y-115659294D01*
X156481610Y-115658250D01*
X156481734Y-115657952D01*
X156481796Y-115657977D01*
X156520327Y-115601618D01*
X156584683Y-115574415D01*
X156653530Y-115586323D01*
X156705011Y-115633562D01*
X156716760Y-115659287D01*
X156748904Y-115758217D01*
X156845375Y-115947550D01*
X156884728Y-116001716D01*
X157517037Y-115369408D01*
X157534075Y-115432993D01*
X157599901Y-115547007D01*
X157692993Y-115640099D01*
X157807007Y-115705925D01*
X157870590Y-115722962D01*
X157238282Y-116355269D01*
X157238282Y-116355270D01*
X157292449Y-116394624D01*
X157481784Y-116491096D01*
X157580711Y-116523239D01*
X157638387Y-116562676D01*
X157665586Y-116627034D01*
X157653672Y-116695881D01*
X157606428Y-116747357D01*
X157580722Y-116759097D01*
X157579522Y-116759487D01*
X157577550Y-116760128D01*
X157423211Y-116838768D01*
X157343256Y-116896859D01*
X157283072Y-116940586D01*
X157283070Y-116940588D01*
X157283069Y-116940588D01*
X157160588Y-117063069D01*
X157160588Y-117063070D01*
X157160586Y-117063072D01*
X157116859Y-117123256D01*
X157058768Y-117203211D01*
X156980128Y-117357552D01*
X156926597Y-117522302D01*
X156917591Y-117579164D01*
X156899500Y-117693389D01*
X156899500Y-117866611D01*
X156926598Y-118037701D01*
X156980127Y-118202445D01*
X157058768Y-118356788D01*
X157160586Y-118496928D01*
X157283072Y-118619414D01*
X157423212Y-118721232D01*
X157577555Y-118799873D01*
X157742299Y-118853402D01*
X157913389Y-118880500D01*
X157913390Y-118880500D01*
X158086610Y-118880500D01*
X158086611Y-118880500D01*
X158257701Y-118853402D01*
X158422445Y-118799873D01*
X158576788Y-118721232D01*
X158716928Y-118619414D01*
X158839414Y-118496928D01*
X158941232Y-118356788D01*
X159019873Y-118202445D01*
X159073402Y-118037701D01*
X159100500Y-117866611D01*
X159100500Y-117693389D01*
X159073402Y-117522299D01*
X159019873Y-117357555D01*
X158941232Y-117203212D01*
X158839414Y-117063072D01*
X158716928Y-116940586D01*
X158576788Y-116838768D01*
X158422446Y-116760127D01*
X158419284Y-116759100D01*
X158418236Y-116758383D01*
X158417952Y-116758266D01*
X158417976Y-116758206D01*
X158361609Y-116719661D01*
X158334413Y-116655302D01*
X158346329Y-116586456D01*
X158393574Y-116534981D01*
X158419288Y-116523239D01*
X158518215Y-116491096D01*
X158707554Y-116394622D01*
X158761716Y-116355270D01*
X158761717Y-116355270D01*
X158129408Y-115722962D01*
X158192993Y-115705925D01*
X158307007Y-115640099D01*
X158400099Y-115547007D01*
X158465925Y-115432993D01*
X158482962Y-115369408D01*
X159115270Y-116001717D01*
X159115270Y-116001716D01*
X159154622Y-115947554D01*
X159251095Y-115758217D01*
X159316757Y-115556130D01*
X159316757Y-115556127D01*
X159350000Y-115346246D01*
X159350000Y-115133753D01*
X159316757Y-114923872D01*
X159316757Y-114923869D01*
X159251095Y-114721782D01*
X159154624Y-114532449D01*
X159115270Y-114478282D01*
X159115269Y-114478282D01*
X158482962Y-115110590D01*
X158465925Y-115047007D01*
X158400099Y-114932993D01*
X158307007Y-114839901D01*
X158192993Y-114774075D01*
X158129409Y-114757037D01*
X158761716Y-114124728D01*
X158707550Y-114085375D01*
X158518217Y-113988904D01*
X158419287Y-113956760D01*
X158361611Y-113917323D01*
X158334413Y-113852964D01*
X158346328Y-113784118D01*
X158393572Y-113732642D01*
X158419290Y-113720897D01*
X158422445Y-113719873D01*
X158576788Y-113641232D01*
X158716928Y-113539414D01*
X158839414Y-113416928D01*
X158941232Y-113276788D01*
X159019873Y-113122445D01*
X159073402Y-112957701D01*
X159100500Y-112786611D01*
X159100500Y-112613389D01*
X159073402Y-112442299D01*
X159019873Y-112277555D01*
X158941232Y-112123212D01*
X158839414Y-111983072D01*
X158716928Y-111860586D01*
X158576788Y-111758768D01*
X158422446Y-111680127D01*
X158419284Y-111679100D01*
X158418236Y-111678383D01*
X158417952Y-111678266D01*
X158417976Y-111678206D01*
X158361609Y-111639661D01*
X158334413Y-111575302D01*
X158346329Y-111506456D01*
X158393574Y-111454981D01*
X158419288Y-111443239D01*
X158518215Y-111411096D01*
X158707554Y-111314622D01*
X158761716Y-111275270D01*
X158761717Y-111275270D01*
X158129408Y-110642962D01*
X158192993Y-110625925D01*
X158307007Y-110560099D01*
X158400099Y-110467007D01*
X158465925Y-110352993D01*
X158482962Y-110289408D01*
X159115270Y-110921717D01*
X159115270Y-110921716D01*
X159154622Y-110867554D01*
X159251095Y-110678217D01*
X159316757Y-110476130D01*
X159316757Y-110476127D01*
X159350000Y-110266246D01*
X159350000Y-110053753D01*
X159316757Y-109843872D01*
X159316757Y-109843869D01*
X159251095Y-109641782D01*
X159154624Y-109452449D01*
X159115270Y-109398282D01*
X159115269Y-109398282D01*
X158482962Y-110030590D01*
X158465925Y-109967007D01*
X158400099Y-109852993D01*
X158307007Y-109759901D01*
X158192993Y-109694075D01*
X158129409Y-109677037D01*
X158761716Y-109044728D01*
X158707550Y-109005375D01*
X158518217Y-108908904D01*
X158419287Y-108876760D01*
X158361611Y-108837323D01*
X158334413Y-108772964D01*
X158346328Y-108704118D01*
X158393572Y-108652642D01*
X158419290Y-108640897D01*
X158422445Y-108639873D01*
X158576788Y-108561232D01*
X158716928Y-108459414D01*
X158839414Y-108336928D01*
X158941232Y-108196788D01*
X159019873Y-108042445D01*
X159073402Y-107877701D01*
X159100500Y-107706611D01*
X159100500Y-107533389D01*
X159073402Y-107362299D01*
X159019873Y-107197555D01*
X158941232Y-107043212D01*
X158839414Y-106903072D01*
X158716928Y-106780586D01*
X158576788Y-106678768D01*
X158422445Y-106600127D01*
X158257701Y-106546598D01*
X158257699Y-106546597D01*
X158257698Y-106546597D01*
X158126271Y-106525781D01*
X158086611Y-106519500D01*
X157913389Y-106519500D01*
X157873728Y-106525781D01*
X157742302Y-106546597D01*
X157742299Y-106546598D01*
X157582923Y-106598383D01*
X157577552Y-106600128D01*
X157423211Y-106678768D01*
X157394674Y-106699502D01*
X157283072Y-106780586D01*
X157283070Y-106780588D01*
X157283069Y-106780588D01*
X157160588Y-106903069D01*
X157160588Y-106903070D01*
X157160586Y-106903072D01*
X157121540Y-106956814D01*
X157058768Y-107043211D01*
X156980128Y-107197552D01*
X156926597Y-107362302D01*
X156917758Y-107418112D01*
X156899500Y-107533389D01*
X156899500Y-107706611D01*
X156926598Y-107877701D01*
X156980127Y-108042445D01*
X157058768Y-108196788D01*
X157160586Y-108336928D01*
X157283072Y-108459414D01*
X157423212Y-108561232D01*
X157577555Y-108639873D01*
X157580708Y-108640897D01*
X157581752Y-108641611D01*
X157582048Y-108641734D01*
X157582022Y-108641795D01*
X157638383Y-108680330D01*
X157665585Y-108744688D01*
X157653674Y-108813535D01*
X157606433Y-108865013D01*
X157580712Y-108876760D01*
X157481783Y-108908904D01*
X157292439Y-109005380D01*
X157238282Y-109044727D01*
X157238282Y-109044728D01*
X157870591Y-109677037D01*
X157807007Y-109694075D01*
X157692993Y-109759901D01*
X157599901Y-109852993D01*
X157534075Y-109967007D01*
X157517037Y-110030591D01*
X156884728Y-109398282D01*
X156884727Y-109398282D01*
X156845380Y-109452439D01*
X156748904Y-109641783D01*
X156716760Y-109740712D01*
X156677322Y-109798388D01*
X156612964Y-109825586D01*
X156544117Y-109813671D01*
X156492642Y-109766427D01*
X156480898Y-109740712D01*
X156479873Y-109737555D01*
X156401232Y-109583212D01*
X156299414Y-109443072D01*
X156176928Y-109320586D01*
X156036788Y-109218768D01*
X155939995Y-109169450D01*
X155882447Y-109140128D01*
X155882446Y-109140127D01*
X155882445Y-109140127D01*
X155717701Y-109086598D01*
X155717699Y-109086597D01*
X155717698Y-109086597D01*
X155586271Y-109065781D01*
X155546611Y-109059500D01*
X155373389Y-109059500D01*
X155333728Y-109065781D01*
X155202302Y-109086597D01*
X155037552Y-109140128D01*
X154883211Y-109218768D01*
X154803256Y-109276859D01*
X154743072Y-109320586D01*
X154743070Y-109320588D01*
X154743069Y-109320588D01*
X154620588Y-109443069D01*
X154620588Y-109443070D01*
X154620586Y-109443072D01*
X154576859Y-109503256D01*
X154518768Y-109583211D01*
X154440128Y-109737552D01*
X154386597Y-109902302D01*
X154371203Y-109999500D01*
X154359500Y-110073389D01*
X153421642Y-110073389D01*
X153420525Y-107528571D01*
X153419403Y-104973753D01*
X154110000Y-104973753D01*
X154110000Y-105186246D01*
X154143242Y-105396127D01*
X154143242Y-105396130D01*
X154208904Y-105598217D01*
X154305375Y-105787550D01*
X154344728Y-105841716D01*
X154977037Y-105209408D01*
X154994075Y-105272993D01*
X155059901Y-105387007D01*
X155152993Y-105480099D01*
X155267007Y-105545925D01*
X155330590Y-105562962D01*
X154698282Y-106195269D01*
X154698282Y-106195270D01*
X154752449Y-106234624D01*
X154941784Y-106331096D01*
X155040711Y-106363239D01*
X155098387Y-106402676D01*
X155125586Y-106467034D01*
X155113672Y-106535881D01*
X155066428Y-106587357D01*
X155040722Y-106599097D01*
X155039522Y-106599487D01*
X155037550Y-106600128D01*
X154883211Y-106678768D01*
X154854674Y-106699502D01*
X154743072Y-106780586D01*
X154743070Y-106780588D01*
X154743069Y-106780588D01*
X154620588Y-106903069D01*
X154620588Y-106903070D01*
X154620586Y-106903072D01*
X154581540Y-106956814D01*
X154518768Y-107043211D01*
X154440128Y-107197552D01*
X154386597Y-107362302D01*
X154377758Y-107418112D01*
X154359500Y-107533389D01*
X154359500Y-107706611D01*
X154386598Y-107877701D01*
X154440127Y-108042445D01*
X154518768Y-108196788D01*
X154620586Y-108336928D01*
X154743072Y-108459414D01*
X154883212Y-108561232D01*
X155037555Y-108639873D01*
X155202299Y-108693402D01*
X155373389Y-108720500D01*
X155373390Y-108720500D01*
X155546610Y-108720500D01*
X155546611Y-108720500D01*
X155717701Y-108693402D01*
X155882445Y-108639873D01*
X156036788Y-108561232D01*
X156176928Y-108459414D01*
X156299414Y-108336928D01*
X156401232Y-108196788D01*
X156479873Y-108042445D01*
X156533402Y-107877701D01*
X156560500Y-107706611D01*
X156560500Y-107533389D01*
X156533402Y-107362299D01*
X156479873Y-107197555D01*
X156401232Y-107043212D01*
X156299414Y-106903072D01*
X156176928Y-106780586D01*
X156036788Y-106678768D01*
X155948156Y-106633608D01*
X155882446Y-106600127D01*
X155879284Y-106599100D01*
X155878236Y-106598383D01*
X155877952Y-106598266D01*
X155877976Y-106598206D01*
X155821609Y-106559661D01*
X155794413Y-106495302D01*
X155806329Y-106426456D01*
X155853574Y-106374981D01*
X155879288Y-106363239D01*
X155978215Y-106331096D01*
X156167554Y-106234622D01*
X156221716Y-106195270D01*
X156221717Y-106195270D01*
X155589408Y-105562962D01*
X155652993Y-105545925D01*
X155767007Y-105480099D01*
X155860099Y-105387007D01*
X155925925Y-105272993D01*
X155942962Y-105209408D01*
X156575270Y-105841717D01*
X156575270Y-105841716D01*
X156614622Y-105787554D01*
X156711096Y-105598215D01*
X156743239Y-105499288D01*
X156782676Y-105441612D01*
X156847034Y-105414413D01*
X156915880Y-105426327D01*
X156967357Y-105473571D01*
X156979100Y-105499284D01*
X156980127Y-105502446D01*
X156980128Y-105502447D01*
X157058768Y-105656788D01*
X157160586Y-105796928D01*
X157283072Y-105919414D01*
X157423212Y-106021232D01*
X157577555Y-106099873D01*
X157742299Y-106153402D01*
X157913389Y-106180500D01*
X157913390Y-106180500D01*
X158086610Y-106180500D01*
X158086611Y-106180500D01*
X158257701Y-106153402D01*
X158422445Y-106099873D01*
X158576788Y-106021232D01*
X158716928Y-105919414D01*
X158839414Y-105796928D01*
X158941232Y-105656788D01*
X159019873Y-105502445D01*
X159073402Y-105337701D01*
X159100500Y-105166611D01*
X159100500Y-104993389D01*
X159073402Y-104822299D01*
X159019873Y-104657555D01*
X158941232Y-104503212D01*
X158839414Y-104363072D01*
X158716928Y-104240586D01*
X158576788Y-104138768D01*
X158422445Y-104060127D01*
X158257701Y-104006598D01*
X158257699Y-104006597D01*
X158257698Y-104006597D01*
X158126271Y-103985781D01*
X158086611Y-103979500D01*
X157913389Y-103979500D01*
X157873728Y-103985781D01*
X157742302Y-104006597D01*
X157577552Y-104060128D01*
X157423211Y-104138768D01*
X157343256Y-104196859D01*
X157283072Y-104240586D01*
X157283070Y-104240588D01*
X157283069Y-104240588D01*
X157160588Y-104363069D01*
X157160588Y-104363070D01*
X157160586Y-104363072D01*
X157116859Y-104423256D01*
X157058768Y-104503211D01*
X156980128Y-104657550D01*
X156979099Y-104660720D01*
X156978381Y-104661769D01*
X156978266Y-104662048D01*
X156978207Y-104662023D01*
X156939657Y-104718393D01*
X156875297Y-104745587D01*
X156806451Y-104733668D01*
X156754979Y-104686420D01*
X156743239Y-104660711D01*
X156711096Y-104561784D01*
X156614624Y-104372449D01*
X156575270Y-104318282D01*
X156575269Y-104318282D01*
X155942962Y-104950590D01*
X155925925Y-104887007D01*
X155860099Y-104772993D01*
X155767007Y-104679901D01*
X155652993Y-104614075D01*
X155589409Y-104597037D01*
X156221716Y-103964728D01*
X156167550Y-103925375D01*
X155978217Y-103828904D01*
X155879287Y-103796760D01*
X155821611Y-103757323D01*
X155794413Y-103692964D01*
X155806328Y-103624118D01*
X155853572Y-103572642D01*
X155879290Y-103560897D01*
X155882445Y-103559873D01*
X156036788Y-103481232D01*
X156176928Y-103379414D01*
X156299414Y-103256928D01*
X156401232Y-103116788D01*
X156479873Y-102962445D01*
X156533402Y-102797701D01*
X156560500Y-102626611D01*
X156560500Y-102453389D01*
X156899500Y-102453389D01*
X156899500Y-102626611D01*
X156926598Y-102797701D01*
X156973823Y-102943044D01*
X156980128Y-102962447D01*
X157017214Y-103035233D01*
X157058768Y-103116788D01*
X157160586Y-103256928D01*
X157283072Y-103379414D01*
X157423212Y-103481232D01*
X157577555Y-103559873D01*
X157742299Y-103613402D01*
X157913389Y-103640500D01*
X157913390Y-103640500D01*
X158086610Y-103640500D01*
X158086611Y-103640500D01*
X158257701Y-103613402D01*
X158422445Y-103559873D01*
X158576788Y-103481232D01*
X158716928Y-103379414D01*
X158839414Y-103256928D01*
X158941232Y-103116788D01*
X159019873Y-102962445D01*
X159073402Y-102797701D01*
X159100500Y-102626611D01*
X159100500Y-102453389D01*
X159073402Y-102282299D01*
X159019873Y-102117555D01*
X158941232Y-101963212D01*
X158839414Y-101823072D01*
X158716928Y-101700586D01*
X158576788Y-101598768D01*
X158422445Y-101520127D01*
X158257701Y-101466598D01*
X158257699Y-101466597D01*
X158257698Y-101466597D01*
X158126271Y-101445781D01*
X158086611Y-101439500D01*
X157913389Y-101439500D01*
X157873728Y-101445781D01*
X157742302Y-101466597D01*
X157577552Y-101520128D01*
X157423211Y-101598768D01*
X157343256Y-101656859D01*
X157283072Y-101700586D01*
X157283070Y-101700588D01*
X157283069Y-101700588D01*
X157160588Y-101823069D01*
X157160588Y-101823070D01*
X157160586Y-101823072D01*
X157116859Y-101883256D01*
X157058768Y-101963211D01*
X156980128Y-102117552D01*
X156926597Y-102282302D01*
X156911307Y-102378841D01*
X156899500Y-102453389D01*
X156560500Y-102453389D01*
X156533402Y-102282299D01*
X156479873Y-102117555D01*
X156401232Y-101963212D01*
X156299414Y-101823072D01*
X156176928Y-101700586D01*
X156036788Y-101598768D01*
X155882445Y-101520127D01*
X155717701Y-101466598D01*
X155717699Y-101466597D01*
X155717698Y-101466597D01*
X155586271Y-101445781D01*
X155546611Y-101439500D01*
X155373389Y-101439500D01*
X155333728Y-101445781D01*
X155202302Y-101466597D01*
X155037552Y-101520128D01*
X154883211Y-101598768D01*
X154803256Y-101656859D01*
X154743072Y-101700586D01*
X154743070Y-101700588D01*
X154743069Y-101700588D01*
X154620588Y-101823069D01*
X154620588Y-101823070D01*
X154620586Y-101823072D01*
X154576859Y-101883256D01*
X154518768Y-101963211D01*
X154440128Y-102117552D01*
X154386597Y-102282302D01*
X154371307Y-102378841D01*
X154359500Y-102453389D01*
X154359500Y-102626611D01*
X154386598Y-102797701D01*
X154433823Y-102943044D01*
X154440128Y-102962447D01*
X154477214Y-103035233D01*
X154518768Y-103116788D01*
X154620586Y-103256928D01*
X154743072Y-103379414D01*
X154883212Y-103481232D01*
X155037555Y-103559873D01*
X155040708Y-103560897D01*
X155041752Y-103561611D01*
X155042048Y-103561734D01*
X155042022Y-103561795D01*
X155098383Y-103600330D01*
X155125585Y-103664688D01*
X155113674Y-103733535D01*
X155066433Y-103785013D01*
X155040712Y-103796760D01*
X154941783Y-103828904D01*
X154752439Y-103925380D01*
X154698282Y-103964727D01*
X154698282Y-103964728D01*
X155330591Y-104597037D01*
X155267007Y-104614075D01*
X155152993Y-104679901D01*
X155059901Y-104772993D01*
X154994075Y-104887007D01*
X154977037Y-104950591D01*
X154344728Y-104318282D01*
X154344727Y-104318282D01*
X154305380Y-104372439D01*
X154208904Y-104561782D01*
X154143242Y-104763869D01*
X154143242Y-104763872D01*
X154110000Y-104973753D01*
X153419403Y-104973753D01*
X153419401Y-104968935D01*
X153418295Y-102448571D01*
X153417182Y-99913389D01*
X154359500Y-99913389D01*
X154359500Y-100086610D01*
X154379547Y-100213187D01*
X154386598Y-100257701D01*
X154440127Y-100422445D01*
X154518768Y-100576788D01*
X154620586Y-100716928D01*
X154743072Y-100839414D01*
X154883212Y-100941232D01*
X155037555Y-101019873D01*
X155202299Y-101073402D01*
X155373389Y-101100500D01*
X155373390Y-101100500D01*
X155546610Y-101100500D01*
X155546611Y-101100500D01*
X155717701Y-101073402D01*
X155882445Y-101019873D01*
X156036788Y-100941232D01*
X156176928Y-100839414D01*
X156299414Y-100716928D01*
X156401232Y-100576788D01*
X156479873Y-100422445D01*
X156533402Y-100257701D01*
X156560500Y-100086611D01*
X156560500Y-99913389D01*
X156533402Y-99742299D01*
X156479873Y-99577555D01*
X156401232Y-99423212D01*
X156299414Y-99283072D01*
X156176928Y-99160586D01*
X156036788Y-99058768D01*
X155882445Y-98980127D01*
X155717701Y-98926598D01*
X155717699Y-98926597D01*
X155717698Y-98926597D01*
X155586271Y-98905781D01*
X155546611Y-98899500D01*
X155373389Y-98899500D01*
X155333728Y-98905781D01*
X155202302Y-98926597D01*
X155202299Y-98926598D01*
X155042923Y-98978383D01*
X155037552Y-98980128D01*
X154883211Y-99058768D01*
X154840097Y-99090093D01*
X154743072Y-99160586D01*
X154743070Y-99160588D01*
X154743069Y-99160588D01*
X154620588Y-99283069D01*
X154620588Y-99283070D01*
X154620586Y-99283072D01*
X154618175Y-99286391D01*
X154518768Y-99423211D01*
X154440128Y-99577552D01*
X154386597Y-99742302D01*
X154359500Y-99913389D01*
X153417182Y-99913389D01*
X153416067Y-97373389D01*
X154359500Y-97373389D01*
X154359500Y-97546611D01*
X154386598Y-97717701D01*
X154440127Y-97882445D01*
X154518768Y-98036788D01*
X154620586Y-98176928D01*
X154743072Y-98299414D01*
X154883212Y-98401232D01*
X155037555Y-98479873D01*
X155202299Y-98533402D01*
X155373389Y-98560500D01*
X155373390Y-98560500D01*
X155546610Y-98560500D01*
X155546611Y-98560500D01*
X155717701Y-98533402D01*
X155882445Y-98479873D01*
X156036788Y-98401232D01*
X156176928Y-98299414D01*
X156299414Y-98176928D01*
X156401232Y-98036788D01*
X156479873Y-97882445D01*
X156480896Y-97879294D01*
X156481610Y-97878250D01*
X156481734Y-97877952D01*
X156481796Y-97877977D01*
X156520327Y-97821618D01*
X156584683Y-97794415D01*
X156653530Y-97806323D01*
X156705011Y-97853562D01*
X156716760Y-97879287D01*
X156748904Y-97978217D01*
X156845375Y-98167550D01*
X156884728Y-98221716D01*
X157517037Y-97589408D01*
X157534075Y-97652993D01*
X157599901Y-97767007D01*
X157692993Y-97860099D01*
X157807007Y-97925925D01*
X157870590Y-97942962D01*
X157238282Y-98575269D01*
X157238282Y-98575270D01*
X157292449Y-98614624D01*
X157481784Y-98711096D01*
X157580711Y-98743239D01*
X157638387Y-98782676D01*
X157665586Y-98847034D01*
X157653672Y-98915881D01*
X157606428Y-98967357D01*
X157580722Y-98979097D01*
X157579522Y-98979487D01*
X157577550Y-98980128D01*
X157423211Y-99058768D01*
X157380097Y-99090093D01*
X157283072Y-99160586D01*
X157283070Y-99160588D01*
X157283069Y-99160588D01*
X157160588Y-99283069D01*
X157160588Y-99283070D01*
X157160586Y-99283072D01*
X157158175Y-99286391D01*
X157058768Y-99423211D01*
X156980128Y-99577552D01*
X156926597Y-99742302D01*
X156899500Y-99913389D01*
X156899500Y-100086610D01*
X156919547Y-100213187D01*
X156926598Y-100257701D01*
X156980127Y-100422445D01*
X157058768Y-100576788D01*
X157160586Y-100716928D01*
X157283072Y-100839414D01*
X157423212Y-100941232D01*
X157577555Y-101019873D01*
X157742299Y-101073402D01*
X157913389Y-101100500D01*
X157913390Y-101100500D01*
X158086610Y-101100500D01*
X158086611Y-101100500D01*
X158257701Y-101073402D01*
X158422445Y-101019873D01*
X158576788Y-100941232D01*
X158716928Y-100839414D01*
X158839414Y-100716928D01*
X158941232Y-100576788D01*
X159019873Y-100422445D01*
X159073402Y-100257701D01*
X159100500Y-100086611D01*
X159100500Y-99913389D01*
X159073402Y-99742299D01*
X159019873Y-99577555D01*
X158941232Y-99423212D01*
X158839414Y-99283072D01*
X158716928Y-99160586D01*
X158576788Y-99058768D01*
X158560555Y-99050497D01*
X158422446Y-98980127D01*
X158419284Y-98979100D01*
X158418236Y-98978383D01*
X158417952Y-98978266D01*
X158417976Y-98978206D01*
X158361609Y-98939661D01*
X158334413Y-98875302D01*
X158346329Y-98806456D01*
X158393574Y-98754981D01*
X158419288Y-98743239D01*
X158518215Y-98711096D01*
X158707554Y-98614622D01*
X158761716Y-98575270D01*
X158761717Y-98575270D01*
X158129408Y-97942962D01*
X158192993Y-97925925D01*
X158307007Y-97860099D01*
X158400099Y-97767007D01*
X158465925Y-97652993D01*
X158482962Y-97589408D01*
X159115270Y-98221717D01*
X159115270Y-98221716D01*
X159154622Y-98167554D01*
X159251095Y-97978217D01*
X159316757Y-97776130D01*
X159316757Y-97776127D01*
X159350000Y-97566246D01*
X159350000Y-97353753D01*
X159316757Y-97143872D01*
X159316757Y-97143869D01*
X159251095Y-96941782D01*
X159154624Y-96752449D01*
X159115270Y-96698282D01*
X159115269Y-96698282D01*
X158482962Y-97330590D01*
X158465925Y-97267007D01*
X158400099Y-97152993D01*
X158307007Y-97059901D01*
X158192993Y-96994075D01*
X158129409Y-96977037D01*
X158761716Y-96344728D01*
X158707550Y-96305375D01*
X158518217Y-96208904D01*
X158419287Y-96176760D01*
X158361611Y-96137323D01*
X158334413Y-96072964D01*
X158346328Y-96004118D01*
X158393572Y-95952642D01*
X158419290Y-95940897D01*
X158422445Y-95939873D01*
X158576788Y-95861232D01*
X158716928Y-95759414D01*
X158839414Y-95636928D01*
X158941232Y-95496788D01*
X159019873Y-95342445D01*
X159073402Y-95177701D01*
X159100500Y-95006611D01*
X159100500Y-94833389D01*
X159073402Y-94662299D01*
X159019873Y-94497555D01*
X158941232Y-94343212D01*
X158839414Y-94203072D01*
X158716928Y-94080586D01*
X158576788Y-93978768D01*
X158422445Y-93900127D01*
X158257701Y-93846598D01*
X158257699Y-93846597D01*
X158257698Y-93846597D01*
X158126271Y-93825781D01*
X158086611Y-93819500D01*
X157913389Y-93819500D01*
X157873728Y-93825781D01*
X157742302Y-93846597D01*
X157577552Y-93900128D01*
X157423211Y-93978768D01*
X157343256Y-94036859D01*
X157283072Y-94080586D01*
X157283070Y-94080588D01*
X157283069Y-94080588D01*
X157160588Y-94203069D01*
X157160588Y-94203070D01*
X157160586Y-94203072D01*
X157116859Y-94263256D01*
X157058768Y-94343211D01*
X156980128Y-94497552D01*
X156926597Y-94662302D01*
X156899500Y-94833389D01*
X156899500Y-95006611D01*
X156926598Y-95177701D01*
X156980127Y-95342445D01*
X157058768Y-95496788D01*
X157160586Y-95636928D01*
X157283072Y-95759414D01*
X157423212Y-95861232D01*
X157577555Y-95939873D01*
X157580708Y-95940897D01*
X157581752Y-95941611D01*
X157582048Y-95941734D01*
X157582022Y-95941795D01*
X157638383Y-95980330D01*
X157665585Y-96044688D01*
X157653674Y-96113535D01*
X157606433Y-96165013D01*
X157580712Y-96176760D01*
X157481783Y-96208904D01*
X157292439Y-96305380D01*
X157238282Y-96344727D01*
X157238282Y-96344728D01*
X157870591Y-96977037D01*
X157807007Y-96994075D01*
X157692993Y-97059901D01*
X157599901Y-97152993D01*
X157534075Y-97267007D01*
X157517037Y-97330591D01*
X156884728Y-96698282D01*
X156884727Y-96698282D01*
X156845380Y-96752439D01*
X156748904Y-96941783D01*
X156716760Y-97040712D01*
X156677322Y-97098388D01*
X156612964Y-97125586D01*
X156544117Y-97113671D01*
X156492642Y-97066427D01*
X156480898Y-97040712D01*
X156479873Y-97037555D01*
X156401232Y-96883212D01*
X156299414Y-96743072D01*
X156176928Y-96620586D01*
X156036788Y-96518768D01*
X155882445Y-96440127D01*
X155717701Y-96386598D01*
X155717699Y-96386597D01*
X155717698Y-96386597D01*
X155586271Y-96365781D01*
X155546611Y-96359500D01*
X155373389Y-96359500D01*
X155333728Y-96365781D01*
X155202302Y-96386597D01*
X155037552Y-96440128D01*
X154883211Y-96518768D01*
X154803256Y-96576859D01*
X154743072Y-96620586D01*
X154743070Y-96620588D01*
X154743069Y-96620588D01*
X154620588Y-96743069D01*
X154620588Y-96743070D01*
X154620586Y-96743072D01*
X154584541Y-96792683D01*
X154518768Y-96883211D01*
X154440128Y-97037552D01*
X154386597Y-97202302D01*
X154365044Y-97338385D01*
X154359500Y-97373389D01*
X153416067Y-97373389D01*
X153414952Y-94833389D01*
X154359500Y-94833389D01*
X154359500Y-95006611D01*
X154386598Y-95177701D01*
X154440127Y-95342445D01*
X154518768Y-95496788D01*
X154620586Y-95636928D01*
X154743072Y-95759414D01*
X154883212Y-95861232D01*
X155037555Y-95939873D01*
X155202299Y-95993402D01*
X155373389Y-96020500D01*
X155373390Y-96020500D01*
X155546610Y-96020500D01*
X155546611Y-96020500D01*
X155717701Y-95993402D01*
X155882445Y-95939873D01*
X156036788Y-95861232D01*
X156176928Y-95759414D01*
X156299414Y-95636928D01*
X156401232Y-95496788D01*
X156479873Y-95342445D01*
X156533402Y-95177701D01*
X156560500Y-95006611D01*
X156560500Y-94833389D01*
X156533402Y-94662299D01*
X156479873Y-94497555D01*
X156401232Y-94343212D01*
X156299414Y-94203072D01*
X156176928Y-94080586D01*
X156036788Y-93978768D01*
X155882445Y-93900127D01*
X155717701Y-93846598D01*
X155717699Y-93846597D01*
X155717698Y-93846597D01*
X155586271Y-93825781D01*
X155546611Y-93819500D01*
X155373389Y-93819500D01*
X155333728Y-93825781D01*
X155202302Y-93846597D01*
X155037552Y-93900128D01*
X154883211Y-93978768D01*
X154803256Y-94036859D01*
X154743072Y-94080586D01*
X154743070Y-94080588D01*
X154743069Y-94080588D01*
X154620588Y-94203069D01*
X154620588Y-94203070D01*
X154620586Y-94203072D01*
X154576859Y-94263256D01*
X154518768Y-94343211D01*
X154440128Y-94497552D01*
X154386597Y-94662302D01*
X154359500Y-94833389D01*
X153414952Y-94833389D01*
X153413837Y-92293389D01*
X154359500Y-92293389D01*
X154359500Y-92466610D01*
X154372786Y-92550499D01*
X154386598Y-92637701D01*
X154440127Y-92802445D01*
X154518768Y-92956788D01*
X154620586Y-93096928D01*
X154743072Y-93219414D01*
X154883212Y-93321232D01*
X155037555Y-93399873D01*
X155202299Y-93453402D01*
X155373389Y-93480500D01*
X155373390Y-93480500D01*
X155546610Y-93480500D01*
X155546611Y-93480500D01*
X155717701Y-93453402D01*
X155882445Y-93399873D01*
X156036788Y-93321232D01*
X156176928Y-93219414D01*
X156299414Y-93096928D01*
X156401232Y-92956788D01*
X156479873Y-92802445D01*
X156533402Y-92637701D01*
X156560500Y-92466611D01*
X156560500Y-92293389D01*
X156533402Y-92122299D01*
X156479873Y-91957555D01*
X156401232Y-91803212D01*
X156299414Y-91663072D01*
X156176928Y-91540586D01*
X156036788Y-91438768D01*
X155882445Y-91360127D01*
X155717701Y-91306598D01*
X155717699Y-91306597D01*
X155717698Y-91306597D01*
X155575717Y-91284110D01*
X155546611Y-91279500D01*
X155373389Y-91279500D01*
X155344283Y-91284110D01*
X155202302Y-91306597D01*
X155202299Y-91306598D01*
X155042923Y-91358383D01*
X155037552Y-91360128D01*
X154883211Y-91438768D01*
X154836250Y-91472888D01*
X154743072Y-91540586D01*
X154743070Y-91540588D01*
X154743069Y-91540588D01*
X154620588Y-91663069D01*
X154620588Y-91663070D01*
X154620586Y-91663072D01*
X154576859Y-91723256D01*
X154518768Y-91803211D01*
X154440128Y-91957552D01*
X154386597Y-92122302D01*
X154359500Y-92293389D01*
X153413837Y-92293389D01*
X153412722Y-89753389D01*
X154359500Y-89753389D01*
X154359500Y-89926610D01*
X154378963Y-90049500D01*
X154386598Y-90097701D01*
X154440127Y-90262445D01*
X154518768Y-90416788D01*
X154620586Y-90556928D01*
X154743072Y-90679414D01*
X154883212Y-90781232D01*
X155037555Y-90859873D01*
X155202299Y-90913402D01*
X155373389Y-90940500D01*
X155373390Y-90940500D01*
X155546610Y-90940500D01*
X155546611Y-90940500D01*
X155717701Y-90913402D01*
X155882445Y-90859873D01*
X156036788Y-90781232D01*
X156176928Y-90679414D01*
X156299414Y-90556928D01*
X156401232Y-90416788D01*
X156479873Y-90262445D01*
X156480896Y-90259294D01*
X156481610Y-90258250D01*
X156481734Y-90257952D01*
X156481796Y-90257977D01*
X156520327Y-90201618D01*
X156584683Y-90174415D01*
X156653530Y-90186323D01*
X156705011Y-90233562D01*
X156716760Y-90259287D01*
X156748904Y-90358217D01*
X156845375Y-90547550D01*
X156884728Y-90601716D01*
X157517037Y-89969408D01*
X157534075Y-90032993D01*
X157599901Y-90147007D01*
X157692993Y-90240099D01*
X157807007Y-90305925D01*
X157870590Y-90322962D01*
X157238282Y-90955269D01*
X157238282Y-90955270D01*
X157292449Y-90994624D01*
X157481784Y-91091096D01*
X157580711Y-91123239D01*
X157638387Y-91162676D01*
X157665586Y-91227034D01*
X157653672Y-91295881D01*
X157606428Y-91347357D01*
X157580722Y-91359097D01*
X157579522Y-91359487D01*
X157577550Y-91360128D01*
X157423211Y-91438768D01*
X157376250Y-91472888D01*
X157283072Y-91540586D01*
X157283070Y-91540588D01*
X157283069Y-91540588D01*
X157160588Y-91663069D01*
X157160588Y-91663070D01*
X157160586Y-91663072D01*
X157116859Y-91723256D01*
X157058768Y-91803211D01*
X156980128Y-91957552D01*
X156926597Y-92122302D01*
X156899500Y-92293389D01*
X156899500Y-92466610D01*
X156912786Y-92550499D01*
X156926598Y-92637701D01*
X156980127Y-92802445D01*
X157058768Y-92956788D01*
X157160586Y-93096928D01*
X157283072Y-93219414D01*
X157423212Y-93321232D01*
X157577555Y-93399873D01*
X157742299Y-93453402D01*
X157913389Y-93480500D01*
X157913390Y-93480500D01*
X158086610Y-93480500D01*
X158086611Y-93480500D01*
X158257701Y-93453402D01*
X158422445Y-93399873D01*
X158576788Y-93321232D01*
X158716928Y-93219414D01*
X158839414Y-93096928D01*
X158941232Y-92956788D01*
X159019873Y-92802445D01*
X159073402Y-92637701D01*
X159100500Y-92466611D01*
X159100500Y-92293389D01*
X159073402Y-92122299D01*
X159019873Y-91957555D01*
X158941232Y-91803212D01*
X158839414Y-91663072D01*
X158716928Y-91540586D01*
X158576788Y-91438768D01*
X158531885Y-91415889D01*
X158422446Y-91360127D01*
X158419284Y-91359100D01*
X158418236Y-91358383D01*
X158417952Y-91358266D01*
X158417976Y-91358206D01*
X158361609Y-91319661D01*
X158334413Y-91255302D01*
X158346329Y-91186456D01*
X158393574Y-91134981D01*
X158419288Y-91123239D01*
X158518215Y-91091096D01*
X158707554Y-90994622D01*
X158761716Y-90955270D01*
X158761717Y-90955270D01*
X158129408Y-90322962D01*
X158192993Y-90305925D01*
X158307007Y-90240099D01*
X158400099Y-90147007D01*
X158465925Y-90032993D01*
X158482962Y-89969408D01*
X159115270Y-90601717D01*
X159115270Y-90601716D01*
X159154622Y-90547554D01*
X159251095Y-90358217D01*
X159316757Y-90156130D01*
X159316757Y-90156127D01*
X159350000Y-89946246D01*
X159350000Y-89733753D01*
X159316757Y-89523872D01*
X159316757Y-89523869D01*
X159251095Y-89321782D01*
X159154624Y-89132449D01*
X159115270Y-89078282D01*
X159115269Y-89078282D01*
X158482962Y-89710590D01*
X158465925Y-89647007D01*
X158400099Y-89532993D01*
X158307007Y-89439901D01*
X158192993Y-89374075D01*
X158129409Y-89357037D01*
X158761716Y-88724728D01*
X158707550Y-88685375D01*
X158518217Y-88588904D01*
X158419287Y-88556760D01*
X158361611Y-88517323D01*
X158334413Y-88452964D01*
X158346328Y-88384118D01*
X158393572Y-88332642D01*
X158419290Y-88320897D01*
X158422445Y-88319873D01*
X158576788Y-88241232D01*
X158716928Y-88139414D01*
X158839414Y-88016928D01*
X158941232Y-87876788D01*
X159019873Y-87722445D01*
X159073402Y-87557701D01*
X159100500Y-87386611D01*
X159100500Y-87213389D01*
X159073402Y-87042299D01*
X159019873Y-86877555D01*
X158941232Y-86723212D01*
X158839414Y-86583072D01*
X158716928Y-86460586D01*
X158576788Y-86358768D01*
X158422445Y-86280127D01*
X158257701Y-86226598D01*
X158257699Y-86226597D01*
X158257698Y-86226597D01*
X158126271Y-86205781D01*
X158086611Y-86199500D01*
X157913389Y-86199500D01*
X157873728Y-86205781D01*
X157742302Y-86226597D01*
X157742299Y-86226598D01*
X157582923Y-86278383D01*
X157577552Y-86280128D01*
X157423211Y-86358768D01*
X157367149Y-86399500D01*
X157283072Y-86460586D01*
X157283070Y-86460588D01*
X157283069Y-86460588D01*
X157160588Y-86583069D01*
X157160588Y-86583070D01*
X157160586Y-86583072D01*
X157153601Y-86592686D01*
X157058768Y-86723211D01*
X156980128Y-86877552D01*
X156926597Y-87042302D01*
X156918538Y-87093186D01*
X156899500Y-87213389D01*
X156899500Y-87386611D01*
X156926598Y-87557701D01*
X156980127Y-87722445D01*
X157058768Y-87876788D01*
X157160586Y-88016928D01*
X157283072Y-88139414D01*
X157423212Y-88241232D01*
X157577555Y-88319873D01*
X157580708Y-88320897D01*
X157581752Y-88321611D01*
X157582048Y-88321734D01*
X157582022Y-88321795D01*
X157638383Y-88360330D01*
X157665585Y-88424688D01*
X157653674Y-88493535D01*
X157606433Y-88545013D01*
X157580712Y-88556760D01*
X157481783Y-88588904D01*
X157292439Y-88685380D01*
X157238282Y-88724727D01*
X157238282Y-88724728D01*
X157870591Y-89357037D01*
X157807007Y-89374075D01*
X157692993Y-89439901D01*
X157599901Y-89532993D01*
X157534075Y-89647007D01*
X157517037Y-89710591D01*
X156884728Y-89078282D01*
X156884727Y-89078282D01*
X156845380Y-89132439D01*
X156748904Y-89321783D01*
X156716760Y-89420712D01*
X156677322Y-89478388D01*
X156612964Y-89505586D01*
X156544117Y-89493671D01*
X156492642Y-89446427D01*
X156480898Y-89420712D01*
X156479873Y-89417555D01*
X156401232Y-89263212D01*
X156299414Y-89123072D01*
X156176928Y-89000586D01*
X156036788Y-88898768D01*
X155882445Y-88820127D01*
X155717701Y-88766598D01*
X155717699Y-88766597D01*
X155717698Y-88766597D01*
X155586271Y-88745781D01*
X155546611Y-88739500D01*
X155373389Y-88739500D01*
X155333728Y-88745781D01*
X155202302Y-88766597D01*
X155037552Y-88820128D01*
X154883211Y-88898768D01*
X154803256Y-88956859D01*
X154743072Y-89000586D01*
X154743070Y-89000588D01*
X154743069Y-89000588D01*
X154620588Y-89123069D01*
X154620588Y-89123070D01*
X154620586Y-89123072D01*
X154576859Y-89183256D01*
X154518768Y-89263211D01*
X154440128Y-89417552D01*
X154386597Y-89582302D01*
X154359500Y-89753389D01*
X153412722Y-89753389D01*
X153411605Y-87208571D01*
X153410483Y-84653753D01*
X154110000Y-84653753D01*
X154110000Y-84866246D01*
X154143242Y-85076127D01*
X154143242Y-85076130D01*
X154208904Y-85278217D01*
X154305375Y-85467550D01*
X154344728Y-85521716D01*
X154977037Y-84889408D01*
X154994075Y-84952993D01*
X155059901Y-85067007D01*
X155152993Y-85160099D01*
X155267007Y-85225925D01*
X155330590Y-85242962D01*
X154698282Y-85875269D01*
X154698282Y-85875270D01*
X154752449Y-85914624D01*
X154941784Y-86011096D01*
X155040711Y-86043239D01*
X155098387Y-86082676D01*
X155125586Y-86147034D01*
X155113672Y-86215881D01*
X155066428Y-86267357D01*
X155040722Y-86279097D01*
X155039522Y-86279487D01*
X155037550Y-86280128D01*
X154883211Y-86358768D01*
X154827149Y-86399500D01*
X154743072Y-86460586D01*
X154743070Y-86460588D01*
X154743069Y-86460588D01*
X154620588Y-86583069D01*
X154620588Y-86583070D01*
X154620586Y-86583072D01*
X154613601Y-86592686D01*
X154518768Y-86723211D01*
X154440128Y-86877552D01*
X154386597Y-87042302D01*
X154378538Y-87093186D01*
X154359500Y-87213389D01*
X154359500Y-87386611D01*
X154386598Y-87557701D01*
X154440127Y-87722445D01*
X154518768Y-87876788D01*
X154620586Y-88016928D01*
X154743072Y-88139414D01*
X154883212Y-88241232D01*
X155037555Y-88319873D01*
X155202299Y-88373402D01*
X155373389Y-88400500D01*
X155373390Y-88400500D01*
X155546610Y-88400500D01*
X155546611Y-88400500D01*
X155717701Y-88373402D01*
X155882445Y-88319873D01*
X156036788Y-88241232D01*
X156176928Y-88139414D01*
X156299414Y-88016928D01*
X156401232Y-87876788D01*
X156479873Y-87722445D01*
X156533402Y-87557701D01*
X156560500Y-87386611D01*
X156560500Y-87213389D01*
X156533402Y-87042299D01*
X156479873Y-86877555D01*
X156401232Y-86723212D01*
X156299414Y-86583072D01*
X156176928Y-86460586D01*
X156036788Y-86358768D01*
X155882446Y-86280127D01*
X155879284Y-86279100D01*
X155878236Y-86278383D01*
X155877952Y-86278266D01*
X155877976Y-86278206D01*
X155821609Y-86239661D01*
X155794413Y-86175302D01*
X155806329Y-86106456D01*
X155853574Y-86054981D01*
X155879288Y-86043239D01*
X155978215Y-86011096D01*
X156167554Y-85914622D01*
X156221716Y-85875270D01*
X156221717Y-85875270D01*
X155589408Y-85242962D01*
X155652993Y-85225925D01*
X155767007Y-85160099D01*
X155860099Y-85067007D01*
X155925925Y-84952993D01*
X155942962Y-84889408D01*
X156575270Y-85521717D01*
X156575270Y-85521716D01*
X156614622Y-85467554D01*
X156711096Y-85278215D01*
X156743239Y-85179288D01*
X156782676Y-85121612D01*
X156847034Y-85094413D01*
X156915880Y-85106327D01*
X156967357Y-85153571D01*
X156979100Y-85179284D01*
X156980127Y-85182446D01*
X156980128Y-85182447D01*
X157058768Y-85336788D01*
X157160586Y-85476928D01*
X157283072Y-85599414D01*
X157423212Y-85701232D01*
X157577555Y-85779873D01*
X157742299Y-85833402D01*
X157913389Y-85860500D01*
X157913390Y-85860500D01*
X158086610Y-85860500D01*
X158086611Y-85860500D01*
X158257701Y-85833402D01*
X158422445Y-85779873D01*
X158576788Y-85701232D01*
X158716928Y-85599414D01*
X158839414Y-85476928D01*
X158941232Y-85336788D01*
X159019873Y-85182445D01*
X159073402Y-85017701D01*
X159100500Y-84846611D01*
X159100500Y-84673389D01*
X159073402Y-84502299D01*
X159019873Y-84337555D01*
X158941232Y-84183212D01*
X158839414Y-84043072D01*
X158716928Y-83920586D01*
X158576788Y-83818768D01*
X158422445Y-83740127D01*
X158257701Y-83686598D01*
X158257699Y-83686597D01*
X158257698Y-83686597D01*
X158126271Y-83665781D01*
X158086611Y-83659500D01*
X157913389Y-83659500D01*
X157873728Y-83665781D01*
X157742302Y-83686597D01*
X157577552Y-83740128D01*
X157423211Y-83818768D01*
X157343256Y-83876859D01*
X157283072Y-83920586D01*
X157283070Y-83920588D01*
X157283069Y-83920588D01*
X157160588Y-84043069D01*
X157160588Y-84043070D01*
X157160586Y-84043072D01*
X157116859Y-84103256D01*
X157058768Y-84183211D01*
X156980128Y-84337550D01*
X156979099Y-84340720D01*
X156978381Y-84341769D01*
X156978266Y-84342048D01*
X156978207Y-84342023D01*
X156939657Y-84398393D01*
X156875297Y-84425587D01*
X156806451Y-84413668D01*
X156754979Y-84366420D01*
X156743239Y-84340711D01*
X156711096Y-84241784D01*
X156614624Y-84052449D01*
X156575270Y-83998282D01*
X156575269Y-83998282D01*
X155942962Y-84630590D01*
X155925925Y-84567007D01*
X155860099Y-84452993D01*
X155767007Y-84359901D01*
X155652993Y-84294075D01*
X155589409Y-84277037D01*
X156221716Y-83644728D01*
X156167550Y-83605375D01*
X155978217Y-83508904D01*
X155879287Y-83476760D01*
X155821611Y-83437323D01*
X155794413Y-83372964D01*
X155806328Y-83304118D01*
X155853572Y-83252642D01*
X155879290Y-83240897D01*
X155882445Y-83239873D01*
X156036788Y-83161232D01*
X156176928Y-83059414D01*
X156299414Y-82936928D01*
X156401232Y-82796788D01*
X156479873Y-82642445D01*
X156533402Y-82477701D01*
X156560500Y-82306611D01*
X156560500Y-82133389D01*
X156533402Y-81962299D01*
X156479873Y-81797555D01*
X156401232Y-81643212D01*
X156299414Y-81503072D01*
X156176928Y-81380586D01*
X156036788Y-81278768D01*
X155882445Y-81200127D01*
X155717701Y-81146598D01*
X155717699Y-81146597D01*
X155717698Y-81146597D01*
X155586271Y-81125781D01*
X155546611Y-81119500D01*
X155373389Y-81119500D01*
X155333728Y-81125781D01*
X155202302Y-81146597D01*
X155202299Y-81146598D01*
X155042923Y-81198383D01*
X155037552Y-81200128D01*
X154883211Y-81278768D01*
X154819494Y-81325062D01*
X154743072Y-81380586D01*
X154743070Y-81380588D01*
X154743069Y-81380588D01*
X154620588Y-81503069D01*
X154620588Y-81503070D01*
X154620586Y-81503072D01*
X154576859Y-81563256D01*
X154518768Y-81643211D01*
X154440128Y-81797552D01*
X154386597Y-81962302D01*
X154381277Y-81995892D01*
X154359500Y-82133389D01*
X154359500Y-82306611D01*
X154363284Y-82330500D01*
X154383289Y-82456812D01*
X154386598Y-82477701D01*
X154440127Y-82642445D01*
X154518768Y-82796788D01*
X154620586Y-82936928D01*
X154743072Y-83059414D01*
X154883212Y-83161232D01*
X155037555Y-83239873D01*
X155040708Y-83240897D01*
X155041752Y-83241611D01*
X155042048Y-83241734D01*
X155042022Y-83241795D01*
X155098383Y-83280330D01*
X155125585Y-83344688D01*
X155113674Y-83413535D01*
X155066433Y-83465013D01*
X155040712Y-83476760D01*
X154941783Y-83508904D01*
X154752439Y-83605380D01*
X154698282Y-83644727D01*
X154698282Y-83644728D01*
X155330591Y-84277037D01*
X155267007Y-84294075D01*
X155152993Y-84359901D01*
X155059901Y-84452993D01*
X154994075Y-84567007D01*
X154977037Y-84630591D01*
X154344728Y-83998282D01*
X154344727Y-83998282D01*
X154305380Y-84052439D01*
X154208904Y-84241782D01*
X154143242Y-84443869D01*
X154143242Y-84443872D01*
X154110000Y-84653753D01*
X153410483Y-84653753D01*
X153410481Y-84648935D01*
X153409949Y-83437323D01*
X153405539Y-73392270D01*
X153419389Y-73335271D01*
X153555214Y-73072553D01*
X153603488Y-73022041D01*
X153665364Y-73005500D01*
X156283767Y-73005500D01*
X156291814Y-73007863D01*
X156300102Y-73006581D01*
X156324839Y-73017560D01*
X156350806Y-73025185D01*
X156356297Y-73031522D01*
X156363964Y-73034925D01*
X156378839Y-73057537D01*
X156396561Y-73077989D01*
X156398751Y-73087805D01*
X156402364Y-73093297D01*
X156407759Y-73128175D01*
X156409971Y-73335271D01*
X156410387Y-73374176D01*
X156391419Y-73441422D01*
X156339107Y-73487738D01*
X156286394Y-73499500D01*
X154585323Y-73499500D01*
X154512264Y-73514032D01*
X154512260Y-73514033D01*
X154429399Y-73569399D01*
X154374033Y-73652260D01*
X154374032Y-73652264D01*
X154359500Y-73725321D01*
X154359500Y-75474678D01*
X154374032Y-75547735D01*
X154374033Y-75547739D01*
X154374034Y-75547740D01*
X154429399Y-75630601D01*
X154498271Y-75676619D01*
X154512260Y-75685966D01*
X154512264Y-75685967D01*
X154585321Y-75700499D01*
X154585324Y-75700500D01*
X156315744Y-75700500D01*
X156382783Y-75720185D01*
X156428538Y-75772989D01*
X156439725Y-75822382D01*
X156443038Y-76016548D01*
X156446346Y-76210500D01*
X156447340Y-76268737D01*
X156445636Y-76268766D01*
X156432648Y-76330429D01*
X156383570Y-76380159D01*
X156315397Y-76395462D01*
X156249773Y-76371478D01*
X156235745Y-76359403D01*
X156176930Y-76300588D01*
X156176928Y-76300586D01*
X156036788Y-76198768D01*
X155882445Y-76120127D01*
X155717701Y-76066598D01*
X155717699Y-76066597D01*
X155717698Y-76066597D01*
X155586271Y-76045781D01*
X155546611Y-76039500D01*
X155373389Y-76039500D01*
X155333728Y-76045781D01*
X155202302Y-76066597D01*
X155202299Y-76066598D01*
X155075223Y-76107888D01*
X155037552Y-76120128D01*
X154883211Y-76198768D01*
X154867064Y-76210500D01*
X154743072Y-76300586D01*
X154743070Y-76300588D01*
X154743069Y-76300588D01*
X154620588Y-76423069D01*
X154620588Y-76423070D01*
X154620586Y-76423072D01*
X154576859Y-76483256D01*
X154518768Y-76563211D01*
X154440128Y-76717552D01*
X154386597Y-76882302D01*
X154359500Y-77053389D01*
X154359500Y-77226610D01*
X154386597Y-77397697D01*
X154386597Y-77397699D01*
X154386598Y-77397701D01*
X154439182Y-77559538D01*
X154440128Y-77562447D01*
X154464612Y-77610499D01*
X154518768Y-77716788D01*
X154620586Y-77856928D01*
X154743072Y-77979414D01*
X154883212Y-78081232D01*
X155037555Y-78159873D01*
X155202299Y-78213402D01*
X155373389Y-78240500D01*
X155373390Y-78240500D01*
X155546610Y-78240500D01*
X155546611Y-78240500D01*
X155717701Y-78213402D01*
X155882445Y-78159873D01*
X156036788Y-78081232D01*
X156176928Y-77979414D01*
X156272117Y-77884224D01*
X156333436Y-77850742D01*
X156403128Y-77855726D01*
X156459062Y-77897597D01*
X156483479Y-77963061D01*
X156482816Y-77987459D01*
X156477390Y-78030378D01*
X156481261Y-78257238D01*
X156484480Y-78293530D01*
X156484481Y-78293539D01*
X156484482Y-78293545D01*
X156490100Y-78328385D01*
X156491711Y-78337352D01*
X156499314Y-78355750D01*
X156498947Y-78355841D01*
X156501827Y-78367536D01*
X156510674Y-78396130D01*
X156526648Y-78421894D01*
X156529787Y-78429489D01*
X156550707Y-78460854D01*
X156551921Y-78462655D01*
X156563207Y-78480857D01*
X156566164Y-78484023D01*
X156568564Y-78487620D01*
X156572986Y-78493116D01*
X156597111Y-78523103D01*
X156597114Y-78523105D01*
X156614808Y-78535410D01*
X156644839Y-78562294D01*
X156672215Y-78575335D01*
X156678957Y-78580024D01*
X156688411Y-78584148D01*
X156688411Y-78584147D01*
X156713545Y-78595111D01*
X156715453Y-78595932D01*
X156734840Y-78605168D01*
X156739025Y-78606228D01*
X156742994Y-78607960D01*
X156786220Y-78622383D01*
X156807601Y-78623161D01*
X156816139Y-78623768D01*
X156826251Y-78624838D01*
X156865128Y-78628954D01*
X156929721Y-78655584D01*
X156969664Y-78712911D01*
X156972273Y-78782732D01*
X156952393Y-78825149D01*
X156845376Y-78972446D01*
X156748904Y-79161783D01*
X156716760Y-79260712D01*
X156677322Y-79318388D01*
X156612964Y-79345586D01*
X156544117Y-79333671D01*
X156492642Y-79286427D01*
X156480898Y-79260712D01*
X156479873Y-79257555D01*
X156401232Y-79103212D01*
X156299414Y-78963072D01*
X156176928Y-78840586D01*
X156036788Y-78738768D01*
X155882445Y-78660127D01*
X155717701Y-78606598D01*
X155717699Y-78606597D01*
X155717698Y-78606597D01*
X155570218Y-78583239D01*
X155546611Y-78579500D01*
X155373389Y-78579500D01*
X155349782Y-78583239D01*
X155202302Y-78606597D01*
X155037552Y-78660128D01*
X154883211Y-78738768D01*
X154822701Y-78782732D01*
X154743072Y-78840586D01*
X154743070Y-78840588D01*
X154743069Y-78840588D01*
X154620588Y-78963069D01*
X154620588Y-78963070D01*
X154620586Y-78963072D01*
X154613097Y-78973380D01*
X154518768Y-79103211D01*
X154440128Y-79257552D01*
X154386597Y-79422302D01*
X154363681Y-79566989D01*
X154359500Y-79593389D01*
X154359500Y-79766611D01*
X154361490Y-79779177D01*
X154383491Y-79918088D01*
X154386598Y-79937701D01*
X154440127Y-80102445D01*
X154518768Y-80256788D01*
X154620586Y-80396928D01*
X154743072Y-80519414D01*
X154883212Y-80621232D01*
X155037555Y-80699873D01*
X155202299Y-80753402D01*
X155373389Y-80780500D01*
X155373390Y-80780500D01*
X155546610Y-80780500D01*
X155546611Y-80780500D01*
X155717701Y-80753402D01*
X155882445Y-80699873D01*
X156036788Y-80621232D01*
X156176928Y-80519414D01*
X156299414Y-80396928D01*
X156401232Y-80256788D01*
X156479873Y-80102445D01*
X156480896Y-80099294D01*
X156481610Y-80098250D01*
X156481734Y-80097952D01*
X156481796Y-80097977D01*
X156520327Y-80041618D01*
X156584683Y-80014415D01*
X156653530Y-80026323D01*
X156705011Y-80073562D01*
X156716760Y-80099287D01*
X156748904Y-80198217D01*
X156845375Y-80387550D01*
X156884728Y-80441716D01*
X157517037Y-79809408D01*
X157534075Y-79872993D01*
X157599901Y-79987007D01*
X157692993Y-80080099D01*
X157807007Y-80145925D01*
X157870590Y-80162962D01*
X157238282Y-80795269D01*
X157238282Y-80795270D01*
X157292449Y-80834624D01*
X157481784Y-80931096D01*
X157580711Y-80963239D01*
X157638387Y-81002676D01*
X157665586Y-81067034D01*
X157653672Y-81135881D01*
X157606428Y-81187357D01*
X157580722Y-81199097D01*
X157579522Y-81199487D01*
X157577550Y-81200128D01*
X157423211Y-81278768D01*
X157359494Y-81325062D01*
X157283072Y-81380586D01*
X157283070Y-81380588D01*
X157283069Y-81380588D01*
X157160588Y-81503069D01*
X157160588Y-81503070D01*
X157160586Y-81503072D01*
X157116859Y-81563256D01*
X157058768Y-81643211D01*
X156980128Y-81797552D01*
X156926597Y-81962302D01*
X156921277Y-81995892D01*
X156899500Y-82133389D01*
X156899500Y-82306611D01*
X156903284Y-82330500D01*
X156923289Y-82456812D01*
X156926598Y-82477701D01*
X156980127Y-82642445D01*
X157058768Y-82796788D01*
X157160586Y-82936928D01*
X157283072Y-83059414D01*
X157423212Y-83161232D01*
X157577555Y-83239873D01*
X157742299Y-83293402D01*
X157913389Y-83320500D01*
X157913390Y-83320500D01*
X158086610Y-83320500D01*
X158086611Y-83320500D01*
X158257701Y-83293402D01*
X158422445Y-83239873D01*
X158576788Y-83161232D01*
X158716928Y-83059414D01*
X158839414Y-82936928D01*
X158941232Y-82796788D01*
X159019873Y-82642445D01*
X159073402Y-82477701D01*
X159100500Y-82306611D01*
X159100500Y-82133389D01*
X159073402Y-81962299D01*
X159019873Y-81797555D01*
X158941232Y-81643212D01*
X158839414Y-81503072D01*
X158716928Y-81380586D01*
X158576788Y-81278768D01*
X158534680Y-81257313D01*
X158422446Y-81200127D01*
X158419284Y-81199100D01*
X158418236Y-81198383D01*
X158417952Y-81198266D01*
X158417976Y-81198206D01*
X158361609Y-81159661D01*
X158334413Y-81095302D01*
X158346329Y-81026456D01*
X158393574Y-80974981D01*
X158419288Y-80963239D01*
X158518215Y-80931096D01*
X158707554Y-80834622D01*
X158761716Y-80795270D01*
X158761717Y-80795270D01*
X158129408Y-80162962D01*
X158192993Y-80145925D01*
X158307007Y-80080099D01*
X158400099Y-79987007D01*
X158465925Y-79872993D01*
X158482962Y-79809408D01*
X159115270Y-80441717D01*
X159115270Y-80441716D01*
X159154622Y-80387554D01*
X159251095Y-80198217D01*
X159316757Y-79996130D01*
X159316757Y-79996127D01*
X159350000Y-79786246D01*
X159350000Y-79573753D01*
X159316757Y-79363872D01*
X159316757Y-79363869D01*
X159251095Y-79161782D01*
X159154624Y-78972449D01*
X159115270Y-78918282D01*
X159115269Y-78918282D01*
X158482962Y-79550590D01*
X158465925Y-79487007D01*
X158400099Y-79372993D01*
X158307007Y-79279901D01*
X158192993Y-79214075D01*
X158129408Y-79197037D01*
X158734542Y-78591902D01*
X158795865Y-78558417D01*
X158819130Y-78555622D01*
X158830562Y-78555336D01*
X158838341Y-78556584D01*
X158945311Y-78552585D01*
X158945321Y-78552582D01*
X159733842Y-78523105D01*
X160092015Y-78509716D01*
X160092027Y-78509715D01*
X160092029Y-78509715D01*
X160139504Y-78503449D01*
X160184615Y-78493121D01*
X160204484Y-78487721D01*
X160291875Y-78439750D01*
X160291879Y-78439746D01*
X160295462Y-78437295D01*
X160361902Y-78415673D01*
X160429484Y-78433404D01*
X160476752Y-78484858D01*
X160489500Y-78539621D01*
X160489500Y-128196753D01*
X160489330Y-128203243D01*
X160473462Y-128506001D01*
X160472105Y-128518909D01*
X160425189Y-128815127D01*
X160422491Y-128827823D01*
X160344864Y-129117530D01*
X160340853Y-129129873D01*
X160233373Y-129409870D01*
X160228094Y-129421728D01*
X160091931Y-129688964D01*
X160085445Y-129700197D01*
X159993432Y-129841885D01*
X159922097Y-129951731D01*
X159914468Y-129962231D01*
X159725717Y-130195319D01*
X159717032Y-130204964D01*
X159504964Y-130417032D01*
X159495319Y-130425717D01*
X159262231Y-130614468D01*
X159251731Y-130622097D01*
X159000197Y-130785445D01*
X158988964Y-130791931D01*
X158721728Y-130928094D01*
X158709870Y-130933373D01*
X158429873Y-131040853D01*
X158417530Y-131044864D01*
X158127823Y-131122491D01*
X158115127Y-131125189D01*
X157818909Y-131172105D01*
X157806001Y-131173462D01*
X157503244Y-131189330D01*
X157496754Y-131189500D01*
X107003246Y-131189500D01*
X106996756Y-131189330D01*
X106693998Y-131173462D01*
X106681090Y-131172105D01*
X106384872Y-131125189D01*
X106372176Y-131122491D01*
X106082469Y-131044864D01*
X106070126Y-131040853D01*
X105790129Y-130933373D01*
X105778271Y-130928094D01*
X105511029Y-130791927D01*
X105499810Y-130785450D01*
X105248262Y-130622093D01*
X105237768Y-130614468D01*
X105004680Y-130425717D01*
X104995035Y-130417032D01*
X104782967Y-130204964D01*
X104774282Y-130195319D01*
X104585531Y-129962231D01*
X104577909Y-129951741D01*
X104414545Y-129700183D01*
X104408068Y-129688963D01*
X104271904Y-129421724D01*
X104266625Y-129409867D01*
X104208236Y-129257756D01*
X104200000Y-129213319D01*
X104200000Y-127574038D01*
X106149500Y-127574038D01*
X106149500Y-127825961D01*
X106188910Y-128074785D01*
X106266760Y-128314383D01*
X106345413Y-128468747D01*
X106367700Y-128512488D01*
X106381132Y-128538848D01*
X106529201Y-128742649D01*
X106529205Y-128742654D01*
X106707345Y-128920794D01*
X106707350Y-128920798D01*
X106789171Y-128980244D01*
X106911155Y-129068870D01*
X107054184Y-129141747D01*
X107135616Y-129183239D01*
X107135618Y-129183239D01*
X107135621Y-129183241D01*
X107375215Y-129261090D01*
X107624038Y-129300500D01*
X107624039Y-129300500D01*
X107875961Y-129300500D01*
X107875962Y-129300500D01*
X108124785Y-129261090D01*
X108364379Y-129183241D01*
X108588845Y-129068870D01*
X108792656Y-128920793D01*
X108970793Y-128742656D01*
X109118870Y-128538845D01*
X109233241Y-128314379D01*
X109311090Y-128074785D01*
X109350500Y-127825962D01*
X109350500Y-127574038D01*
X155149500Y-127574038D01*
X155149500Y-127825961D01*
X155188910Y-128074785D01*
X155266760Y-128314383D01*
X155345413Y-128468747D01*
X155367700Y-128512488D01*
X155381132Y-128538848D01*
X155529201Y-128742649D01*
X155529205Y-128742654D01*
X155707345Y-128920794D01*
X155707350Y-128920798D01*
X155789171Y-128980244D01*
X155911155Y-129068870D01*
X156054184Y-129141747D01*
X156135616Y-129183239D01*
X156135618Y-129183239D01*
X156135621Y-129183241D01*
X156375215Y-129261090D01*
X156624038Y-129300500D01*
X156624039Y-129300500D01*
X156875961Y-129300500D01*
X156875962Y-129300500D01*
X157124785Y-129261090D01*
X157364379Y-129183241D01*
X157588845Y-129068870D01*
X157792656Y-128920793D01*
X157970793Y-128742656D01*
X158118870Y-128538845D01*
X158233241Y-128314379D01*
X158311090Y-128074785D01*
X158350500Y-127825962D01*
X158350500Y-127574038D01*
X158311090Y-127325215D01*
X158233241Y-127085621D01*
X158233239Y-127085618D01*
X158233239Y-127085616D01*
X158191747Y-127004184D01*
X158118870Y-126861155D01*
X158099952Y-126835117D01*
X157970798Y-126657350D01*
X157970794Y-126657345D01*
X157792654Y-126479205D01*
X157792649Y-126479201D01*
X157588848Y-126331132D01*
X157588847Y-126331131D01*
X157588845Y-126331130D01*
X157518747Y-126295413D01*
X157364383Y-126216760D01*
X157124785Y-126138910D01*
X156875962Y-126099500D01*
X156624038Y-126099500D01*
X156499626Y-126119205D01*
X156375214Y-126138910D01*
X156135616Y-126216760D01*
X155911151Y-126331132D01*
X155707350Y-126479201D01*
X155707345Y-126479205D01*
X155529205Y-126657345D01*
X155529201Y-126657350D01*
X155381132Y-126861151D01*
X155266760Y-127085616D01*
X155188910Y-127325214D01*
X155149500Y-127574038D01*
X109350500Y-127574038D01*
X109311090Y-127325215D01*
X109233241Y-127085621D01*
X109233239Y-127085618D01*
X109233239Y-127085616D01*
X109191747Y-127004184D01*
X109118870Y-126861155D01*
X109099952Y-126835117D01*
X108970798Y-126657350D01*
X108970794Y-126657345D01*
X108792654Y-126479205D01*
X108792649Y-126479201D01*
X108588848Y-126331132D01*
X108588847Y-126331131D01*
X108588845Y-126331130D01*
X108518747Y-126295413D01*
X108364383Y-126216760D01*
X108124785Y-126138910D01*
X107875962Y-126099500D01*
X107624038Y-126099500D01*
X107499626Y-126119205D01*
X107375214Y-126138910D01*
X107135616Y-126216760D01*
X106911151Y-126331132D01*
X106707350Y-126479201D01*
X106707345Y-126479205D01*
X106529205Y-126657345D01*
X106529201Y-126657350D01*
X106381132Y-126861151D01*
X106266760Y-127085616D01*
X106188910Y-127325214D01*
X106149500Y-127574038D01*
X104200000Y-127574038D01*
X104200000Y-124163038D01*
X104205699Y-124143628D01*
X104206501Y-124123415D01*
X104218748Y-124099186D01*
X104219685Y-124095999D01*
X104222424Y-124091917D01*
X104235778Y-124072844D01*
X104249664Y-124056295D01*
X104356295Y-123949664D01*
X104372839Y-123935782D01*
X104496373Y-123849283D01*
X104515074Y-123838486D01*
X104618831Y-123790104D01*
X104651739Y-123774759D01*
X104672044Y-123767367D01*
X104817704Y-123728338D01*
X104838978Y-123724587D01*
X104994605Y-123710971D01*
X105005412Y-123710500D01*
X119088403Y-123710500D01*
X119088407Y-123710500D01*
X119262536Y-123679797D01*
X119428687Y-123619323D01*
X119581813Y-123530915D01*
X119717261Y-123417261D01*
X119830915Y-123281813D01*
X119919323Y-123128687D01*
X119979797Y-122962536D01*
X120010500Y-122788407D01*
X120010500Y-122753753D01*
X154110000Y-122753753D01*
X154110000Y-122966246D01*
X154143242Y-123176127D01*
X154143242Y-123176130D01*
X154208904Y-123378217D01*
X154305375Y-123567550D01*
X154344728Y-123621716D01*
X154977037Y-122989408D01*
X154994075Y-123052993D01*
X155059901Y-123167007D01*
X155152993Y-123260099D01*
X155267007Y-123325925D01*
X155330590Y-123342962D01*
X154698282Y-123975269D01*
X154698282Y-123975270D01*
X154752449Y-124014624D01*
X154941782Y-124111095D01*
X155143870Y-124176757D01*
X155353754Y-124210000D01*
X155566246Y-124210000D01*
X155776127Y-124176757D01*
X155776130Y-124176757D01*
X155978217Y-124111095D01*
X156167554Y-124014622D01*
X156221716Y-123975270D01*
X156221717Y-123975270D01*
X155589408Y-123342962D01*
X155652993Y-123325925D01*
X155767007Y-123260099D01*
X155860099Y-123167007D01*
X155925925Y-123052993D01*
X155942962Y-122989408D01*
X156575270Y-123621717D01*
X156575270Y-123621716D01*
X156614622Y-123567554D01*
X156711096Y-123378215D01*
X156743239Y-123279288D01*
X156782676Y-123221612D01*
X156847034Y-123194413D01*
X156915880Y-123206327D01*
X156967357Y-123253571D01*
X156979100Y-123279284D01*
X156980127Y-123282446D01*
X156980128Y-123282447D01*
X157058768Y-123436788D01*
X157160586Y-123576928D01*
X157283072Y-123699414D01*
X157423212Y-123801232D01*
X157577555Y-123879873D01*
X157742299Y-123933402D01*
X157913389Y-123960500D01*
X157913390Y-123960500D01*
X158086610Y-123960500D01*
X158086611Y-123960500D01*
X158257701Y-123933402D01*
X158422445Y-123879873D01*
X158576788Y-123801232D01*
X158716928Y-123699414D01*
X158839414Y-123576928D01*
X158941232Y-123436788D01*
X159019873Y-123282445D01*
X159073402Y-123117701D01*
X159100500Y-122946611D01*
X159100500Y-122773389D01*
X159073402Y-122602299D01*
X159019873Y-122437555D01*
X158941232Y-122283212D01*
X158839414Y-122143072D01*
X158716928Y-122020586D01*
X158576788Y-121918768D01*
X158422445Y-121840127D01*
X158257701Y-121786598D01*
X158257699Y-121786597D01*
X158257698Y-121786597D01*
X158126271Y-121765781D01*
X158086611Y-121759500D01*
X157913389Y-121759500D01*
X157873728Y-121765781D01*
X157742302Y-121786597D01*
X157577552Y-121840128D01*
X157423211Y-121918768D01*
X157393449Y-121940392D01*
X157283072Y-122020586D01*
X157283070Y-122020588D01*
X157283069Y-122020588D01*
X157160588Y-122143069D01*
X157160588Y-122143070D01*
X157160586Y-122143072D01*
X157134655Y-122178763D01*
X157058768Y-122283211D01*
X156980128Y-122437550D01*
X156979099Y-122440720D01*
X156978381Y-122441769D01*
X156978266Y-122442048D01*
X156978207Y-122442023D01*
X156939657Y-122498393D01*
X156875297Y-122525587D01*
X156806451Y-122513668D01*
X156754979Y-122466420D01*
X156743239Y-122440711D01*
X156711096Y-122341784D01*
X156614624Y-122152449D01*
X156575270Y-122098282D01*
X156575269Y-122098282D01*
X155942962Y-122730590D01*
X155925925Y-122667007D01*
X155860099Y-122552993D01*
X155767007Y-122459901D01*
X155652993Y-122394075D01*
X155589409Y-122377037D01*
X156221716Y-121744728D01*
X156167550Y-121705375D01*
X155978217Y-121608904D01*
X155879287Y-121576760D01*
X155821611Y-121537323D01*
X155794413Y-121472964D01*
X155806328Y-121404118D01*
X155853572Y-121352642D01*
X155879290Y-121340897D01*
X155882445Y-121339873D01*
X156036788Y-121261232D01*
X156176928Y-121159414D01*
X156299414Y-121036928D01*
X156401232Y-120896788D01*
X156479873Y-120742445D01*
X156533402Y-120577701D01*
X156560500Y-120406611D01*
X156560500Y-120233389D01*
X156899500Y-120233389D01*
X156899500Y-120406611D01*
X156926598Y-120577701D01*
X156980127Y-120742445D01*
X157058768Y-120896788D01*
X157160586Y-121036928D01*
X157283072Y-121159414D01*
X157423212Y-121261232D01*
X157577555Y-121339873D01*
X157742299Y-121393402D01*
X157913389Y-121420500D01*
X157913390Y-121420500D01*
X158086610Y-121420500D01*
X158086611Y-121420500D01*
X158257701Y-121393402D01*
X158422445Y-121339873D01*
X158576788Y-121261232D01*
X158716928Y-121159414D01*
X158839414Y-121036928D01*
X158941232Y-120896788D01*
X159019873Y-120742445D01*
X159073402Y-120577701D01*
X159100500Y-120406611D01*
X159100500Y-120233389D01*
X159073402Y-120062299D01*
X159019873Y-119897555D01*
X158941232Y-119743212D01*
X158839414Y-119603072D01*
X158716928Y-119480586D01*
X158576788Y-119378768D01*
X158422445Y-119300127D01*
X158257701Y-119246598D01*
X158257699Y-119246597D01*
X158257698Y-119246597D01*
X158126271Y-119225781D01*
X158086611Y-119219500D01*
X157913389Y-119219500D01*
X157873728Y-119225781D01*
X157742302Y-119246597D01*
X157577552Y-119300128D01*
X157423211Y-119378768D01*
X157343256Y-119436859D01*
X157283072Y-119480586D01*
X157283070Y-119480588D01*
X157283069Y-119480588D01*
X157160588Y-119603069D01*
X157160588Y-119603070D01*
X157160586Y-119603072D01*
X157116859Y-119663256D01*
X157058768Y-119743211D01*
X156980128Y-119897552D01*
X156926597Y-120062302D01*
X156900310Y-120228277D01*
X156899500Y-120233389D01*
X156560500Y-120233389D01*
X156533402Y-120062299D01*
X156479873Y-119897555D01*
X156401232Y-119743212D01*
X156299414Y-119603072D01*
X156176928Y-119480586D01*
X156036788Y-119378768D01*
X155882445Y-119300127D01*
X155717701Y-119246598D01*
X155717699Y-119246597D01*
X155717698Y-119246597D01*
X155586271Y-119225781D01*
X155546611Y-119219500D01*
X155373389Y-119219500D01*
X155333728Y-119225781D01*
X155202302Y-119246597D01*
X155037552Y-119300128D01*
X154883211Y-119378768D01*
X154803256Y-119436859D01*
X154743072Y-119480586D01*
X154743070Y-119480588D01*
X154743069Y-119480588D01*
X154620588Y-119603069D01*
X154620588Y-119603070D01*
X154620586Y-119603072D01*
X154576859Y-119663256D01*
X154518768Y-119743211D01*
X154440128Y-119897552D01*
X154386597Y-120062302D01*
X154360310Y-120228277D01*
X154359500Y-120233389D01*
X154359500Y-120406611D01*
X154386598Y-120577701D01*
X154440127Y-120742445D01*
X154518768Y-120896788D01*
X154620586Y-121036928D01*
X154743072Y-121159414D01*
X154883212Y-121261232D01*
X155037555Y-121339873D01*
X155040708Y-121340897D01*
X155041752Y-121341611D01*
X155042048Y-121341734D01*
X155042022Y-121341795D01*
X155098383Y-121380330D01*
X155125585Y-121444688D01*
X155113674Y-121513535D01*
X155066433Y-121565013D01*
X155040712Y-121576760D01*
X154941783Y-121608904D01*
X154752439Y-121705380D01*
X154698282Y-121744727D01*
X154698282Y-121744728D01*
X155330591Y-122377037D01*
X155267007Y-122394075D01*
X155152993Y-122459901D01*
X155059901Y-122552993D01*
X154994075Y-122667007D01*
X154977037Y-122730591D01*
X154344728Y-122098282D01*
X154344727Y-122098282D01*
X154305380Y-122152439D01*
X154208904Y-122341782D01*
X154143242Y-122543869D01*
X154143242Y-122543872D01*
X154110000Y-122753753D01*
X120010500Y-122753753D01*
X120010500Y-122700000D01*
X120010500Y-122696588D01*
X120010500Y-114695651D01*
X120010500Y-114611593D01*
X119979797Y-114437464D01*
X119919323Y-114271313D01*
X119881181Y-114205250D01*
X119830916Y-114118188D01*
X119830913Y-114118185D01*
X119717261Y-113982738D01*
X119581814Y-113869086D01*
X119581811Y-113869083D01*
X119428691Y-113780679D01*
X119428690Y-113780678D01*
X119262535Y-113720202D01*
X119088409Y-113689500D01*
X119088407Y-113689500D01*
X119004349Y-113689500D01*
X105005412Y-113689500D01*
X104994606Y-113689028D01*
X104969584Y-113686838D01*
X104838982Y-113675412D01*
X104817696Y-113671659D01*
X104672049Y-113632633D01*
X104651739Y-113625240D01*
X104515081Y-113561516D01*
X104496365Y-113550710D01*
X104372847Y-113464223D01*
X104356289Y-113450329D01*
X104249674Y-113343714D01*
X104235778Y-113327154D01*
X104222423Y-113308080D01*
X104200097Y-113241873D01*
X104200000Y-113236959D01*
X104200000Y-110607908D01*
X114499500Y-110607908D01*
X114499500Y-110739692D01*
X114529190Y-110850499D01*
X114533609Y-110866988D01*
X114533609Y-110866989D01*
X114574607Y-110938000D01*
X114591080Y-111005901D01*
X114574607Y-111062000D01*
X114533609Y-111133010D01*
X114533609Y-111133011D01*
X114499500Y-111260308D01*
X114499500Y-111392091D01*
X114533608Y-111519387D01*
X114565891Y-111575302D01*
X114599500Y-111633514D01*
X114692686Y-111726700D01*
X114806814Y-111792592D01*
X114934108Y-111826700D01*
X114934110Y-111826700D01*
X115065890Y-111826700D01*
X115065892Y-111826700D01*
X115193186Y-111792592D01*
X115307314Y-111726700D01*
X115400500Y-111633514D01*
X115466392Y-111519386D01*
X115500500Y-111392092D01*
X115500500Y-111260308D01*
X115466392Y-111133014D01*
X115425391Y-111061999D01*
X115408919Y-110994101D01*
X115425391Y-110938000D01*
X115466392Y-110866986D01*
X115500500Y-110739692D01*
X115500500Y-110607908D01*
X115466392Y-110480614D01*
X115463801Y-110476127D01*
X115430069Y-110417701D01*
X115400500Y-110366486D01*
X115307314Y-110273300D01*
X115225087Y-110225826D01*
X115193187Y-110207408D01*
X115069646Y-110174306D01*
X115065892Y-110173300D01*
X114934108Y-110173300D01*
X114806812Y-110207408D01*
X114692686Y-110273300D01*
X114692683Y-110273302D01*
X114599502Y-110366483D01*
X114599500Y-110366486D01*
X114533608Y-110480612D01*
X114507520Y-110577977D01*
X114499500Y-110607908D01*
X104200000Y-110607908D01*
X104200000Y-103364767D01*
X106168841Y-103364767D01*
X106168841Y-103496550D01*
X106202949Y-103623846D01*
X106212945Y-103641159D01*
X106268841Y-103737973D01*
X106362027Y-103831159D01*
X106476155Y-103897051D01*
X106603449Y-103931159D01*
X106603451Y-103931159D01*
X106735231Y-103931159D01*
X106735233Y-103931159D01*
X106862527Y-103897051D01*
X106976655Y-103831159D01*
X107069841Y-103737973D01*
X107135733Y-103623845D01*
X107156957Y-103544634D01*
X107193319Y-103484977D01*
X107244633Y-103456957D01*
X107323845Y-103435733D01*
X107437973Y-103369841D01*
X107483706Y-103324108D01*
X113173300Y-103324108D01*
X113173300Y-103455892D01*
X113190354Y-103519539D01*
X113207408Y-103583187D01*
X113230883Y-103623846D01*
X113273300Y-103697314D01*
X113366486Y-103790500D01*
X113480614Y-103856392D01*
X113607908Y-103890500D01*
X113607910Y-103890500D01*
X113739690Y-103890500D01*
X113739692Y-103890500D01*
X113866986Y-103856392D01*
X113938000Y-103815391D01*
X114005899Y-103798919D01*
X114061999Y-103815391D01*
X114133014Y-103856392D01*
X114260308Y-103890500D01*
X114260310Y-103890500D01*
X114392090Y-103890500D01*
X114392092Y-103890500D01*
X114519386Y-103856392D01*
X114633514Y-103790500D01*
X114726700Y-103697314D01*
X114792592Y-103583186D01*
X114826700Y-103455892D01*
X114826700Y-103324108D01*
X114792592Y-103196814D01*
X114726700Y-103082686D01*
X114633514Y-102989500D01*
X114553050Y-102943044D01*
X114519387Y-102923608D01*
X114444151Y-102903449D01*
X114392092Y-102889500D01*
X114260308Y-102889500D01*
X114133014Y-102923608D01*
X114133013Y-102923608D01*
X114133011Y-102923609D01*
X114133010Y-102923609D01*
X114062000Y-102964607D01*
X113994099Y-102981080D01*
X113938000Y-102964607D01*
X113866989Y-102923609D01*
X113866986Y-102923608D01*
X113739692Y-102889500D01*
X113607908Y-102889500D01*
X113480612Y-102923608D01*
X113366486Y-102989500D01*
X113366483Y-102989502D01*
X113273302Y-103082683D01*
X113273300Y-103082686D01*
X113207408Y-103196812D01*
X113191300Y-103256929D01*
X113173300Y-103324108D01*
X107483706Y-103324108D01*
X107531159Y-103276655D01*
X107597051Y-103162527D01*
X107631159Y-103035233D01*
X107631159Y-102903449D01*
X107597051Y-102776155D01*
X107560848Y-102713449D01*
X115708841Y-102713449D01*
X115708841Y-102845232D01*
X115742949Y-102972528D01*
X115763652Y-103008386D01*
X115808841Y-103086655D01*
X115902027Y-103179841D01*
X116016155Y-103245733D01*
X116095363Y-103266956D01*
X116155022Y-103303319D01*
X116183042Y-103354635D01*
X116197028Y-103406832D01*
X116204267Y-103433846D01*
X116225049Y-103469841D01*
X116270159Y-103547973D01*
X116363345Y-103641159D01*
X116477473Y-103707051D01*
X116604767Y-103741159D01*
X116604769Y-103741159D01*
X116736549Y-103741159D01*
X116736551Y-103741159D01*
X116863845Y-103707051D01*
X116977973Y-103641159D01*
X117071159Y-103547973D01*
X117137051Y-103433845D01*
X117171159Y-103306551D01*
X117171159Y-103174767D01*
X117137051Y-103047473D01*
X117071159Y-102933345D01*
X116977973Y-102840159D01*
X116904427Y-102797697D01*
X116863846Y-102774267D01*
X116836832Y-102767028D01*
X116784635Y-102753043D01*
X116724976Y-102716679D01*
X116696956Y-102665364D01*
X116675733Y-102586155D01*
X116609841Y-102472027D01*
X116516655Y-102378841D01*
X116459591Y-102345895D01*
X116402528Y-102312949D01*
X116338880Y-102295895D01*
X116275233Y-102278841D01*
X116143449Y-102278841D01*
X116016153Y-102312949D01*
X115902027Y-102378841D01*
X115902024Y-102378843D01*
X115808843Y-102472024D01*
X115808841Y-102472027D01*
X115742949Y-102586153D01*
X115708841Y-102713449D01*
X107560848Y-102713449D01*
X107531159Y-102662027D01*
X107437973Y-102568841D01*
X107380909Y-102535895D01*
X107323846Y-102502949D01*
X107208441Y-102472027D01*
X107196551Y-102468841D01*
X107064767Y-102468841D01*
X106937471Y-102502949D01*
X106823345Y-102568841D01*
X106823342Y-102568843D01*
X106730161Y-102662024D01*
X106730159Y-102662027D01*
X106664267Y-102776153D01*
X106643044Y-102855362D01*
X106606679Y-102915023D01*
X106555362Y-102943043D01*
X106530180Y-102949790D01*
X106476153Y-102964267D01*
X106362027Y-103030159D01*
X106362024Y-103030161D01*
X106268843Y-103123342D01*
X106268841Y-103123345D01*
X106202949Y-103237471D01*
X106168841Y-103364767D01*
X104200000Y-103364767D01*
X104200000Y-101734108D01*
X123399500Y-101734108D01*
X123399500Y-101865891D01*
X123433608Y-101993187D01*
X123466554Y-102050250D01*
X123499500Y-102107314D01*
X123592686Y-102200500D01*
X123706814Y-102266392D01*
X123834108Y-102300500D01*
X123834110Y-102300500D01*
X123965890Y-102300500D01*
X123965892Y-102300500D01*
X124093186Y-102266392D01*
X124207314Y-102200500D01*
X124300500Y-102107314D01*
X124366392Y-101993186D01*
X124400500Y-101865892D01*
X124400500Y-101734108D01*
X124366392Y-101606814D01*
X124316825Y-101520962D01*
X124300352Y-101453064D01*
X124323204Y-101387037D01*
X124336527Y-101371286D01*
X124350500Y-101357314D01*
X124416392Y-101243186D01*
X124450500Y-101115892D01*
X124450500Y-100984108D01*
X124416392Y-100856814D01*
X124350500Y-100742686D01*
X124257314Y-100649500D01*
X124200250Y-100616554D01*
X124143187Y-100583608D01*
X124079539Y-100566554D01*
X124015892Y-100549500D01*
X123884108Y-100549500D01*
X123756812Y-100583608D01*
X123642686Y-100649500D01*
X123642683Y-100649502D01*
X123549502Y-100742683D01*
X123549500Y-100742686D01*
X123483608Y-100856812D01*
X123453625Y-100968714D01*
X123449500Y-100984108D01*
X123449500Y-101115892D01*
X123483608Y-101243186D01*
X123533174Y-101329037D01*
X123549647Y-101396935D01*
X123526795Y-101462962D01*
X123513470Y-101478715D01*
X123499503Y-101492681D01*
X123499500Y-101492686D01*
X123433608Y-101606812D01*
X123399500Y-101734108D01*
X104200000Y-101734108D01*
X104200000Y-99954108D01*
X108883300Y-99954108D01*
X108883300Y-100085892D01*
X108883493Y-100086611D01*
X108917408Y-100213187D01*
X108943109Y-100257701D01*
X108983300Y-100327314D01*
X109076486Y-100420500D01*
X109190614Y-100486392D01*
X109317908Y-100520500D01*
X109317910Y-100520500D01*
X109449690Y-100520500D01*
X109449692Y-100520500D01*
X109576986Y-100486392D01*
X109648000Y-100445391D01*
X109715899Y-100428919D01*
X109771999Y-100445391D01*
X109843014Y-100486392D01*
X109970308Y-100520500D01*
X109970310Y-100520500D01*
X110102090Y-100520500D01*
X110102092Y-100520500D01*
X110229386Y-100486392D01*
X110343514Y-100420500D01*
X110436700Y-100327314D01*
X110502592Y-100213186D01*
X110536700Y-100085892D01*
X110536700Y-99954108D01*
X110502592Y-99826814D01*
X110436700Y-99712686D01*
X110343514Y-99619500D01*
X110286450Y-99586554D01*
X110229387Y-99553608D01*
X110165739Y-99536554D01*
X110102092Y-99519500D01*
X109970308Y-99519500D01*
X109843014Y-99553608D01*
X109843013Y-99553608D01*
X109843011Y-99553609D01*
X109843010Y-99553609D01*
X109772000Y-99594607D01*
X109704099Y-99611080D01*
X109648000Y-99594607D01*
X109576989Y-99553609D01*
X109576986Y-99553608D01*
X109449692Y-99519500D01*
X109317908Y-99519500D01*
X109190612Y-99553608D01*
X109076486Y-99619500D01*
X109076483Y-99619502D01*
X108983302Y-99712683D01*
X108983300Y-99712686D01*
X108917408Y-99826812D01*
X108892305Y-99920499D01*
X108883300Y-99954108D01*
X104200000Y-99954108D01*
X104200000Y-99354108D01*
X126169500Y-99354108D01*
X126169500Y-99485891D01*
X126203608Y-99613187D01*
X126218157Y-99638386D01*
X126269500Y-99727314D01*
X126362686Y-99820500D01*
X126476814Y-99886392D01*
X126604108Y-99920500D01*
X126604110Y-99920500D01*
X126735890Y-99920500D01*
X126735892Y-99920500D01*
X126863186Y-99886392D01*
X126977314Y-99820500D01*
X127070500Y-99727314D01*
X127136392Y-99613186D01*
X127170500Y-99485892D01*
X127170500Y-99354108D01*
X127136392Y-99226814D01*
X127136391Y-99226812D01*
X127136391Y-99226811D01*
X127134779Y-99224020D01*
X127134134Y-99221362D01*
X127133280Y-99219300D01*
X127133601Y-99219166D01*
X127118303Y-99156121D01*
X127141152Y-99090093D01*
X127180163Y-99054628D01*
X127187314Y-99050500D01*
X127280500Y-98957314D01*
X127346392Y-98843186D01*
X127380500Y-98715892D01*
X127380500Y-98584108D01*
X127346392Y-98456814D01*
X127280500Y-98342686D01*
X127187314Y-98249500D01*
X127130250Y-98216554D01*
X127073187Y-98183608D01*
X127009539Y-98166554D01*
X126945892Y-98149500D01*
X126814108Y-98149500D01*
X126686812Y-98183608D01*
X126572686Y-98249500D01*
X126572683Y-98249502D01*
X126479502Y-98342683D01*
X126479500Y-98342686D01*
X126413608Y-98456812D01*
X126386680Y-98557313D01*
X126379500Y-98584108D01*
X126379500Y-98715892D01*
X126403767Y-98806456D01*
X126413608Y-98843185D01*
X126413609Y-98843188D01*
X126415225Y-98845987D01*
X126415870Y-98848646D01*
X126416719Y-98850696D01*
X126416399Y-98850828D01*
X126431695Y-98913888D01*
X126408841Y-98979914D01*
X126369842Y-99015368D01*
X126362689Y-99019498D01*
X126362683Y-99019502D01*
X126269502Y-99112683D01*
X126269500Y-99112686D01*
X126203608Y-99226812D01*
X126169500Y-99354108D01*
X104200000Y-99354108D01*
X104200000Y-98184108D01*
X115849500Y-98184108D01*
X115849500Y-98315892D01*
X115861185Y-98359500D01*
X115883608Y-98443187D01*
X115895628Y-98464005D01*
X115949500Y-98557314D01*
X116042686Y-98650500D01*
X116141521Y-98707563D01*
X116155944Y-98715890D01*
X116156814Y-98716392D01*
X116284108Y-98750500D01*
X116284110Y-98750500D01*
X116415890Y-98750500D01*
X116415892Y-98750500D01*
X116543186Y-98716392D01*
X116657314Y-98650500D01*
X116671282Y-98636531D01*
X116732602Y-98603046D01*
X116802294Y-98608029D01*
X116820960Y-98616824D01*
X116838260Y-98626812D01*
X116906808Y-98666389D01*
X116906809Y-98666389D01*
X116906814Y-98666392D01*
X117034108Y-98700500D01*
X117034110Y-98700500D01*
X117165890Y-98700500D01*
X117165892Y-98700500D01*
X117293186Y-98666392D01*
X117407314Y-98600500D01*
X117500500Y-98507314D01*
X117566392Y-98393186D01*
X117600500Y-98265892D01*
X117600500Y-98134108D01*
X117566392Y-98006814D01*
X117500500Y-97892686D01*
X117407314Y-97799500D01*
X117320712Y-97749500D01*
X117293187Y-97733608D01*
X117184414Y-97704463D01*
X117165892Y-97699500D01*
X117034108Y-97699500D01*
X116906812Y-97733608D01*
X116792686Y-97799500D01*
X116792681Y-97799503D01*
X116778715Y-97813470D01*
X116717391Y-97846954D01*
X116647699Y-97841968D01*
X116629043Y-97833178D01*
X116543186Y-97783608D01*
X116415892Y-97749500D01*
X116284108Y-97749500D01*
X116156812Y-97783608D01*
X116042686Y-97849500D01*
X116042683Y-97849502D01*
X115949502Y-97942683D01*
X115949500Y-97942686D01*
X115883608Y-98056812D01*
X115862897Y-98134108D01*
X115849500Y-98184108D01*
X104200000Y-98184108D01*
X104200000Y-96084108D01*
X129699500Y-96084108D01*
X129699500Y-96215891D01*
X129733608Y-96343187D01*
X129734498Y-96344728D01*
X129799500Y-96457314D01*
X129892686Y-96550500D01*
X130006814Y-96616392D01*
X130134108Y-96650500D01*
X130134110Y-96650500D01*
X130265890Y-96650500D01*
X130265892Y-96650500D01*
X130393186Y-96616392D01*
X130507314Y-96550500D01*
X130600500Y-96457314D01*
X130666392Y-96343186D01*
X130700500Y-96215892D01*
X130700500Y-96084108D01*
X130666392Y-95956814D01*
X130600500Y-95842686D01*
X130507314Y-95749500D01*
X130450250Y-95716554D01*
X130393187Y-95683608D01*
X130329539Y-95666554D01*
X130265892Y-95649500D01*
X130134108Y-95649500D01*
X130006812Y-95683608D01*
X129892686Y-95749500D01*
X129892683Y-95749502D01*
X129799502Y-95842683D01*
X129799500Y-95842686D01*
X129733608Y-95956812D01*
X129699500Y-96084108D01*
X104200000Y-96084108D01*
X104200000Y-93734108D01*
X132449500Y-93734108D01*
X132449500Y-93865892D01*
X132466554Y-93929539D01*
X132483608Y-93993187D01*
X132516554Y-94050250D01*
X132549500Y-94107314D01*
X132642686Y-94200500D01*
X132756814Y-94266392D01*
X132884108Y-94300500D01*
X132884110Y-94300500D01*
X133015890Y-94300500D01*
X133015892Y-94300500D01*
X133143186Y-94266392D01*
X133257314Y-94200500D01*
X133350500Y-94107314D01*
X133416392Y-93993186D01*
X133450500Y-93865892D01*
X133450500Y-93734108D01*
X133416392Y-93606814D01*
X133350500Y-93492686D01*
X133257314Y-93399500D01*
X133200250Y-93366554D01*
X133143187Y-93333608D01*
X133079539Y-93316554D01*
X133015892Y-93299500D01*
X132884108Y-93299500D01*
X132756812Y-93333608D01*
X132642686Y-93399500D01*
X132642683Y-93399502D01*
X132549502Y-93492683D01*
X132549500Y-93492686D01*
X132483608Y-93606812D01*
X132449500Y-93734108D01*
X104200000Y-93734108D01*
X104200000Y-91284108D01*
X117249500Y-91284108D01*
X117249500Y-91415891D01*
X117283608Y-91543187D01*
X117294356Y-91561802D01*
X117349500Y-91657314D01*
X117442686Y-91750500D01*
X117506997Y-91787630D01*
X117555213Y-91838197D01*
X117568436Y-91906804D01*
X117564772Y-91927109D01*
X117549500Y-91984106D01*
X117549500Y-92115891D01*
X117583608Y-92243187D01*
X117612593Y-92293389D01*
X117649500Y-92357314D01*
X117742686Y-92450500D01*
X117856814Y-92516392D01*
X117984108Y-92550500D01*
X117984110Y-92550500D01*
X118115890Y-92550500D01*
X118115892Y-92550500D01*
X118243186Y-92516392D01*
X118357314Y-92450500D01*
X118450500Y-92357314D01*
X118516392Y-92243186D01*
X118550500Y-92115892D01*
X118550500Y-91984108D01*
X118516392Y-91856814D01*
X118450500Y-91742686D01*
X118357314Y-91649500D01*
X118293000Y-91612368D01*
X118244786Y-91561802D01*
X118231564Y-91493194D01*
X118235224Y-91472900D01*
X118250500Y-91415892D01*
X118250500Y-91284108D01*
X118216392Y-91156814D01*
X118150500Y-91042686D01*
X118057314Y-90949500D01*
X117994791Y-90913402D01*
X117943187Y-90883608D01*
X117854597Y-90859871D01*
X117815892Y-90849500D01*
X117684108Y-90849500D01*
X117556812Y-90883608D01*
X117442686Y-90949500D01*
X117442683Y-90949502D01*
X117349502Y-91042683D01*
X117349500Y-91042686D01*
X117283608Y-91156812D01*
X117249500Y-91284108D01*
X104200000Y-91284108D01*
X104200000Y-90384108D01*
X123799500Y-90384108D01*
X123799500Y-90515892D01*
X123810496Y-90556929D01*
X123833608Y-90643187D01*
X123854524Y-90679414D01*
X123899500Y-90757314D01*
X123992686Y-90850500D01*
X124106814Y-90916392D01*
X124234108Y-90950500D01*
X124234110Y-90950500D01*
X124365890Y-90950500D01*
X124365892Y-90950500D01*
X124493186Y-90916392D01*
X124607314Y-90850500D01*
X124700500Y-90757314D01*
X124766392Y-90643186D01*
X124800500Y-90515892D01*
X124800500Y-90384108D01*
X124766392Y-90256814D01*
X124700500Y-90142686D01*
X124607314Y-90049500D01*
X124550250Y-90016554D01*
X124493187Y-89983608D01*
X124429539Y-89966554D01*
X124365892Y-89949500D01*
X124234108Y-89949500D01*
X124106812Y-89983608D01*
X123992686Y-90049500D01*
X123992683Y-90049502D01*
X123899502Y-90142683D01*
X123899500Y-90142686D01*
X123833608Y-90256812D01*
X123806437Y-90358217D01*
X123799500Y-90384108D01*
X104200000Y-90384108D01*
X104200000Y-86834108D01*
X116099500Y-86834108D01*
X116099500Y-86965891D01*
X116133608Y-87093187D01*
X116166554Y-87150250D01*
X116199500Y-87207314D01*
X116292686Y-87300500D01*
X116406814Y-87366392D01*
X116534108Y-87400500D01*
X116534110Y-87400500D01*
X116665890Y-87400500D01*
X116665892Y-87400500D01*
X116793186Y-87366392D01*
X116907314Y-87300500D01*
X117000500Y-87207314D01*
X117066392Y-87093186D01*
X117100500Y-86965892D01*
X117100500Y-86834108D01*
X117066392Y-86706814D01*
X117000500Y-86592686D01*
X116907314Y-86499500D01*
X116839913Y-86460586D01*
X116793187Y-86433608D01*
X116729539Y-86416554D01*
X116665892Y-86399500D01*
X116534108Y-86399500D01*
X116406812Y-86433608D01*
X116292686Y-86499500D01*
X116292683Y-86499502D01*
X116199502Y-86592683D01*
X116199500Y-86592686D01*
X116133608Y-86706812D01*
X116099500Y-86834108D01*
X104200000Y-86834108D01*
X104200000Y-84234108D01*
X118499500Y-84234108D01*
X118499500Y-84365892D01*
X118508209Y-84398393D01*
X118533608Y-84493187D01*
X118538869Y-84502299D01*
X118599500Y-84607314D01*
X118692686Y-84700500D01*
X118806814Y-84766392D01*
X118934108Y-84800500D01*
X118934110Y-84800500D01*
X119065890Y-84800500D01*
X119065892Y-84800500D01*
X119193186Y-84766392D01*
X119307314Y-84700500D01*
X119400500Y-84607314D01*
X119466392Y-84493186D01*
X119500500Y-84365892D01*
X119500500Y-84234108D01*
X119466392Y-84106814D01*
X119400500Y-83992686D01*
X119307314Y-83899500D01*
X119250250Y-83866554D01*
X119193187Y-83833608D01*
X119129539Y-83816554D01*
X119065892Y-83799500D01*
X118934108Y-83799500D01*
X118806812Y-83833608D01*
X118692686Y-83899500D01*
X118692683Y-83899502D01*
X118599502Y-83992683D01*
X118599500Y-83992686D01*
X118533608Y-84106812D01*
X118513137Y-84183212D01*
X118499500Y-84234108D01*
X104200000Y-84234108D01*
X104200000Y-82954108D01*
X126999500Y-82954108D01*
X126999500Y-83085892D01*
X127016554Y-83149539D01*
X127033608Y-83213187D01*
X127049606Y-83240895D01*
X127099500Y-83327314D01*
X127192686Y-83420500D01*
X127306814Y-83486392D01*
X127434108Y-83520500D01*
X127434110Y-83520500D01*
X127565890Y-83520500D01*
X127565892Y-83520500D01*
X127693186Y-83486392D01*
X127807314Y-83420500D01*
X127900500Y-83327314D01*
X127966392Y-83213186D01*
X128000500Y-83085892D01*
X128000500Y-82954108D01*
X127966392Y-82826814D01*
X127900500Y-82712686D01*
X127807314Y-82619500D01*
X127746013Y-82584108D01*
X131349500Y-82584108D01*
X131349500Y-82715891D01*
X131383608Y-82843187D01*
X131416554Y-82900250D01*
X131449500Y-82957314D01*
X131542686Y-83050500D01*
X131656814Y-83116392D01*
X131784108Y-83150500D01*
X131784110Y-83150500D01*
X131915890Y-83150500D01*
X131915892Y-83150500D01*
X132043186Y-83116392D01*
X132157314Y-83050500D01*
X132250500Y-82957314D01*
X132316392Y-82843186D01*
X132350500Y-82715892D01*
X132350500Y-82584108D01*
X132316392Y-82456814D01*
X132250500Y-82342686D01*
X132157314Y-82249500D01*
X132100250Y-82216554D01*
X132043187Y-82183608D01*
X131979539Y-82166554D01*
X131915892Y-82149500D01*
X131784108Y-82149500D01*
X131656812Y-82183608D01*
X131542686Y-82249500D01*
X131542683Y-82249502D01*
X131449502Y-82342683D01*
X131449500Y-82342686D01*
X131383608Y-82456812D01*
X131349500Y-82584108D01*
X127746013Y-82584108D01*
X127693187Y-82553608D01*
X127629539Y-82536554D01*
X127565892Y-82519500D01*
X127434108Y-82519500D01*
X127306812Y-82553608D01*
X127192686Y-82619500D01*
X127192683Y-82619502D01*
X127099502Y-82712683D01*
X127099500Y-82712686D01*
X127033608Y-82826812D01*
X127004103Y-82936928D01*
X126999500Y-82954108D01*
X104200000Y-82954108D01*
X104200000Y-81384108D01*
X123799500Y-81384108D01*
X123799500Y-81515891D01*
X123833608Y-81643187D01*
X123837854Y-81650541D01*
X123899500Y-81757314D01*
X123992686Y-81850500D01*
X124106814Y-81916392D01*
X124234108Y-81950500D01*
X124234110Y-81950500D01*
X124365890Y-81950500D01*
X124365892Y-81950500D01*
X124493186Y-81916392D01*
X124607314Y-81850500D01*
X124700500Y-81757314D01*
X124766392Y-81643186D01*
X124800500Y-81515892D01*
X124800500Y-81515890D01*
X124802603Y-81508042D01*
X124805149Y-81508724D01*
X124828128Y-81456759D01*
X124886447Y-81418279D01*
X124890704Y-81417056D01*
X124893186Y-81416392D01*
X125007314Y-81350500D01*
X125100500Y-81257314D01*
X125166392Y-81143186D01*
X125200500Y-81015892D01*
X125200500Y-80884108D01*
X125166392Y-80756814D01*
X125100500Y-80642686D01*
X125007314Y-80549500D01*
X124935595Y-80508093D01*
X124893187Y-80483608D01*
X124829539Y-80466554D01*
X124765892Y-80449500D01*
X124634108Y-80449500D01*
X124506812Y-80483608D01*
X124392686Y-80549500D01*
X124392683Y-80549502D01*
X124299502Y-80642683D01*
X124299500Y-80642686D01*
X124233608Y-80756812D01*
X124197397Y-80891958D01*
X124194856Y-80891277D01*
X124171844Y-80943271D01*
X124113512Y-80981732D01*
X124109289Y-80982944D01*
X124106817Y-80983606D01*
X124106814Y-80983607D01*
X123992686Y-81049500D01*
X123992683Y-81049502D01*
X123899502Y-81142683D01*
X123899500Y-81142686D01*
X123833608Y-81256812D01*
X123799500Y-81384108D01*
X104200000Y-81384108D01*
X104200000Y-79357908D01*
X129799500Y-79357908D01*
X129799500Y-79489692D01*
X129827285Y-79593389D01*
X129833609Y-79616988D01*
X129833609Y-79616989D01*
X129874607Y-79688000D01*
X129891080Y-79755901D01*
X129874607Y-79812000D01*
X129833609Y-79883010D01*
X129833609Y-79883011D01*
X129833609Y-79883012D01*
X129833608Y-79883014D01*
X129799500Y-80010308D01*
X129799500Y-80142092D01*
X129809657Y-80180000D01*
X129833608Y-80269387D01*
X129842829Y-80285358D01*
X129899500Y-80383514D01*
X129992686Y-80476700D01*
X130106814Y-80542592D01*
X130234108Y-80576700D01*
X130234110Y-80576700D01*
X130365890Y-80576700D01*
X130365892Y-80576700D01*
X130493186Y-80542592D01*
X130607314Y-80476700D01*
X130700500Y-80383514D01*
X130766392Y-80269386D01*
X130800500Y-80142092D01*
X130800500Y-80010308D01*
X130766392Y-79883014D01*
X130725391Y-79811999D01*
X130708919Y-79744101D01*
X130725391Y-79688000D01*
X130766392Y-79616986D01*
X130800500Y-79489692D01*
X130800500Y-79457908D01*
X131749500Y-79457908D01*
X131749500Y-79589692D01*
X131775841Y-79688000D01*
X131783609Y-79716988D01*
X131783609Y-79716989D01*
X131824607Y-79788000D01*
X131841080Y-79855901D01*
X131824607Y-79912000D01*
X131783609Y-79983010D01*
X131783609Y-79983011D01*
X131783608Y-79983013D01*
X131783608Y-79983014D01*
X131770066Y-80033554D01*
X131749500Y-80110308D01*
X131749500Y-80242091D01*
X131783608Y-80369387D01*
X131800986Y-80399486D01*
X131849500Y-80483514D01*
X131942686Y-80576700D01*
X132056814Y-80642592D01*
X132184108Y-80676700D01*
X132184110Y-80676700D01*
X132315890Y-80676700D01*
X132315892Y-80676700D01*
X132443186Y-80642592D01*
X132557314Y-80576700D01*
X132625918Y-80508095D01*
X132687237Y-80474613D01*
X132756929Y-80479597D01*
X132801273Y-80508093D01*
X132804956Y-80511776D01*
X132885995Y-80558564D01*
X132917405Y-80576699D01*
X132919084Y-80577668D01*
X133046378Y-80611776D01*
X133046380Y-80611776D01*
X133178160Y-80611776D01*
X133178162Y-80611776D01*
X133305456Y-80577668D01*
X133419584Y-80511776D01*
X133512770Y-80418590D01*
X133578662Y-80304462D01*
X133612770Y-80177168D01*
X133612770Y-80045384D01*
X133578662Y-79918090D01*
X133537661Y-79847075D01*
X133521189Y-79779177D01*
X133537661Y-79723076D01*
X133578662Y-79652062D01*
X133612770Y-79524768D01*
X133612770Y-79392984D01*
X133607651Y-79373880D01*
X134342009Y-79373880D01*
X134342009Y-79505664D01*
X134371838Y-79616989D01*
X134376118Y-79632960D01*
X134376118Y-79632961D01*
X134417116Y-79703972D01*
X134433589Y-79771873D01*
X134417116Y-79827972D01*
X134376118Y-79898982D01*
X134376118Y-79898983D01*
X134376118Y-79898984D01*
X134376117Y-79898986D01*
X134342009Y-80026280D01*
X134342009Y-80158064D01*
X134347128Y-80177167D01*
X134376117Y-80285359D01*
X134387147Y-80304463D01*
X134442009Y-80399486D01*
X134535195Y-80492672D01*
X134621657Y-80542591D01*
X134649319Y-80558562D01*
X134649323Y-80558564D01*
X134776617Y-80592672D01*
X134776619Y-80592672D01*
X134908399Y-80592672D01*
X134908401Y-80592672D01*
X135035695Y-80558564D01*
X135149823Y-80492672D01*
X135243009Y-80399486D01*
X135308901Y-80285358D01*
X135343009Y-80158064D01*
X135343009Y-80026280D01*
X135308901Y-79898986D01*
X135306706Y-79895185D01*
X135286032Y-79859376D01*
X135267900Y-79827971D01*
X135251428Y-79760073D01*
X135267900Y-79703972D01*
X135308901Y-79632958D01*
X135343009Y-79505664D01*
X135343009Y-79373880D01*
X135325332Y-79307908D01*
X136049500Y-79307908D01*
X136049500Y-79439692D01*
X136072295Y-79524766D01*
X136083609Y-79566988D01*
X136083609Y-79566989D01*
X136124607Y-79638000D01*
X136141080Y-79705901D01*
X136124607Y-79762000D01*
X136083609Y-79833010D01*
X136083609Y-79833011D01*
X136083609Y-79833012D01*
X136083608Y-79833014D01*
X136052801Y-79947989D01*
X136049500Y-79960308D01*
X136049500Y-80092091D01*
X136083608Y-80219387D01*
X136096717Y-80242092D01*
X136149500Y-80333514D01*
X136242686Y-80426700D01*
X136356814Y-80492592D01*
X136484108Y-80526700D01*
X136484110Y-80526700D01*
X136615890Y-80526700D01*
X136615892Y-80526700D01*
X136743186Y-80492592D01*
X136857314Y-80426700D01*
X136950500Y-80333514D01*
X137016392Y-80219386D01*
X137050500Y-80092092D01*
X137050500Y-79960308D01*
X137016392Y-79833014D01*
X136975391Y-79761999D01*
X136958919Y-79694101D01*
X136975391Y-79638000D01*
X137016392Y-79566986D01*
X137050500Y-79439692D01*
X137050500Y-79307908D01*
X137016392Y-79180614D01*
X136950500Y-79066486D01*
X136857314Y-78973300D01*
X136770712Y-78923300D01*
X136743187Y-78907408D01*
X136679539Y-78890354D01*
X136615892Y-78873300D01*
X136484108Y-78873300D01*
X136356812Y-78907408D01*
X136242686Y-78973300D01*
X136242683Y-78973302D01*
X136149502Y-79066483D01*
X136149500Y-79066486D01*
X136083608Y-79180612D01*
X136062146Y-79260712D01*
X136049500Y-79307908D01*
X135325332Y-79307908D01*
X135308901Y-79246586D01*
X135243009Y-79132458D01*
X135149823Y-79039272D01*
X135068784Y-78992484D01*
X135035696Y-78973380D01*
X134972048Y-78956326D01*
X134908401Y-78939272D01*
X134776617Y-78939272D01*
X134649321Y-78973380D01*
X134535195Y-79039272D01*
X134535192Y-79039274D01*
X134442011Y-79132455D01*
X134442009Y-79132458D01*
X134376117Y-79246584D01*
X134353602Y-79330614D01*
X134342009Y-79373880D01*
X133607651Y-79373880D01*
X133578662Y-79265690D01*
X133575784Y-79260706D01*
X133558411Y-79230614D01*
X133512770Y-79151562D01*
X133419584Y-79058376D01*
X133358831Y-79023300D01*
X133305457Y-78992484D01*
X133233860Y-78973300D01*
X133178162Y-78958376D01*
X133046378Y-78958376D01*
X132919082Y-78992484D01*
X132804956Y-79058376D01*
X132804953Y-79058378D01*
X132736354Y-79126978D01*
X132675031Y-79160463D01*
X132605339Y-79155479D01*
X132560992Y-79126978D01*
X132557316Y-79123302D01*
X132557314Y-79123300D01*
X132458910Y-79066486D01*
X132443187Y-79057408D01*
X132375501Y-79039272D01*
X132315892Y-79023300D01*
X132184108Y-79023300D01*
X132056812Y-79057408D01*
X131942686Y-79123300D01*
X131942683Y-79123302D01*
X131849502Y-79216483D01*
X131849500Y-79216486D01*
X131783608Y-79330612D01*
X131754381Y-79439690D01*
X131749500Y-79457908D01*
X130800500Y-79457908D01*
X130800500Y-79357908D01*
X130766392Y-79230614D01*
X130700500Y-79116486D01*
X130607314Y-79023300D01*
X130550250Y-78990354D01*
X130493187Y-78957408D01*
X130425501Y-78939272D01*
X130365892Y-78923300D01*
X130234108Y-78923300D01*
X130106812Y-78957408D01*
X129992686Y-79023300D01*
X129992683Y-79023302D01*
X129899502Y-79116483D01*
X129899500Y-79116486D01*
X129833608Y-79230612D01*
X129810089Y-79318388D01*
X129799500Y-79357908D01*
X104200000Y-79357908D01*
X104200000Y-77074108D01*
X130359500Y-77074108D01*
X130359500Y-77205891D01*
X130393608Y-77333187D01*
X130426554Y-77390250D01*
X130459500Y-77447314D01*
X130552686Y-77540500D01*
X130666814Y-77606392D01*
X130794108Y-77640500D01*
X130794110Y-77640500D01*
X130925890Y-77640500D01*
X130925892Y-77640500D01*
X131053186Y-77606392D01*
X131167314Y-77540500D01*
X131260500Y-77447314D01*
X131326392Y-77333186D01*
X131360500Y-77205892D01*
X131360500Y-77144108D01*
X136669500Y-77144108D01*
X136669500Y-77275891D01*
X136703608Y-77403187D01*
X136731186Y-77450953D01*
X136769500Y-77517314D01*
X136862686Y-77610500D01*
X136976814Y-77676392D01*
X137104108Y-77710500D01*
X137104110Y-77710500D01*
X137235890Y-77710500D01*
X137235892Y-77710500D01*
X137363186Y-77676392D01*
X137477314Y-77610500D01*
X137477315Y-77610498D01*
X137484352Y-77606436D01*
X137485131Y-77607786D01*
X137541671Y-77585930D01*
X137551987Y-77585500D01*
X139133101Y-77585500D01*
X139200140Y-77605185D01*
X139220782Y-77621819D01*
X139418181Y-77819218D01*
X139451666Y-77880541D01*
X139454500Y-77906899D01*
X139454500Y-79409438D01*
X139465520Y-79450562D01*
X139465520Y-79450564D01*
X139465521Y-79450564D01*
X139480090Y-79504939D01*
X139480091Y-79504940D01*
X139521421Y-79576527D01*
X139529521Y-79590557D01*
X139529525Y-79590562D01*
X139529526Y-79590563D01*
X139669525Y-79730562D01*
X139739438Y-79800475D01*
X139825062Y-79849910D01*
X139860390Y-79859376D01*
X139920564Y-79875500D01*
X139920565Y-79875500D01*
X142204101Y-79875500D01*
X142271140Y-79895185D01*
X142316895Y-79947989D01*
X142326839Y-80017147D01*
X142297814Y-80080703D01*
X142291782Y-80087181D01*
X140984587Y-81394375D01*
X140923264Y-81427860D01*
X140914574Y-81429375D01*
X140786812Y-81463608D01*
X140672686Y-81529500D01*
X140672683Y-81529502D01*
X140579502Y-81622683D01*
X140579500Y-81622686D01*
X140513608Y-81736812D01*
X140479500Y-81864108D01*
X140479500Y-81995891D01*
X140513608Y-82123187D01*
X140528800Y-82149500D01*
X140579500Y-82237314D01*
X140672686Y-82330500D01*
X140786814Y-82396392D01*
X140914108Y-82430500D01*
X140914110Y-82430500D01*
X141045890Y-82430500D01*
X141045892Y-82430500D01*
X141173186Y-82396392D01*
X141287314Y-82330500D01*
X141380500Y-82237314D01*
X141446392Y-82123186D01*
X141480500Y-81995892D01*
X141480500Y-81995890D01*
X141482603Y-81988042D01*
X141484109Y-81988445D01*
X141508631Y-81933012D01*
X141515612Y-81925424D01*
X142679218Y-80761819D01*
X142740541Y-80728334D01*
X142766899Y-80725500D01*
X143115758Y-80725500D01*
X143182797Y-80745185D01*
X143228552Y-80797989D01*
X143238496Y-80867147D01*
X143235533Y-80881590D01*
X143229500Y-80904108D01*
X143229500Y-81035892D01*
X143245419Y-81095302D01*
X143263608Y-81163187D01*
X143296554Y-81220250D01*
X143329500Y-81277314D01*
X143422686Y-81370500D01*
X143509401Y-81420565D01*
X143536810Y-81436390D01*
X143536814Y-81436392D01*
X143664108Y-81470500D01*
X143664110Y-81470500D01*
X143795890Y-81470500D01*
X143795892Y-81470500D01*
X143923186Y-81436392D01*
X143999879Y-81392112D01*
X144061879Y-81375500D01*
X146403101Y-81375500D01*
X146470140Y-81395185D01*
X146490782Y-81411819D01*
X146668181Y-81589218D01*
X146701666Y-81650541D01*
X146704500Y-81676899D01*
X146704500Y-98376324D01*
X146684815Y-98443363D01*
X146668181Y-98464005D01*
X146619502Y-98512683D01*
X146619500Y-98512686D01*
X146553608Y-98626812D01*
X146543003Y-98666391D01*
X146519500Y-98754108D01*
X146519500Y-98885892D01*
X146530218Y-98925892D01*
X146553608Y-99013187D01*
X146577533Y-99054626D01*
X146619500Y-99127314D01*
X146712686Y-99220500D01*
X146781968Y-99260500D01*
X146821063Y-99283072D01*
X146826814Y-99286392D01*
X146954108Y-99320500D01*
X146954110Y-99320500D01*
X147085890Y-99320500D01*
X147085892Y-99320500D01*
X147213186Y-99286392D01*
X147299038Y-99236824D01*
X147366934Y-99220352D01*
X147432961Y-99243203D01*
X147448717Y-99256531D01*
X147452686Y-99260500D01*
X147566814Y-99326392D01*
X147694108Y-99360500D01*
X147694110Y-99360500D01*
X147825890Y-99360500D01*
X147825892Y-99360500D01*
X147953186Y-99326392D01*
X148067314Y-99260500D01*
X148160500Y-99167314D01*
X148226392Y-99053186D01*
X148260500Y-98925892D01*
X148260500Y-98925890D01*
X148262603Y-98918042D01*
X148264109Y-98918445D01*
X148288631Y-98863012D01*
X148295612Y-98855424D01*
X149060475Y-98090562D01*
X149109911Y-98004937D01*
X149135500Y-97909436D01*
X149135500Y-97810564D01*
X149135500Y-80630565D01*
X149134025Y-80625062D01*
X149116207Y-80558564D01*
X149109910Y-80535062D01*
X149060475Y-80449438D01*
X148990562Y-80379525D01*
X147810563Y-79199526D01*
X147810562Y-79199525D01*
X147727488Y-79151562D01*
X147724940Y-79150091D01*
X147724939Y-79150090D01*
X147724938Y-79150090D01*
X147659135Y-79132458D01*
X147659134Y-79132457D01*
X147629436Y-79124500D01*
X147629435Y-79124500D01*
X140329500Y-79124500D01*
X140262461Y-79104815D01*
X140216706Y-79052011D01*
X140205500Y-79000500D01*
X140205500Y-77650567D01*
X140205500Y-77650565D01*
X140188066Y-77585500D01*
X140179911Y-77555063D01*
X140132988Y-77473790D01*
X140130477Y-77469440D01*
X140130473Y-77469435D01*
X139570563Y-76909526D01*
X139570562Y-76909525D01*
X139484940Y-76860091D01*
X139484939Y-76860090D01*
X139397993Y-76836793D01*
X139397993Y-76836792D01*
X139397990Y-76836792D01*
X139389437Y-76834500D01*
X139389436Y-76834500D01*
X139389435Y-76834500D01*
X137551987Y-76834500D01*
X137484948Y-76814815D01*
X137477733Y-76809742D01*
X137363187Y-76743608D01*
X137299539Y-76726554D01*
X137235892Y-76709500D01*
X137104108Y-76709500D01*
X136976812Y-76743608D01*
X136862686Y-76809500D01*
X136862683Y-76809502D01*
X136769502Y-76902683D01*
X136769500Y-76902686D01*
X136703608Y-77016812D01*
X136669500Y-77144108D01*
X131360500Y-77144108D01*
X131360500Y-77074108D01*
X131326392Y-76946814D01*
X131260500Y-76832686D01*
X131167314Y-76739500D01*
X131091823Y-76695915D01*
X131053187Y-76673608D01*
X130959081Y-76648393D01*
X130925892Y-76639500D01*
X130794108Y-76639500D01*
X130666812Y-76673608D01*
X130552686Y-76739500D01*
X130552683Y-76739502D01*
X130459502Y-76832683D01*
X130459500Y-76832686D01*
X130393608Y-76946812D01*
X130359500Y-77074108D01*
X104200000Y-77074108D01*
X104200000Y-69574038D01*
X106149500Y-69574038D01*
X106149500Y-69825962D01*
X106169347Y-69951268D01*
X106188910Y-70074785D01*
X106266760Y-70314383D01*
X106381132Y-70538848D01*
X106529201Y-70742649D01*
X106529205Y-70742654D01*
X106707345Y-70920794D01*
X106707350Y-70920798D01*
X106832759Y-71011912D01*
X106911155Y-71068870D01*
X107054184Y-71141747D01*
X107135616Y-71183239D01*
X107135618Y-71183239D01*
X107135621Y-71183241D01*
X107375215Y-71261090D01*
X107624038Y-71300500D01*
X107624039Y-71300500D01*
X107875961Y-71300500D01*
X107875962Y-71300500D01*
X108124785Y-71261090D01*
X108364379Y-71183241D01*
X108588845Y-71068870D01*
X108792656Y-70920793D01*
X108970793Y-70742656D01*
X109118870Y-70538845D01*
X109233241Y-70314379D01*
X109311090Y-70074785D01*
X109350500Y-69825962D01*
X109350500Y-69574038D01*
X109311090Y-69325215D01*
X109233241Y-69085621D01*
X109233239Y-69085618D01*
X109233239Y-69085616D01*
X109135604Y-68893998D01*
X109118870Y-68861155D01*
X109022424Y-68728408D01*
X108970798Y-68657350D01*
X108970794Y-68657345D01*
X108792654Y-68479205D01*
X108792649Y-68479201D01*
X108588848Y-68331132D01*
X108588847Y-68331131D01*
X108588845Y-68331130D01*
X108518747Y-68295413D01*
X108364383Y-68216760D01*
X108124785Y-68138910D01*
X108003202Y-68119653D01*
X107875962Y-68099500D01*
X107624038Y-68099500D01*
X107499626Y-68119205D01*
X107375214Y-68138910D01*
X107135616Y-68216760D01*
X106911151Y-68331132D01*
X106707350Y-68479201D01*
X106707345Y-68479205D01*
X106529205Y-68657345D01*
X106529201Y-68657350D01*
X106381132Y-68861151D01*
X106266760Y-69085616D01*
X106188910Y-69325214D01*
X106172453Y-69429117D01*
X106149500Y-69574038D01*
X104200000Y-69574038D01*
X104200000Y-68186680D01*
X104201172Y-68180352D01*
X104200406Y-68176658D01*
X104208236Y-68142243D01*
X104224643Y-68099500D01*
X104266631Y-67990117D01*
X104271897Y-67978288D01*
X104408079Y-67711014D01*
X104414540Y-67699824D01*
X104577915Y-67448249D01*
X104585524Y-67437777D01*
X104774290Y-67204670D01*
X104782957Y-67195045D01*
X104995045Y-66982957D01*
X105004670Y-66974290D01*
X105237777Y-66785524D01*
X105248249Y-66777915D01*
X105499824Y-66614540D01*
X105511014Y-66608079D01*
X105778288Y-66471897D01*
X105790117Y-66466631D01*
X106070143Y-66359139D01*
X106082451Y-66355140D01*
X106107921Y-66348315D01*
X106139380Y-66344094D01*
X121694707Y-66266876D01*
X121719500Y-66269255D01*
X121756967Y-66276707D01*
X121772603Y-66280897D01*
X122003657Y-66359330D01*
X122018635Y-66365534D01*
X122237460Y-66473447D01*
X122251506Y-66481557D01*
X122454372Y-66617107D01*
X122467237Y-66626978D01*
X122518253Y-66671718D01*
X122650678Y-66787852D01*
X122662147Y-66799321D01*
X122823018Y-66982758D01*
X122832892Y-66995627D01*
X122968442Y-67198493D01*
X122976552Y-67212539D01*
X123084465Y-67431364D01*
X123090672Y-67446349D01*
X123126658Y-67552359D01*
X123146815Y-67611742D01*
X123169097Y-67677381D01*
X123173295Y-67693049D01*
X123220893Y-67932340D01*
X123223011Y-67948421D01*
X123239235Y-68195956D01*
X123239500Y-68204066D01*
X123239500Y-74331768D01*
X123239501Y-74331785D01*
X123273899Y-74593067D01*
X123342113Y-74847645D01*
X123442965Y-75091123D01*
X123442969Y-75091133D01*
X123574742Y-75319370D01*
X123735180Y-75528458D01*
X123735186Y-75528465D01*
X123921534Y-75714813D01*
X123921541Y-75714819D01*
X124130629Y-75875257D01*
X124358866Y-76007030D01*
X124358867Y-76007030D01*
X124358870Y-76007032D01*
X124602359Y-76107888D01*
X124856929Y-76176100D01*
X125118225Y-76210500D01*
X125118232Y-76210500D01*
X139381768Y-76210500D01*
X139381775Y-76210500D01*
X139643071Y-76176100D01*
X139897641Y-76107888D01*
X140141130Y-76007032D01*
X140369371Y-75875257D01*
X140578460Y-75714818D01*
X140764818Y-75528460D01*
X140925257Y-75319371D01*
X141057032Y-75091130D01*
X141157888Y-74847641D01*
X141226100Y-74593071D01*
X141260500Y-74331775D01*
X141260500Y-74200000D01*
X141260500Y-74196588D01*
X141260500Y-68204066D01*
X141260765Y-68195957D01*
X141267087Y-68099500D01*
X141276989Y-67948407D01*
X141279104Y-67932353D01*
X141326706Y-67693039D01*
X141330897Y-67677396D01*
X141409331Y-67446337D01*
X141415531Y-67431371D01*
X141523450Y-67212533D01*
X141531557Y-67198493D01*
X141667107Y-66995627D01*
X141676972Y-66982769D01*
X141837857Y-66799315D01*
X141849315Y-66787857D01*
X142032769Y-66626972D01*
X142045622Y-66617110D01*
X142248493Y-66481557D01*
X142262533Y-66473450D01*
X142481371Y-66365531D01*
X142496337Y-66359331D01*
X142727396Y-66280897D01*
X142743039Y-66276706D01*
X142982353Y-66229104D01*
X142998409Y-66226989D01*
X143224557Y-66212167D01*
X143245958Y-66210765D01*
X143254067Y-66210500D01*
X157496588Y-66210500D01*
X157496754Y-66210500D01*
X157503243Y-66210669D01*
G37*
%TD.AperFunction*%
%TD*%
%TA.AperFunction,Conductor*%
%TO.N,GND1*%
G36*
X150720454Y-101195559D02*
G01*
X150787394Y-101215571D01*
X150832890Y-101268597D01*
X150843846Y-101319558D01*
X150843846Y-103966633D01*
X150843833Y-103968409D01*
X150836602Y-104473294D01*
X150815960Y-104540044D01*
X150762506Y-104585038D01*
X150712010Y-104595517D01*
X145000000Y-104567655D01*
X145000000Y-104500000D01*
X144400000Y-104500000D01*
X144400000Y-104564728D01*
X141504050Y-104550601D01*
X141437107Y-104530589D01*
X141391611Y-104477563D01*
X141380655Y-104426602D01*
X141380655Y-101274606D01*
X141400340Y-101207567D01*
X141453144Y-101161812D01*
X141505256Y-101150607D01*
X150720454Y-101195559D01*
G37*
%TD.AperFunction*%
%TD*%
%TA.AperFunction,Conductor*%
%TO.N,/PWR-BL-TOUCH/+5V*%
G36*
X125339133Y-110421952D02*
G01*
X125386811Y-110473026D01*
X125400000Y-110528677D01*
X125400000Y-117900000D01*
X123950000Y-117900000D01*
X124048417Y-110567884D01*
X124069000Y-110501117D01*
X124122413Y-110456075D01*
X124167814Y-110445636D01*
X125271412Y-110404762D01*
X125339133Y-110421952D01*
G37*
%TD.AperFunction*%
%TD*%
%TA.AperFunction,Conductor*%
%TO.N,/PWR-BL-TOUCH/+5V*%
G36*
X159255164Y-66898829D02*
G01*
X159321955Y-66919340D01*
X159367055Y-66972705D01*
X159373699Y-66991835D01*
X160146376Y-69985960D01*
X160150286Y-70014490D01*
X160249956Y-75047808D01*
X160249965Y-75052200D01*
X160201837Y-78132417D01*
X160181107Y-78199141D01*
X160127595Y-78244065D01*
X160082484Y-78254393D01*
X158935771Y-78297261D01*
X158935766Y-78297263D01*
X158828796Y-78301262D01*
X158788936Y-78282231D01*
X158784044Y-78277597D01*
X158129408Y-77622962D01*
X158192993Y-77605925D01*
X158307007Y-77540099D01*
X158400099Y-77447007D01*
X158465925Y-77332993D01*
X158482962Y-77269408D01*
X159115270Y-77901717D01*
X159115270Y-77901716D01*
X159154622Y-77847554D01*
X159251095Y-77658217D01*
X159316757Y-77456130D01*
X159316757Y-77456127D01*
X159350000Y-77246246D01*
X159350000Y-77033753D01*
X159316757Y-76823872D01*
X159316757Y-76823869D01*
X159251095Y-76621782D01*
X159154624Y-76432449D01*
X159115270Y-76378282D01*
X159115269Y-76378282D01*
X158482962Y-77010590D01*
X158465925Y-76947007D01*
X158400099Y-76832993D01*
X158307007Y-76739901D01*
X158192993Y-76674075D01*
X158129409Y-76657037D01*
X158761716Y-76024728D01*
X158707550Y-75985375D01*
X158697954Y-75980486D01*
X158647157Y-75932512D01*
X158630361Y-75864692D01*
X158652897Y-75798556D01*
X158697954Y-75759514D01*
X158707554Y-75754622D01*
X158761716Y-75715270D01*
X158761717Y-75715270D01*
X158129408Y-75082962D01*
X158192993Y-75065925D01*
X158307007Y-75000099D01*
X158400099Y-74907007D01*
X158465925Y-74792993D01*
X158482962Y-74729408D01*
X159115270Y-75361717D01*
X159115270Y-75361716D01*
X159154622Y-75307554D01*
X159251095Y-75118217D01*
X159316757Y-74916130D01*
X159316757Y-74916127D01*
X159350000Y-74706246D01*
X159350000Y-74493753D01*
X159316757Y-74283872D01*
X159316757Y-74283869D01*
X159251095Y-74081782D01*
X159154624Y-73892449D01*
X159115270Y-73838282D01*
X159115269Y-73838282D01*
X158482962Y-74470590D01*
X158465925Y-74407007D01*
X158400099Y-74292993D01*
X158307007Y-74199901D01*
X158192993Y-74134075D01*
X158129409Y-74117037D01*
X158761716Y-73484728D01*
X158707550Y-73445375D01*
X158518217Y-73348904D01*
X158316129Y-73283242D01*
X158106246Y-73250000D01*
X157893754Y-73250000D01*
X157683872Y-73283242D01*
X157683869Y-73283242D01*
X157481782Y-73348904D01*
X157292439Y-73445380D01*
X157238282Y-73484727D01*
X157238282Y-73484728D01*
X157870591Y-74117037D01*
X157807007Y-74134075D01*
X157692993Y-74199901D01*
X157599901Y-74292993D01*
X157534075Y-74407007D01*
X157517037Y-74470591D01*
X156884728Y-73838282D01*
X156876388Y-73838938D01*
X156869798Y-73844021D01*
X156846659Y-73864508D01*
X156842369Y-73865171D01*
X156838934Y-73867821D01*
X156808147Y-73870465D01*
X156777610Y-73875189D01*
X156773643Y-73873428D01*
X156769321Y-73873800D01*
X156742000Y-73859384D01*
X156713748Y-73846845D01*
X156711362Y-73843218D01*
X156707526Y-73841194D01*
X156692334Y-73814292D01*
X156675349Y-73788473D01*
X156674441Y-73782610D01*
X156673169Y-73780356D01*
X156669953Y-73753594D01*
X156667601Y-73533311D01*
X156660197Y-72839979D01*
X156660197Y-72839978D01*
X156625883Y-72750000D01*
X153434347Y-72750000D01*
X153149999Y-73299999D01*
X153149999Y-73300000D01*
X153168691Y-115880361D01*
X153168691Y-115880655D01*
X153156916Y-121956543D01*
X153137101Y-122023544D01*
X153084209Y-122069197D01*
X153032292Y-122080301D01*
X123938550Y-121933978D01*
X123871611Y-121913957D01*
X123826122Y-121860924D01*
X123815248Y-121805704D01*
X123949999Y-117900019D01*
X123950000Y-117900000D01*
X125400000Y-117900000D01*
X125400000Y-117899461D01*
X150900000Y-117890000D01*
X151099346Y-103969345D01*
X151099346Y-71150939D01*
X151119031Y-71083900D01*
X151135154Y-71063771D01*
X151452543Y-70742654D01*
X152607590Y-69574038D01*
X155149500Y-69574038D01*
X155149500Y-69825961D01*
X155188910Y-70074785D01*
X155266760Y-70314383D01*
X155381132Y-70538848D01*
X155529201Y-70742649D01*
X155529205Y-70742654D01*
X155707345Y-70920794D01*
X155707350Y-70920798D01*
X155885117Y-71049952D01*
X155911155Y-71068870D01*
X156054184Y-71141747D01*
X156135616Y-71183239D01*
X156135618Y-71183239D01*
X156135621Y-71183241D01*
X156375215Y-71261090D01*
X156624038Y-71300500D01*
X156624039Y-71300500D01*
X156875961Y-71300500D01*
X156875962Y-71300500D01*
X157124785Y-71261090D01*
X157364379Y-71183241D01*
X157588845Y-71068870D01*
X157792656Y-70920793D01*
X157970793Y-70742656D01*
X158118870Y-70538845D01*
X158233241Y-70314379D01*
X158311090Y-70074785D01*
X158350500Y-69825962D01*
X158350500Y-69574038D01*
X158311090Y-69325215D01*
X158233241Y-69085621D01*
X158233239Y-69085618D01*
X158233239Y-69085616D01*
X158160412Y-68942686D01*
X158118870Y-68861155D01*
X158022424Y-68728408D01*
X157970798Y-68657350D01*
X157970794Y-68657345D01*
X157792654Y-68479205D01*
X157792649Y-68479201D01*
X157588848Y-68331132D01*
X157588847Y-68331131D01*
X157588845Y-68331130D01*
X157481027Y-68276194D01*
X157364383Y-68216760D01*
X157124785Y-68138910D01*
X157003202Y-68119653D01*
X156875962Y-68099500D01*
X156624038Y-68099500D01*
X156499626Y-68119205D01*
X156375214Y-68138910D01*
X156135616Y-68216760D01*
X155911151Y-68331132D01*
X155707350Y-68479201D01*
X155707345Y-68479205D01*
X155529205Y-68657345D01*
X155529201Y-68657350D01*
X155381132Y-68861151D01*
X155266760Y-69085616D01*
X155188910Y-69325214D01*
X155149500Y-69574038D01*
X152607590Y-69574038D01*
X155262963Y-66887471D01*
X155324088Y-66853631D01*
X155352680Y-66850650D01*
X159255164Y-66898829D01*
G37*
%TD.AperFunction*%
%TA.AperFunction,Conductor*%
G36*
X157534075Y-77332993D02*
G01*
X157599901Y-77447007D01*
X157692993Y-77540099D01*
X157807007Y-77605925D01*
X157870590Y-77622962D01*
X157229628Y-78263923D01*
X157222055Y-78299975D01*
X157173003Y-78349732D01*
X157117434Y-78365240D01*
X156865339Y-78374665D01*
X156855340Y-78372130D01*
X156845155Y-78373773D01*
X156822046Y-78363692D01*
X156797611Y-78357499D01*
X156790568Y-78349960D01*
X156781114Y-78345836D01*
X156767125Y-78324865D01*
X156749915Y-78306442D01*
X156747035Y-78294747D01*
X156742342Y-78287711D01*
X156736724Y-78252871D01*
X156732854Y-78026015D01*
X156751392Y-77958654D01*
X156803408Y-77912005D01*
X156866567Y-77900286D01*
X156884729Y-77901715D01*
X157517037Y-77269408D01*
X157534075Y-77332993D01*
G37*
%TD.AperFunction*%
%TA.AperFunction,Conductor*%
G36*
X157534075Y-74792993D02*
G01*
X157599901Y-74907007D01*
X157692993Y-75000099D01*
X157807007Y-75065925D01*
X157870590Y-75082962D01*
X157238282Y-75715269D01*
X157238282Y-75715270D01*
X157292452Y-75754626D01*
X157302048Y-75759516D01*
X157352844Y-75807491D01*
X157369638Y-75875312D01*
X157347100Y-75941447D01*
X157302051Y-75980483D01*
X157292440Y-75985380D01*
X157238282Y-76024727D01*
X157238282Y-76024728D01*
X157870591Y-76657037D01*
X157807007Y-76674075D01*
X157692993Y-76739901D01*
X157599901Y-76832993D01*
X157534075Y-76947007D01*
X157517037Y-77010591D01*
X156884728Y-76378282D01*
X156836449Y-76382082D01*
X156768072Y-76367718D01*
X156718315Y-76318667D01*
X156702738Y-76260581D01*
X156689364Y-75476543D01*
X156707902Y-75409178D01*
X156759918Y-75362530D01*
X156828897Y-75351408D01*
X156845438Y-75358624D01*
X156884728Y-75361716D01*
X157517037Y-74729408D01*
X157534075Y-74792993D01*
G37*
%TD.AperFunction*%
%TD*%
%TA.AperFunction,Conductor*%
%TO.N,/MIPI-lanes/+3V3*%
G36*
X130726683Y-107213715D02*
G01*
X141400000Y-112700000D01*
X145100000Y-112600000D01*
X145600000Y-112200000D01*
X145600000Y-107724000D01*
X145619685Y-107656961D01*
X145672489Y-107611206D01*
X145724000Y-107600000D01*
X146332242Y-107600000D01*
X146334108Y-107600500D01*
X146465892Y-107600500D01*
X146467758Y-107600000D01*
X147076000Y-107600000D01*
X147143039Y-107619685D01*
X147188794Y-107672489D01*
X147200000Y-107724000D01*
X147200000Y-113227479D01*
X147180315Y-113294518D01*
X147136792Y-113335554D01*
X145627086Y-114184764D01*
X145568932Y-114200661D01*
X140931668Y-114299326D01*
X140871889Y-114285404D01*
X137818518Y-112700000D01*
X130500000Y-108900000D01*
X128024000Y-108900000D01*
X127956961Y-108880315D01*
X127911206Y-108827511D01*
X127900000Y-108776000D01*
X127900000Y-107324000D01*
X127919685Y-107256961D01*
X127972489Y-107211206D01*
X128024000Y-107200000D01*
X130669996Y-107200000D01*
X130726683Y-107213715D01*
G37*
%TD.AperFunction*%
%TD*%
M02*
