%TF.GenerationSoftware,KiCad,Pcbnew,9.0.9-9.0.9~ubuntu24.04.1*%
%TF.CreationDate,2026-08-12T11:20:00-04:00*%
%TF.ProjectId,tv070hat,74763037-3068-4617-942e-6b696361645f,rev?*%
%TF.SameCoordinates,Original*%
%TF.FileFunction,Profile,NP*%
%FSLAX46Y46*%
G04 Gerber Fmt 4.6, Leading zero omitted, Abs format (unit mm)*
G04 Created by KiCad (PCBNEW 9.0.9-9.0.9~ubuntu24.04.1) date 2026-08-12 11:20:00*
%MOMM*%
%LPD*%
G01*
G04 APERTURE LIST*
%TA.AperFunction,Profile*%
%ADD10C,0.050000*%
%TD*%
G04 APERTURE END LIST*
D10*
%TO.C,U7*%
X104000000Y-112700000D02*
X104000000Y-69200000D01*
X104000000Y-128200000D02*
X104000000Y-124700000D01*
X105000000Y-123700000D02*
X119000000Y-123700000D01*
X107000001Y-66200000D02*
X121250000Y-66200000D01*
X119000000Y-113700000D02*
X105000000Y-113700000D01*
X120000000Y-122700000D02*
X120000000Y-114700000D01*
X123250000Y-74200000D02*
X123250000Y-68200000D01*
X139250000Y-76200000D02*
X125250000Y-76200000D01*
X141250000Y-68200000D02*
X141250000Y-74200000D01*
X143250000Y-66200000D02*
X157499999Y-66200000D01*
X157500000Y-131200000D02*
X107000000Y-131200000D01*
X160500000Y-69200000D02*
X160500000Y-128200000D01*
X104000000Y-69200000D02*
G75*
G02*
X107000000Y-66200000I3000001J-1D01*
G01*
X104000000Y-124700000D02*
G75*
G02*
X105000000Y-123700000I1000000J0D01*
G01*
X105000000Y-113700000D02*
G75*
G02*
X104000000Y-112700000I0J1000000D01*
G01*
X107000000Y-131200000D02*
G75*
G02*
X104000000Y-128200000I0J3000000D01*
G01*
X119000000Y-113700000D02*
G75*
G02*
X120000000Y-114700000I0J-1000000D01*
G01*
X120000000Y-122700000D02*
G75*
G02*
X119000000Y-123700000I-1000000J0D01*
G01*
X121250000Y-66200000D02*
G75*
G02*
X123250000Y-68200000I1J-1999999D01*
G01*
X125250000Y-76200000D02*
G75*
G02*
X123250000Y-74200000I-1J1999999D01*
G01*
X141250000Y-68200000D02*
G75*
G02*
X143250000Y-66200000I1999999J1D01*
G01*
X141250000Y-74200000D02*
G75*
G02*
X139250000Y-76200000I-1999999J-1D01*
G01*
X157500000Y-66200000D02*
G75*
G02*
X160500000Y-69200000I-1J-3000001D01*
G01*
X160500000Y-128200000D02*
G75*
G02*
X157500000Y-131200000I-3000000J0D01*
G01*
%TD*%
M02*
