%TF.GenerationSoftware,KiCad,Pcbnew,9.0.9-9.0.9~ubuntu24.04.1*%
%TF.CreationDate,2026-08-12T11:20:00-04:00*%
%TF.ProjectId,tv070hat,74763037-3068-4617-942e-6b696361645f,rev?*%
%TF.SameCoordinates,Original*%
%TF.FileFunction,Copper,L2,Inr*%
%TF.FilePolarity,Positive*%
%FSLAX46Y46*%
G04 Gerber Fmt 4.6, Leading zero omitted, Abs format (unit mm)*
G04 Created by KiCad (PCBNEW 9.0.9-9.0.9~ubuntu24.04.1) date 2026-08-12 11:20:00*
%MOMM*%
%LPD*%
G01*
G04 APERTURE LIST*
%TA.AperFunction,ComponentPad*%
%ADD10C,0.400000*%
%TD*%
%TA.AperFunction,ComponentPad*%
%ADD11R,1.700000X1.700000*%
%TD*%
%TA.AperFunction,ComponentPad*%
%ADD12C,1.700000*%
%TD*%
%TA.AperFunction,ViaPad*%
%ADD13C,0.500000*%
%TD*%
%TA.AperFunction,Conductor*%
%ADD14C,0.300000*%
%TD*%
%TA.AperFunction,Conductor*%
%ADD15C,0.200000*%
%TD*%
G04 APERTURE END LIST*
D10*
%TO.N,GND1*%
%TO.C,U3*%
X144050000Y-104250000D03*
X145350000Y-104250000D03*
X146650000Y-104250000D03*
X147950000Y-104250000D03*
X149250000Y-104250000D03*
X144050000Y-102950000D03*
X145350000Y-102950000D03*
X146650000Y-102950000D03*
X147950000Y-102950000D03*
X149250000Y-102950000D03*
X144050000Y-101650000D03*
X145350000Y-101650000D03*
X146650000Y-101650000D03*
X147950000Y-101650000D03*
X149250000Y-101650000D03*
%TD*%
D11*
%TO.N,Net-(J5-3V3-Pad1)*%
%TO.C,J5*%
X155460000Y-74600000D03*
D12*
%TO.N,/PWR-BL-TOUCH/+5V*%
X158000000Y-74600000D03*
%TO.N,unconnected-(J5-SDA_I2C1{slash}GPIO02-Pad3)*%
X155460000Y-77140000D03*
%TO.N,/PWR-BL-TOUCH/+5V*%
X158000000Y-77140000D03*
%TO.N,unconnected-(J5-SCL_I2C1{slash}GPIO03-Pad5)*%
X155460000Y-79680000D03*
%TO.N,GND*%
X158000000Y-79680000D03*
%TO.N,unconnected-(J5-GPCLK0{slash}GPIO04-Pad7)*%
X155460000Y-82220000D03*
%TO.N,unconnected-(J5-GPIO14{slash}UART_TXD-Pad8)*%
X158000000Y-82220000D03*
%TO.N,GND*%
X155460000Y-84760000D03*
%TO.N,unconnected-(J5-GPIO15{slash}UART_RXD-Pad10)*%
X158000000Y-84760000D03*
%TO.N,unconnected-(J5-GPIO17{slash}SPI1_~{CE1}-Pad11)*%
X155460000Y-87300000D03*
%TO.N,unconnected-(J5-GPIO18{slash}SPI1_~{CE0}{slash}PCM_CLK{slash}PWM0-Pad12)*%
X158000000Y-87300000D03*
%TO.N,/MIPI-lanes/DSI_RST_CM4*%
X155460000Y-89840000D03*
%TO.N,GND*%
X158000000Y-89840000D03*
%TO.N,/PWR-BL-TOUCH/SDA6*%
X155460000Y-92380000D03*
%TO.N,/PWR-BL-TOUCH/SCL6*%
X158000000Y-92380000D03*
%TO.N,Net-(J5-3V3-Pad1)*%
X155460000Y-94920000D03*
%TO.N,unconnected-(J5-GPIO24{slash}SDIO_DAT0-Pad18)*%
X158000000Y-94920000D03*
%TO.N,unconnected-(J5-MOSI_SPI0{slash}GPIO10-Pad19)*%
X155460000Y-97460000D03*
%TO.N,GND*%
X158000000Y-97460000D03*
%TO.N,unconnected-(J5-MISO_SPI0{slash}GPIO09-Pad21)*%
X155460000Y-100000000D03*
%TO.N,unconnected-(J5-GPIO25{slash}SDIO_DAT1-Pad22)*%
X158000000Y-100000000D03*
%TO.N,unconnected-(J5-SCLK_SPI0{slash}GPIO11-Pad23)*%
X155460000Y-102540000D03*
%TO.N,unconnected-(J5-~{CE0}_SPI0{slash}GPIO08-Pad24)*%
X158000000Y-102540000D03*
%TO.N,GND*%
X155460000Y-105080000D03*
%TO.N,unconnected-(J5-~{CE1}_SPI0{slash}GPIO07-Pad26)*%
X158000000Y-105080000D03*
%TO.N,unconnected-(J5-ID_SD_I2C0{slash}GPIO00-Pad27)*%
X155460000Y-107620000D03*
%TO.N,unconnected-(J5-ID_SC_I2C0{slash}GPIO01-Pad28)*%
X158000000Y-107620000D03*
%TO.N,unconnected-(J5-GPCLK1{slash}GPIO05-Pad29)*%
X155460000Y-110160000D03*
%TO.N,GND*%
X158000000Y-110160000D03*
%TO.N,unconnected-(J5-GPCLK2{slash}GPIO06-Pad31)*%
X155460000Y-112700000D03*
%TO.N,/PWR-BL-TOUCH/PWM_IN*%
X158000000Y-112700000D03*
%TO.N,unconnected-(J5-GPIO13{slash}PWM1-Pad33)*%
X155460000Y-115240000D03*
%TO.N,GND*%
X158000000Y-115240000D03*
%TO.N,unconnected-(J5-GPIO19{slash}SPI1_MISO{slash}PCM_FS-Pad35)*%
X155460000Y-117780000D03*
%TO.N,unconnected-(J5-GPIO16{slash}SPI1_~{CE2}-Pad36)*%
X158000000Y-117780000D03*
%TO.N,/PWR-BL-TOUCH/TP_RST_CM4*%
X155460000Y-120320000D03*
%TO.N,unconnected-(J5-GPIO20{slash}SPI1_MOSI{slash}PCM_DIN{slash}PWM1-Pad38)*%
X158000000Y-120320000D03*
%TO.N,GND*%
X155460000Y-122860000D03*
%TO.N,/PWR-BL-TOUCH/TP_INT_CM4*%
X158000000Y-122860000D03*
%TD*%
D13*
%TO.N,GND*%
X106250000Y-67000000D03*
X111500000Y-79250000D03*
X118190000Y-105570000D03*
X110140000Y-99140000D03*
X112500000Y-124500000D03*
X114760000Y-107760000D03*
X140500000Y-86500000D03*
X114700000Y-89600000D03*
X105100000Y-88400000D03*
X133950000Y-76750000D03*
X105100000Y-73650000D03*
X145250000Y-85750000D03*
X115750000Y-130000000D03*
X120500000Y-67000000D03*
X115020000Y-109860000D03*
X146000000Y-72000000D03*
X106750000Y-112750000D03*
X119750000Y-124500000D03*
X104500000Y-102100000D03*
X143500000Y-67250000D03*
X146250000Y-97000000D03*
X105200000Y-78450000D03*
X108730000Y-105230000D03*
X122600000Y-87550000D03*
X153250000Y-126000000D03*
X110850000Y-93150000D03*
X117810000Y-107920000D03*
X104650000Y-107500000D03*
X145250000Y-97750000D03*
X113210000Y-105540000D03*
X109330000Y-99150000D03*
X114980000Y-98890000D03*
X146000000Y-97750000D03*
X122250000Y-75000000D03*
X115400000Y-102900000D03*
X105750000Y-124750000D03*
X142500000Y-86250000D03*
X142000000Y-69250000D03*
X145000000Y-97000000D03*
X115020000Y-112170000D03*
X122750000Y-77450000D03*
X110500000Y-74750000D03*
X109250000Y-77500000D03*
X149250000Y-130250000D03*
X132250000Y-81900000D03*
X109750000Y-67000000D03*
X122890000Y-80600000D03*
X141000000Y-83250000D03*
X115000000Y-73500000D03*
X136750000Y-83700000D03*
X105450000Y-93350000D03*
X111790000Y-105150000D03*
X112500000Y-112750000D03*
X108750000Y-107820000D03*
X145500000Y-82250000D03*
X116500000Y-70500000D03*
X125000000Y-130250000D03*
X113750000Y-67000000D03*
X116750000Y-67000000D03*
X138500000Y-102950000D03*
X159000000Y-125000000D03*
X116290000Y-107930000D03*
X140500000Y-84250000D03*
X113610000Y-102590000D03*
X141250000Y-76000000D03*
X120500000Y-113000000D03*
X120000000Y-73250000D03*
X153250000Y-123500000D03*
X105100000Y-84900000D03*
X128750000Y-76750000D03*
X131750000Y-76750000D03*
X145250000Y-84750000D03*
X111750000Y-70750000D03*
X117750000Y-112500000D03*
X143000000Y-82250000D03*
X144250000Y-86750000D03*
X122250000Y-72000000D03*
X114410000Y-102570000D03*
X120500000Y-119000000D03*
X149000000Y-67250000D03*
X153750000Y-130000000D03*
X145750000Y-75000000D03*
X143000000Y-83250000D03*
X122500000Y-69000000D03*
X141750000Y-88000000D03*
X153250000Y-67000000D03*
X106400000Y-104160000D03*
X116690000Y-104030000D03*
X108800000Y-84200000D03*
X113340000Y-107880000D03*
X111660000Y-107950000D03*
X123570000Y-81020000D03*
X134950000Y-77350000D03*
X135650000Y-85800000D03*
X130200000Y-82750000D03*
X149250000Y-76000000D03*
X129450000Y-88350000D03*
X141750000Y-72250000D03*
X133050000Y-77300000D03*
X142500000Y-84500000D03*
X107110000Y-102090000D03*
X132250000Y-130000000D03*
X134950000Y-82450000D03*
X142000000Y-130250000D03*
X114700000Y-88800000D03*
X121850000Y-87400000D03*
X146000000Y-69500000D03*
%TO.N,GND1*%
X143900000Y-110600000D03*
X150200000Y-97100000D03*
X144700000Y-110600000D03*
%TO.N,Net-(U3-FAULT)*%
X148700000Y-107150000D03*
X146400000Y-107100000D03*
%TO.N,/PWR-BL-TOUCH/+5V*%
X136250000Y-118150000D03*
X136250000Y-118800000D03*
X130050000Y-118850000D03*
X137100000Y-118750000D03*
X138050000Y-118150000D03*
X124450000Y-110750000D03*
X129050000Y-118900000D03*
X137950000Y-118750000D03*
X125100000Y-112100000D03*
X124450000Y-111450000D03*
X137100000Y-118150000D03*
X125100000Y-111450000D03*
X129500000Y-118500000D03*
X129000000Y-118200000D03*
X125100000Y-110700000D03*
X124500000Y-112100000D03*
X130050000Y-118200000D03*
%TO.N,/MIPI-lanes/+1V8*%
X123900000Y-101800000D03*
X124700000Y-80950000D03*
X124300000Y-90450000D03*
X117750000Y-91350000D03*
X118050000Y-92050000D03*
X123950000Y-101050000D03*
X124300000Y-81450000D03*
%TO.N,/MIPI-lanes/+3V3*%
X145900000Y-108000000D03*
X130200000Y-107500000D03*
X130860000Y-77140000D03*
X131850000Y-82650000D03*
X129200000Y-108500000D03*
X116350000Y-98250000D03*
X146800000Y-108100000D03*
X130200000Y-96150000D03*
X127500000Y-83020000D03*
X128300000Y-108500000D03*
X129300000Y-107500000D03*
X149150000Y-110350000D03*
X117100000Y-98200000D03*
X130100000Y-108500000D03*
X128300000Y-107500000D03*
%TO.N,/MIPI-lanes/DSI1_D0_P*%
X132250000Y-80176200D03*
X109383800Y-100020000D03*
%TO.N,/MIPI-lanes/DSI1_C_N*%
X114326200Y-103390000D03*
X133112270Y-80111276D03*
%TO.N,/MIPI-lanes/DSI1_D2_N*%
X115000000Y-110673800D03*
X136550000Y-80026200D03*
%TO.N,/MIPI-lanes/DSI1_D0_N*%
X132250000Y-79523800D03*
X110036200Y-100020000D03*
%TO.N,/MIPI-lanes/DSI1_D2_P*%
X115000000Y-111326200D03*
X136550000Y-79373800D03*
%TO.N,/MIPI-lanes/DSI1_D3_N*%
X107130659Y-102969341D03*
X130300000Y-80076200D03*
%TO.N,/MIPI-lanes/DSI1_C_P*%
X133112270Y-79458876D03*
X113673800Y-103390000D03*
%TO.N,/PWR-BL-TOUCH/FB2*%
X137170000Y-77210000D03*
X147760000Y-98860000D03*
%TO.N,/MIPI-lanes/DSI1_D1_N*%
X116670659Y-103240659D03*
X134842509Y-79439772D03*
%TO.N,/MIPI-lanes/DSI1_D3_P*%
X106669341Y-103430659D03*
X130300000Y-79423800D03*
%TO.N,/PWR-BL-TOUCH/FB1*%
X140980000Y-81930000D03*
X147900000Y-97370000D03*
%TO.N,/MIPI-lanes/DSI1_D1_P*%
X134842509Y-80092172D03*
X116209341Y-102779341D03*
%TO.N,/PWR-BL-TOUCH/FB3*%
X143730000Y-80970000D03*
X147020000Y-98820000D03*
%TO.N,/PWR-BL-TOUCH/SDA6*%
X126880000Y-98650000D03*
%TO.N,/PWR-BL-TOUCH/SCL6*%
X126670000Y-99420000D03*
%TO.N,/PWR-BL-TOUCH/TP_RST*%
X116600000Y-86900000D03*
X119000000Y-84300000D03*
%TO.N,/MIPI-lanes/DSI_RST_CM4*%
X132950000Y-93800000D03*
%TD*%
D14*
%TO.N,/MIPI-lanes/+1V8*%
X124300000Y-90450000D02*
X123500000Y-91250000D01*
X123500000Y-91250000D02*
X123500000Y-91800000D01*
D15*
%TO.N,/MIPI-lanes/+3V3*%
X131420000Y-82220000D02*
X131850000Y-82650000D01*
X130860000Y-77140000D02*
X131190000Y-77470000D01*
X131250000Y-77470000D02*
X131250000Y-80630000D01*
X131420000Y-80800000D02*
X131420000Y-82220000D01*
X131250000Y-80630000D02*
X131420000Y-80800000D01*
X131190000Y-77470000D02*
X131250000Y-77470000D01*
%TD*%
%TA.AperFunction,Conductor*%
%TO.N,GND1*%
G36*
X145000000Y-104567655D02*
G01*
X145000000Y-106799999D01*
X145191131Y-107277827D01*
X145200000Y-107323879D01*
X145200000Y-111876000D01*
X145180315Y-111943039D01*
X145127511Y-111988794D01*
X145076000Y-112000000D01*
X143624000Y-112000000D01*
X143556961Y-111980315D01*
X143511206Y-111927511D01*
X143500000Y-111876000D01*
X143500000Y-107389374D01*
X143519685Y-107322335D01*
X143572489Y-107276580D01*
X143584782Y-107271739D01*
X144400000Y-107000000D01*
X144400000Y-104564728D01*
X144400000Y-104500000D01*
X145000000Y-104500000D01*
X145000000Y-104567655D01*
G37*
%TD.AperFunction*%
%TD*%
%TA.AperFunction,Conductor*%
%TO.N,GND*%
G36*
X130265633Y-82414998D02*
G01*
X130311485Y-82467718D01*
X130312920Y-82470967D01*
X130315133Y-82476178D01*
X130348612Y-82537491D01*
X130348617Y-82537499D01*
X130394851Y-82599260D01*
X130394481Y-82599536D01*
X130402993Y-82611596D01*
X130420139Y-82641293D01*
X130432527Y-82671198D01*
X130440774Y-82701974D01*
X130445000Y-82734070D01*
X130445000Y-82765928D01*
X130440774Y-82798024D01*
X130432527Y-82828800D01*
X130420142Y-82858700D01*
X130420140Y-82858705D01*
X130404210Y-82886296D01*
X130384504Y-82911976D01*
X130361976Y-82934504D01*
X130336298Y-82954209D01*
X130308708Y-82970139D01*
X130278800Y-82982527D01*
X130248023Y-82990774D01*
X130215928Y-82995000D01*
X130184071Y-82995000D01*
X130151975Y-82990774D01*
X130121196Y-82982526D01*
X130091292Y-82970139D01*
X130063704Y-82954211D01*
X130038023Y-82934505D01*
X130015494Y-82911976D01*
X129995787Y-82886294D01*
X129979856Y-82858700D01*
X129967469Y-82828793D01*
X129959225Y-82798024D01*
X129955000Y-82765932D01*
X129955000Y-82734063D01*
X129959224Y-82701974D01*
X129967470Y-82671198D01*
X129979858Y-82641292D01*
X129996301Y-82612813D01*
X130012859Y-82590398D01*
X130018783Y-82584023D01*
X130018787Y-82584019D01*
X130064233Y-82515800D01*
X130085896Y-82468131D01*
X130131554Y-82415244D01*
X130198557Y-82395436D01*
X130265633Y-82414998D01*
G37*
%TD.AperFunction*%
%TA.AperFunction,Conductor*%
G36*
X123359781Y-80752540D02*
G01*
X123369501Y-80754426D01*
X123390005Y-80761935D01*
X123459040Y-80772700D01*
X123463965Y-80772758D01*
X123473754Y-80774658D01*
X123474415Y-80775000D01*
X123504106Y-80775000D01*
X123585934Y-80775000D01*
X123618019Y-80779223D01*
X123648799Y-80787470D01*
X123678701Y-80799856D01*
X123701933Y-80813269D01*
X123706297Y-80815789D01*
X123731976Y-80835494D01*
X123754504Y-80858022D01*
X123774210Y-80883702D01*
X123790140Y-80911293D01*
X123802527Y-80941198D01*
X123810774Y-80971974D01*
X123815000Y-81004070D01*
X123815000Y-81035928D01*
X123810774Y-81068024D01*
X123802527Y-81098800D01*
X123790140Y-81128705D01*
X123774210Y-81156296D01*
X123754504Y-81181976D01*
X123731976Y-81204504D01*
X123706298Y-81224209D01*
X123678708Y-81240139D01*
X123648800Y-81252527D01*
X123618023Y-81260774D01*
X123585928Y-81265000D01*
X123554071Y-81265000D01*
X123521975Y-81260774D01*
X123491196Y-81252526D01*
X123461292Y-81240139D01*
X123433704Y-81224211D01*
X123408023Y-81204505D01*
X123385493Y-81181975D01*
X123365787Y-81156295D01*
X123361366Y-81148638D01*
X123345477Y-81121118D01*
X123335805Y-81100019D01*
X123331819Y-81088611D01*
X123317165Y-81054946D01*
X123317152Y-81054917D01*
X123312701Y-81045247D01*
X123252483Y-80965799D01*
X123252482Y-80965798D01*
X123250960Y-80964153D01*
X123250473Y-80963902D01*
X123250055Y-80963176D01*
X123248349Y-80961333D01*
X123248769Y-80960943D01*
X123234141Y-80935531D01*
X123216775Y-80907790D01*
X123216803Y-80905411D01*
X123215616Y-80903349D01*
X123217215Y-80870648D01*
X123217604Y-80837925D01*
X123218913Y-80835939D01*
X123219030Y-80833562D01*
X123238056Y-80806914D01*
X123256073Y-80779599D01*
X123258248Y-80778636D01*
X123259631Y-80776700D01*
X123290041Y-80764570D01*
X123319969Y-80751330D01*
X123322528Y-80751612D01*
X123324529Y-80750815D01*
X123359781Y-80752540D01*
G37*
%TD.AperFunction*%
%TA.AperFunction,Conductor*%
G36*
X122938019Y-80359223D02*
G01*
X122968799Y-80367470D01*
X122998701Y-80379856D01*
X123005035Y-80383513D01*
X123026297Y-80395789D01*
X123051976Y-80415494D01*
X123074505Y-80438023D01*
X123094210Y-80463703D01*
X123114516Y-80498873D01*
X123124187Y-80519965D01*
X123128178Y-80531385D01*
X123140902Y-80560617D01*
X123142855Y-80565102D01*
X123144880Y-80569502D01*
X123147297Y-80574752D01*
X123198716Y-80642591D01*
X123207515Y-80654200D01*
X123211649Y-80658666D01*
X123210417Y-80659805D01*
X123243223Y-80712209D01*
X123242394Y-80782074D01*
X123203925Y-80840400D01*
X123140029Y-80868669D01*
X123100216Y-80867459D01*
X123090496Y-80865572D01*
X123069989Y-80858063D01*
X123000954Y-80847299D01*
X122996033Y-80847240D01*
X122986241Y-80845340D01*
X122985584Y-80845000D01*
X122955892Y-80845000D01*
X122874071Y-80845000D01*
X122841975Y-80840774D01*
X122811196Y-80832526D01*
X122781292Y-80820139D01*
X122753704Y-80804211D01*
X122728023Y-80784505D01*
X122705494Y-80761976D01*
X122685787Y-80736294D01*
X122669856Y-80708700D01*
X122657469Y-80678793D01*
X122649225Y-80648024D01*
X122645000Y-80615932D01*
X122645000Y-80584063D01*
X122649223Y-80551979D01*
X122657470Y-80521196D01*
X122669853Y-80491301D01*
X122685792Y-80463694D01*
X122705488Y-80438028D01*
X122728027Y-80415489D01*
X122753694Y-80395792D01*
X122781301Y-80379853D01*
X122811193Y-80367472D01*
X122841984Y-80359222D01*
X122874065Y-80355000D01*
X122905934Y-80355000D01*
X122938019Y-80359223D01*
G37*
%TD.AperFunction*%
%TA.AperFunction,Conductor*%
G36*
X157503243Y-66210669D02*
G01*
X157806001Y-66226537D01*
X157818909Y-66227894D01*
X158115133Y-66274811D01*
X158127817Y-66277506D01*
X158417536Y-66355136D01*
X158429873Y-66359146D01*
X158496084Y-66384561D01*
X158709875Y-66466628D01*
X158721718Y-66471900D01*
X158988977Y-66608075D01*
X159000183Y-66614545D01*
X159251741Y-66777909D01*
X159262231Y-66785531D01*
X159495319Y-66974282D01*
X159504964Y-66982967D01*
X159717032Y-67195035D01*
X159725717Y-67204680D01*
X159914468Y-67437768D01*
X159922093Y-67448262D01*
X160085450Y-67699810D01*
X160091927Y-67711029D01*
X160204691Y-67932340D01*
X160228094Y-67978271D01*
X160233373Y-67990129D01*
X160340853Y-68270126D01*
X160344864Y-68282469D01*
X160422491Y-68572176D01*
X160425189Y-68584872D01*
X160472105Y-68881090D01*
X160473462Y-68893998D01*
X160489330Y-69196756D01*
X160489500Y-69203246D01*
X160489500Y-128196753D01*
X160489330Y-128203243D01*
X160473462Y-128506001D01*
X160472105Y-128518909D01*
X160425189Y-128815127D01*
X160422491Y-128827823D01*
X160344864Y-129117530D01*
X160340853Y-129129873D01*
X160233373Y-129409870D01*
X160228094Y-129421728D01*
X160091931Y-129688964D01*
X160085445Y-129700197D01*
X159993432Y-129841885D01*
X159922097Y-129951731D01*
X159914468Y-129962231D01*
X159725717Y-130195319D01*
X159717032Y-130204964D01*
X159504964Y-130417032D01*
X159495319Y-130425717D01*
X159262231Y-130614468D01*
X159251731Y-130622097D01*
X159000197Y-130785445D01*
X158988964Y-130791931D01*
X158721728Y-130928094D01*
X158709870Y-130933373D01*
X158429873Y-131040853D01*
X158417530Y-131044864D01*
X158127823Y-131122491D01*
X158115127Y-131125189D01*
X157818909Y-131172105D01*
X157806001Y-131173462D01*
X157503244Y-131189330D01*
X157496754Y-131189500D01*
X107003246Y-131189500D01*
X106996756Y-131189330D01*
X106693998Y-131173462D01*
X106681090Y-131172105D01*
X106384872Y-131125189D01*
X106372176Y-131122491D01*
X106082469Y-131044864D01*
X106070126Y-131040853D01*
X105790129Y-130933373D01*
X105778271Y-130928094D01*
X105511029Y-130791927D01*
X105499810Y-130785450D01*
X105248262Y-130622093D01*
X105237768Y-130614468D01*
X105004680Y-130425717D01*
X104995035Y-130417032D01*
X104782967Y-130204964D01*
X104774282Y-130195319D01*
X104585531Y-129962231D01*
X104577909Y-129951741D01*
X104414545Y-129700183D01*
X104408068Y-129688963D01*
X104271904Y-129421724D01*
X104266625Y-129409867D01*
X104208236Y-129257756D01*
X104200000Y-129213319D01*
X104200000Y-127574038D01*
X106149500Y-127574038D01*
X106149500Y-127825961D01*
X106188910Y-128074785D01*
X106266760Y-128314383D01*
X106345413Y-128468747D01*
X106367700Y-128512488D01*
X106381132Y-128538848D01*
X106529201Y-128742649D01*
X106529205Y-128742654D01*
X106707345Y-128920794D01*
X106707350Y-128920798D01*
X106789171Y-128980244D01*
X106911155Y-129068870D01*
X107054184Y-129141747D01*
X107135616Y-129183239D01*
X107135618Y-129183239D01*
X107135621Y-129183241D01*
X107375215Y-129261090D01*
X107624038Y-129300500D01*
X107624039Y-129300500D01*
X107875961Y-129300500D01*
X107875962Y-129300500D01*
X108124785Y-129261090D01*
X108364379Y-129183241D01*
X108588845Y-129068870D01*
X108792656Y-128920793D01*
X108970793Y-128742656D01*
X109118870Y-128538845D01*
X109233241Y-128314379D01*
X109311090Y-128074785D01*
X109350500Y-127825962D01*
X109350500Y-127574038D01*
X155149500Y-127574038D01*
X155149500Y-127825961D01*
X155188910Y-128074785D01*
X155266760Y-128314383D01*
X155345413Y-128468747D01*
X155367700Y-128512488D01*
X155381132Y-128538848D01*
X155529201Y-128742649D01*
X155529205Y-128742654D01*
X155707345Y-128920794D01*
X155707350Y-128920798D01*
X155789171Y-128980244D01*
X155911155Y-129068870D01*
X156054184Y-129141747D01*
X156135616Y-129183239D01*
X156135618Y-129183239D01*
X156135621Y-129183241D01*
X156375215Y-129261090D01*
X156624038Y-129300500D01*
X156624039Y-129300500D01*
X156875961Y-129300500D01*
X156875962Y-129300500D01*
X157124785Y-129261090D01*
X157364379Y-129183241D01*
X157588845Y-129068870D01*
X157792656Y-128920793D01*
X157970793Y-128742656D01*
X158118870Y-128538845D01*
X158233241Y-128314379D01*
X158311090Y-128074785D01*
X158350500Y-127825962D01*
X158350500Y-127574038D01*
X158311090Y-127325215D01*
X158233241Y-127085621D01*
X158233239Y-127085618D01*
X158233239Y-127085616D01*
X158191747Y-127004184D01*
X158118870Y-126861155D01*
X158099952Y-126835117D01*
X157970798Y-126657350D01*
X157970794Y-126657345D01*
X157792654Y-126479205D01*
X157792649Y-126479201D01*
X157588848Y-126331132D01*
X157588847Y-126331131D01*
X157588845Y-126331130D01*
X157518747Y-126295413D01*
X157364383Y-126216760D01*
X157124785Y-126138910D01*
X156875962Y-126099500D01*
X156624038Y-126099500D01*
X156499626Y-126119205D01*
X156375214Y-126138910D01*
X156135616Y-126216760D01*
X155911151Y-126331132D01*
X155707350Y-126479201D01*
X155707345Y-126479205D01*
X155529205Y-126657345D01*
X155529201Y-126657350D01*
X155381132Y-126861151D01*
X155266760Y-127085616D01*
X155188910Y-127325214D01*
X155149500Y-127574038D01*
X109350500Y-127574038D01*
X109311090Y-127325215D01*
X109233241Y-127085621D01*
X109233239Y-127085618D01*
X109233239Y-127085616D01*
X109191747Y-127004184D01*
X109118870Y-126861155D01*
X109099952Y-126835117D01*
X108970798Y-126657350D01*
X108970794Y-126657345D01*
X108792654Y-126479205D01*
X108792649Y-126479201D01*
X108588848Y-126331132D01*
X108588847Y-126331131D01*
X108588845Y-126331130D01*
X108518747Y-126295413D01*
X108364383Y-126216760D01*
X108124785Y-126138910D01*
X107875962Y-126099500D01*
X107624038Y-126099500D01*
X107499626Y-126119205D01*
X107375214Y-126138910D01*
X107135616Y-126216760D01*
X106911151Y-126331132D01*
X106707350Y-126479201D01*
X106707345Y-126479205D01*
X106529205Y-126657345D01*
X106529201Y-126657350D01*
X106381132Y-126861151D01*
X106266760Y-127085616D01*
X106188910Y-127325214D01*
X106149500Y-127574038D01*
X104200000Y-127574038D01*
X104200000Y-124163038D01*
X104205699Y-124143628D01*
X104206501Y-124123415D01*
X104218748Y-124099186D01*
X104219685Y-124095999D01*
X104222424Y-124091917D01*
X104235778Y-124072844D01*
X104249664Y-124056295D01*
X104356295Y-123949664D01*
X104372839Y-123935782D01*
X104496373Y-123849283D01*
X104515074Y-123838486D01*
X104618831Y-123790104D01*
X104651739Y-123774759D01*
X104672044Y-123767367D01*
X104817704Y-123728338D01*
X104838978Y-123724587D01*
X104994605Y-123710971D01*
X105005412Y-123710500D01*
X119088403Y-123710500D01*
X119088407Y-123710500D01*
X119262536Y-123679797D01*
X119428687Y-123619323D01*
X119581813Y-123530915D01*
X119717261Y-123417261D01*
X119830915Y-123281813D01*
X119919323Y-123128687D01*
X119979797Y-122962536D01*
X120010500Y-122788407D01*
X120010500Y-122753753D01*
X154110000Y-122753753D01*
X154110000Y-122966246D01*
X154143242Y-123176127D01*
X154143242Y-123176130D01*
X154208904Y-123378217D01*
X154305375Y-123567550D01*
X154344728Y-123621716D01*
X154977037Y-122989408D01*
X154994075Y-123052993D01*
X155059901Y-123167007D01*
X155152993Y-123260099D01*
X155267007Y-123325925D01*
X155330590Y-123342962D01*
X154698282Y-123975269D01*
X154698282Y-123975270D01*
X154752449Y-124014624D01*
X154941782Y-124111095D01*
X155143870Y-124176757D01*
X155353754Y-124210000D01*
X155566246Y-124210000D01*
X155776127Y-124176757D01*
X155776130Y-124176757D01*
X155978217Y-124111095D01*
X156167554Y-124014622D01*
X156221716Y-123975270D01*
X156221717Y-123975270D01*
X155589408Y-123342962D01*
X155652993Y-123325925D01*
X155767007Y-123260099D01*
X155860099Y-123167007D01*
X155925925Y-123052993D01*
X155942962Y-122989408D01*
X156575270Y-123621717D01*
X156575270Y-123621716D01*
X156614622Y-123567554D01*
X156711096Y-123378215D01*
X156743239Y-123279288D01*
X156782676Y-123221612D01*
X156847034Y-123194413D01*
X156915880Y-123206327D01*
X156967357Y-123253571D01*
X156979100Y-123279284D01*
X156980127Y-123282446D01*
X156980128Y-123282447D01*
X157058768Y-123436788D01*
X157160586Y-123576928D01*
X157283072Y-123699414D01*
X157423212Y-123801232D01*
X157577555Y-123879873D01*
X157742299Y-123933402D01*
X157913389Y-123960500D01*
X157913390Y-123960500D01*
X158086610Y-123960500D01*
X158086611Y-123960500D01*
X158257701Y-123933402D01*
X158422445Y-123879873D01*
X158576788Y-123801232D01*
X158716928Y-123699414D01*
X158839414Y-123576928D01*
X158941232Y-123436788D01*
X159019873Y-123282445D01*
X159073402Y-123117701D01*
X159100500Y-122946611D01*
X159100500Y-122773389D01*
X159073402Y-122602299D01*
X159019873Y-122437555D01*
X158941232Y-122283212D01*
X158839414Y-122143072D01*
X158716928Y-122020586D01*
X158576788Y-121918768D01*
X158422445Y-121840127D01*
X158257701Y-121786598D01*
X158257699Y-121786597D01*
X158257698Y-121786597D01*
X158126271Y-121765781D01*
X158086611Y-121759500D01*
X157913389Y-121759500D01*
X157873728Y-121765781D01*
X157742302Y-121786597D01*
X157577552Y-121840128D01*
X157423211Y-121918768D01*
X157343256Y-121976859D01*
X157283072Y-122020586D01*
X157283070Y-122020588D01*
X157283069Y-122020588D01*
X157160588Y-122143069D01*
X157160588Y-122143070D01*
X157160586Y-122143072D01*
X157116859Y-122203256D01*
X157058768Y-122283211D01*
X156980128Y-122437550D01*
X156979099Y-122440720D01*
X156978381Y-122441769D01*
X156978266Y-122442048D01*
X156978207Y-122442023D01*
X156939657Y-122498393D01*
X156875297Y-122525587D01*
X156806451Y-122513668D01*
X156754979Y-122466420D01*
X156743239Y-122440711D01*
X156711096Y-122341784D01*
X156614624Y-122152449D01*
X156575270Y-122098282D01*
X156575269Y-122098282D01*
X155942962Y-122730590D01*
X155925925Y-122667007D01*
X155860099Y-122552993D01*
X155767007Y-122459901D01*
X155652993Y-122394075D01*
X155589409Y-122377037D01*
X156221716Y-121744728D01*
X156167550Y-121705375D01*
X155978217Y-121608904D01*
X155879287Y-121576760D01*
X155821611Y-121537323D01*
X155794413Y-121472964D01*
X155806328Y-121404118D01*
X155853572Y-121352642D01*
X155879290Y-121340897D01*
X155882445Y-121339873D01*
X156036788Y-121261232D01*
X156176928Y-121159414D01*
X156299414Y-121036928D01*
X156401232Y-120896788D01*
X156479873Y-120742445D01*
X156533402Y-120577701D01*
X156560500Y-120406611D01*
X156560500Y-120233389D01*
X156899500Y-120233389D01*
X156899500Y-120406611D01*
X156926598Y-120577701D01*
X156980127Y-120742445D01*
X157058768Y-120896788D01*
X157160586Y-121036928D01*
X157283072Y-121159414D01*
X157423212Y-121261232D01*
X157577555Y-121339873D01*
X157742299Y-121393402D01*
X157913389Y-121420500D01*
X157913390Y-121420500D01*
X158086610Y-121420500D01*
X158086611Y-121420500D01*
X158257701Y-121393402D01*
X158422445Y-121339873D01*
X158576788Y-121261232D01*
X158716928Y-121159414D01*
X158839414Y-121036928D01*
X158941232Y-120896788D01*
X159019873Y-120742445D01*
X159073402Y-120577701D01*
X159100500Y-120406611D01*
X159100500Y-120233389D01*
X159073402Y-120062299D01*
X159019873Y-119897555D01*
X158941232Y-119743212D01*
X158839414Y-119603072D01*
X158716928Y-119480586D01*
X158576788Y-119378768D01*
X158422445Y-119300127D01*
X158257701Y-119246598D01*
X158257699Y-119246597D01*
X158257698Y-119246597D01*
X158126271Y-119225781D01*
X158086611Y-119219500D01*
X157913389Y-119219500D01*
X157873728Y-119225781D01*
X157742302Y-119246597D01*
X157577552Y-119300128D01*
X157423211Y-119378768D01*
X157343256Y-119436859D01*
X157283072Y-119480586D01*
X157283070Y-119480588D01*
X157283069Y-119480588D01*
X157160588Y-119603069D01*
X157160588Y-119603070D01*
X157160586Y-119603072D01*
X157116859Y-119663256D01*
X157058768Y-119743211D01*
X156980128Y-119897552D01*
X156926597Y-120062302D01*
X156899500Y-120233389D01*
X156560500Y-120233389D01*
X156533402Y-120062299D01*
X156479873Y-119897555D01*
X156401232Y-119743212D01*
X156299414Y-119603072D01*
X156176928Y-119480586D01*
X156036788Y-119378768D01*
X155882445Y-119300127D01*
X155717701Y-119246598D01*
X155717699Y-119246597D01*
X155717698Y-119246597D01*
X155586271Y-119225781D01*
X155546611Y-119219500D01*
X155373389Y-119219500D01*
X155333728Y-119225781D01*
X155202302Y-119246597D01*
X155037552Y-119300128D01*
X154883211Y-119378768D01*
X154803256Y-119436859D01*
X154743072Y-119480586D01*
X154743070Y-119480588D01*
X154743069Y-119480588D01*
X154620588Y-119603069D01*
X154620588Y-119603070D01*
X154620586Y-119603072D01*
X154576859Y-119663256D01*
X154518768Y-119743211D01*
X154440128Y-119897552D01*
X154386597Y-120062302D01*
X154359500Y-120233389D01*
X154359500Y-120406611D01*
X154386598Y-120577701D01*
X154440127Y-120742445D01*
X154518768Y-120896788D01*
X154620586Y-121036928D01*
X154743072Y-121159414D01*
X154883212Y-121261232D01*
X155037555Y-121339873D01*
X155040708Y-121340897D01*
X155041752Y-121341611D01*
X155042048Y-121341734D01*
X155042022Y-121341795D01*
X155098383Y-121380330D01*
X155125585Y-121444688D01*
X155113674Y-121513535D01*
X155066433Y-121565013D01*
X155040712Y-121576760D01*
X154941783Y-121608904D01*
X154752439Y-121705380D01*
X154698282Y-121744727D01*
X154698282Y-121744728D01*
X155330591Y-122377037D01*
X155267007Y-122394075D01*
X155152993Y-122459901D01*
X155059901Y-122552993D01*
X154994075Y-122667007D01*
X154977037Y-122730591D01*
X154344728Y-122098282D01*
X154344727Y-122098282D01*
X154305380Y-122152439D01*
X154208904Y-122341782D01*
X154143242Y-122543869D01*
X154143242Y-122543872D01*
X154110000Y-122753753D01*
X120010500Y-122753753D01*
X120010500Y-122700000D01*
X120010500Y-122696588D01*
X120010500Y-118134108D01*
X128499500Y-118134108D01*
X128499500Y-118265891D01*
X128533608Y-118393187D01*
X128533609Y-118393188D01*
X128599500Y-118507314D01*
X128599503Y-118507317D01*
X128604447Y-118513760D01*
X128602054Y-118515595D01*
X128628651Y-118564303D01*
X128623667Y-118633995D01*
X128614873Y-118652660D01*
X128583608Y-118706812D01*
X128562897Y-118784108D01*
X128549500Y-118834108D01*
X128549500Y-118965892D01*
X128558773Y-119000500D01*
X128583608Y-119093187D01*
X128599375Y-119120495D01*
X128649500Y-119207314D01*
X128742686Y-119300500D01*
X128856814Y-119366392D01*
X128984108Y-119400500D01*
X128984110Y-119400500D01*
X129115890Y-119400500D01*
X129115892Y-119400500D01*
X129243186Y-119366392D01*
X129357314Y-119300500D01*
X129450500Y-119207314D01*
X129460840Y-119189403D01*
X129511404Y-119141189D01*
X129580011Y-119127964D01*
X129644876Y-119153930D01*
X129655908Y-119163722D01*
X129742686Y-119250500D01*
X129856814Y-119316392D01*
X129984108Y-119350500D01*
X129984110Y-119350500D01*
X130115890Y-119350500D01*
X130115892Y-119350500D01*
X130243186Y-119316392D01*
X130357314Y-119250500D01*
X130450500Y-119157314D01*
X130516392Y-119043186D01*
X130550500Y-118915892D01*
X130550500Y-118784108D01*
X130516392Y-118656814D01*
X130516391Y-118656813D01*
X130516391Y-118656811D01*
X130487523Y-118606812D01*
X130476084Y-118586999D01*
X130459611Y-118519102D01*
X130476084Y-118463001D01*
X130516392Y-118393186D01*
X130550500Y-118265892D01*
X130550500Y-118134108D01*
X130537103Y-118084108D01*
X135749500Y-118084108D01*
X135749500Y-118215891D01*
X135783608Y-118343187D01*
X135823915Y-118412999D01*
X135840388Y-118480900D01*
X135823915Y-118536999D01*
X135814692Y-118552974D01*
X135783608Y-118606812D01*
X135749500Y-118734108D01*
X135749500Y-118865891D01*
X135783608Y-118993187D01*
X135796132Y-119014878D01*
X135849500Y-119107314D01*
X135942686Y-119200500D01*
X136056814Y-119266392D01*
X136184108Y-119300500D01*
X136184110Y-119300500D01*
X136315890Y-119300500D01*
X136315892Y-119300500D01*
X136443186Y-119266392D01*
X136557314Y-119200500D01*
X136612321Y-119145492D01*
X136673640Y-119112010D01*
X136743332Y-119116994D01*
X136787676Y-119145491D01*
X136792680Y-119150495D01*
X136792683Y-119150497D01*
X136792686Y-119150500D01*
X136906814Y-119216392D01*
X137034108Y-119250500D01*
X137034110Y-119250500D01*
X137165890Y-119250500D01*
X137165892Y-119250500D01*
X137293186Y-119216392D01*
X137407314Y-119150500D01*
X137437319Y-119120495D01*
X137498642Y-119087010D01*
X137568334Y-119091994D01*
X137612681Y-119120495D01*
X137642686Y-119150500D01*
X137756814Y-119216392D01*
X137884108Y-119250500D01*
X137884110Y-119250500D01*
X138015890Y-119250500D01*
X138015892Y-119250500D01*
X138143186Y-119216392D01*
X138257314Y-119150500D01*
X138350500Y-119057314D01*
X138416392Y-118943186D01*
X138450500Y-118815892D01*
X138450500Y-118684108D01*
X138421101Y-118574388D01*
X138422764Y-118504544D01*
X138446963Y-118464848D01*
X138445551Y-118463765D01*
X138450495Y-118457321D01*
X138450497Y-118457316D01*
X138450500Y-118457314D01*
X138516392Y-118343186D01*
X138550500Y-118215892D01*
X138550500Y-118084108D01*
X138516392Y-117956814D01*
X138450500Y-117842686D01*
X138357314Y-117749500D01*
X138270712Y-117699500D01*
X138260128Y-117693389D01*
X154359500Y-117693389D01*
X154359500Y-117866610D01*
X154381705Y-118006812D01*
X154386598Y-118037701D01*
X154417923Y-118134110D01*
X154440128Y-118202447D01*
X154446978Y-118215891D01*
X154518768Y-118356788D01*
X154620586Y-118496928D01*
X154743072Y-118619414D01*
X154883212Y-118721232D01*
X155037555Y-118799873D01*
X155202299Y-118853402D01*
X155373389Y-118880500D01*
X155373390Y-118880500D01*
X155546610Y-118880500D01*
X155546611Y-118880500D01*
X155717701Y-118853402D01*
X155882445Y-118799873D01*
X156036788Y-118721232D01*
X156176928Y-118619414D01*
X156299414Y-118496928D01*
X156401232Y-118356788D01*
X156479873Y-118202445D01*
X156533402Y-118037701D01*
X156560500Y-117866611D01*
X156560500Y-117693389D01*
X156533402Y-117522299D01*
X156479873Y-117357555D01*
X156401232Y-117203212D01*
X156299414Y-117063072D01*
X156176928Y-116940586D01*
X156036788Y-116838768D01*
X155882445Y-116760127D01*
X155717701Y-116706598D01*
X155717699Y-116706597D01*
X155717698Y-116706597D01*
X155586271Y-116685781D01*
X155546611Y-116679500D01*
X155373389Y-116679500D01*
X155333728Y-116685781D01*
X155202302Y-116706597D01*
X155202299Y-116706598D01*
X155042923Y-116758383D01*
X155037552Y-116760128D01*
X154883211Y-116838768D01*
X154803256Y-116896859D01*
X154743072Y-116940586D01*
X154743070Y-116940588D01*
X154743069Y-116940588D01*
X154620588Y-117063069D01*
X154620588Y-117063070D01*
X154620586Y-117063072D01*
X154576859Y-117123256D01*
X154518768Y-117203211D01*
X154440128Y-117357552D01*
X154386597Y-117522302D01*
X154359500Y-117693389D01*
X138260128Y-117693389D01*
X138243187Y-117683608D01*
X138179539Y-117666554D01*
X138115892Y-117649500D01*
X137984108Y-117649500D01*
X137856812Y-117683608D01*
X137742686Y-117749500D01*
X137742683Y-117749502D01*
X137662681Y-117829505D01*
X137601358Y-117862990D01*
X137531666Y-117858006D01*
X137487319Y-117829505D01*
X137407316Y-117749502D01*
X137407314Y-117749500D01*
X137320712Y-117699500D01*
X137293187Y-117683608D01*
X137229539Y-117666554D01*
X137165892Y-117649500D01*
X137034108Y-117649500D01*
X136906812Y-117683608D01*
X136792686Y-117749500D01*
X136792683Y-117749502D01*
X136762681Y-117779505D01*
X136701358Y-117812990D01*
X136631666Y-117808006D01*
X136587319Y-117779505D01*
X136557316Y-117749502D01*
X136557314Y-117749500D01*
X136470712Y-117699500D01*
X136443187Y-117683608D01*
X136379539Y-117666554D01*
X136315892Y-117649500D01*
X136184108Y-117649500D01*
X136056812Y-117683608D01*
X135942686Y-117749500D01*
X135942683Y-117749502D01*
X135849502Y-117842683D01*
X135849500Y-117842686D01*
X135783608Y-117956812D01*
X135749500Y-118084108D01*
X130537103Y-118084108D01*
X130516392Y-118006814D01*
X130450500Y-117892686D01*
X130357314Y-117799500D01*
X130300250Y-117766554D01*
X130243187Y-117733608D01*
X130179539Y-117716554D01*
X130115892Y-117699500D01*
X129984108Y-117699500D01*
X129856812Y-117733608D01*
X129742686Y-117799500D01*
X129742683Y-117799502D01*
X129649502Y-117892683D01*
X129649496Y-117892692D01*
X129632384Y-117922329D01*
X129581816Y-117970543D01*
X129513209Y-117983764D01*
X129448345Y-117957794D01*
X129417613Y-117922328D01*
X129400500Y-117892686D01*
X129307314Y-117799500D01*
X129250250Y-117766554D01*
X129193187Y-117733608D01*
X129129539Y-117716554D01*
X129065892Y-117699500D01*
X128934108Y-117699500D01*
X128806812Y-117733608D01*
X128692686Y-117799500D01*
X128692683Y-117799502D01*
X128599502Y-117892683D01*
X128599500Y-117892686D01*
X128533608Y-118006812D01*
X128499500Y-118134108D01*
X120010500Y-118134108D01*
X120010500Y-114695651D01*
X120010500Y-114611593D01*
X119979797Y-114437464D01*
X119919323Y-114271313D01*
X119881181Y-114205250D01*
X119830916Y-114118188D01*
X119830913Y-114118185D01*
X119717261Y-113982738D01*
X119581814Y-113869086D01*
X119581811Y-113869083D01*
X119428691Y-113780679D01*
X119428690Y-113780678D01*
X119262535Y-113720202D01*
X119088409Y-113689500D01*
X119088407Y-113689500D01*
X119004349Y-113689500D01*
X105005412Y-113689500D01*
X104994606Y-113689028D01*
X104969584Y-113686838D01*
X104838982Y-113675412D01*
X104817696Y-113671659D01*
X104672049Y-113632633D01*
X104651739Y-113625240D01*
X104515081Y-113561516D01*
X104496365Y-113550710D01*
X104372847Y-113464223D01*
X104356289Y-113450329D01*
X104249674Y-113343714D01*
X104235778Y-113327154D01*
X104222423Y-113308080D01*
X104200097Y-113241873D01*
X104200000Y-113236959D01*
X104200000Y-112613389D01*
X154359500Y-112613389D01*
X154359500Y-112786611D01*
X154367677Y-112838239D01*
X154372996Y-112871825D01*
X154386598Y-112957701D01*
X154440127Y-113122445D01*
X154518768Y-113276788D01*
X154620586Y-113416928D01*
X154743072Y-113539414D01*
X154883212Y-113641232D01*
X155037555Y-113719873D01*
X155202299Y-113773402D01*
X155373389Y-113800500D01*
X155373390Y-113800500D01*
X155546610Y-113800500D01*
X155546611Y-113800500D01*
X155717701Y-113773402D01*
X155882445Y-113719873D01*
X156036788Y-113641232D01*
X156176928Y-113539414D01*
X156299414Y-113416928D01*
X156401232Y-113276788D01*
X156479873Y-113122445D01*
X156533402Y-112957701D01*
X156560500Y-112786611D01*
X156560500Y-112613389D01*
X156533402Y-112442299D01*
X156479873Y-112277555D01*
X156401232Y-112123212D01*
X156299414Y-111983072D01*
X156176928Y-111860586D01*
X156036788Y-111758768D01*
X155973850Y-111726700D01*
X155882447Y-111680128D01*
X155882446Y-111680127D01*
X155882445Y-111680127D01*
X155717701Y-111626598D01*
X155717699Y-111626597D01*
X155717698Y-111626597D01*
X155586271Y-111605781D01*
X155546611Y-111599500D01*
X155373389Y-111599500D01*
X155333728Y-111605781D01*
X155202302Y-111626597D01*
X155202299Y-111626598D01*
X155042923Y-111678383D01*
X155037552Y-111680128D01*
X154883211Y-111758768D01*
X154836657Y-111792592D01*
X154743072Y-111860586D01*
X154743070Y-111860588D01*
X154743069Y-111860588D01*
X154620588Y-111983069D01*
X154620588Y-111983070D01*
X154620586Y-111983072D01*
X154583506Y-112034108D01*
X154518768Y-112123211D01*
X154440128Y-112277552D01*
X154386597Y-112442302D01*
X154361542Y-112600499D01*
X154359500Y-112613389D01*
X104200000Y-112613389D01*
X104200000Y-110607908D01*
X114499500Y-110607908D01*
X114499500Y-110739692D01*
X114529190Y-110850499D01*
X114533609Y-110866988D01*
X114533609Y-110866989D01*
X114574607Y-110938000D01*
X114591080Y-111005901D01*
X114574607Y-111062000D01*
X114533609Y-111133010D01*
X114533609Y-111133011D01*
X114533609Y-111133012D01*
X114533608Y-111133014D01*
X114525841Y-111162000D01*
X114499500Y-111260308D01*
X114499500Y-111392091D01*
X114533608Y-111519387D01*
X114565891Y-111575302D01*
X114599500Y-111633514D01*
X114692686Y-111726700D01*
X114806814Y-111792592D01*
X114934108Y-111826700D01*
X114934110Y-111826700D01*
X115065890Y-111826700D01*
X115065892Y-111826700D01*
X115193186Y-111792592D01*
X115307314Y-111726700D01*
X115400500Y-111633514D01*
X115466392Y-111519386D01*
X115500500Y-111392092D01*
X115500500Y-111260308D01*
X115466392Y-111133014D01*
X115425391Y-111061999D01*
X115408919Y-110994101D01*
X115425391Y-110938000D01*
X115466392Y-110866986D01*
X115500500Y-110739692D01*
X115500500Y-110684108D01*
X123949500Y-110684108D01*
X123949500Y-110815892D01*
X123982218Y-110938000D01*
X123983609Y-110943188D01*
X123983609Y-110943189D01*
X124038348Y-111038000D01*
X124054821Y-111105900D01*
X124038348Y-111162000D01*
X123983609Y-111256810D01*
X123983609Y-111256811D01*
X123983609Y-111256812D01*
X123983608Y-111256814D01*
X123949500Y-111384108D01*
X123949500Y-111515892D01*
X123982663Y-111639661D01*
X123983609Y-111643188D01*
X123983609Y-111643189D01*
X124048914Y-111756300D01*
X124065387Y-111824200D01*
X124048917Y-111880296D01*
X124033608Y-111906813D01*
X124033608Y-111906814D01*
X123999500Y-112034108D01*
X123999500Y-112165891D01*
X124033608Y-112293187D01*
X124066554Y-112350250D01*
X124099500Y-112407314D01*
X124192686Y-112500500D01*
X124262001Y-112540519D01*
X124306810Y-112566390D01*
X124306814Y-112566392D01*
X124434108Y-112600500D01*
X124434110Y-112600500D01*
X124565890Y-112600500D01*
X124565892Y-112600500D01*
X124693186Y-112566392D01*
X124693190Y-112566390D01*
X124705716Y-112559157D01*
X124737999Y-112540518D01*
X124805898Y-112524045D01*
X124862000Y-112540518D01*
X124877800Y-112549640D01*
X124906811Y-112566391D01*
X124906813Y-112566391D01*
X124906814Y-112566392D01*
X125034108Y-112600500D01*
X125034110Y-112600500D01*
X125165890Y-112600500D01*
X125165892Y-112600500D01*
X125293186Y-112566392D01*
X125407314Y-112500500D01*
X125500500Y-112407314D01*
X125566392Y-112293186D01*
X125600500Y-112165892D01*
X125600500Y-112034108D01*
X125566392Y-111906814D01*
X125566391Y-111906813D01*
X125566391Y-111906811D01*
X125539702Y-111860586D01*
X125526084Y-111836999D01*
X125509611Y-111769102D01*
X125526084Y-111713001D01*
X125566392Y-111643186D01*
X125600500Y-111515892D01*
X125600500Y-111384108D01*
X125566392Y-111256814D01*
X125500500Y-111142686D01*
X125500498Y-111142684D01*
X125497217Y-111137001D01*
X125480744Y-111069101D01*
X125497217Y-111012999D01*
X125500498Y-111007315D01*
X125500500Y-111007314D01*
X125566392Y-110893186D01*
X125600500Y-110765892D01*
X125600500Y-110634108D01*
X125566392Y-110506814D01*
X125500500Y-110392686D01*
X125407314Y-110299500D01*
X125315708Y-110246611D01*
X125293187Y-110233608D01*
X125223821Y-110215022D01*
X125165892Y-110199500D01*
X125034108Y-110199500D01*
X124906812Y-110233608D01*
X124793697Y-110298915D01*
X124725797Y-110315387D01*
X124669700Y-110298915D01*
X124643190Y-110283610D01*
X124643188Y-110283609D01*
X124643186Y-110283608D01*
X124515892Y-110249500D01*
X124384108Y-110249500D01*
X124256812Y-110283608D01*
X124142686Y-110349500D01*
X124142683Y-110349502D01*
X124049502Y-110442683D01*
X124049500Y-110442686D01*
X123983608Y-110556812D01*
X123969917Y-110607910D01*
X123949500Y-110684108D01*
X115500500Y-110684108D01*
X115500500Y-110607908D01*
X115466392Y-110480614D01*
X115463801Y-110476127D01*
X115445917Y-110445150D01*
X115400500Y-110366486D01*
X115307314Y-110273300D01*
X115225087Y-110225826D01*
X115193187Y-110207408D01*
X115113506Y-110186058D01*
X115065892Y-110173300D01*
X114934108Y-110173300D01*
X114806812Y-110207408D01*
X114692686Y-110273300D01*
X114692683Y-110273302D01*
X114599502Y-110366483D01*
X114599500Y-110366486D01*
X114533608Y-110480612D01*
X114507520Y-110577977D01*
X114499500Y-110607908D01*
X104200000Y-110607908D01*
X104200000Y-103364767D01*
X106168841Y-103364767D01*
X106168841Y-103496550D01*
X106202949Y-103623846D01*
X106212945Y-103641159D01*
X106268841Y-103737973D01*
X106362027Y-103831159D01*
X106476155Y-103897051D01*
X106603449Y-103931159D01*
X106603451Y-103931159D01*
X106735231Y-103931159D01*
X106735233Y-103931159D01*
X106862527Y-103897051D01*
X106976655Y-103831159D01*
X107069841Y-103737973D01*
X107135733Y-103623845D01*
X107156957Y-103544634D01*
X107193319Y-103484977D01*
X107244633Y-103456957D01*
X107323845Y-103435733D01*
X107437973Y-103369841D01*
X107483706Y-103324108D01*
X113173300Y-103324108D01*
X113173300Y-103455892D01*
X113190354Y-103519539D01*
X113207408Y-103583187D01*
X113230883Y-103623846D01*
X113273300Y-103697314D01*
X113366486Y-103790500D01*
X113480614Y-103856392D01*
X113607908Y-103890500D01*
X113607910Y-103890500D01*
X113739690Y-103890500D01*
X113739692Y-103890500D01*
X113866986Y-103856392D01*
X113938000Y-103815391D01*
X114005899Y-103798919D01*
X114061999Y-103815391D01*
X114133014Y-103856392D01*
X114260308Y-103890500D01*
X114260310Y-103890500D01*
X114392090Y-103890500D01*
X114392092Y-103890500D01*
X114519386Y-103856392D01*
X114633514Y-103790500D01*
X114726700Y-103697314D01*
X114792592Y-103583186D01*
X114826700Y-103455892D01*
X114826700Y-103324108D01*
X114792592Y-103196814D01*
X114726700Y-103082686D01*
X114633514Y-102989500D01*
X114553050Y-102943044D01*
X114519387Y-102923608D01*
X114444151Y-102903449D01*
X114392092Y-102889500D01*
X114260308Y-102889500D01*
X114133014Y-102923608D01*
X114133013Y-102923608D01*
X114133011Y-102923609D01*
X114133010Y-102923609D01*
X114062000Y-102964607D01*
X113994099Y-102981080D01*
X113938000Y-102964607D01*
X113866989Y-102923609D01*
X113866986Y-102923608D01*
X113739692Y-102889500D01*
X113607908Y-102889500D01*
X113480612Y-102923608D01*
X113366486Y-102989500D01*
X113366483Y-102989502D01*
X113273302Y-103082683D01*
X113273300Y-103082686D01*
X113207408Y-103196812D01*
X113191300Y-103256929D01*
X113173300Y-103324108D01*
X107483706Y-103324108D01*
X107531159Y-103276655D01*
X107597051Y-103162527D01*
X107631159Y-103035233D01*
X107631159Y-102903449D01*
X107597051Y-102776155D01*
X107560848Y-102713449D01*
X115708841Y-102713449D01*
X115708841Y-102845232D01*
X115742949Y-102972528D01*
X115763652Y-103008386D01*
X115808841Y-103086655D01*
X115902027Y-103179841D01*
X116016155Y-103245733D01*
X116095363Y-103266956D01*
X116155022Y-103303319D01*
X116183042Y-103354635D01*
X116197028Y-103406832D01*
X116204267Y-103433846D01*
X116225049Y-103469841D01*
X116270159Y-103547973D01*
X116363345Y-103641159D01*
X116477473Y-103707051D01*
X116604767Y-103741159D01*
X116604769Y-103741159D01*
X116736549Y-103741159D01*
X116736551Y-103741159D01*
X116863845Y-103707051D01*
X116977973Y-103641159D01*
X117071159Y-103547973D01*
X117137051Y-103433845D01*
X117171159Y-103306551D01*
X117171159Y-103174767D01*
X117137051Y-103047473D01*
X117071159Y-102933345D01*
X116977973Y-102840159D01*
X116904427Y-102797697D01*
X116863846Y-102774267D01*
X116836832Y-102767028D01*
X116784635Y-102753043D01*
X116724976Y-102716679D01*
X116696956Y-102665364D01*
X116675733Y-102586155D01*
X116609841Y-102472027D01*
X116516655Y-102378841D01*
X116442463Y-102336006D01*
X116402528Y-102312949D01*
X116338880Y-102295895D01*
X116275233Y-102278841D01*
X116143449Y-102278841D01*
X116016153Y-102312949D01*
X115902027Y-102378841D01*
X115902024Y-102378843D01*
X115808843Y-102472024D01*
X115808841Y-102472027D01*
X115742949Y-102586153D01*
X115708841Y-102713449D01*
X107560848Y-102713449D01*
X107531159Y-102662027D01*
X107437973Y-102568841D01*
X107380909Y-102535895D01*
X107323846Y-102502949D01*
X107208441Y-102472027D01*
X107196551Y-102468841D01*
X107064767Y-102468841D01*
X106937471Y-102502949D01*
X106823345Y-102568841D01*
X106823342Y-102568843D01*
X106730161Y-102662024D01*
X106730159Y-102662027D01*
X106664267Y-102776153D01*
X106643044Y-102855362D01*
X106606679Y-102915023D01*
X106555362Y-102943043D01*
X106530180Y-102949790D01*
X106476153Y-102964267D01*
X106362027Y-103030159D01*
X106362024Y-103030161D01*
X106268843Y-103123342D01*
X106268841Y-103123345D01*
X106202949Y-103237471D01*
X106168841Y-103364767D01*
X104200000Y-103364767D01*
X104200000Y-99954108D01*
X108883300Y-99954108D01*
X108883300Y-100085892D01*
X108883493Y-100086611D01*
X108917408Y-100213187D01*
X108943109Y-100257701D01*
X108983300Y-100327314D01*
X109076486Y-100420500D01*
X109190614Y-100486392D01*
X109317908Y-100520500D01*
X109317910Y-100520500D01*
X109449690Y-100520500D01*
X109449692Y-100520500D01*
X109576986Y-100486392D01*
X109648000Y-100445391D01*
X109715899Y-100428919D01*
X109771999Y-100445391D01*
X109843014Y-100486392D01*
X109970308Y-100520500D01*
X109970310Y-100520500D01*
X110102090Y-100520500D01*
X110102092Y-100520500D01*
X110229386Y-100486392D01*
X110343514Y-100420500D01*
X110436700Y-100327314D01*
X110502592Y-100213186D01*
X110536700Y-100085892D01*
X110536700Y-99954108D01*
X110502592Y-99826814D01*
X110436700Y-99712686D01*
X110343514Y-99619500D01*
X110286450Y-99586554D01*
X110229387Y-99553608D01*
X110165739Y-99536554D01*
X110102092Y-99519500D01*
X109970308Y-99519500D01*
X109843014Y-99553608D01*
X109843013Y-99553608D01*
X109843011Y-99553609D01*
X109843010Y-99553609D01*
X109772000Y-99594607D01*
X109704099Y-99611080D01*
X109648000Y-99594607D01*
X109576989Y-99553609D01*
X109576986Y-99553608D01*
X109449692Y-99519500D01*
X109317908Y-99519500D01*
X109190612Y-99553608D01*
X109076486Y-99619500D01*
X109076483Y-99619502D01*
X108983302Y-99712683D01*
X108983300Y-99712686D01*
X108917408Y-99826812D01*
X108892305Y-99920499D01*
X108883300Y-99954108D01*
X104200000Y-99954108D01*
X104200000Y-96901639D01*
X115667159Y-96901639D01*
X115667392Y-96974354D01*
X115754435Y-97566246D01*
X115849500Y-98212684D01*
X115849500Y-98315892D01*
X115883140Y-98441442D01*
X115884186Y-98448554D01*
X115884185Y-98448556D01*
X115893646Y-98512886D01*
X115893646Y-98512887D01*
X115905673Y-98561256D01*
X115905675Y-98561263D01*
X115905676Y-98561265D01*
X115921799Y-98606639D01*
X115921801Y-98606643D01*
X115942990Y-98651755D01*
X121966343Y-108772964D01*
X121995360Y-108821721D01*
X122029111Y-108866427D01*
X122029114Y-108866430D01*
X122029117Y-108866434D01*
X122038863Y-108876760D01*
X122066204Y-108905728D01*
X122066209Y-108905732D01*
X122066214Y-108905738D01*
X122066219Y-108905743D01*
X122087073Y-108925485D01*
X122087081Y-108925491D01*
X122174297Y-108973749D01*
X122174300Y-108973750D01*
X122174307Y-108973754D01*
X122240867Y-108995004D01*
X122312587Y-109007037D01*
X127590760Y-109130743D01*
X127657319Y-109151993D01*
X127701824Y-109205855D01*
X127711781Y-109250458D01*
X127740543Y-110089006D01*
X127747201Y-110138845D01*
X127758323Y-110186058D01*
X127758329Y-110186079D01*
X127758333Y-110186095D01*
X127763347Y-110203777D01*
X127764602Y-110208202D01*
X127813928Y-110294822D01*
X127813930Y-110294825D01*
X127813932Y-110294828D01*
X127831747Y-110315387D01*
X127859683Y-110347628D01*
X127859686Y-110347631D01*
X127859687Y-110347632D01*
X127892461Y-110379257D01*
X127980796Y-110425465D01*
X127980797Y-110425465D01*
X127980797Y-110425466D01*
X128025038Y-110438456D01*
X128047835Y-110445150D01*
X128047839Y-110445150D01*
X128047841Y-110445151D01*
X128059472Y-110446823D01*
X128119820Y-110455500D01*
X128119821Y-110455500D01*
X130376000Y-110455500D01*
X130430313Y-110449661D01*
X130481824Y-110438455D01*
X130508198Y-110431219D01*
X130575871Y-110392683D01*
X130594818Y-110381894D01*
X130594819Y-110381892D01*
X130594828Y-110381888D01*
X130647632Y-110336133D01*
X130679257Y-110303359D01*
X130725465Y-110215024D01*
X130727470Y-110208198D01*
X130734066Y-110185731D01*
X130745150Y-110147985D01*
X130755500Y-110076000D01*
X130755500Y-101274604D01*
X141125155Y-101274604D01*
X141125155Y-104426604D01*
X141130862Y-104480305D01*
X141141814Y-104531251D01*
X141141817Y-104531262D01*
X141141818Y-104531265D01*
X141146175Y-104547378D01*
X141148796Y-104557067D01*
X141148797Y-104557071D01*
X141197698Y-104643928D01*
X141197700Y-104643932D01*
X141209386Y-104657552D01*
X141243199Y-104696961D01*
X141275819Y-104728746D01*
X141275821Y-104728747D01*
X141275822Y-104728748D01*
X141327185Y-104755935D01*
X141363928Y-104775385D01*
X141430871Y-104795397D01*
X141430874Y-104795397D01*
X141430876Y-104795398D01*
X141481550Y-104802936D01*
X141502804Y-104806098D01*
X144021105Y-104818382D01*
X144088048Y-104838394D01*
X144133544Y-104891420D01*
X144144500Y-104942381D01*
X144144500Y-106726470D01*
X144124815Y-106793509D01*
X144072011Y-106839264D01*
X144059712Y-106844107D01*
X143503963Y-107029357D01*
X143491183Y-107034000D01*
X143478870Y-107038849D01*
X143405173Y-107083485D01*
X143405166Y-107083490D01*
X143352379Y-107129230D01*
X143352374Y-107129234D01*
X143320743Y-107162014D01*
X143274534Y-107250351D01*
X143274533Y-107250351D01*
X143254851Y-107317383D01*
X143254848Y-107317395D01*
X143244500Y-107389372D01*
X143244500Y-111876002D01*
X143250338Y-111930312D01*
X143261543Y-111981818D01*
X143261545Y-111981824D01*
X143263957Y-111990615D01*
X143268779Y-112008192D01*
X143268783Y-112008203D01*
X143318105Y-112094818D01*
X143318110Y-112094825D01*
X143318112Y-112094828D01*
X143342706Y-112123211D01*
X143363863Y-112147628D01*
X143363866Y-112147631D01*
X143363867Y-112147632D01*
X143396641Y-112179257D01*
X143484976Y-112225465D01*
X143484977Y-112225465D01*
X143484977Y-112225466D01*
X143529218Y-112238456D01*
X143552015Y-112245150D01*
X143552019Y-112245150D01*
X143552021Y-112245151D01*
X143563652Y-112246823D01*
X143624000Y-112255500D01*
X143624001Y-112255500D01*
X145076000Y-112255500D01*
X145130313Y-112249661D01*
X145181824Y-112238455D01*
X145208198Y-112231219D01*
X145237074Y-112214775D01*
X145294818Y-112181894D01*
X145294819Y-112181892D01*
X145294828Y-112181888D01*
X145347632Y-112136133D01*
X145379257Y-112103359D01*
X145425465Y-112015024D01*
X145427470Y-112008198D01*
X145435215Y-111981818D01*
X145445150Y-111947985D01*
X145455500Y-111876000D01*
X145455500Y-110284108D01*
X148649500Y-110284108D01*
X148649500Y-110415892D01*
X148657339Y-110445148D01*
X148683608Y-110543187D01*
X148703852Y-110578250D01*
X148749500Y-110657314D01*
X148842686Y-110750500D01*
X148956814Y-110816392D01*
X149084108Y-110850500D01*
X149084110Y-110850500D01*
X149215890Y-110850500D01*
X149215892Y-110850500D01*
X149343186Y-110816392D01*
X149457314Y-110750500D01*
X149550500Y-110657314D01*
X149616392Y-110543186D01*
X149650500Y-110415892D01*
X149650500Y-110284108D01*
X149616392Y-110156814D01*
X149616390Y-110156810D01*
X149601211Y-110130519D01*
X149601210Y-110130518D01*
X149599189Y-110127018D01*
X149568226Y-110073389D01*
X154359500Y-110073389D01*
X154359500Y-110246611D01*
X154365360Y-110283608D01*
X154382635Y-110392683D01*
X154386598Y-110417701D01*
X154440127Y-110582445D01*
X154518768Y-110736788D01*
X154620586Y-110876928D01*
X154743072Y-110999414D01*
X154883212Y-111101232D01*
X155037555Y-111179873D01*
X155202299Y-111233402D01*
X155373389Y-111260500D01*
X155373390Y-111260500D01*
X155546610Y-111260500D01*
X155546611Y-111260500D01*
X155717701Y-111233402D01*
X155882445Y-111179873D01*
X156036788Y-111101232D01*
X156176928Y-110999414D01*
X156299414Y-110876928D01*
X156401232Y-110736788D01*
X156479873Y-110582445D01*
X156480896Y-110579294D01*
X156481610Y-110578250D01*
X156481734Y-110577952D01*
X156481796Y-110577977D01*
X156520327Y-110521618D01*
X156584683Y-110494415D01*
X156653530Y-110506323D01*
X156705011Y-110553562D01*
X156716760Y-110579287D01*
X156748904Y-110678217D01*
X156845375Y-110867550D01*
X156884728Y-110921716D01*
X157517037Y-110289408D01*
X157534075Y-110352993D01*
X157599901Y-110467007D01*
X157692993Y-110560099D01*
X157807007Y-110625925D01*
X157870590Y-110642962D01*
X157238282Y-111275269D01*
X157238282Y-111275270D01*
X157292449Y-111314624D01*
X157481784Y-111411096D01*
X157580711Y-111443239D01*
X157638387Y-111482676D01*
X157665586Y-111547034D01*
X157653672Y-111615881D01*
X157606428Y-111667357D01*
X157580722Y-111679097D01*
X157579522Y-111679487D01*
X157577550Y-111680128D01*
X157423211Y-111758768D01*
X157376657Y-111792592D01*
X157283072Y-111860586D01*
X157283070Y-111860588D01*
X157283069Y-111860588D01*
X157160588Y-111983069D01*
X157160588Y-111983070D01*
X157160586Y-111983072D01*
X157123506Y-112034108D01*
X157058768Y-112123211D01*
X156980128Y-112277552D01*
X156926597Y-112442302D01*
X156901542Y-112600499D01*
X156899500Y-112613389D01*
X156899500Y-112786611D01*
X156907677Y-112838239D01*
X156912996Y-112871825D01*
X156926598Y-112957701D01*
X156980127Y-113122445D01*
X157058768Y-113276788D01*
X157160586Y-113416928D01*
X157283072Y-113539414D01*
X157423212Y-113641232D01*
X157577555Y-113719873D01*
X157580708Y-113720897D01*
X157581752Y-113721611D01*
X157582048Y-113721734D01*
X157582022Y-113721795D01*
X157638383Y-113760330D01*
X157665585Y-113824688D01*
X157653674Y-113893535D01*
X157606433Y-113945013D01*
X157580712Y-113956760D01*
X157481783Y-113988904D01*
X157292439Y-114085380D01*
X157238282Y-114124727D01*
X157238282Y-114124728D01*
X157870591Y-114757037D01*
X157807007Y-114774075D01*
X157692993Y-114839901D01*
X157599901Y-114932993D01*
X157534075Y-115047007D01*
X157517037Y-115110591D01*
X156884728Y-114478282D01*
X156884727Y-114478282D01*
X156845380Y-114532439D01*
X156748904Y-114721783D01*
X156716760Y-114820712D01*
X156677322Y-114878388D01*
X156612964Y-114905586D01*
X156544117Y-114893671D01*
X156492642Y-114846427D01*
X156480898Y-114820712D01*
X156479873Y-114817555D01*
X156401232Y-114663212D01*
X156299414Y-114523072D01*
X156176928Y-114400586D01*
X156036788Y-114298768D01*
X155882445Y-114220127D01*
X155717701Y-114166598D01*
X155717699Y-114166597D01*
X155717698Y-114166597D01*
X155586271Y-114145781D01*
X155546611Y-114139500D01*
X155373389Y-114139500D01*
X155333728Y-114145781D01*
X155202302Y-114166597D01*
X155037552Y-114220128D01*
X154883211Y-114298768D01*
X154803256Y-114356859D01*
X154743072Y-114400586D01*
X154743070Y-114400588D01*
X154743069Y-114400588D01*
X154620588Y-114523069D01*
X154620588Y-114523070D01*
X154620586Y-114523072D01*
X154576859Y-114583256D01*
X154518768Y-114663211D01*
X154440128Y-114817552D01*
X154386597Y-114982302D01*
X154376349Y-115047007D01*
X154359500Y-115153389D01*
X154359500Y-115326611D01*
X154386598Y-115497701D01*
X154440127Y-115662445D01*
X154518768Y-115816788D01*
X154620586Y-115956928D01*
X154743072Y-116079414D01*
X154883212Y-116181232D01*
X155037555Y-116259873D01*
X155202299Y-116313402D01*
X155373389Y-116340500D01*
X155373390Y-116340500D01*
X155546610Y-116340500D01*
X155546611Y-116340500D01*
X155717701Y-116313402D01*
X155882445Y-116259873D01*
X156036788Y-116181232D01*
X156176928Y-116079414D01*
X156299414Y-115956928D01*
X156401232Y-115816788D01*
X156479873Y-115662445D01*
X156480896Y-115659294D01*
X156481610Y-115658250D01*
X156481734Y-115657952D01*
X156481796Y-115657977D01*
X156520327Y-115601618D01*
X156584683Y-115574415D01*
X156653530Y-115586323D01*
X156705011Y-115633562D01*
X156716760Y-115659287D01*
X156748904Y-115758217D01*
X156845375Y-115947550D01*
X156884728Y-116001716D01*
X157517037Y-115369408D01*
X157534075Y-115432993D01*
X157599901Y-115547007D01*
X157692993Y-115640099D01*
X157807007Y-115705925D01*
X157870590Y-115722962D01*
X157238282Y-116355269D01*
X157238282Y-116355270D01*
X157292449Y-116394624D01*
X157481784Y-116491096D01*
X157580711Y-116523239D01*
X157638387Y-116562676D01*
X157665586Y-116627034D01*
X157653672Y-116695881D01*
X157606428Y-116747357D01*
X157580722Y-116759097D01*
X157579522Y-116759487D01*
X157577550Y-116760128D01*
X157423211Y-116838768D01*
X157343256Y-116896859D01*
X157283072Y-116940586D01*
X157283070Y-116940588D01*
X157283069Y-116940588D01*
X157160588Y-117063069D01*
X157160588Y-117063070D01*
X157160586Y-117063072D01*
X157116859Y-117123256D01*
X157058768Y-117203211D01*
X156980128Y-117357552D01*
X156926597Y-117522302D01*
X156899500Y-117693389D01*
X156899500Y-117866610D01*
X156921705Y-118006812D01*
X156926598Y-118037701D01*
X156957923Y-118134110D01*
X156980128Y-118202447D01*
X156986978Y-118215891D01*
X157058768Y-118356788D01*
X157160586Y-118496928D01*
X157283072Y-118619414D01*
X157423212Y-118721232D01*
X157577555Y-118799873D01*
X157742299Y-118853402D01*
X157913389Y-118880500D01*
X157913390Y-118880500D01*
X158086610Y-118880500D01*
X158086611Y-118880500D01*
X158257701Y-118853402D01*
X158422445Y-118799873D01*
X158576788Y-118721232D01*
X158716928Y-118619414D01*
X158839414Y-118496928D01*
X158941232Y-118356788D01*
X159019873Y-118202445D01*
X159073402Y-118037701D01*
X159100500Y-117866611D01*
X159100500Y-117693389D01*
X159073402Y-117522299D01*
X159019873Y-117357555D01*
X158941232Y-117203212D01*
X158839414Y-117063072D01*
X158716928Y-116940586D01*
X158576788Y-116838768D01*
X158422446Y-116760127D01*
X158419284Y-116759100D01*
X158418236Y-116758383D01*
X158417952Y-116758266D01*
X158417976Y-116758206D01*
X158361609Y-116719661D01*
X158334413Y-116655302D01*
X158346329Y-116586456D01*
X158393574Y-116534981D01*
X158419288Y-116523239D01*
X158518215Y-116491096D01*
X158707554Y-116394622D01*
X158761716Y-116355270D01*
X158761717Y-116355270D01*
X158129408Y-115722962D01*
X158192993Y-115705925D01*
X158307007Y-115640099D01*
X158400099Y-115547007D01*
X158465925Y-115432993D01*
X158482962Y-115369408D01*
X159115270Y-116001717D01*
X159115270Y-116001716D01*
X159154622Y-115947554D01*
X159251095Y-115758217D01*
X159316757Y-115556130D01*
X159316757Y-115556127D01*
X159350000Y-115346246D01*
X159350000Y-115133753D01*
X159316757Y-114923872D01*
X159316757Y-114923869D01*
X159251095Y-114721782D01*
X159154624Y-114532449D01*
X159115270Y-114478282D01*
X159115269Y-114478282D01*
X158482962Y-115110590D01*
X158465925Y-115047007D01*
X158400099Y-114932993D01*
X158307007Y-114839901D01*
X158192993Y-114774075D01*
X158129409Y-114757037D01*
X158761716Y-114124728D01*
X158707550Y-114085375D01*
X158518217Y-113988904D01*
X158419287Y-113956760D01*
X158361611Y-113917323D01*
X158334413Y-113852964D01*
X158346328Y-113784118D01*
X158393572Y-113732642D01*
X158419290Y-113720897D01*
X158422445Y-113719873D01*
X158576788Y-113641232D01*
X158716928Y-113539414D01*
X158839414Y-113416928D01*
X158941232Y-113276788D01*
X159019873Y-113122445D01*
X159073402Y-112957701D01*
X159100500Y-112786611D01*
X159100500Y-112613389D01*
X159073402Y-112442299D01*
X159019873Y-112277555D01*
X158941232Y-112123212D01*
X158839414Y-111983072D01*
X158716928Y-111860586D01*
X158576788Y-111758768D01*
X158571944Y-111756300D01*
X158422446Y-111680127D01*
X158419284Y-111679100D01*
X158418236Y-111678383D01*
X158417952Y-111678266D01*
X158417976Y-111678206D01*
X158361609Y-111639661D01*
X158334413Y-111575302D01*
X158346329Y-111506456D01*
X158393574Y-111454981D01*
X158419288Y-111443239D01*
X158518215Y-111411096D01*
X158707554Y-111314622D01*
X158761716Y-111275270D01*
X158761717Y-111275270D01*
X158129408Y-110642962D01*
X158192993Y-110625925D01*
X158307007Y-110560099D01*
X158400099Y-110467007D01*
X158465925Y-110352993D01*
X158482962Y-110289408D01*
X159115270Y-110921717D01*
X159115270Y-110921716D01*
X159154622Y-110867554D01*
X159251095Y-110678217D01*
X159316757Y-110476130D01*
X159316757Y-110476127D01*
X159350000Y-110266246D01*
X159350000Y-110053753D01*
X159316757Y-109843872D01*
X159316757Y-109843869D01*
X159251095Y-109641782D01*
X159154624Y-109452449D01*
X159115270Y-109398282D01*
X159115269Y-109398282D01*
X158482962Y-110030590D01*
X158465925Y-109967007D01*
X158400099Y-109852993D01*
X158307007Y-109759901D01*
X158192993Y-109694075D01*
X158129409Y-109677037D01*
X158761716Y-109044728D01*
X158707550Y-109005375D01*
X158518217Y-108908904D01*
X158419287Y-108876760D01*
X158361611Y-108837323D01*
X158334413Y-108772964D01*
X158346328Y-108704118D01*
X158393572Y-108652642D01*
X158419290Y-108640897D01*
X158422445Y-108639873D01*
X158576788Y-108561232D01*
X158716928Y-108459414D01*
X158839414Y-108336928D01*
X158941232Y-108196788D01*
X159019873Y-108042445D01*
X159073402Y-107877701D01*
X159100500Y-107706611D01*
X159100500Y-107533389D01*
X159073402Y-107362299D01*
X159019873Y-107197555D01*
X158941232Y-107043212D01*
X158839414Y-106903072D01*
X158716928Y-106780586D01*
X158576788Y-106678768D01*
X158422445Y-106600127D01*
X158257701Y-106546598D01*
X158257699Y-106546597D01*
X158257698Y-106546597D01*
X158126271Y-106525781D01*
X158086611Y-106519500D01*
X157913389Y-106519500D01*
X157873728Y-106525781D01*
X157742302Y-106546597D01*
X157742299Y-106546598D01*
X157582923Y-106598383D01*
X157577552Y-106600128D01*
X157423211Y-106678768D01*
X157394674Y-106699502D01*
X157283072Y-106780586D01*
X157283070Y-106780588D01*
X157283069Y-106780588D01*
X157160588Y-106903069D01*
X157160588Y-106903070D01*
X157160586Y-106903072D01*
X157121540Y-106956814D01*
X157058768Y-107043211D01*
X156980128Y-107197552D01*
X156926597Y-107362302D01*
X156918328Y-107414513D01*
X156899500Y-107533389D01*
X156899500Y-107706611D01*
X156902588Y-107726109D01*
X156920045Y-107836331D01*
X156926598Y-107877701D01*
X156980127Y-108042445D01*
X157058768Y-108196788D01*
X157160586Y-108336928D01*
X157283072Y-108459414D01*
X157423212Y-108561232D01*
X157577555Y-108639873D01*
X157580708Y-108640897D01*
X157581752Y-108641611D01*
X157582048Y-108641734D01*
X157582022Y-108641795D01*
X157638383Y-108680330D01*
X157665585Y-108744688D01*
X157653674Y-108813535D01*
X157606433Y-108865013D01*
X157580712Y-108876760D01*
X157481783Y-108908904D01*
X157292439Y-109005380D01*
X157238282Y-109044727D01*
X157238282Y-109044728D01*
X157870591Y-109677037D01*
X157807007Y-109694075D01*
X157692993Y-109759901D01*
X157599901Y-109852993D01*
X157534075Y-109967007D01*
X157517037Y-110030591D01*
X156884728Y-109398282D01*
X156884727Y-109398282D01*
X156845380Y-109452439D01*
X156748904Y-109641783D01*
X156716760Y-109740712D01*
X156677322Y-109798388D01*
X156612964Y-109825586D01*
X156544117Y-109813671D01*
X156492642Y-109766427D01*
X156480898Y-109740712D01*
X156479873Y-109737555D01*
X156401232Y-109583212D01*
X156299414Y-109443072D01*
X156176928Y-109320586D01*
X156036788Y-109218768D01*
X155882445Y-109140127D01*
X155717701Y-109086598D01*
X155717699Y-109086597D01*
X155717698Y-109086597D01*
X155586271Y-109065781D01*
X155546611Y-109059500D01*
X155373389Y-109059500D01*
X155333728Y-109065781D01*
X155202302Y-109086597D01*
X155037552Y-109140128D01*
X154883211Y-109218768D01*
X154803256Y-109276859D01*
X154743072Y-109320586D01*
X154743070Y-109320588D01*
X154743069Y-109320588D01*
X154620588Y-109443069D01*
X154620588Y-109443070D01*
X154620586Y-109443072D01*
X154576859Y-109503256D01*
X154518768Y-109583211D01*
X154440128Y-109737552D01*
X154386597Y-109902302D01*
X154376349Y-109967007D01*
X154359500Y-110073389D01*
X149568226Y-110073389D01*
X149550500Y-110042686D01*
X149457314Y-109949500D01*
X149375560Y-109902299D01*
X149343187Y-109883608D01*
X149279539Y-109866554D01*
X149215892Y-109849500D01*
X149084108Y-109849500D01*
X148956812Y-109883608D01*
X148842686Y-109949500D01*
X148842683Y-109949502D01*
X148749502Y-110042683D01*
X148749500Y-110042686D01*
X148683608Y-110156812D01*
X148668011Y-110215022D01*
X148649500Y-110284108D01*
X145455500Y-110284108D01*
X145455500Y-108536070D01*
X145475185Y-108469031D01*
X145527989Y-108423276D01*
X145597147Y-108413332D01*
X145641499Y-108428682D01*
X145706814Y-108466392D01*
X145834108Y-108500500D01*
X145834110Y-108500500D01*
X145965890Y-108500500D01*
X145965892Y-108500500D01*
X146093186Y-108466392D01*
X146207314Y-108400500D01*
X146213116Y-108394697D01*
X146274436Y-108361211D01*
X146344128Y-108366192D01*
X146392997Y-108402322D01*
X146393753Y-108401567D01*
X146398795Y-108406609D01*
X146399175Y-108406890D01*
X146399499Y-108407312D01*
X146399500Y-108407314D01*
X146492686Y-108500500D01*
X146606814Y-108566392D01*
X146734108Y-108600500D01*
X146734110Y-108600500D01*
X146865890Y-108600500D01*
X146865892Y-108600500D01*
X146993186Y-108566392D01*
X147107314Y-108500500D01*
X147200500Y-108407314D01*
X147266392Y-108293186D01*
X147300500Y-108165892D01*
X147300500Y-108034108D01*
X147266392Y-107906814D01*
X147200500Y-107792686D01*
X147107314Y-107699500D01*
X146993186Y-107633608D01*
X146868585Y-107600221D01*
X146808926Y-107563857D01*
X146778397Y-107501010D01*
X146786692Y-107431634D01*
X146796715Y-107414513D01*
X146796436Y-107414352D01*
X146800498Y-107407315D01*
X146800500Y-107407314D01*
X146866392Y-107293186D01*
X146900500Y-107165892D01*
X146900500Y-107084108D01*
X148199500Y-107084108D01*
X148199500Y-107215891D01*
X148233608Y-107343187D01*
X148260275Y-107389374D01*
X148299500Y-107457314D01*
X148392686Y-107550500D01*
X148506814Y-107616392D01*
X148634108Y-107650500D01*
X148634110Y-107650500D01*
X148765890Y-107650500D01*
X148765892Y-107650500D01*
X148893186Y-107616392D01*
X149007314Y-107550500D01*
X149100500Y-107457314D01*
X149166392Y-107343186D01*
X149200500Y-107215892D01*
X149200500Y-107084108D01*
X149166392Y-106956814D01*
X149100500Y-106842686D01*
X149007314Y-106749500D01*
X148950250Y-106716554D01*
X148893187Y-106683608D01*
X148829539Y-106666554D01*
X148765892Y-106649500D01*
X148634108Y-106649500D01*
X148506812Y-106683608D01*
X148392686Y-106749500D01*
X148392683Y-106749502D01*
X148299502Y-106842683D01*
X148299500Y-106842686D01*
X148233608Y-106956812D01*
X148199500Y-107084108D01*
X146900500Y-107084108D01*
X146900500Y-107034108D01*
X146866392Y-106906814D01*
X146864230Y-106903070D01*
X146830188Y-106844107D01*
X146800500Y-106792686D01*
X146707314Y-106699500D01*
X146620712Y-106649500D01*
X146593187Y-106633608D01*
X146529539Y-106616554D01*
X146465892Y-106599500D01*
X146334108Y-106599500D01*
X146206812Y-106633608D01*
X146092686Y-106699500D01*
X146092683Y-106699502D01*
X145999502Y-106792683D01*
X145999500Y-106792686D01*
X145933608Y-106906812D01*
X145899500Y-107034108D01*
X145899500Y-107165891D01*
X145933608Y-107293186D01*
X145945336Y-107313499D01*
X145961809Y-107381399D01*
X145938957Y-107447426D01*
X145884036Y-107490617D01*
X145837949Y-107499500D01*
X145834108Y-107499500D01*
X145706814Y-107533608D01*
X145706813Y-107533608D01*
X145706811Y-107533609D01*
X145706810Y-107533609D01*
X145641500Y-107571316D01*
X145573599Y-107587789D01*
X145507572Y-107564936D01*
X145464382Y-107510015D01*
X145455500Y-107463929D01*
X145455500Y-107323872D01*
X145450890Y-107275566D01*
X145450890Y-107275561D01*
X145442021Y-107229509D01*
X145428357Y-107182937D01*
X145264369Y-106772966D01*
X145255500Y-106726914D01*
X145255500Y-104973753D01*
X154110000Y-104973753D01*
X154110000Y-105186246D01*
X154143242Y-105396127D01*
X154143242Y-105396130D01*
X154208904Y-105598217D01*
X154305375Y-105787550D01*
X154344728Y-105841716D01*
X154977037Y-105209408D01*
X154994075Y-105272993D01*
X155059901Y-105387007D01*
X155152993Y-105480099D01*
X155267007Y-105545925D01*
X155330590Y-105562962D01*
X154698282Y-106195269D01*
X154698282Y-106195270D01*
X154752449Y-106234624D01*
X154941784Y-106331096D01*
X155040711Y-106363239D01*
X155098387Y-106402676D01*
X155125586Y-106467034D01*
X155113672Y-106535881D01*
X155066428Y-106587357D01*
X155040722Y-106599097D01*
X155039522Y-106599487D01*
X155037550Y-106600128D01*
X154883211Y-106678768D01*
X154854674Y-106699502D01*
X154743072Y-106780586D01*
X154743070Y-106780588D01*
X154743069Y-106780588D01*
X154620588Y-106903069D01*
X154620588Y-106903070D01*
X154620586Y-106903072D01*
X154581540Y-106956814D01*
X154518768Y-107043211D01*
X154440128Y-107197552D01*
X154386597Y-107362302D01*
X154378328Y-107414513D01*
X154359500Y-107533389D01*
X154359500Y-107706611D01*
X154362588Y-107726109D01*
X154380045Y-107836331D01*
X154386598Y-107877701D01*
X154440127Y-108042445D01*
X154518768Y-108196788D01*
X154620586Y-108336928D01*
X154743072Y-108459414D01*
X154883212Y-108561232D01*
X155037555Y-108639873D01*
X155202299Y-108693402D01*
X155373389Y-108720500D01*
X155373390Y-108720500D01*
X155546610Y-108720500D01*
X155546611Y-108720500D01*
X155717701Y-108693402D01*
X155882445Y-108639873D01*
X156036788Y-108561232D01*
X156176928Y-108459414D01*
X156299414Y-108336928D01*
X156401232Y-108196788D01*
X156479873Y-108042445D01*
X156533402Y-107877701D01*
X156560500Y-107706611D01*
X156560500Y-107533389D01*
X156533402Y-107362299D01*
X156479873Y-107197555D01*
X156401232Y-107043212D01*
X156299414Y-106903072D01*
X156176928Y-106780586D01*
X156036788Y-106678768D01*
X155948156Y-106633608D01*
X155882446Y-106600127D01*
X155879284Y-106599100D01*
X155878236Y-106598383D01*
X155877952Y-106598266D01*
X155877976Y-106598206D01*
X155821609Y-106559661D01*
X155794413Y-106495302D01*
X155806329Y-106426456D01*
X155853574Y-106374981D01*
X155879288Y-106363239D01*
X155978215Y-106331096D01*
X156167554Y-106234622D01*
X156221716Y-106195270D01*
X156221717Y-106195270D01*
X155589408Y-105562962D01*
X155652993Y-105545925D01*
X155767007Y-105480099D01*
X155860099Y-105387007D01*
X155925925Y-105272993D01*
X155942962Y-105209408D01*
X156575270Y-105841717D01*
X156575270Y-105841716D01*
X156614622Y-105787554D01*
X156711096Y-105598215D01*
X156743239Y-105499288D01*
X156782676Y-105441612D01*
X156847034Y-105414413D01*
X156915880Y-105426327D01*
X156967357Y-105473571D01*
X156979100Y-105499284D01*
X156980127Y-105502446D01*
X156980128Y-105502447D01*
X157058768Y-105656788D01*
X157160586Y-105796928D01*
X157283072Y-105919414D01*
X157423212Y-106021232D01*
X157577555Y-106099873D01*
X157742299Y-106153402D01*
X157913389Y-106180500D01*
X157913390Y-106180500D01*
X158086610Y-106180500D01*
X158086611Y-106180500D01*
X158257701Y-106153402D01*
X158422445Y-106099873D01*
X158576788Y-106021232D01*
X158716928Y-105919414D01*
X158839414Y-105796928D01*
X158941232Y-105656788D01*
X159019873Y-105502445D01*
X159073402Y-105337701D01*
X159100500Y-105166611D01*
X159100500Y-104993389D01*
X159073402Y-104822299D01*
X159019873Y-104657555D01*
X158941232Y-104503212D01*
X158839414Y-104363072D01*
X158716928Y-104240586D01*
X158576788Y-104138768D01*
X158422445Y-104060127D01*
X158257701Y-104006598D01*
X158257699Y-104006597D01*
X158257698Y-104006597D01*
X158126271Y-103985781D01*
X158086611Y-103979500D01*
X157913389Y-103979500D01*
X157873728Y-103985781D01*
X157742302Y-104006597D01*
X157577552Y-104060128D01*
X157423211Y-104138768D01*
X157343256Y-104196859D01*
X157283072Y-104240586D01*
X157283070Y-104240588D01*
X157283069Y-104240588D01*
X157160588Y-104363069D01*
X157160588Y-104363070D01*
X157160586Y-104363072D01*
X157116859Y-104423256D01*
X157058768Y-104503211D01*
X156980128Y-104657550D01*
X156979099Y-104660720D01*
X156978381Y-104661769D01*
X156978266Y-104662048D01*
X156978207Y-104662023D01*
X156939657Y-104718393D01*
X156875297Y-104745587D01*
X156806451Y-104733668D01*
X156754979Y-104686420D01*
X156743239Y-104660711D01*
X156711096Y-104561784D01*
X156614624Y-104372449D01*
X156575270Y-104318282D01*
X156575269Y-104318282D01*
X155942962Y-104950590D01*
X155925925Y-104887007D01*
X155860099Y-104772993D01*
X155767007Y-104679901D01*
X155652993Y-104614075D01*
X155589409Y-104597037D01*
X156221716Y-103964728D01*
X156167550Y-103925375D01*
X155978217Y-103828904D01*
X155879287Y-103796760D01*
X155821611Y-103757323D01*
X155794413Y-103692964D01*
X155806328Y-103624118D01*
X155853572Y-103572642D01*
X155879290Y-103560897D01*
X155882445Y-103559873D01*
X156036788Y-103481232D01*
X156176928Y-103379414D01*
X156299414Y-103256928D01*
X156401232Y-103116788D01*
X156479873Y-102962445D01*
X156533402Y-102797701D01*
X156560500Y-102626611D01*
X156560500Y-102453389D01*
X156899500Y-102453389D01*
X156899500Y-102626611D01*
X156926598Y-102797701D01*
X156973823Y-102943044D01*
X156980128Y-102962447D01*
X157017214Y-103035233D01*
X157058768Y-103116788D01*
X157160586Y-103256928D01*
X157283072Y-103379414D01*
X157423212Y-103481232D01*
X157577555Y-103559873D01*
X157742299Y-103613402D01*
X157913389Y-103640500D01*
X157913390Y-103640500D01*
X158086610Y-103640500D01*
X158086611Y-103640500D01*
X158257701Y-103613402D01*
X158422445Y-103559873D01*
X158576788Y-103481232D01*
X158716928Y-103379414D01*
X158839414Y-103256928D01*
X158941232Y-103116788D01*
X159019873Y-102962445D01*
X159073402Y-102797701D01*
X159100500Y-102626611D01*
X159100500Y-102453389D01*
X159073402Y-102282299D01*
X159019873Y-102117555D01*
X158941232Y-101963212D01*
X158839414Y-101823072D01*
X158716928Y-101700586D01*
X158576788Y-101598768D01*
X158422445Y-101520127D01*
X158257701Y-101466598D01*
X158257699Y-101466597D01*
X158257698Y-101466597D01*
X158126271Y-101445781D01*
X158086611Y-101439500D01*
X157913389Y-101439500D01*
X157873728Y-101445781D01*
X157742302Y-101466597D01*
X157577552Y-101520128D01*
X157423211Y-101598768D01*
X157343256Y-101656859D01*
X157283072Y-101700586D01*
X157283070Y-101700588D01*
X157283069Y-101700588D01*
X157160588Y-101823069D01*
X157160588Y-101823070D01*
X157160586Y-101823072D01*
X157116859Y-101883256D01*
X157058768Y-101963211D01*
X156980128Y-102117552D01*
X156926597Y-102282302D01*
X156915422Y-102352862D01*
X156899500Y-102453389D01*
X156560500Y-102453389D01*
X156533402Y-102282299D01*
X156479873Y-102117555D01*
X156401232Y-101963212D01*
X156299414Y-101823072D01*
X156176928Y-101700586D01*
X156036788Y-101598768D01*
X155882445Y-101520127D01*
X155717701Y-101466598D01*
X155717699Y-101466597D01*
X155717698Y-101466597D01*
X155586271Y-101445781D01*
X155546611Y-101439500D01*
X155373389Y-101439500D01*
X155333728Y-101445781D01*
X155202302Y-101466597D01*
X155037552Y-101520128D01*
X154883211Y-101598768D01*
X154803256Y-101656859D01*
X154743072Y-101700586D01*
X154743070Y-101700588D01*
X154743069Y-101700588D01*
X154620588Y-101823069D01*
X154620588Y-101823070D01*
X154620586Y-101823072D01*
X154576859Y-101883256D01*
X154518768Y-101963211D01*
X154440128Y-102117552D01*
X154386597Y-102282302D01*
X154375422Y-102352862D01*
X154359500Y-102453389D01*
X154359500Y-102626611D01*
X154386598Y-102797701D01*
X154433823Y-102943044D01*
X154440128Y-102962447D01*
X154477214Y-103035233D01*
X154518768Y-103116788D01*
X154620586Y-103256928D01*
X154743072Y-103379414D01*
X154883212Y-103481232D01*
X155037555Y-103559873D01*
X155040708Y-103560897D01*
X155041752Y-103561611D01*
X155042048Y-103561734D01*
X155042022Y-103561795D01*
X155098383Y-103600330D01*
X155125585Y-103664688D01*
X155113674Y-103733535D01*
X155066433Y-103785013D01*
X155040712Y-103796760D01*
X154941783Y-103828904D01*
X154752439Y-103925380D01*
X154698282Y-103964727D01*
X154698282Y-103964728D01*
X155330591Y-104597037D01*
X155267007Y-104614075D01*
X155152993Y-104679901D01*
X155059901Y-104772993D01*
X154994075Y-104887007D01*
X154977037Y-104950591D01*
X154344728Y-104318282D01*
X154344727Y-104318282D01*
X154305380Y-104372439D01*
X154208904Y-104561782D01*
X154143242Y-104763869D01*
X154143242Y-104763872D01*
X154110000Y-104973753D01*
X145255500Y-104973753D01*
X145255500Y-104949010D01*
X145275185Y-104881971D01*
X145327989Y-104836216D01*
X145380101Y-104825011D01*
X151504804Y-104854889D01*
X151559756Y-104849184D01*
X151611872Y-104837979D01*
X151638853Y-104830612D01*
X151725483Y-104781281D01*
X151778287Y-104735526D01*
X151809912Y-104702752D01*
X151856120Y-104614417D01*
X151856221Y-104614075D01*
X151871575Y-104561782D01*
X151875805Y-104547378D01*
X151886155Y-104475393D01*
X151886155Y-101323397D01*
X151880448Y-101269695D01*
X151869492Y-101218734D01*
X151862515Y-101192934D01*
X151862512Y-101192930D01*
X151862512Y-101192927D01*
X151813611Y-101106070D01*
X151813609Y-101106066D01*
X151785583Y-101073402D01*
X151768111Y-101053038D01*
X151735491Y-101021253D01*
X151735488Y-101021251D01*
X151735487Y-101021250D01*
X151647388Y-100974617D01*
X151647386Y-100974616D01*
X151647382Y-100974614D01*
X151607773Y-100962773D01*
X151580433Y-100954600D01*
X151508511Y-100943901D01*
X145951837Y-100916794D01*
X141506502Y-100895110D01*
X141506501Y-100895110D01*
X141506498Y-100895110D01*
X141451556Y-100900815D01*
X141451554Y-100900815D01*
X141451547Y-100900816D01*
X141451541Y-100900817D01*
X141451536Y-100900818D01*
X141399451Y-100912017D01*
X141399415Y-100912026D01*
X141372460Y-100919386D01*
X141372452Y-100919389D01*
X141285832Y-100968714D01*
X141285828Y-100968717D01*
X141233026Y-101014469D01*
X141201398Y-101047246D01*
X141155189Y-101135583D01*
X141155188Y-101135583D01*
X141135506Y-101202615D01*
X141135503Y-101202627D01*
X141125155Y-101274604D01*
X130755500Y-101274604D01*
X130755500Y-99913389D01*
X154359500Y-99913389D01*
X154359500Y-100086610D01*
X154379547Y-100213187D01*
X154386598Y-100257701D01*
X154440127Y-100422445D01*
X154518768Y-100576788D01*
X154620586Y-100716928D01*
X154743072Y-100839414D01*
X154883212Y-100941232D01*
X155037555Y-101019873D01*
X155202299Y-101073402D01*
X155373389Y-101100500D01*
X155373390Y-101100500D01*
X155546610Y-101100500D01*
X155546611Y-101100500D01*
X155717701Y-101073402D01*
X155882445Y-101019873D01*
X156036788Y-100941232D01*
X156176928Y-100839414D01*
X156299414Y-100716928D01*
X156401232Y-100576788D01*
X156479873Y-100422445D01*
X156533402Y-100257701D01*
X156560500Y-100086611D01*
X156560500Y-99913389D01*
X156533402Y-99742299D01*
X156479873Y-99577555D01*
X156401232Y-99423212D01*
X156299414Y-99283072D01*
X156176928Y-99160586D01*
X156036788Y-99058768D01*
X155882445Y-98980127D01*
X155717701Y-98926598D01*
X155717699Y-98926597D01*
X155717698Y-98926597D01*
X155586271Y-98905781D01*
X155546611Y-98899500D01*
X155373389Y-98899500D01*
X155333728Y-98905781D01*
X155202302Y-98926597D01*
X155202299Y-98926598D01*
X155042923Y-98978383D01*
X155037552Y-98980128D01*
X154883211Y-99058768D01*
X154809005Y-99112683D01*
X154743072Y-99160586D01*
X154743070Y-99160588D01*
X154743069Y-99160588D01*
X154620588Y-99283069D01*
X154620588Y-99283070D01*
X154620586Y-99283072D01*
X154618175Y-99286391D01*
X154518768Y-99423211D01*
X154440128Y-99577552D01*
X154386597Y-99742302D01*
X154359500Y-99913389D01*
X130755500Y-99913389D01*
X130755500Y-98754108D01*
X146519500Y-98754108D01*
X146519500Y-98885892D01*
X146530217Y-98925890D01*
X146553608Y-99013187D01*
X146579925Y-99058768D01*
X146619500Y-99127314D01*
X146712686Y-99220500D01*
X146781968Y-99260500D01*
X146821063Y-99283072D01*
X146826814Y-99286392D01*
X146954108Y-99320500D01*
X146954110Y-99320500D01*
X147085890Y-99320500D01*
X147085892Y-99320500D01*
X147213186Y-99286392D01*
X147299038Y-99236824D01*
X147366934Y-99220352D01*
X147432961Y-99243203D01*
X147448717Y-99256531D01*
X147452686Y-99260500D01*
X147566814Y-99326392D01*
X147694108Y-99360500D01*
X147694110Y-99360500D01*
X147825890Y-99360500D01*
X147825892Y-99360500D01*
X147953186Y-99326392D01*
X148067314Y-99260500D01*
X148160500Y-99167314D01*
X148226392Y-99053186D01*
X148260500Y-98925892D01*
X148260500Y-98794108D01*
X148226392Y-98666814D01*
X148160500Y-98552686D01*
X148067314Y-98459500D01*
X147998032Y-98419500D01*
X147953187Y-98393608D01*
X147889539Y-98376554D01*
X147825892Y-98359500D01*
X147694108Y-98359500D01*
X147566814Y-98393608D01*
X147566813Y-98393608D01*
X147566811Y-98393609D01*
X147566810Y-98393609D01*
X147480963Y-98443174D01*
X147413063Y-98459647D01*
X147347036Y-98436795D01*
X147331282Y-98423468D01*
X147327316Y-98419502D01*
X147327314Y-98419500D01*
X147270250Y-98386554D01*
X147213187Y-98353608D01*
X147149539Y-98336554D01*
X147085892Y-98319500D01*
X146954108Y-98319500D01*
X146826812Y-98353608D01*
X146712686Y-98419500D01*
X146712683Y-98419502D01*
X146619502Y-98512683D01*
X146619500Y-98512686D01*
X146553608Y-98626812D01*
X146542890Y-98666814D01*
X146519500Y-98754108D01*
X130755500Y-98754108D01*
X130755500Y-97304108D01*
X147399500Y-97304108D01*
X147399500Y-97435892D01*
X147405960Y-97460000D01*
X147433608Y-97563187D01*
X147455151Y-97600499D01*
X147499500Y-97677314D01*
X147592686Y-97770500D01*
X147706814Y-97836392D01*
X147834108Y-97870500D01*
X147834110Y-97870500D01*
X147965890Y-97870500D01*
X147965892Y-97870500D01*
X148093186Y-97836392D01*
X148207314Y-97770500D01*
X148300500Y-97677314D01*
X148366392Y-97563186D01*
X148400500Y-97435892D01*
X148400500Y-97304108D01*
X148366392Y-97176814D01*
X148300500Y-97062686D01*
X148271922Y-97034108D01*
X149699500Y-97034108D01*
X149699500Y-97165891D01*
X149733608Y-97293187D01*
X149739915Y-97304110D01*
X149799500Y-97407314D01*
X149892686Y-97500500D01*
X150006814Y-97566392D01*
X150134108Y-97600500D01*
X150134110Y-97600500D01*
X150265890Y-97600500D01*
X150265892Y-97600500D01*
X150393186Y-97566392D01*
X150507314Y-97500500D01*
X150600500Y-97407314D01*
X150620087Y-97373389D01*
X154359500Y-97373389D01*
X154359500Y-97546610D01*
X154380201Y-97677316D01*
X154386598Y-97717701D01*
X154440127Y-97882445D01*
X154518768Y-98036788D01*
X154620586Y-98176928D01*
X154743072Y-98299414D01*
X154883212Y-98401232D01*
X155037555Y-98479873D01*
X155202299Y-98533402D01*
X155373389Y-98560500D01*
X155373390Y-98560500D01*
X155546610Y-98560500D01*
X155546611Y-98560500D01*
X155717701Y-98533402D01*
X155882445Y-98479873D01*
X156036788Y-98401232D01*
X156176928Y-98299414D01*
X156299414Y-98176928D01*
X156401232Y-98036788D01*
X156479873Y-97882445D01*
X156480896Y-97879294D01*
X156481610Y-97878250D01*
X156481734Y-97877952D01*
X156481796Y-97877977D01*
X156520327Y-97821618D01*
X156584683Y-97794415D01*
X156653530Y-97806323D01*
X156705011Y-97853562D01*
X156716760Y-97879287D01*
X156748904Y-97978217D01*
X156845375Y-98167550D01*
X156884728Y-98221716D01*
X157517037Y-97589408D01*
X157534075Y-97652993D01*
X157599901Y-97767007D01*
X157692993Y-97860099D01*
X157807007Y-97925925D01*
X157870590Y-97942962D01*
X157238282Y-98575269D01*
X157238282Y-98575270D01*
X157292449Y-98614624D01*
X157481784Y-98711096D01*
X157580711Y-98743239D01*
X157638387Y-98782676D01*
X157665586Y-98847034D01*
X157653672Y-98915881D01*
X157606428Y-98967357D01*
X157580722Y-98979097D01*
X157579522Y-98979487D01*
X157577550Y-98980128D01*
X157423211Y-99058768D01*
X157349005Y-99112683D01*
X157283072Y-99160586D01*
X157283070Y-99160588D01*
X157283069Y-99160588D01*
X157160588Y-99283069D01*
X157160588Y-99283070D01*
X157160586Y-99283072D01*
X157158175Y-99286391D01*
X157058768Y-99423211D01*
X156980128Y-99577552D01*
X156926597Y-99742302D01*
X156899500Y-99913389D01*
X156899500Y-100086610D01*
X156919547Y-100213187D01*
X156926598Y-100257701D01*
X156980127Y-100422445D01*
X157058768Y-100576788D01*
X157160586Y-100716928D01*
X157283072Y-100839414D01*
X157423212Y-100941232D01*
X157577555Y-101019873D01*
X157742299Y-101073402D01*
X157913389Y-101100500D01*
X157913390Y-101100500D01*
X158086610Y-101100500D01*
X158086611Y-101100500D01*
X158257701Y-101073402D01*
X158422445Y-101019873D01*
X158576788Y-100941232D01*
X158716928Y-100839414D01*
X158839414Y-100716928D01*
X158941232Y-100576788D01*
X159019873Y-100422445D01*
X159073402Y-100257701D01*
X159100500Y-100086611D01*
X159100500Y-99913389D01*
X159073402Y-99742299D01*
X159019873Y-99577555D01*
X158941232Y-99423212D01*
X158839414Y-99283072D01*
X158716928Y-99160586D01*
X158576788Y-99058768D01*
X158560561Y-99050500D01*
X158422446Y-98980127D01*
X158419284Y-98979100D01*
X158418236Y-98978383D01*
X158417952Y-98978266D01*
X158417976Y-98978206D01*
X158361609Y-98939661D01*
X158334413Y-98875302D01*
X158346329Y-98806456D01*
X158393574Y-98754981D01*
X158419288Y-98743239D01*
X158518215Y-98711096D01*
X158707554Y-98614622D01*
X158761716Y-98575270D01*
X158761717Y-98575270D01*
X158129408Y-97942962D01*
X158192993Y-97925925D01*
X158307007Y-97860099D01*
X158400099Y-97767007D01*
X158465925Y-97652993D01*
X158482962Y-97589408D01*
X159115270Y-98221717D01*
X159115270Y-98221716D01*
X159154622Y-98167554D01*
X159251095Y-97978217D01*
X159316757Y-97776130D01*
X159316757Y-97776127D01*
X159350000Y-97566246D01*
X159350000Y-97353753D01*
X159316757Y-97143872D01*
X159316757Y-97143869D01*
X159251095Y-96941782D01*
X159154624Y-96752449D01*
X159115270Y-96698282D01*
X159115269Y-96698282D01*
X158482962Y-97330590D01*
X158465925Y-97267007D01*
X158400099Y-97152993D01*
X158307007Y-97059901D01*
X158192993Y-96994075D01*
X158129409Y-96977037D01*
X158761716Y-96344728D01*
X158707550Y-96305375D01*
X158518217Y-96208904D01*
X158419287Y-96176760D01*
X158361611Y-96137323D01*
X158334413Y-96072964D01*
X158346328Y-96004118D01*
X158393572Y-95952642D01*
X158419290Y-95940897D01*
X158422445Y-95939873D01*
X158576788Y-95861232D01*
X158716928Y-95759414D01*
X158839414Y-95636928D01*
X158941232Y-95496788D01*
X159019873Y-95342445D01*
X159073402Y-95177701D01*
X159100500Y-95006611D01*
X159100500Y-94833389D01*
X159073402Y-94662299D01*
X159019873Y-94497555D01*
X158941232Y-94343212D01*
X158839414Y-94203072D01*
X158716928Y-94080586D01*
X158576788Y-93978768D01*
X158422445Y-93900127D01*
X158257701Y-93846598D01*
X158257699Y-93846597D01*
X158257698Y-93846597D01*
X158126271Y-93825781D01*
X158086611Y-93819500D01*
X157913389Y-93819500D01*
X157873728Y-93825781D01*
X157742302Y-93846597D01*
X157577552Y-93900128D01*
X157423211Y-93978768D01*
X157343256Y-94036859D01*
X157283072Y-94080586D01*
X157283070Y-94080588D01*
X157283069Y-94080588D01*
X157160588Y-94203069D01*
X157160588Y-94203070D01*
X157160586Y-94203072D01*
X157116859Y-94263256D01*
X157058768Y-94343211D01*
X156980128Y-94497552D01*
X156926597Y-94662302D01*
X156899500Y-94833389D01*
X156899500Y-95006611D01*
X156926598Y-95177701D01*
X156980127Y-95342445D01*
X157058768Y-95496788D01*
X157160586Y-95636928D01*
X157283072Y-95759414D01*
X157423212Y-95861232D01*
X157577555Y-95939873D01*
X157580708Y-95940897D01*
X157581752Y-95941611D01*
X157582048Y-95941734D01*
X157582022Y-95941795D01*
X157638383Y-95980330D01*
X157665585Y-96044688D01*
X157653674Y-96113535D01*
X157606433Y-96165013D01*
X157580712Y-96176760D01*
X157481783Y-96208904D01*
X157292439Y-96305380D01*
X157238282Y-96344727D01*
X157238282Y-96344728D01*
X157870591Y-96977037D01*
X157807007Y-96994075D01*
X157692993Y-97059901D01*
X157599901Y-97152993D01*
X157534075Y-97267007D01*
X157517037Y-97330591D01*
X156884728Y-96698282D01*
X156884727Y-96698282D01*
X156845380Y-96752439D01*
X156748904Y-96941783D01*
X156716760Y-97040712D01*
X156677322Y-97098388D01*
X156612964Y-97125586D01*
X156544117Y-97113671D01*
X156492642Y-97066427D01*
X156480898Y-97040712D01*
X156479873Y-97037555D01*
X156401232Y-96883212D01*
X156299414Y-96743072D01*
X156176928Y-96620586D01*
X156036788Y-96518768D01*
X155882445Y-96440127D01*
X155717701Y-96386598D01*
X155717699Y-96386597D01*
X155717698Y-96386597D01*
X155586271Y-96365781D01*
X155546611Y-96359500D01*
X155373389Y-96359500D01*
X155333728Y-96365781D01*
X155202302Y-96386597D01*
X155037552Y-96440128D01*
X154883211Y-96518768D01*
X154838200Y-96551471D01*
X154743072Y-96620586D01*
X154743070Y-96620588D01*
X154743069Y-96620588D01*
X154620588Y-96743069D01*
X154620588Y-96743070D01*
X154620586Y-96743072D01*
X154605100Y-96764387D01*
X154518768Y-96883211D01*
X154440128Y-97037552D01*
X154386597Y-97202302D01*
X154359500Y-97373389D01*
X150620087Y-97373389D01*
X150666392Y-97293186D01*
X150700500Y-97165892D01*
X150700500Y-97034108D01*
X150666392Y-96906814D01*
X150600500Y-96792686D01*
X150507314Y-96699500D01*
X150450250Y-96666554D01*
X150393187Y-96633608D01*
X150329539Y-96616554D01*
X150265892Y-96599500D01*
X150134108Y-96599500D01*
X150006812Y-96633608D01*
X149892686Y-96699500D01*
X149892683Y-96699502D01*
X149799502Y-96792683D01*
X149799500Y-96792686D01*
X149733608Y-96906812D01*
X149699500Y-97034108D01*
X148271922Y-97034108D01*
X148207314Y-96969500D01*
X148150250Y-96936554D01*
X148093187Y-96903608D01*
X148017066Y-96883212D01*
X147965892Y-96869500D01*
X147834108Y-96869500D01*
X147706812Y-96903608D01*
X147592686Y-96969500D01*
X147592683Y-96969502D01*
X147499502Y-97062683D01*
X147499500Y-97062686D01*
X147433608Y-97176812D01*
X147402426Y-97293187D01*
X147399500Y-97304108D01*
X130755500Y-97304108D01*
X130755500Y-94833389D01*
X154359500Y-94833389D01*
X154359500Y-95006611D01*
X154386598Y-95177701D01*
X154440127Y-95342445D01*
X154518768Y-95496788D01*
X154620586Y-95636928D01*
X154743072Y-95759414D01*
X154883212Y-95861232D01*
X155037555Y-95939873D01*
X155202299Y-95993402D01*
X155373389Y-96020500D01*
X155373390Y-96020500D01*
X155546610Y-96020500D01*
X155546611Y-96020500D01*
X155717701Y-95993402D01*
X155882445Y-95939873D01*
X156036788Y-95861232D01*
X156176928Y-95759414D01*
X156299414Y-95636928D01*
X156401232Y-95496788D01*
X156479873Y-95342445D01*
X156533402Y-95177701D01*
X156560500Y-95006611D01*
X156560500Y-94833389D01*
X156533402Y-94662299D01*
X156479873Y-94497555D01*
X156401232Y-94343212D01*
X156299414Y-94203072D01*
X156176928Y-94080586D01*
X156036788Y-93978768D01*
X155882445Y-93900127D01*
X155717701Y-93846598D01*
X155717699Y-93846597D01*
X155717698Y-93846597D01*
X155586271Y-93825781D01*
X155546611Y-93819500D01*
X155373389Y-93819500D01*
X155333728Y-93825781D01*
X155202302Y-93846597D01*
X155037552Y-93900128D01*
X154883211Y-93978768D01*
X154803256Y-94036859D01*
X154743072Y-94080586D01*
X154743070Y-94080588D01*
X154743069Y-94080588D01*
X154620588Y-94203069D01*
X154620588Y-94203070D01*
X154620586Y-94203072D01*
X154576859Y-94263256D01*
X154518768Y-94343211D01*
X154440128Y-94497552D01*
X154386597Y-94662302D01*
X154359500Y-94833389D01*
X130755500Y-94833389D01*
X130755500Y-93734108D01*
X132449500Y-93734108D01*
X132449500Y-93865892D01*
X132466554Y-93929539D01*
X132483608Y-93993187D01*
X132516554Y-94050250D01*
X132549500Y-94107314D01*
X132642686Y-94200500D01*
X132756814Y-94266392D01*
X132884108Y-94300500D01*
X132884110Y-94300500D01*
X133015890Y-94300500D01*
X133015892Y-94300500D01*
X133143186Y-94266392D01*
X133257314Y-94200500D01*
X133350500Y-94107314D01*
X133416392Y-93993186D01*
X133450500Y-93865892D01*
X133450500Y-93734108D01*
X133416392Y-93606814D01*
X133350500Y-93492686D01*
X133257314Y-93399500D01*
X133200250Y-93366554D01*
X133143187Y-93333608D01*
X133079539Y-93316554D01*
X133015892Y-93299500D01*
X132884108Y-93299500D01*
X132756812Y-93333608D01*
X132642686Y-93399500D01*
X132642683Y-93399502D01*
X132549502Y-93492683D01*
X132549500Y-93492686D01*
X132483608Y-93606812D01*
X132449500Y-93734108D01*
X130755500Y-93734108D01*
X130755500Y-93027895D01*
X130765526Y-92979049D01*
X131059380Y-92293389D01*
X154359500Y-92293389D01*
X154359500Y-92466610D01*
X154385260Y-92629257D01*
X154386598Y-92637701D01*
X154440127Y-92802445D01*
X154518768Y-92956788D01*
X154620586Y-93096928D01*
X154743072Y-93219414D01*
X154883212Y-93321232D01*
X155037555Y-93399873D01*
X155202299Y-93453402D01*
X155373389Y-93480500D01*
X155373390Y-93480500D01*
X155546610Y-93480500D01*
X155546611Y-93480500D01*
X155717701Y-93453402D01*
X155882445Y-93399873D01*
X156036788Y-93321232D01*
X156176928Y-93219414D01*
X156299414Y-93096928D01*
X156401232Y-92956788D01*
X156479873Y-92802445D01*
X156533402Y-92637701D01*
X156560500Y-92466611D01*
X156560500Y-92293389D01*
X156533402Y-92122299D01*
X156479873Y-91957555D01*
X156401232Y-91803212D01*
X156299414Y-91663072D01*
X156176928Y-91540586D01*
X156036788Y-91438768D01*
X155882445Y-91360127D01*
X155717701Y-91306598D01*
X155717699Y-91306597D01*
X155717698Y-91306597D01*
X155586271Y-91285781D01*
X155546611Y-91279500D01*
X155373389Y-91279500D01*
X155333728Y-91285781D01*
X155202302Y-91306597D01*
X155202299Y-91306598D01*
X155042923Y-91358383D01*
X155037552Y-91360128D01*
X154883211Y-91438768D01*
X154803256Y-91496859D01*
X154743072Y-91540586D01*
X154743070Y-91540588D01*
X154743069Y-91540588D01*
X154620588Y-91663069D01*
X154620588Y-91663070D01*
X154620586Y-91663072D01*
X154576859Y-91723256D01*
X154518768Y-91803211D01*
X154440128Y-91957552D01*
X154386597Y-92122302D01*
X154359500Y-92293389D01*
X131059380Y-92293389D01*
X132147952Y-89753389D01*
X154359500Y-89753389D01*
X154359500Y-89926610D01*
X154378963Y-90049500D01*
X154386598Y-90097701D01*
X154440127Y-90262445D01*
X154518768Y-90416788D01*
X154620586Y-90556928D01*
X154743072Y-90679414D01*
X154883212Y-90781232D01*
X155037555Y-90859873D01*
X155202299Y-90913402D01*
X155373389Y-90940500D01*
X155373390Y-90940500D01*
X155546610Y-90940500D01*
X155546611Y-90940500D01*
X155717701Y-90913402D01*
X155882445Y-90859873D01*
X156036788Y-90781232D01*
X156176928Y-90679414D01*
X156299414Y-90556928D01*
X156401232Y-90416788D01*
X156479873Y-90262445D01*
X156480896Y-90259294D01*
X156481610Y-90258250D01*
X156481734Y-90257952D01*
X156481796Y-90257977D01*
X156520327Y-90201618D01*
X156584683Y-90174415D01*
X156653530Y-90186323D01*
X156705011Y-90233562D01*
X156716760Y-90259287D01*
X156748904Y-90358217D01*
X156845375Y-90547550D01*
X156884728Y-90601716D01*
X157517037Y-89969408D01*
X157534075Y-90032993D01*
X157599901Y-90147007D01*
X157692993Y-90240099D01*
X157807007Y-90305925D01*
X157870590Y-90322962D01*
X157238282Y-90955269D01*
X157238282Y-90955270D01*
X157292449Y-90994624D01*
X157481784Y-91091096D01*
X157580711Y-91123239D01*
X157638387Y-91162676D01*
X157665586Y-91227034D01*
X157653672Y-91295881D01*
X157606428Y-91347357D01*
X157580722Y-91359097D01*
X157579522Y-91359487D01*
X157577550Y-91360128D01*
X157423211Y-91438768D01*
X157343256Y-91496859D01*
X157283072Y-91540586D01*
X157283070Y-91540588D01*
X157283069Y-91540588D01*
X157160588Y-91663069D01*
X157160588Y-91663070D01*
X157160586Y-91663072D01*
X157116859Y-91723256D01*
X157058768Y-91803211D01*
X156980128Y-91957552D01*
X156926597Y-92122302D01*
X156899500Y-92293389D01*
X156899500Y-92466610D01*
X156925260Y-92629257D01*
X156926598Y-92637701D01*
X156980127Y-92802445D01*
X157058768Y-92956788D01*
X157160586Y-93096928D01*
X157283072Y-93219414D01*
X157423212Y-93321232D01*
X157577555Y-93399873D01*
X157742299Y-93453402D01*
X157913389Y-93480500D01*
X157913390Y-93480500D01*
X158086610Y-93480500D01*
X158086611Y-93480500D01*
X158257701Y-93453402D01*
X158422445Y-93399873D01*
X158576788Y-93321232D01*
X158716928Y-93219414D01*
X158839414Y-93096928D01*
X158941232Y-92956788D01*
X159019873Y-92802445D01*
X159073402Y-92637701D01*
X159100500Y-92466611D01*
X159100500Y-92293389D01*
X159073402Y-92122299D01*
X159019873Y-91957555D01*
X158941232Y-91803212D01*
X158839414Y-91663072D01*
X158716928Y-91540586D01*
X158576788Y-91438768D01*
X158501123Y-91400215D01*
X158422446Y-91360127D01*
X158419284Y-91359100D01*
X158418236Y-91358383D01*
X158417952Y-91358266D01*
X158417976Y-91358206D01*
X158361609Y-91319661D01*
X158334413Y-91255302D01*
X158346329Y-91186456D01*
X158393574Y-91134981D01*
X158419288Y-91123239D01*
X158518215Y-91091096D01*
X158707554Y-90994622D01*
X158761716Y-90955270D01*
X158761717Y-90955270D01*
X158129408Y-90322962D01*
X158192993Y-90305925D01*
X158307007Y-90240099D01*
X158400099Y-90147007D01*
X158465925Y-90032993D01*
X158482962Y-89969408D01*
X159115270Y-90601717D01*
X159115270Y-90601716D01*
X159154622Y-90547554D01*
X159251095Y-90358217D01*
X159316757Y-90156130D01*
X159316757Y-90156127D01*
X159350000Y-89946246D01*
X159350000Y-89733753D01*
X159316757Y-89523872D01*
X159316757Y-89523869D01*
X159251095Y-89321782D01*
X159154624Y-89132449D01*
X159115270Y-89078282D01*
X159115269Y-89078282D01*
X158482962Y-89710590D01*
X158465925Y-89647007D01*
X158400099Y-89532993D01*
X158307007Y-89439901D01*
X158192993Y-89374075D01*
X158129409Y-89357037D01*
X158761716Y-88724728D01*
X158707550Y-88685375D01*
X158518217Y-88588904D01*
X158419287Y-88556760D01*
X158361611Y-88517323D01*
X158334413Y-88452964D01*
X158346328Y-88384118D01*
X158393572Y-88332642D01*
X158419290Y-88320897D01*
X158422445Y-88319873D01*
X158576788Y-88241232D01*
X158716928Y-88139414D01*
X158839414Y-88016928D01*
X158941232Y-87876788D01*
X159019873Y-87722445D01*
X159073402Y-87557701D01*
X159100500Y-87386611D01*
X159100500Y-87213389D01*
X159073402Y-87042299D01*
X159019873Y-86877555D01*
X158941232Y-86723212D01*
X158839414Y-86583072D01*
X158716928Y-86460586D01*
X158576788Y-86358768D01*
X158422445Y-86280127D01*
X158257701Y-86226598D01*
X158257699Y-86226597D01*
X158257698Y-86226597D01*
X158126271Y-86205781D01*
X158086611Y-86199500D01*
X157913389Y-86199500D01*
X157873728Y-86205781D01*
X157742302Y-86226597D01*
X157742299Y-86226598D01*
X157582923Y-86278383D01*
X157577552Y-86280128D01*
X157423211Y-86358768D01*
X157343256Y-86416859D01*
X157283072Y-86460586D01*
X157283070Y-86460588D01*
X157283069Y-86460588D01*
X157160588Y-86583069D01*
X157160588Y-86583070D01*
X157160586Y-86583072D01*
X157116859Y-86643256D01*
X157058768Y-86723211D01*
X156980128Y-86877552D01*
X156926597Y-87042302D01*
X156899500Y-87213389D01*
X156899500Y-87386611D01*
X156926598Y-87557701D01*
X156964564Y-87674548D01*
X156980128Y-87722447D01*
X156981898Y-87725920D01*
X157058768Y-87876788D01*
X157160586Y-88016928D01*
X157283072Y-88139414D01*
X157423212Y-88241232D01*
X157577555Y-88319873D01*
X157580708Y-88320897D01*
X157581752Y-88321611D01*
X157582048Y-88321734D01*
X157582022Y-88321795D01*
X157638383Y-88360330D01*
X157665585Y-88424688D01*
X157653674Y-88493535D01*
X157606433Y-88545013D01*
X157580712Y-88556760D01*
X157481783Y-88588904D01*
X157292439Y-88685380D01*
X157238282Y-88724727D01*
X157238282Y-88724728D01*
X157870591Y-89357037D01*
X157807007Y-89374075D01*
X157692993Y-89439901D01*
X157599901Y-89532993D01*
X157534075Y-89647007D01*
X157517037Y-89710591D01*
X156884728Y-89078282D01*
X156884727Y-89078282D01*
X156845380Y-89132439D01*
X156748904Y-89321783D01*
X156716760Y-89420712D01*
X156677322Y-89478388D01*
X156612964Y-89505586D01*
X156544117Y-89493671D01*
X156492642Y-89446427D01*
X156480898Y-89420712D01*
X156479873Y-89417555D01*
X156401232Y-89263212D01*
X156299414Y-89123072D01*
X156176928Y-89000586D01*
X156036788Y-88898768D01*
X155882445Y-88820127D01*
X155717701Y-88766598D01*
X155717699Y-88766597D01*
X155717698Y-88766597D01*
X155586271Y-88745781D01*
X155546611Y-88739500D01*
X155373389Y-88739500D01*
X155333728Y-88745781D01*
X155202302Y-88766597D01*
X155037552Y-88820128D01*
X154883211Y-88898768D01*
X154803256Y-88956859D01*
X154743072Y-89000586D01*
X154743070Y-89000588D01*
X154743069Y-89000588D01*
X154620588Y-89123069D01*
X154620588Y-89123070D01*
X154620586Y-89123072D01*
X154576859Y-89183256D01*
X154518768Y-89263211D01*
X154440128Y-89417552D01*
X154386597Y-89582302D01*
X154359500Y-89753389D01*
X132147952Y-89753389D01*
X132974816Y-87824040D01*
X132990256Y-87774766D01*
X133000282Y-87725920D01*
X133005500Y-87674548D01*
X133005500Y-84653753D01*
X154110000Y-84653753D01*
X154110000Y-84866246D01*
X154143242Y-85076127D01*
X154143242Y-85076130D01*
X154208904Y-85278217D01*
X154305375Y-85467550D01*
X154344728Y-85521716D01*
X154977037Y-84889408D01*
X154994075Y-84952993D01*
X155059901Y-85067007D01*
X155152993Y-85160099D01*
X155267007Y-85225925D01*
X155330590Y-85242962D01*
X154698282Y-85875269D01*
X154698282Y-85875270D01*
X154752449Y-85914624D01*
X154941784Y-86011096D01*
X155040711Y-86043239D01*
X155098387Y-86082676D01*
X155125586Y-86147034D01*
X155113672Y-86215881D01*
X155066428Y-86267357D01*
X155040722Y-86279097D01*
X155039522Y-86279487D01*
X155037550Y-86280128D01*
X154883211Y-86358768D01*
X154803256Y-86416859D01*
X154743072Y-86460586D01*
X154743070Y-86460588D01*
X154743069Y-86460588D01*
X154620588Y-86583069D01*
X154620588Y-86583070D01*
X154620586Y-86583072D01*
X154576859Y-86643256D01*
X154518768Y-86723211D01*
X154440128Y-86877552D01*
X154386597Y-87042302D01*
X154359500Y-87213389D01*
X154359500Y-87386611D01*
X154386598Y-87557701D01*
X154424564Y-87674548D01*
X154440128Y-87722447D01*
X154441898Y-87725920D01*
X154518768Y-87876788D01*
X154620586Y-88016928D01*
X154743072Y-88139414D01*
X154883212Y-88241232D01*
X155037555Y-88319873D01*
X155202299Y-88373402D01*
X155373389Y-88400500D01*
X155373390Y-88400500D01*
X155546610Y-88400500D01*
X155546611Y-88400500D01*
X155717701Y-88373402D01*
X155882445Y-88319873D01*
X156036788Y-88241232D01*
X156176928Y-88139414D01*
X156299414Y-88016928D01*
X156401232Y-87876788D01*
X156479873Y-87722445D01*
X156533402Y-87557701D01*
X156560500Y-87386611D01*
X156560500Y-87213389D01*
X156533402Y-87042299D01*
X156479873Y-86877555D01*
X156401232Y-86723212D01*
X156299414Y-86583072D01*
X156176928Y-86460586D01*
X156036788Y-86358768D01*
X155882446Y-86280127D01*
X155879284Y-86279100D01*
X155878236Y-86278383D01*
X155877952Y-86278266D01*
X155877976Y-86278206D01*
X155821609Y-86239661D01*
X155794413Y-86175302D01*
X155806329Y-86106456D01*
X155853574Y-86054981D01*
X155879288Y-86043239D01*
X155978215Y-86011096D01*
X156167554Y-85914622D01*
X156221716Y-85875270D01*
X156221717Y-85875270D01*
X155589408Y-85242962D01*
X155652993Y-85225925D01*
X155767007Y-85160099D01*
X155860099Y-85067007D01*
X155925925Y-84952993D01*
X155942962Y-84889408D01*
X156575270Y-85521717D01*
X156575270Y-85521716D01*
X156614622Y-85467554D01*
X156711096Y-85278215D01*
X156743239Y-85179288D01*
X156782676Y-85121612D01*
X156847034Y-85094413D01*
X156915880Y-85106327D01*
X156967357Y-85153571D01*
X156979100Y-85179284D01*
X156980127Y-85182446D01*
X156980128Y-85182447D01*
X157058768Y-85336788D01*
X157160586Y-85476928D01*
X157283072Y-85599414D01*
X157423212Y-85701232D01*
X157577555Y-85779873D01*
X157742299Y-85833402D01*
X157913389Y-85860500D01*
X157913390Y-85860500D01*
X158086610Y-85860500D01*
X158086611Y-85860500D01*
X158257701Y-85833402D01*
X158422445Y-85779873D01*
X158576788Y-85701232D01*
X158716928Y-85599414D01*
X158839414Y-85476928D01*
X158941232Y-85336788D01*
X159019873Y-85182445D01*
X159073402Y-85017701D01*
X159100500Y-84846611D01*
X159100500Y-84673389D01*
X159073402Y-84502299D01*
X159019873Y-84337555D01*
X158941232Y-84183212D01*
X158839414Y-84043072D01*
X158716928Y-83920586D01*
X158576788Y-83818768D01*
X158422445Y-83740127D01*
X158257701Y-83686598D01*
X158257699Y-83686597D01*
X158257698Y-83686597D01*
X158126271Y-83665781D01*
X158086611Y-83659500D01*
X157913389Y-83659500D01*
X157873728Y-83665781D01*
X157742302Y-83686597D01*
X157577552Y-83740128D01*
X157423211Y-83818768D01*
X157343256Y-83876859D01*
X157283072Y-83920586D01*
X157283070Y-83920588D01*
X157283069Y-83920588D01*
X157160588Y-84043069D01*
X157160588Y-84043070D01*
X157160586Y-84043072D01*
X157145483Y-84063860D01*
X157058768Y-84183211D01*
X156980128Y-84337550D01*
X156979099Y-84340720D01*
X156978381Y-84341769D01*
X156978266Y-84342048D01*
X156978207Y-84342023D01*
X156939657Y-84398393D01*
X156875297Y-84425587D01*
X156806451Y-84413668D01*
X156754979Y-84366420D01*
X156743239Y-84340711D01*
X156711096Y-84241784D01*
X156614624Y-84052449D01*
X156575270Y-83998282D01*
X156575269Y-83998282D01*
X155942962Y-84630590D01*
X155925925Y-84567007D01*
X155860099Y-84452993D01*
X155767007Y-84359901D01*
X155652993Y-84294075D01*
X155589409Y-84277037D01*
X156221716Y-83644728D01*
X156167550Y-83605375D01*
X155978217Y-83508904D01*
X155879287Y-83476760D01*
X155821611Y-83437323D01*
X155794413Y-83372964D01*
X155806328Y-83304118D01*
X155853572Y-83252642D01*
X155879290Y-83240897D01*
X155882445Y-83239873D01*
X156036788Y-83161232D01*
X156176928Y-83059414D01*
X156299414Y-82936928D01*
X156401232Y-82796788D01*
X156479873Y-82642445D01*
X156533402Y-82477701D01*
X156560500Y-82306611D01*
X156560500Y-82133389D01*
X156533402Y-81962299D01*
X156479873Y-81797555D01*
X156401232Y-81643212D01*
X156299414Y-81503072D01*
X156176928Y-81380586D01*
X156036788Y-81278768D01*
X155882445Y-81200127D01*
X155717701Y-81146598D01*
X155717699Y-81146597D01*
X155717698Y-81146597D01*
X155586271Y-81125781D01*
X155546611Y-81119500D01*
X155373389Y-81119500D01*
X155333728Y-81125781D01*
X155202302Y-81146597D01*
X155202299Y-81146598D01*
X155042923Y-81198383D01*
X155037552Y-81200128D01*
X154883211Y-81278768D01*
X154870970Y-81287662D01*
X154743072Y-81380586D01*
X154743070Y-81380588D01*
X154743069Y-81380588D01*
X154620588Y-81503069D01*
X154620588Y-81503070D01*
X154620586Y-81503072D01*
X154576859Y-81563256D01*
X154518768Y-81643211D01*
X154440128Y-81797552D01*
X154386597Y-81962302D01*
X154363046Y-82110998D01*
X154359500Y-82133389D01*
X154359500Y-82306611D01*
X154363284Y-82330500D01*
X154386356Y-82476178D01*
X154386598Y-82477701D01*
X154440127Y-82642445D01*
X154518768Y-82796788D01*
X154620586Y-82936928D01*
X154743072Y-83059414D01*
X154883212Y-83161232D01*
X155037555Y-83239873D01*
X155040708Y-83240897D01*
X155041752Y-83241611D01*
X155042048Y-83241734D01*
X155042022Y-83241795D01*
X155098383Y-83280330D01*
X155125585Y-83344688D01*
X155113674Y-83413535D01*
X155066433Y-83465013D01*
X155040712Y-83476760D01*
X154941783Y-83508904D01*
X154752439Y-83605380D01*
X154698282Y-83644727D01*
X154698282Y-83644728D01*
X155330591Y-84277037D01*
X155267007Y-84294075D01*
X155152993Y-84359901D01*
X155059901Y-84452993D01*
X154994075Y-84567007D01*
X154977037Y-84630591D01*
X154344728Y-83998282D01*
X154344727Y-83998282D01*
X154305380Y-84052439D01*
X154208904Y-84241782D01*
X154143242Y-84443869D01*
X154143242Y-84443872D01*
X154110000Y-84653753D01*
X133005500Y-84653753D01*
X133005500Y-82501362D01*
X133004036Y-82474048D01*
X133001202Y-82447690D01*
X132971413Y-82352556D01*
X132968256Y-82346775D01*
X132937931Y-82291238D01*
X132937926Y-82291230D01*
X132894350Y-82233019D01*
X132894349Y-82233018D01*
X132894347Y-82233015D01*
X132894342Y-82233010D01*
X132894334Y-82233001D01*
X132832641Y-82171308D01*
X132818823Y-82158596D01*
X132818813Y-82158587D01*
X132816981Y-82156902D01*
X132808090Y-82149381D01*
X132807957Y-82149267D01*
X132801230Y-82143577D01*
X132798586Y-82141730D01*
X132789604Y-82135844D01*
X132785176Y-82132529D01*
X132776846Y-82126292D01*
X132769443Y-82120953D01*
X132769442Y-82120952D01*
X132741786Y-82108913D01*
X132741786Y-82108912D01*
X132735688Y-82106257D01*
X132719766Y-82097192D01*
X132715957Y-82095874D01*
X132715416Y-82097433D01*
X132691460Y-82087005D01*
X132691445Y-82086999D01*
X132678037Y-82081163D01*
X132678034Y-82081162D01*
X132678031Y-82081161D01*
X132672903Y-82080045D01*
X132658735Y-82076068D01*
X132653764Y-82074348D01*
X132653751Y-82074344D01*
X132609593Y-82063350D01*
X132609592Y-82063350D01*
X132602359Y-82063650D01*
X132602360Y-82063651D01*
X132593150Y-82064033D01*
X132592028Y-82064080D01*
X132564568Y-82060633D01*
X132526496Y-82066801D01*
X132519107Y-82067108D01*
X132519105Y-82067109D01*
X132509985Y-82067488D01*
X132489914Y-82072354D01*
X132489913Y-82072353D01*
X132485250Y-82073484D01*
X132466160Y-82076578D01*
X132454339Y-82080985D01*
X132447157Y-82082729D01*
X132447154Y-82082731D01*
X132442059Y-82083967D01*
X132374541Y-82110997D01*
X132374532Y-82111001D01*
X132358696Y-82120144D01*
X132328803Y-82132526D01*
X132328796Y-82132528D01*
X132298025Y-82140774D01*
X132265932Y-82145000D01*
X132234071Y-82145000D01*
X132201975Y-82140774D01*
X132171196Y-82132526D01*
X132141292Y-82120139D01*
X132113704Y-82104211D01*
X132088023Y-82084505D01*
X132060478Y-82056960D01*
X132060454Y-82056937D01*
X132039935Y-82038523D01*
X132039929Y-82038519D01*
X132023600Y-82025385D01*
X132019105Y-82021769D01*
X132018925Y-82021625D01*
X131930506Y-81975577D01*
X131930505Y-81975576D01*
X131930502Y-81975575D01*
X131928601Y-81975021D01*
X131928601Y-81975020D01*
X131859781Y-81954949D01*
X131800935Y-81917282D01*
X131776534Y-81864108D01*
X140479500Y-81864108D01*
X140479500Y-81995892D01*
X140486395Y-82021625D01*
X140513608Y-82123187D01*
X140526202Y-82145000D01*
X140579500Y-82237314D01*
X140672686Y-82330500D01*
X140786814Y-82396392D01*
X140914108Y-82430500D01*
X140914110Y-82430500D01*
X141045890Y-82430500D01*
X141045892Y-82430500D01*
X141173186Y-82396392D01*
X141287314Y-82330500D01*
X141380500Y-82237314D01*
X141446392Y-82123186D01*
X141480500Y-81995892D01*
X141480500Y-81864108D01*
X141446392Y-81736814D01*
X141380500Y-81622686D01*
X141287314Y-81529500D01*
X141230250Y-81496554D01*
X141173187Y-81463608D01*
X141109539Y-81446554D01*
X141045892Y-81429500D01*
X140914108Y-81429500D01*
X140786812Y-81463608D01*
X140672686Y-81529500D01*
X140672683Y-81529502D01*
X140579502Y-81622683D01*
X140579500Y-81622686D01*
X140513608Y-81736812D01*
X140487056Y-81835909D01*
X140479500Y-81864108D01*
X131776534Y-81864108D01*
X131771794Y-81853779D01*
X131770500Y-81835909D01*
X131770500Y-80904108D01*
X143229500Y-80904108D01*
X143229500Y-81035892D01*
X143238110Y-81068024D01*
X143263608Y-81163187D01*
X143294129Y-81216050D01*
X143329500Y-81277314D01*
X143422686Y-81370500D01*
X143536814Y-81436392D01*
X143664108Y-81470500D01*
X143664110Y-81470500D01*
X143795890Y-81470500D01*
X143795892Y-81470500D01*
X143923186Y-81436392D01*
X144037314Y-81370500D01*
X144130500Y-81277314D01*
X144196392Y-81163186D01*
X144230500Y-81035892D01*
X144230500Y-80904108D01*
X144196392Y-80776814D01*
X144130500Y-80662686D01*
X144037314Y-80569500D01*
X143971297Y-80531385D01*
X143923187Y-80503608D01*
X143848193Y-80483514D01*
X143795892Y-80469500D01*
X143664108Y-80469500D01*
X143536812Y-80503608D01*
X143422686Y-80569500D01*
X143422683Y-80569502D01*
X143329502Y-80662683D01*
X143329500Y-80662686D01*
X143263608Y-80776812D01*
X143239320Y-80867459D01*
X143229500Y-80904108D01*
X131770500Y-80904108D01*
X131770500Y-80753858D01*
X131770500Y-80753856D01*
X131760311Y-80715830D01*
X131761974Y-80645985D01*
X131801136Y-80588122D01*
X131865364Y-80560617D01*
X131934266Y-80572203D01*
X131942087Y-80576353D01*
X131942683Y-80576697D01*
X131942686Y-80576700D01*
X132056814Y-80642592D01*
X132184108Y-80676700D01*
X132184110Y-80676700D01*
X132315890Y-80676700D01*
X132315892Y-80676700D01*
X132443186Y-80642592D01*
X132557314Y-80576700D01*
X132625918Y-80508095D01*
X132687237Y-80474613D01*
X132756929Y-80479597D01*
X132801273Y-80508093D01*
X132804956Y-80511776D01*
X132897319Y-80565102D01*
X132917405Y-80576699D01*
X132919084Y-80577668D01*
X133046378Y-80611776D01*
X133046380Y-80611776D01*
X133178160Y-80611776D01*
X133178162Y-80611776D01*
X133305456Y-80577668D01*
X133419584Y-80511776D01*
X133512770Y-80418590D01*
X133578662Y-80304462D01*
X133612770Y-80177168D01*
X133612770Y-80045384D01*
X133578662Y-79918090D01*
X133537661Y-79847075D01*
X133521189Y-79779177D01*
X133537661Y-79723076D01*
X133578662Y-79652062D01*
X133612770Y-79524768D01*
X133612770Y-79392984D01*
X133607651Y-79373880D01*
X134342009Y-79373880D01*
X134342009Y-79505664D01*
X134371838Y-79616989D01*
X134376118Y-79632960D01*
X134376118Y-79632961D01*
X134417116Y-79703972D01*
X134433589Y-79771873D01*
X134417116Y-79827972D01*
X134376118Y-79898982D01*
X134376118Y-79898983D01*
X134376118Y-79898984D01*
X134376117Y-79898986D01*
X134342009Y-80026280D01*
X134342009Y-80158064D01*
X134347128Y-80177167D01*
X134376117Y-80285359D01*
X134387147Y-80304463D01*
X134442009Y-80399486D01*
X134535195Y-80492672D01*
X134649323Y-80558564D01*
X134776617Y-80592672D01*
X134776619Y-80592672D01*
X134908399Y-80592672D01*
X134908401Y-80592672D01*
X135035695Y-80558564D01*
X135149823Y-80492672D01*
X135243009Y-80399486D01*
X135308901Y-80285358D01*
X135343009Y-80158064D01*
X135343009Y-80026280D01*
X135308901Y-79898986D01*
X135267900Y-79827971D01*
X135251428Y-79760073D01*
X135267900Y-79703972D01*
X135308901Y-79632958D01*
X135343009Y-79505664D01*
X135343009Y-79373880D01*
X135325332Y-79307908D01*
X136049500Y-79307908D01*
X136049500Y-79439692D01*
X136077472Y-79544087D01*
X136083609Y-79566988D01*
X136083609Y-79566989D01*
X136124607Y-79638000D01*
X136141080Y-79705901D01*
X136124607Y-79762000D01*
X136083609Y-79833010D01*
X136083609Y-79833011D01*
X136083609Y-79833012D01*
X136083608Y-79833014D01*
X136049500Y-79960308D01*
X136049500Y-80092091D01*
X136083608Y-80219387D01*
X136096717Y-80242092D01*
X136149500Y-80333514D01*
X136242686Y-80426700D01*
X136356814Y-80492592D01*
X136484108Y-80526700D01*
X136484110Y-80526700D01*
X136615890Y-80526700D01*
X136615892Y-80526700D01*
X136743186Y-80492592D01*
X136857314Y-80426700D01*
X136950500Y-80333514D01*
X137016392Y-80219386D01*
X137050500Y-80092092D01*
X137050500Y-79960308D01*
X137016392Y-79833014D01*
X136975391Y-79761999D01*
X136973388Y-79753743D01*
X136968078Y-79747113D01*
X136965275Y-79720303D01*
X136958919Y-79694101D01*
X136961508Y-79684260D01*
X136960815Y-79677622D01*
X136969389Y-79654315D01*
X136972060Y-79644167D01*
X136973637Y-79641039D01*
X137001148Y-79593389D01*
X154359500Y-79593389D01*
X154359500Y-79766611D01*
X154361490Y-79779177D01*
X154383491Y-79918088D01*
X154386598Y-79937701D01*
X154440127Y-80102445D01*
X154518768Y-80256788D01*
X154620586Y-80396928D01*
X154743072Y-80519414D01*
X154883212Y-80621232D01*
X155037555Y-80699873D01*
X155202299Y-80753402D01*
X155373389Y-80780500D01*
X155373390Y-80780500D01*
X155546610Y-80780500D01*
X155546611Y-80780500D01*
X155717701Y-80753402D01*
X155882445Y-80699873D01*
X156036788Y-80621232D01*
X156176928Y-80519414D01*
X156299414Y-80396928D01*
X156401232Y-80256788D01*
X156479873Y-80102445D01*
X156480896Y-80099294D01*
X156481610Y-80098250D01*
X156481734Y-80097952D01*
X156481796Y-80097977D01*
X156520327Y-80041618D01*
X156584683Y-80014415D01*
X156653530Y-80026323D01*
X156705011Y-80073562D01*
X156716760Y-80099287D01*
X156748904Y-80198217D01*
X156845375Y-80387550D01*
X156884728Y-80441716D01*
X157517037Y-79809408D01*
X157534075Y-79872993D01*
X157599901Y-79987007D01*
X157692993Y-80080099D01*
X157807007Y-80145925D01*
X157870590Y-80162962D01*
X157238282Y-80795269D01*
X157238282Y-80795270D01*
X157292449Y-80834624D01*
X157481784Y-80931096D01*
X157580711Y-80963239D01*
X157638387Y-81002676D01*
X157665586Y-81067034D01*
X157653672Y-81135881D01*
X157606428Y-81187357D01*
X157580722Y-81199097D01*
X157579522Y-81199487D01*
X157577550Y-81200128D01*
X157423211Y-81278768D01*
X157410970Y-81287662D01*
X157283072Y-81380586D01*
X157283070Y-81380588D01*
X157283069Y-81380588D01*
X157160588Y-81503069D01*
X157160588Y-81503070D01*
X157160586Y-81503072D01*
X157116859Y-81563256D01*
X157058768Y-81643211D01*
X156980128Y-81797552D01*
X156926597Y-81962302D01*
X156903046Y-82110998D01*
X156899500Y-82133389D01*
X156899500Y-82306611D01*
X156903284Y-82330500D01*
X156926356Y-82476178D01*
X156926598Y-82477701D01*
X156980127Y-82642445D01*
X157058768Y-82796788D01*
X157160586Y-82936928D01*
X157283072Y-83059414D01*
X157423212Y-83161232D01*
X157577555Y-83239873D01*
X157742299Y-83293402D01*
X157913389Y-83320500D01*
X157913390Y-83320500D01*
X158086610Y-83320500D01*
X158086611Y-83320500D01*
X158257701Y-83293402D01*
X158422445Y-83239873D01*
X158576788Y-83161232D01*
X158716928Y-83059414D01*
X158839414Y-82936928D01*
X158941232Y-82796788D01*
X159019873Y-82642445D01*
X159073402Y-82477701D01*
X159100500Y-82306611D01*
X159100500Y-82133389D01*
X159073402Y-81962299D01*
X159019873Y-81797555D01*
X158941232Y-81643212D01*
X158839414Y-81503072D01*
X158716928Y-81380586D01*
X158576788Y-81278768D01*
X158549767Y-81265000D01*
X158422446Y-81200127D01*
X158419284Y-81199100D01*
X158418236Y-81198383D01*
X158417952Y-81198266D01*
X158417976Y-81198206D01*
X158361609Y-81159661D01*
X158334413Y-81095302D01*
X158346329Y-81026456D01*
X158393574Y-80974981D01*
X158419288Y-80963239D01*
X158518215Y-80931096D01*
X158707554Y-80834622D01*
X158761716Y-80795270D01*
X158761717Y-80795270D01*
X158129408Y-80162962D01*
X158192993Y-80145925D01*
X158307007Y-80080099D01*
X158400099Y-79987007D01*
X158465925Y-79872993D01*
X158482962Y-79809408D01*
X159115270Y-80441717D01*
X159115270Y-80441716D01*
X159154622Y-80387554D01*
X159251095Y-80198217D01*
X159316757Y-79996130D01*
X159316757Y-79996127D01*
X159350000Y-79786246D01*
X159350000Y-79573753D01*
X159316757Y-79363872D01*
X159316757Y-79363869D01*
X159251095Y-79161782D01*
X159154624Y-78972449D01*
X159115270Y-78918282D01*
X159115269Y-78918282D01*
X158482962Y-79550590D01*
X158465925Y-79487007D01*
X158400099Y-79372993D01*
X158307007Y-79279901D01*
X158192993Y-79214075D01*
X158129409Y-79197037D01*
X158761716Y-78564728D01*
X158707550Y-78525375D01*
X158518217Y-78428904D01*
X158419287Y-78396760D01*
X158361611Y-78357323D01*
X158334413Y-78292964D01*
X158346328Y-78224118D01*
X158393572Y-78172642D01*
X158419290Y-78160897D01*
X158422445Y-78159873D01*
X158576788Y-78081232D01*
X158716928Y-77979414D01*
X158839414Y-77856928D01*
X158941232Y-77716788D01*
X159019873Y-77562445D01*
X159073402Y-77397701D01*
X159100500Y-77226611D01*
X159100500Y-77053389D01*
X159073402Y-76882299D01*
X159019873Y-76717555D01*
X158941232Y-76563212D01*
X158839414Y-76423072D01*
X158716928Y-76300586D01*
X158576788Y-76198768D01*
X158422445Y-76120127D01*
X158257701Y-76066598D01*
X158257699Y-76066597D01*
X158257698Y-76066597D01*
X158126271Y-76045781D01*
X158086611Y-76039500D01*
X157913389Y-76039500D01*
X157873728Y-76045781D01*
X157742302Y-76066597D01*
X157742299Y-76066598D01*
X157615223Y-76107888D01*
X157577552Y-76120128D01*
X157423211Y-76198768D01*
X157407064Y-76210500D01*
X157283072Y-76300586D01*
X157283070Y-76300588D01*
X157283069Y-76300588D01*
X157160588Y-76423069D01*
X157160588Y-76423070D01*
X157160586Y-76423072D01*
X157116859Y-76483256D01*
X157058768Y-76563211D01*
X156980128Y-76717552D01*
X156926597Y-76882302D01*
X156905293Y-77016812D01*
X156899500Y-77053389D01*
X156899500Y-77226611D01*
X156903962Y-77254785D01*
X156916621Y-77334712D01*
X156926598Y-77397701D01*
X156973558Y-77542229D01*
X156980128Y-77562447D01*
X157026883Y-77654209D01*
X157058768Y-77716788D01*
X157160586Y-77856928D01*
X157283072Y-77979414D01*
X157423212Y-78081232D01*
X157577555Y-78159873D01*
X157580708Y-78160897D01*
X157581752Y-78161611D01*
X157582048Y-78161734D01*
X157582022Y-78161795D01*
X157638383Y-78200330D01*
X157665585Y-78264688D01*
X157653674Y-78333535D01*
X157606433Y-78385013D01*
X157580712Y-78396760D01*
X157481783Y-78428904D01*
X157292439Y-78525380D01*
X157238282Y-78564727D01*
X157238282Y-78564728D01*
X157870591Y-79197037D01*
X157807007Y-79214075D01*
X157692993Y-79279901D01*
X157599901Y-79372993D01*
X157534075Y-79487007D01*
X157517037Y-79550591D01*
X156884728Y-78918282D01*
X156884727Y-78918282D01*
X156845380Y-78972439D01*
X156748904Y-79161783D01*
X156716760Y-79260712D01*
X156677322Y-79318388D01*
X156612964Y-79345586D01*
X156544117Y-79333671D01*
X156492642Y-79286427D01*
X156480898Y-79260712D01*
X156479873Y-79257555D01*
X156401232Y-79103212D01*
X156299414Y-78963072D01*
X156176928Y-78840586D01*
X156036788Y-78738768D01*
X155882445Y-78660127D01*
X155717701Y-78606598D01*
X155717699Y-78606597D01*
X155717698Y-78606597D01*
X155586271Y-78585781D01*
X155546611Y-78579500D01*
X155373389Y-78579500D01*
X155333728Y-78585781D01*
X155202302Y-78606597D01*
X155037552Y-78660128D01*
X154883211Y-78738768D01*
X154803256Y-78796859D01*
X154743072Y-78840586D01*
X154743070Y-78840588D01*
X154743069Y-78840588D01*
X154620588Y-78963069D01*
X154620588Y-78963070D01*
X154620586Y-78963072D01*
X154613097Y-78973380D01*
X154518768Y-79103211D01*
X154440128Y-79257552D01*
X154386597Y-79422302D01*
X154363681Y-79566989D01*
X154359500Y-79593389D01*
X137001148Y-79593389D01*
X137016392Y-79566986D01*
X137050500Y-79439692D01*
X137050500Y-79307908D01*
X137016392Y-79180614D01*
X136950500Y-79066486D01*
X136857314Y-78973300D01*
X136770712Y-78923300D01*
X136743187Y-78907408D01*
X136679539Y-78890354D01*
X136615892Y-78873300D01*
X136484108Y-78873300D01*
X136356812Y-78907408D01*
X136242686Y-78973300D01*
X136242683Y-78973302D01*
X136149502Y-79066483D01*
X136149500Y-79066486D01*
X136083608Y-79180612D01*
X136062146Y-79260712D01*
X136049500Y-79307908D01*
X135325332Y-79307908D01*
X135308901Y-79246586D01*
X135243009Y-79132458D01*
X135149823Y-79039272D01*
X135068784Y-78992484D01*
X135035696Y-78973380D01*
X134972048Y-78956326D01*
X134908401Y-78939272D01*
X134776617Y-78939272D01*
X134649321Y-78973380D01*
X134535195Y-79039272D01*
X134535192Y-79039274D01*
X134442011Y-79132455D01*
X134442009Y-79132458D01*
X134376117Y-79246584D01*
X134363089Y-79295208D01*
X134342009Y-79373880D01*
X133607651Y-79373880D01*
X133578662Y-79265690D01*
X133575784Y-79260706D01*
X133558411Y-79230614D01*
X133512770Y-79151562D01*
X133419584Y-79058376D01*
X133346402Y-79016124D01*
X133305457Y-78992484D01*
X133233860Y-78973300D01*
X133178162Y-78958376D01*
X133046378Y-78958376D01*
X132919082Y-78992484D01*
X132804956Y-79058376D01*
X132804953Y-79058378D01*
X132736354Y-79126978D01*
X132675031Y-79160463D01*
X132605339Y-79155479D01*
X132560992Y-79126978D01*
X132557316Y-79123302D01*
X132557314Y-79123300D01*
X132458910Y-79066486D01*
X132443187Y-79057408D01*
X132375501Y-79039272D01*
X132315892Y-79023300D01*
X132184108Y-79023300D01*
X132056812Y-79057408D01*
X131942686Y-79123300D01*
X131942683Y-79123302D01*
X131849502Y-79216483D01*
X131849500Y-79216486D01*
X131831887Y-79246993D01*
X131781319Y-79295208D01*
X131712712Y-79308430D01*
X131647848Y-79282462D01*
X131607320Y-79225548D01*
X131600500Y-79184992D01*
X131600500Y-77423858D01*
X131600500Y-77423856D01*
X131576614Y-77334712D01*
X131542654Y-77275892D01*
X131530473Y-77254794D01*
X131530470Y-77254791D01*
X131530469Y-77254788D01*
X131465212Y-77189531D01*
X131414383Y-77160184D01*
X131408043Y-77155344D01*
X131399797Y-77144108D01*
X136669500Y-77144108D01*
X136669500Y-77275891D01*
X136703608Y-77403187D01*
X136731618Y-77451701D01*
X136769500Y-77517314D01*
X136862686Y-77610500D01*
X136976814Y-77676392D01*
X137104108Y-77710500D01*
X137104110Y-77710500D01*
X137235890Y-77710500D01*
X137235892Y-77710500D01*
X137363186Y-77676392D01*
X137477314Y-77610500D01*
X137570500Y-77517314D01*
X137636392Y-77403186D01*
X137670500Y-77275892D01*
X137670500Y-77144108D01*
X137646192Y-77053389D01*
X154359500Y-77053389D01*
X154359500Y-77226611D01*
X154363962Y-77254785D01*
X154376621Y-77334712D01*
X154386598Y-77397701D01*
X154433558Y-77542229D01*
X154440128Y-77562447D01*
X154486883Y-77654209D01*
X154518768Y-77716788D01*
X154620586Y-77856928D01*
X154743072Y-77979414D01*
X154883212Y-78081232D01*
X155037555Y-78159873D01*
X155202299Y-78213402D01*
X155373389Y-78240500D01*
X155373390Y-78240500D01*
X155546610Y-78240500D01*
X155546611Y-78240500D01*
X155717701Y-78213402D01*
X155882445Y-78159873D01*
X156036788Y-78081232D01*
X156176928Y-77979414D01*
X156299414Y-77856928D01*
X156401232Y-77716788D01*
X156479873Y-77562445D01*
X156533402Y-77397701D01*
X156560500Y-77226611D01*
X156560500Y-77053389D01*
X156533402Y-76882299D01*
X156479873Y-76717555D01*
X156401232Y-76563212D01*
X156299414Y-76423072D01*
X156176928Y-76300586D01*
X156036788Y-76198768D01*
X155882445Y-76120127D01*
X155717701Y-76066598D01*
X155717699Y-76066597D01*
X155717698Y-76066597D01*
X155586271Y-76045781D01*
X155546611Y-76039500D01*
X155373389Y-76039500D01*
X155333728Y-76045781D01*
X155202302Y-76066597D01*
X155202299Y-76066598D01*
X155075223Y-76107888D01*
X155037552Y-76120128D01*
X154883211Y-76198768D01*
X154867064Y-76210500D01*
X154743072Y-76300586D01*
X154743070Y-76300588D01*
X154743069Y-76300588D01*
X154620588Y-76423069D01*
X154620588Y-76423070D01*
X154620586Y-76423072D01*
X154576859Y-76483256D01*
X154518768Y-76563211D01*
X154440128Y-76717552D01*
X154386597Y-76882302D01*
X154365293Y-77016812D01*
X154359500Y-77053389D01*
X137646192Y-77053389D01*
X137636392Y-77016814D01*
X137570500Y-76902686D01*
X137477314Y-76809500D01*
X137420250Y-76776554D01*
X137363187Y-76743608D01*
X137299539Y-76726554D01*
X137235892Y-76709500D01*
X137104108Y-76709500D01*
X136976812Y-76743608D01*
X136862686Y-76809500D01*
X136862683Y-76809502D01*
X136769502Y-76902683D01*
X136769500Y-76902686D01*
X136703608Y-77016812D01*
X136669500Y-77144108D01*
X131399797Y-77144108D01*
X131391898Y-77133346D01*
X131373073Y-77113602D01*
X131369847Y-77103301D01*
X131366703Y-77099017D01*
X131366257Y-77091837D01*
X131363120Y-77081819D01*
X131362603Y-77081958D01*
X131345148Y-77016814D01*
X131326392Y-76946814D01*
X131260500Y-76832686D01*
X131167314Y-76739500D01*
X131110250Y-76706554D01*
X131053187Y-76673608D01*
X130989539Y-76656554D01*
X130925892Y-76639500D01*
X130794108Y-76639500D01*
X130666812Y-76673608D01*
X130552686Y-76739500D01*
X130552683Y-76739502D01*
X130459502Y-76832683D01*
X130459500Y-76832686D01*
X130393608Y-76946812D01*
X130359500Y-77074108D01*
X130359500Y-77205891D01*
X130393608Y-77333187D01*
X130426554Y-77390250D01*
X130459500Y-77447314D01*
X130552686Y-77540500D01*
X130634603Y-77587795D01*
X130664702Y-77605173D01*
X130666814Y-77606392D01*
X130794108Y-77640500D01*
X130794109Y-77640500D01*
X130801958Y-77642603D01*
X130801449Y-77644502D01*
X130855568Y-77668434D01*
X130894048Y-77726753D01*
X130899500Y-77763119D01*
X130899500Y-79016124D01*
X130879815Y-79083163D01*
X130827011Y-79128918D01*
X130757853Y-79138862D01*
X130694297Y-79109837D01*
X130687819Y-79103805D01*
X130607316Y-79023302D01*
X130607314Y-79023300D01*
X130550250Y-78990354D01*
X130493187Y-78957408D01*
X130425501Y-78939272D01*
X130365892Y-78923300D01*
X130234108Y-78923300D01*
X130106812Y-78957408D01*
X129992686Y-79023300D01*
X129992683Y-79023302D01*
X129899502Y-79116483D01*
X129899500Y-79116486D01*
X129833608Y-79230612D01*
X129818653Y-79286427D01*
X129799500Y-79357908D01*
X129799500Y-79489692D01*
X129827285Y-79593389D01*
X129833609Y-79616988D01*
X129833609Y-79616989D01*
X129874607Y-79688000D01*
X129891080Y-79755901D01*
X129874607Y-79812000D01*
X129833609Y-79883010D01*
X129833609Y-79883011D01*
X129833608Y-79883013D01*
X129833608Y-79883014D01*
X129799500Y-80010308D01*
X129799500Y-80142092D01*
X129809657Y-80180000D01*
X129833608Y-80269387D01*
X129842829Y-80285358D01*
X129899500Y-80383514D01*
X129992686Y-80476700D01*
X130106814Y-80542592D01*
X130234108Y-80576700D01*
X130234110Y-80576700D01*
X130365890Y-80576700D01*
X130365892Y-80576700D01*
X130493186Y-80542592D01*
X130607314Y-80476700D01*
X130687819Y-80396195D01*
X130749142Y-80362710D01*
X130818834Y-80367694D01*
X130874767Y-80409566D01*
X130899184Y-80475030D01*
X130899500Y-80483876D01*
X130899500Y-80676145D01*
X130920200Y-80753400D01*
X130923385Y-80765286D01*
X130923387Y-80765291D01*
X130969529Y-80845211D01*
X130969530Y-80845212D01*
X131016661Y-80892343D01*
X131033181Y-80908862D01*
X131066666Y-80970185D01*
X131069500Y-80996544D01*
X131069500Y-81823344D01*
X131049815Y-81890383D01*
X130997011Y-81936138D01*
X130945728Y-81947344D01*
X130659808Y-81947869D01*
X130650868Y-81948041D01*
X130642323Y-81948355D01*
X130642322Y-81948355D01*
X130562411Y-81964293D01*
X130562399Y-81964296D01*
X130496964Y-81988702D01*
X130496952Y-81988707D01*
X130455861Y-82008366D01*
X130381702Y-82074979D01*
X130381698Y-82074983D01*
X130364891Y-82097434D01*
X130339818Y-82130926D01*
X130315885Y-82169671D01*
X130312345Y-82177804D01*
X130309474Y-82176554D01*
X130280859Y-82222833D01*
X130217818Y-82252961D01*
X130148497Y-82244224D01*
X130094904Y-82199395D01*
X130090409Y-82192130D01*
X130043251Y-82109669D01*
X129997399Y-82056949D01*
X129997387Y-82056937D01*
X129997382Y-82056932D01*
X129964572Y-82025388D01*
X129964569Y-82025386D01*
X129964568Y-82025385D01*
X129953185Y-82019457D01*
X129876151Y-81979340D01*
X129809081Y-81959779D01*
X129809079Y-81959778D01*
X129809077Y-81959778D01*
X129737074Y-81949559D01*
X129737071Y-81949559D01*
X127167620Y-81954265D01*
X127167600Y-81954266D01*
X127109288Y-81961124D01*
X127109278Y-81961125D01*
X127109274Y-81961126D01*
X127109272Y-81961126D01*
X127109262Y-81961128D01*
X127054160Y-81974162D01*
X127054159Y-81974162D01*
X127024025Y-81983284D01*
X127024017Y-81983288D01*
X126939132Y-82035557D01*
X126939131Y-82035558D01*
X126887931Y-82083092D01*
X126876417Y-82095874D01*
X126857446Y-82116934D01*
X126857445Y-82116935D01*
X126857445Y-82116936D01*
X126814292Y-82206800D01*
X126796917Y-82274468D01*
X126789039Y-82346775D01*
X126992979Y-88292866D01*
X126992979Y-88292867D01*
X126993832Y-88317742D01*
X127329780Y-98112771D01*
X127312405Y-98180445D01*
X127261201Y-98227983D01*
X127192423Y-98240292D01*
X127143855Y-98224409D01*
X127073186Y-98183608D01*
X126945892Y-98149500D01*
X126814108Y-98149500D01*
X126686812Y-98183608D01*
X126572686Y-98249500D01*
X126572683Y-98249502D01*
X126479502Y-98342683D01*
X126479500Y-98342686D01*
X126413608Y-98456812D01*
X126387920Y-98552683D01*
X126379500Y-98584108D01*
X126379500Y-98715892D01*
X126403767Y-98806456D01*
X126413608Y-98843185D01*
X126413609Y-98843188D01*
X126415225Y-98845987D01*
X126415870Y-98848646D01*
X126416719Y-98850696D01*
X126416399Y-98850828D01*
X126431695Y-98913888D01*
X126408841Y-98979914D01*
X126369842Y-99015368D01*
X126362689Y-99019498D01*
X126362683Y-99019502D01*
X126269502Y-99112683D01*
X126269500Y-99112686D01*
X126203608Y-99226812D01*
X126169500Y-99354108D01*
X126169500Y-99485891D01*
X126203608Y-99613187D01*
X126215664Y-99634068D01*
X126269500Y-99727314D01*
X126362686Y-99820500D01*
X126476814Y-99886392D01*
X126604108Y-99920500D01*
X126604110Y-99920500D01*
X126735890Y-99920500D01*
X126735892Y-99920500D01*
X126863186Y-99886392D01*
X126977314Y-99820500D01*
X127070500Y-99727314D01*
X127136392Y-99613186D01*
X127138256Y-99606226D01*
X127174616Y-99546569D01*
X127237461Y-99516036D01*
X127306837Y-99524327D01*
X127360718Y-99568809D01*
X127381958Y-99634068D01*
X127657120Y-107656770D01*
X127639745Y-107724444D01*
X127588541Y-107771982D01*
X127532142Y-107785016D01*
X122970818Y-107746361D01*
X122903948Y-107726109D01*
X122864067Y-107683642D01*
X122735417Y-107457314D01*
X120731077Y-103931159D01*
X117621698Y-98460954D01*
X117605500Y-98399677D01*
X117605500Y-96878352D01*
X117604471Y-96869500D01*
X117598688Y-96819743D01*
X117585640Y-96764375D01*
X117576453Y-96733989D01*
X117524166Y-96649110D01*
X117476619Y-96597914D01*
X117476616Y-96597911D01*
X117476613Y-96597908D01*
X117442775Y-96567436D01*
X117442772Y-96567435D01*
X117442771Y-96567434D01*
X117352895Y-96524299D01*
X117352891Y-96524297D01*
X117299326Y-96510556D01*
X117285217Y-96506937D01*
X117273546Y-96505667D01*
X117212918Y-96499074D01*
X116029776Y-96539872D01*
X115961992Y-96551470D01*
X115898905Y-96571293D01*
X115898875Y-96571303D01*
X115860385Y-96586939D01*
X115860384Y-96586940D01*
X115781850Y-96648351D01*
X115781849Y-96648352D01*
X115736271Y-96701294D01*
X115736265Y-96701301D01*
X115709748Y-96738325D01*
X115709747Y-96738326D01*
X115676882Y-96832443D01*
X115676882Y-96832444D01*
X115667159Y-96901639D01*
X104200000Y-96901639D01*
X104200000Y-83520756D01*
X114994500Y-83520756D01*
X114994500Y-92326002D01*
X115000338Y-92380312D01*
X115011543Y-92431818D01*
X115011546Y-92431827D01*
X115018779Y-92458192D01*
X115018783Y-92458203D01*
X115068105Y-92544818D01*
X115068110Y-92544825D01*
X115068112Y-92544828D01*
X115094580Y-92575374D01*
X115113863Y-92597628D01*
X115113866Y-92597631D01*
X115113867Y-92597632D01*
X115146641Y-92629257D01*
X115234976Y-92675465D01*
X115234977Y-92675465D01*
X115234977Y-92675466D01*
X115285105Y-92690184D01*
X115302015Y-92695150D01*
X115302019Y-92695150D01*
X115302021Y-92695151D01*
X115313652Y-92696823D01*
X115374000Y-92705500D01*
X117500000Y-92705500D01*
X120606021Y-92705500D01*
X120673060Y-92725185D01*
X120688268Y-92736703D01*
X122339732Y-94200500D01*
X122652750Y-94477947D01*
X122689862Y-94537146D01*
X122694500Y-94570742D01*
X122694500Y-101928512D01*
X122699797Y-101980262D01*
X122699799Y-101980275D01*
X122709975Y-102029460D01*
X122716156Y-102053426D01*
X122763708Y-102141043D01*
X122763710Y-102141045D01*
X122808378Y-102194772D01*
X122840503Y-102227062D01*
X122927878Y-102275062D01*
X122994502Y-102296110D01*
X122994510Y-102296111D01*
X122994513Y-102296112D01*
X123061969Y-102307219D01*
X123066257Y-102307926D01*
X124901132Y-102345372D01*
X125268106Y-102352862D01*
X125268106Y-102352861D01*
X125268107Y-102352862D01*
X125325777Y-102347472D01*
X125325780Y-102347471D01*
X125325783Y-102347471D01*
X125340122Y-102344462D01*
X125380444Y-102336004D01*
X125410018Y-102327921D01*
X125496373Y-102278110D01*
X125548922Y-102232063D01*
X125580366Y-102199111D01*
X125626082Y-102110520D01*
X125645394Y-102043372D01*
X125655344Y-101971333D01*
X125650506Y-101100500D01*
X125605827Y-93058285D01*
X125603171Y-93027895D01*
X125602202Y-93016800D01*
X125595435Y-92977081D01*
X125592633Y-92963031D01*
X125592632Y-92963028D01*
X125592631Y-92963024D01*
X125551878Y-92872056D01*
X125551875Y-92872050D01*
X125511422Y-92815089D01*
X125461301Y-92762391D01*
X123947725Y-91568994D01*
X123946003Y-91566570D01*
X123943297Y-91565334D01*
X123925895Y-91538256D01*
X123907269Y-91512029D01*
X123906644Y-91508301D01*
X123905523Y-91506556D01*
X123900500Y-91471621D01*
X123900500Y-91467254D01*
X123920185Y-91400215D01*
X123936815Y-91379577D01*
X124342399Y-90973992D01*
X124397986Y-90941900D01*
X124493183Y-90916393D01*
X124493183Y-90916392D01*
X124493186Y-90916392D01*
X124607314Y-90850500D01*
X124700500Y-90757314D01*
X124766392Y-90643186D01*
X124800500Y-90515892D01*
X124800500Y-90384108D01*
X124766392Y-90256814D01*
X124700500Y-90142686D01*
X124607314Y-90049500D01*
X124550250Y-90016554D01*
X124493187Y-89983608D01*
X124429539Y-89966554D01*
X124365892Y-89949500D01*
X124234108Y-89949500D01*
X124106812Y-89983608D01*
X123992686Y-90049500D01*
X123992683Y-90049502D01*
X123899502Y-90142683D01*
X123899500Y-90142686D01*
X123833607Y-90256814D01*
X123833607Y-90256815D01*
X123808098Y-90352014D01*
X123776005Y-90407600D01*
X123280249Y-90903356D01*
X123218926Y-90936841D01*
X123149234Y-90931857D01*
X123115793Y-90913048D01*
X122941977Y-90776000D01*
X122932114Y-90768602D01*
X122922363Y-90761649D01*
X122846026Y-90724537D01*
X122846021Y-90724535D01*
X122846020Y-90724535D01*
X122778981Y-90704850D01*
X122778979Y-90704849D01*
X122778977Y-90704849D01*
X122778974Y-90704848D01*
X122706997Y-90694500D01*
X122706996Y-90694500D01*
X117879500Y-90694500D01*
X117812461Y-90674815D01*
X117766706Y-90622011D01*
X117755500Y-90570500D01*
X117755500Y-85149627D01*
X117775185Y-85082588D01*
X117809247Y-85047448D01*
X118453370Y-84604612D01*
X118519763Y-84582854D01*
X118587382Y-84600445D01*
X118611299Y-84619113D01*
X118692686Y-84700500D01*
X118806814Y-84766392D01*
X118934108Y-84800500D01*
X118934110Y-84800500D01*
X119065890Y-84800500D01*
X119065892Y-84800500D01*
X119193186Y-84766392D01*
X119307314Y-84700500D01*
X119400500Y-84607314D01*
X119466392Y-84493186D01*
X119500500Y-84365892D01*
X119500500Y-84234108D01*
X119466392Y-84106814D01*
X119441591Y-84063858D01*
X119425119Y-83995960D01*
X119447971Y-83929933D01*
X119478724Y-83899682D01*
X121588275Y-82449365D01*
X121628446Y-82431250D01*
X122539752Y-82203423D01*
X122554421Y-82200683D01*
X124092975Y-82008366D01*
X124489451Y-81958807D01*
X124489461Y-81958805D01*
X124489473Y-81958804D01*
X124500820Y-81957126D01*
X124511798Y-81955250D01*
X124591208Y-81927648D01*
X124652531Y-81894163D01*
X124710749Y-81850582D01*
X125144347Y-81416985D01*
X125162626Y-81396635D01*
X125179260Y-81375993D01*
X125225465Y-81287662D01*
X125245150Y-81220623D01*
X125255500Y-81148638D01*
X125255500Y-77824000D01*
X125249661Y-77769687D01*
X125238455Y-77718176D01*
X125231219Y-77691802D01*
X125230634Y-77690774D01*
X125181894Y-77605181D01*
X125181890Y-77605176D01*
X125181888Y-77605172D01*
X125136133Y-77552368D01*
X125103359Y-77520743D01*
X125015024Y-77474535D01*
X125015023Y-77474534D01*
X125015022Y-77474534D01*
X125015022Y-77474533D01*
X124947990Y-77454851D01*
X124947978Y-77454848D01*
X124876001Y-77444500D01*
X124876000Y-77444500D01*
X123255182Y-77444500D01*
X123194948Y-77451701D01*
X123138133Y-77465483D01*
X123106242Y-77475468D01*
X123106236Y-77475471D01*
X123022053Y-77528864D01*
X123022050Y-77528866D01*
X123008035Y-77542229D01*
X123007851Y-77542405D01*
X122981369Y-77567655D01*
X122981468Y-77567758D01*
X122971002Y-77577816D01*
X122969834Y-77576648D01*
X122911137Y-77635344D01*
X122910211Y-77636234D01*
X122908691Y-77637024D01*
X122886296Y-77654209D01*
X122858708Y-77670138D01*
X122828800Y-77682527D01*
X122798023Y-77690774D01*
X122765928Y-77695000D01*
X122734071Y-77695000D01*
X122701975Y-77690774D01*
X122671196Y-77682526D01*
X122641293Y-77670140D01*
X122638338Y-77668434D01*
X122613703Y-77654211D01*
X122588026Y-77634508D01*
X122558785Y-77605267D01*
X122558784Y-77605266D01*
X122558772Y-77605254D01*
X122549333Y-77596286D01*
X122539933Y-77587800D01*
X122539929Y-77587796D01*
X122467653Y-77541878D01*
X122467649Y-77541876D01*
X122403239Y-77514825D01*
X122403238Y-77514824D01*
X122403234Y-77514823D01*
X122359837Y-77501000D01*
X122260175Y-77498729D01*
X122260171Y-77498730D01*
X122191349Y-77510797D01*
X122147375Y-77522628D01*
X122147374Y-77522629D01*
X122062300Y-77574604D01*
X122010937Y-77621955D01*
X122010934Y-77621957D01*
X122010931Y-77621961D01*
X122010928Y-77621965D01*
X121965021Y-77678360D01*
X121965014Y-77678370D01*
X120580420Y-79986027D01*
X120569958Y-79996418D01*
X120564695Y-80006887D01*
X120537174Y-80028984D01*
X120372687Y-80126183D01*
X120372687Y-80126184D01*
X120054607Y-80314141D01*
X119625436Y-80567742D01*
X115180937Y-83194036D01*
X115133662Y-83229989D01*
X115133658Y-83229993D01*
X115092453Y-83269681D01*
X115092451Y-83269683D01*
X115070742Y-83293400D01*
X115070741Y-83293403D01*
X115024534Y-83381734D01*
X115024533Y-83381735D01*
X115004851Y-83448767D01*
X115004848Y-83448779D01*
X114994500Y-83520756D01*
X104200000Y-83520756D01*
X104200000Y-69574038D01*
X106149500Y-69574038D01*
X106149500Y-69825961D01*
X106188910Y-70074785D01*
X106266760Y-70314383D01*
X106381132Y-70538848D01*
X106529201Y-70742649D01*
X106529205Y-70742654D01*
X106707345Y-70920794D01*
X106707350Y-70920798D01*
X106885117Y-71049952D01*
X106911155Y-71068870D01*
X107054184Y-71141747D01*
X107135616Y-71183239D01*
X107135618Y-71183239D01*
X107135621Y-71183241D01*
X107375215Y-71261090D01*
X107624038Y-71300500D01*
X107624039Y-71300500D01*
X107875961Y-71300500D01*
X107875962Y-71300500D01*
X108124785Y-71261090D01*
X108364379Y-71183241D01*
X108588845Y-71068870D01*
X108792656Y-70920793D01*
X108970793Y-70742656D01*
X109118870Y-70538845D01*
X109233241Y-70314379D01*
X109311090Y-70074785D01*
X109350500Y-69825962D01*
X109350500Y-69574038D01*
X109311090Y-69325215D01*
X109233241Y-69085621D01*
X109233239Y-69085618D01*
X109233239Y-69085616D01*
X109135604Y-68893998D01*
X109118870Y-68861155D01*
X109022424Y-68728408D01*
X108970798Y-68657350D01*
X108970794Y-68657345D01*
X108792654Y-68479205D01*
X108792649Y-68479201D01*
X108588848Y-68331132D01*
X108588847Y-68331131D01*
X108588845Y-68331130D01*
X108518747Y-68295413D01*
X108364383Y-68216760D01*
X108124785Y-68138910D01*
X108003202Y-68119653D01*
X107875962Y-68099500D01*
X107624038Y-68099500D01*
X107499626Y-68119205D01*
X107375214Y-68138910D01*
X107135616Y-68216760D01*
X106911151Y-68331132D01*
X106707350Y-68479201D01*
X106707345Y-68479205D01*
X106529205Y-68657345D01*
X106529201Y-68657350D01*
X106381132Y-68861151D01*
X106266760Y-69085616D01*
X106188910Y-69325214D01*
X106149500Y-69574038D01*
X104200000Y-69574038D01*
X104200000Y-68186680D01*
X104201172Y-68180352D01*
X104200406Y-68176658D01*
X104208236Y-68142243D01*
X104224643Y-68099500D01*
X104266631Y-67990117D01*
X104271897Y-67978288D01*
X104408079Y-67711014D01*
X104414540Y-67699824D01*
X104577915Y-67448249D01*
X104585524Y-67437777D01*
X104774290Y-67204670D01*
X104782957Y-67195045D01*
X104995045Y-66982957D01*
X105004670Y-66974290D01*
X105237777Y-66785524D01*
X105248249Y-66777915D01*
X105499824Y-66614540D01*
X105511014Y-66608079D01*
X105778288Y-66471897D01*
X105790117Y-66466631D01*
X106070143Y-66359139D01*
X106082451Y-66355140D01*
X106107921Y-66348315D01*
X106139380Y-66344094D01*
X121694707Y-66266876D01*
X121719500Y-66269255D01*
X121756967Y-66276707D01*
X121772603Y-66280897D01*
X122003657Y-66359330D01*
X122018635Y-66365534D01*
X122237460Y-66473447D01*
X122251506Y-66481557D01*
X122454372Y-66617107D01*
X122467241Y-66626981D01*
X122650678Y-66787852D01*
X122662147Y-66799321D01*
X122823018Y-66982758D01*
X122832892Y-66995627D01*
X122968442Y-67198493D01*
X122976552Y-67212539D01*
X123084465Y-67431364D01*
X123090672Y-67446349D01*
X123169097Y-67677381D01*
X123173295Y-67693049D01*
X123220893Y-67932340D01*
X123223011Y-67948421D01*
X123239235Y-68195956D01*
X123239500Y-68204066D01*
X123239500Y-74331768D01*
X123239501Y-74331785D01*
X123273899Y-74593067D01*
X123342113Y-74847645D01*
X123442965Y-75091123D01*
X123442969Y-75091133D01*
X123574742Y-75319370D01*
X123735180Y-75528458D01*
X123735186Y-75528465D01*
X123921534Y-75714813D01*
X123921541Y-75714819D01*
X124130629Y-75875257D01*
X124358866Y-76007030D01*
X124358867Y-76007030D01*
X124358870Y-76007032D01*
X124602359Y-76107888D01*
X124856929Y-76176100D01*
X125118225Y-76210500D01*
X125118232Y-76210500D01*
X139381768Y-76210500D01*
X139381775Y-76210500D01*
X139643071Y-76176100D01*
X139897641Y-76107888D01*
X140141130Y-76007032D01*
X140369371Y-75875257D01*
X140578460Y-75714818D01*
X140764818Y-75528460D01*
X140925257Y-75319371D01*
X141057032Y-75091130D01*
X141157888Y-74847641D01*
X141226100Y-74593071D01*
X141260500Y-74331775D01*
X141260500Y-74200000D01*
X141260500Y-74196588D01*
X141260500Y-73725321D01*
X154359500Y-73725321D01*
X154359500Y-75474678D01*
X154374032Y-75547735D01*
X154374033Y-75547739D01*
X154374034Y-75547740D01*
X154429399Y-75630601D01*
X154512260Y-75685966D01*
X154512264Y-75685967D01*
X154585321Y-75700499D01*
X154585324Y-75700500D01*
X154585326Y-75700500D01*
X156334676Y-75700500D01*
X156334677Y-75700499D01*
X156407740Y-75685966D01*
X156490601Y-75630601D01*
X156545966Y-75547740D01*
X156560500Y-75474674D01*
X156560500Y-74513389D01*
X156899500Y-74513389D01*
X156899500Y-74686610D01*
X156925004Y-74847641D01*
X156926598Y-74857701D01*
X156980127Y-75022445D01*
X157058768Y-75176788D01*
X157160586Y-75316928D01*
X157283072Y-75439414D01*
X157423212Y-75541232D01*
X157577555Y-75619873D01*
X157742299Y-75673402D01*
X157913389Y-75700500D01*
X157913390Y-75700500D01*
X158086610Y-75700500D01*
X158086611Y-75700500D01*
X158257701Y-75673402D01*
X158422445Y-75619873D01*
X158576788Y-75541232D01*
X158716928Y-75439414D01*
X158839414Y-75316928D01*
X158941232Y-75176788D01*
X159019873Y-75022445D01*
X159073402Y-74857701D01*
X159100500Y-74686611D01*
X159100500Y-74513389D01*
X159073402Y-74342299D01*
X159019873Y-74177555D01*
X158941232Y-74023212D01*
X158839414Y-73883072D01*
X158716928Y-73760586D01*
X158576788Y-73658768D01*
X158422445Y-73580127D01*
X158257701Y-73526598D01*
X158257699Y-73526597D01*
X158257698Y-73526597D01*
X158126271Y-73505781D01*
X158086611Y-73499500D01*
X157913389Y-73499500D01*
X157873728Y-73505781D01*
X157742302Y-73526597D01*
X157577552Y-73580128D01*
X157423211Y-73658768D01*
X157343256Y-73716859D01*
X157283072Y-73760586D01*
X157283070Y-73760588D01*
X157283069Y-73760588D01*
X157160588Y-73883069D01*
X157160588Y-73883070D01*
X157160586Y-73883072D01*
X157116859Y-73943256D01*
X157058768Y-74023211D01*
X156980128Y-74177552D01*
X156926597Y-74342302D01*
X156899500Y-74513389D01*
X156560500Y-74513389D01*
X156560500Y-73725326D01*
X156560500Y-73725323D01*
X156560499Y-73725321D01*
X156545967Y-73652264D01*
X156545966Y-73652260D01*
X156490601Y-73569399D01*
X156407740Y-73514034D01*
X156407739Y-73514033D01*
X156407735Y-73514032D01*
X156334677Y-73499500D01*
X156334674Y-73499500D01*
X154585326Y-73499500D01*
X154585323Y-73499500D01*
X154512264Y-73514032D01*
X154512260Y-73514033D01*
X154429399Y-73569399D01*
X154374033Y-73652260D01*
X154374032Y-73652264D01*
X154359500Y-73725321D01*
X141260500Y-73725321D01*
X141260500Y-69574038D01*
X155149500Y-69574038D01*
X155149500Y-69825961D01*
X155188910Y-70074785D01*
X155266760Y-70314383D01*
X155381132Y-70538848D01*
X155529201Y-70742649D01*
X155529205Y-70742654D01*
X155707345Y-70920794D01*
X155707350Y-70920798D01*
X155885117Y-71049952D01*
X155911155Y-71068870D01*
X156054184Y-71141747D01*
X156135616Y-71183239D01*
X156135618Y-71183239D01*
X156135621Y-71183241D01*
X156375215Y-71261090D01*
X156624038Y-71300500D01*
X156624039Y-71300500D01*
X156875961Y-71300500D01*
X156875962Y-71300500D01*
X157124785Y-71261090D01*
X157364379Y-71183241D01*
X157588845Y-71068870D01*
X157792656Y-70920793D01*
X157970793Y-70742656D01*
X158118870Y-70538845D01*
X158233241Y-70314379D01*
X158311090Y-70074785D01*
X158350500Y-69825962D01*
X158350500Y-69574038D01*
X158311090Y-69325215D01*
X158233241Y-69085621D01*
X158233239Y-69085618D01*
X158233239Y-69085616D01*
X158135604Y-68893998D01*
X158118870Y-68861155D01*
X158022424Y-68728408D01*
X157970798Y-68657350D01*
X157970794Y-68657345D01*
X157792654Y-68479205D01*
X157792649Y-68479201D01*
X157588848Y-68331132D01*
X157588847Y-68331131D01*
X157588845Y-68331130D01*
X157518747Y-68295413D01*
X157364383Y-68216760D01*
X157124785Y-68138910D01*
X157003202Y-68119653D01*
X156875962Y-68099500D01*
X156624038Y-68099500D01*
X156499626Y-68119205D01*
X156375214Y-68138910D01*
X156135616Y-68216760D01*
X155911151Y-68331132D01*
X155707350Y-68479201D01*
X155707345Y-68479205D01*
X155529205Y-68657345D01*
X155529201Y-68657350D01*
X155381132Y-68861151D01*
X155266760Y-69085616D01*
X155188910Y-69325214D01*
X155149500Y-69574038D01*
X141260500Y-69574038D01*
X141260500Y-68204066D01*
X141260765Y-68195957D01*
X141267087Y-68099500D01*
X141276989Y-67948407D01*
X141279104Y-67932353D01*
X141326706Y-67693039D01*
X141330897Y-67677396D01*
X141409331Y-67446337D01*
X141415531Y-67431371D01*
X141523450Y-67212533D01*
X141531557Y-67198493D01*
X141667107Y-66995627D01*
X141676972Y-66982769D01*
X141837857Y-66799315D01*
X141849315Y-66787857D01*
X142032769Y-66626972D01*
X142045622Y-66617110D01*
X142248493Y-66481557D01*
X142262533Y-66473450D01*
X142481371Y-66365531D01*
X142496337Y-66359331D01*
X142727396Y-66280897D01*
X142743039Y-66276706D01*
X142982353Y-66229104D01*
X142998409Y-66226989D01*
X143224557Y-66212167D01*
X143245958Y-66210765D01*
X143254067Y-66210500D01*
X157496588Y-66210500D01*
X157496754Y-66210500D01*
X157503243Y-66210669D01*
G37*
%TD.AperFunction*%
%TD*%
%TA.AperFunction,Conductor*%
%TO.N,GND1*%
G36*
X151507260Y-101199398D02*
G01*
X151574203Y-101219410D01*
X151619699Y-101272436D01*
X151630655Y-101323397D01*
X151630655Y-104475393D01*
X151610970Y-104542432D01*
X151558166Y-104588187D01*
X151506050Y-104599392D01*
X145000000Y-104567655D01*
X145000000Y-104500000D01*
X144400000Y-104500000D01*
X144400000Y-104564728D01*
X141504050Y-104550601D01*
X141437107Y-104530589D01*
X141391611Y-104477563D01*
X141380655Y-104426602D01*
X141380655Y-101274606D01*
X141400340Y-101207567D01*
X141453144Y-101161812D01*
X141505256Y-101150607D01*
X151507260Y-101199398D01*
G37*
%TD.AperFunction*%
%TD*%
%TA.AperFunction,Conductor*%
%TO.N,/MIPI-lanes/+3V3*%
G36*
X131858968Y-82220858D02*
G01*
X131879801Y-82237615D01*
X131942686Y-82300500D01*
X132056814Y-82366392D01*
X132184108Y-82400500D01*
X132184110Y-82400500D01*
X132315890Y-82400500D01*
X132315892Y-82400500D01*
X132443186Y-82366392D01*
X132502292Y-82332266D01*
X132529358Y-82325700D01*
X132555446Y-82315970D01*
X132562837Y-82317577D01*
X132570191Y-82315794D01*
X132596509Y-82324902D01*
X132623719Y-82330822D01*
X132632409Y-82337328D01*
X132636218Y-82338646D01*
X132651973Y-82351973D01*
X132713681Y-82413681D01*
X132747166Y-82475004D01*
X132750000Y-82501362D01*
X132750000Y-87674548D01*
X132739974Y-87723394D01*
X130500000Y-92950000D01*
X130500000Y-110076000D01*
X130480315Y-110143039D01*
X130427511Y-110188794D01*
X130376000Y-110200000D01*
X128119820Y-110200000D01*
X128052781Y-110180315D01*
X128007026Y-110127511D01*
X127995893Y-110080251D01*
X127989728Y-109900507D01*
X127954853Y-108883707D01*
X128650000Y-108900000D01*
X128650000Y-108050000D01*
X127926048Y-108043864D01*
X127248329Y-88284108D01*
X128949500Y-88284108D01*
X128949500Y-88415891D01*
X128983608Y-88543187D01*
X129016554Y-88600250D01*
X129049500Y-88657314D01*
X129142686Y-88750500D01*
X129256814Y-88816392D01*
X129384108Y-88850500D01*
X129384110Y-88850500D01*
X129515890Y-88850500D01*
X129515892Y-88850500D01*
X129643186Y-88816392D01*
X129757314Y-88750500D01*
X129850500Y-88657314D01*
X129916392Y-88543186D01*
X129950500Y-88415892D01*
X129950500Y-88284108D01*
X129916392Y-88156814D01*
X129850500Y-88042686D01*
X129757314Y-87949500D01*
X129700250Y-87916554D01*
X129643187Y-87883608D01*
X129579539Y-87866554D01*
X129515892Y-87849500D01*
X129384108Y-87849500D01*
X129256812Y-87883608D01*
X129142686Y-87949500D01*
X129142683Y-87949502D01*
X129049502Y-88042683D01*
X129049500Y-88042686D01*
X128983608Y-88156812D01*
X128949500Y-88284108D01*
X127248329Y-88284108D01*
X127044390Y-82338012D01*
X127061765Y-82270341D01*
X127112969Y-82222803D01*
X127168088Y-82209765D01*
X129737542Y-82205059D01*
X129804613Y-82224620D01*
X129850465Y-82277340D01*
X129860535Y-82346480D01*
X129831627Y-82410089D01*
X129825448Y-82416738D01*
X129799500Y-82442686D01*
X129733608Y-82556812D01*
X129699500Y-82684108D01*
X129699500Y-82815891D01*
X129733608Y-82943187D01*
X129766554Y-83000250D01*
X129799500Y-83057314D01*
X129892686Y-83150500D01*
X130006814Y-83216392D01*
X130134108Y-83250500D01*
X130134110Y-83250500D01*
X130265890Y-83250500D01*
X130265892Y-83250500D01*
X130393186Y-83216392D01*
X130507314Y-83150500D01*
X130600500Y-83057314D01*
X130666392Y-82943186D01*
X130700500Y-82815892D01*
X130700500Y-82684108D01*
X130666392Y-82556814D01*
X130600500Y-82442686D01*
X130572863Y-82415049D01*
X130539378Y-82353726D01*
X130544362Y-82284034D01*
X130586234Y-82228101D01*
X130651698Y-82203684D01*
X130660277Y-82203369D01*
X131791896Y-82201296D01*
X131858968Y-82220858D01*
G37*
%TD.AperFunction*%
%TD*%
%TA.AperFunction,Conductor*%
%TO.N,/MIPI-lanes/+3V3*%
G36*
X117289405Y-96771785D02*
G01*
X117336952Y-96822981D01*
X117350000Y-96878349D01*
X117350000Y-98500000D01*
X122750000Y-108000000D01*
X128650000Y-108050000D01*
X128650000Y-108900000D01*
X127954853Y-108883707D01*
X127356156Y-108869675D01*
X122318574Y-108751607D01*
X122252014Y-108730357D01*
X122214921Y-108691056D01*
X121803658Y-108000000D01*
X116162552Y-98521091D01*
X116146429Y-98475717D01*
X116137378Y-98414175D01*
X115920174Y-96937185D01*
X115929896Y-96867998D01*
X115975481Y-96815048D01*
X116038580Y-96795221D01*
X117221727Y-96754423D01*
X117289405Y-96771785D01*
G37*
%TD.AperFunction*%
%TD*%
%TA.AperFunction,Conductor*%
%TO.N,/MIPI-lanes/+1V8*%
G36*
X122774035Y-90969685D02*
G01*
X122783771Y-90976627D01*
X125303108Y-92963028D01*
X125343564Y-93019993D01*
X125350331Y-93059712D01*
X125399848Y-101972752D01*
X125380536Y-102039900D01*
X125327987Y-102085947D01*
X125273320Y-102097415D01*
X123071470Y-102052479D01*
X123004846Y-102031431D01*
X122960178Y-101977704D01*
X122950000Y-101928505D01*
X122950000Y-94400000D01*
X122949999Y-94399999D01*
X120750000Y-92450000D01*
X117500000Y-92450000D01*
X117500000Y-90950000D01*
X122706996Y-90950000D01*
X122774035Y-90969685D01*
G37*
%TD.AperFunction*%
%TD*%
%TA.AperFunction,Conductor*%
%TO.N,/MIPI-lanes/+1V8*%
G36*
X124943039Y-77719685D02*
G01*
X124988794Y-77772489D01*
X125000000Y-77824000D01*
X125000000Y-81148638D01*
X124980315Y-81215677D01*
X124963681Y-81236319D01*
X124530083Y-81669916D01*
X124468760Y-81703401D01*
X124457782Y-81705277D01*
X122500015Y-81949997D01*
X122500001Y-81949999D01*
X121500000Y-82200000D01*
X121499998Y-82200000D01*
X119190404Y-83787846D01*
X119124008Y-83809605D01*
X119088063Y-83805440D01*
X119065896Y-83799500D01*
X119065892Y-83799500D01*
X118934108Y-83799500D01*
X118806812Y-83833608D01*
X118692686Y-83899500D01*
X118692683Y-83899502D01*
X118599502Y-83992683D01*
X118599500Y-83992686D01*
X118533609Y-84106812D01*
X118501899Y-84225154D01*
X118465534Y-84284814D01*
X118452374Y-84295241D01*
X117500000Y-84950000D01*
X117500000Y-92450000D01*
X115374000Y-92450000D01*
X115306961Y-92430315D01*
X115261206Y-92377511D01*
X115250000Y-92326000D01*
X115250000Y-86834108D01*
X116099500Y-86834108D01*
X116099500Y-86965891D01*
X116133608Y-87093187D01*
X116166121Y-87149500D01*
X116199500Y-87207314D01*
X116292686Y-87300500D01*
X116406814Y-87366392D01*
X116534108Y-87400500D01*
X116534110Y-87400500D01*
X116665890Y-87400500D01*
X116665892Y-87400500D01*
X116793186Y-87366392D01*
X116907314Y-87300500D01*
X117000500Y-87207314D01*
X117066392Y-87093186D01*
X117100500Y-86965892D01*
X117100500Y-86834108D01*
X117066392Y-86706814D01*
X117000500Y-86592686D01*
X116907314Y-86499500D01*
X116850250Y-86466554D01*
X116793187Y-86433608D01*
X116729539Y-86416554D01*
X116665892Y-86399500D01*
X116534108Y-86399500D01*
X116406812Y-86433608D01*
X116292686Y-86499500D01*
X116292683Y-86499502D01*
X116199502Y-86592683D01*
X116199500Y-86592686D01*
X116133608Y-86706812D01*
X116099500Y-86834108D01*
X115250000Y-86834108D01*
X115250000Y-83520758D01*
X115269685Y-83453719D01*
X115310918Y-83414003D01*
X120184587Y-80534108D01*
X122389500Y-80534108D01*
X122389500Y-80665892D01*
X122402038Y-80712686D01*
X122423608Y-80793187D01*
X122443022Y-80826812D01*
X122489500Y-80907314D01*
X122582686Y-81000500D01*
X122696814Y-81066392D01*
X122824108Y-81100500D01*
X122824110Y-81100500D01*
X122955889Y-81100500D01*
X122955892Y-81100500D01*
X122955894Y-81100499D01*
X122961592Y-81099749D01*
X123030627Y-81110513D01*
X123082884Y-81156892D01*
X123097553Y-81190591D01*
X123103608Y-81213186D01*
X123169500Y-81327314D01*
X123262686Y-81420500D01*
X123376814Y-81486392D01*
X123504108Y-81520500D01*
X123504110Y-81520500D01*
X123635890Y-81520500D01*
X123635892Y-81520500D01*
X123763186Y-81486392D01*
X123877314Y-81420500D01*
X123970500Y-81327314D01*
X124036392Y-81213186D01*
X124070500Y-81085892D01*
X124070500Y-80954108D01*
X124036392Y-80826814D01*
X123970500Y-80712686D01*
X123877314Y-80619500D01*
X123820250Y-80586554D01*
X123763187Y-80553608D01*
X123690410Y-80534108D01*
X123635892Y-80519500D01*
X123504108Y-80519500D01*
X123504106Y-80519500D01*
X123498406Y-80520251D01*
X123429371Y-80509486D01*
X123377114Y-80463107D01*
X123362446Y-80429410D01*
X123356392Y-80406814D01*
X123290500Y-80292686D01*
X123197314Y-80199500D01*
X123140250Y-80166554D01*
X123083187Y-80133608D01*
X123019539Y-80116554D01*
X122955892Y-80099500D01*
X122824108Y-80099500D01*
X122696812Y-80133608D01*
X122582686Y-80199500D01*
X122582683Y-80199502D01*
X122489502Y-80292683D01*
X122489500Y-80292686D01*
X122423608Y-80406812D01*
X122408524Y-80463107D01*
X122389500Y-80534108D01*
X120184587Y-80534108D01*
X120379003Y-80419226D01*
X120502668Y-80346150D01*
X120750000Y-80200000D01*
X122184110Y-77809815D01*
X122235480Y-77762458D01*
X122304299Y-77750391D01*
X122368718Y-77777446D01*
X122378119Y-77785933D01*
X122442686Y-77850500D01*
X122556814Y-77916392D01*
X122684108Y-77950500D01*
X122684110Y-77950500D01*
X122815890Y-77950500D01*
X122815892Y-77950500D01*
X122943186Y-77916392D01*
X123057314Y-77850500D01*
X123150500Y-77757314D01*
X123150503Y-77757307D01*
X123155450Y-77750863D01*
X123157679Y-77752574D01*
X123198364Y-77713783D01*
X123255182Y-77700000D01*
X124876000Y-77700000D01*
X124943039Y-77719685D01*
G37*
%TD.AperFunction*%
%TD*%
M02*
