M48
; DRILL file {KiCad 9.0.9-9.0.9~ubuntu24.04.1} date 2026-08-12T11:20:06-0400
; FORMAT={-:-/ absolute / metric / decimal}
; #@! TF.CreationDate,2026-08-12T11:20:06-04:00
; #@! TF.GenerationSoftware,Kicad,Pcbnew,9.0.9-9.0.9~ubuntu24.04.1
; #@! TF.FileFunction,Plated,1,4,PTH
FMAT,2
METRIC
; #@! TA.AperFunction,Plated,PTH,ComponentDrill
T1C0.200
; #@! TA.AperFunction,Plated,PTH,ViaDrill
T2C0.300
; #@! TA.AperFunction,Plated,PTH,ComponentDrill
T3C1.000
%
G90
G05
T1
X144.05Y-101.65
X144.05Y-102.95
X144.05Y-104.25
X145.35Y-101.65
X145.35Y-102.95
X145.35Y-104.25
X146.65Y-101.65
X146.65Y-102.95
X146.65Y-104.25
X147.95Y-101.65
X147.95Y-102.95
X147.95Y-104.25
X149.25Y-101.65
X149.25Y-102.95
X149.25Y-104.25
T2
X104.5Y-102.1
X104.65Y-107.5
X105.1Y-73.65
X105.1Y-84.9
X105.1Y-88.4
X105.2Y-78.45
X105.45Y-93.35
X105.75Y-124.75
X106.25Y-67.0
X106.4Y-104.16
X106.669Y-103.431
X106.75Y-112.75
X107.11Y-102.09
X107.131Y-102.969
X108.73Y-105.23
X108.75Y-107.82
X108.8Y-84.2
X109.25Y-77.5
X109.33Y-99.15
X109.384Y-100.02
X109.75Y-67.0
X110.036Y-100.02
X110.14Y-99.14
X110.5Y-74.75
X110.85Y-93.15
X111.5Y-79.25
X111.66Y-107.95
X111.75Y-70.75
X111.79Y-105.15
X112.5Y-112.75
X112.5Y-124.5
X113.21Y-105.54
X113.34Y-107.88
X113.61Y-102.59
X113.674Y-103.39
X113.75Y-67.0
X114.326Y-103.39
X114.41Y-102.57
X114.7Y-88.8
X114.7Y-89.6
X114.76Y-107.76
X114.98Y-98.89
X115.0Y-73.5
X115.0Y-110.674
X115.0Y-111.326
X115.02Y-109.86
X115.02Y-112.17
X115.4Y-102.9
X115.75Y-130.0
X116.209Y-102.779
X116.29Y-107.93
X116.35Y-98.25
X116.5Y-70.5
X116.6Y-86.9
X116.671Y-103.241
X116.69Y-104.03
X116.75Y-67.0
X117.1Y-98.2
X117.75Y-91.35
X117.75Y-112.5
X117.81Y-107.92
X118.05Y-92.05
X118.19Y-105.57
X119.0Y-84.3
X119.75Y-124.5
X120.0Y-73.25
X120.5Y-67.0
X120.5Y-113.0
X120.5Y-119.0
X121.85Y-87.4
X122.25Y-72.0
X122.25Y-75.0
X122.5Y-69.0
X122.6Y-87.55
X122.75Y-77.45
X122.89Y-80.6
X123.57Y-81.02
X123.9Y-101.8
X123.95Y-101.05
X124.3Y-81.45
X124.3Y-90.45
X124.45Y-110.75
X124.45Y-111.45
X124.5Y-112.1
X124.7Y-80.95
X125.0Y-130.25
X125.1Y-110.7
X125.1Y-111.45
X125.1Y-112.1
X126.67Y-99.42
X126.88Y-98.65
X127.5Y-83.02
X128.3Y-107.5
X128.3Y-108.5
X128.75Y-76.75
X129.0Y-118.2
X129.05Y-118.9
X129.2Y-108.5
X129.3Y-107.5
X129.45Y-88.35
X129.5Y-118.5
X130.05Y-118.2
X130.05Y-118.85
X130.1Y-108.5
X130.2Y-82.75
X130.2Y-96.15
X130.2Y-107.5
X130.3Y-79.424
X130.3Y-80.076
X130.86Y-77.14
X131.75Y-76.75
X131.85Y-82.65
X132.25Y-79.524
X132.25Y-80.176
X132.25Y-81.9
X132.25Y-130.0
X132.95Y-93.8
X133.05Y-77.3
X133.112Y-79.459
X133.112Y-80.111
X133.95Y-76.75
X134.843Y-79.44
X134.843Y-80.092
X134.95Y-77.35
X134.95Y-82.45
X135.65Y-85.8
X136.25Y-118.15
X136.25Y-118.8
X136.55Y-79.374
X136.55Y-80.026
X136.75Y-83.7
X137.1Y-118.15
X137.1Y-118.75
X137.17Y-77.21
X137.95Y-118.75
X138.05Y-118.15
X138.5Y-102.95
X140.5Y-84.25
X140.5Y-86.5
X140.98Y-81.93
X141.0Y-83.25
X141.25Y-76.0
X141.75Y-72.25
X141.75Y-88.0
X142.0Y-69.25
X142.0Y-130.25
X142.5Y-84.5
X142.5Y-86.25
X143.0Y-82.25
X143.0Y-83.25
X143.5Y-67.25
X143.73Y-80.97
X143.9Y-110.6
X144.25Y-86.75
X144.7Y-110.6
X145.0Y-97.0
X145.25Y-84.75
X145.25Y-85.75
X145.25Y-97.75
X145.5Y-82.25
X145.75Y-75.0
X145.9Y-108.0
X146.0Y-69.5
X146.0Y-72.0
X146.0Y-97.75
X146.25Y-97.0
X146.4Y-107.1
X146.8Y-108.1
X147.02Y-98.82
X147.76Y-98.86
X147.9Y-97.37
X148.7Y-107.15
X149.0Y-67.25
X149.15Y-110.35
X149.25Y-76.0
X149.25Y-130.25
X150.2Y-97.1
X153.25Y-67.0
X153.25Y-123.5
X153.25Y-126.0
X153.75Y-130.0
X159.0Y-125.0
T3
X155.46Y-74.6
X155.46Y-77.14
X155.46Y-79.68
X155.46Y-82.22
X155.46Y-84.76
X155.46Y-87.3
X155.46Y-89.84
X155.46Y-92.38
X155.46Y-94.92
X155.46Y-97.46
X155.46Y-100.0
X155.46Y-102.54
X155.46Y-105.08
X155.46Y-107.62
X155.46Y-110.16
X155.46Y-112.7
X155.46Y-115.24
X155.46Y-117.78
X155.46Y-120.32
X155.46Y-122.86
X158.0Y-74.6
X158.0Y-77.14
X158.0Y-79.68
X158.0Y-82.22
X158.0Y-84.76
X158.0Y-87.3
X158.0Y-89.84
X158.0Y-92.38
X158.0Y-94.92
X158.0Y-97.46
X158.0Y-100.0
X158.0Y-102.54
X158.0Y-105.08
X158.0Y-107.62
X158.0Y-110.16
X158.0Y-112.7
X158.0Y-115.24
X158.0Y-117.78
X158.0Y-120.32
X158.0Y-122.86
M30
