%TF.GenerationSoftware,KiCad,Pcbnew,9.0.9-9.0.9~ubuntu24.04.1*%
%TF.CreationDate,2026-08-12T11:20:00-04:00*%
%TF.ProjectId,tv070hat,74763037-3068-4617-942e-6b696361645f,rev?*%
%TF.SameCoordinates,Original*%
%TF.FileFunction,Legend,Top*%
%TF.FilePolarity,Positive*%
%FSLAX46Y46*%
G04 Gerber Fmt 4.6, Leading zero omitted, Abs format (unit mm)*
G04 Created by KiCad (PCBNEW 9.0.9-9.0.9~ubuntu24.04.1) date 2026-08-12 11:20:00*
%MOMM*%
%LPD*%
G01*
G04 APERTURE LIST*
%ADD10C,0.150000*%
%ADD11C,0.100000*%
%ADD12C,0.120000*%
%ADD13C,0.250000*%
G04 APERTURE END LIST*
D10*
X108562319Y-95381904D02*
X109371842Y-95381904D01*
X109371842Y-95381904D02*
X109467080Y-95334285D01*
X109467080Y-95334285D02*
X109514700Y-95286666D01*
X109514700Y-95286666D02*
X109562319Y-95191428D01*
X109562319Y-95191428D02*
X109562319Y-95000952D01*
X109562319Y-95000952D02*
X109514700Y-94905714D01*
X109514700Y-94905714D02*
X109467080Y-94858095D01*
X109467080Y-94858095D02*
X109371842Y-94810476D01*
X109371842Y-94810476D02*
X108562319Y-94810476D01*
X108562319Y-93858095D02*
X108562319Y-94334285D01*
X108562319Y-94334285D02*
X109038509Y-94381904D01*
X109038509Y-94381904D02*
X108990890Y-94334285D01*
X108990890Y-94334285D02*
X108943271Y-94239047D01*
X108943271Y-94239047D02*
X108943271Y-94000952D01*
X108943271Y-94000952D02*
X108990890Y-93905714D01*
X108990890Y-93905714D02*
X109038509Y-93858095D01*
X109038509Y-93858095D02*
X109133747Y-93810476D01*
X109133747Y-93810476D02*
X109371842Y-93810476D01*
X109371842Y-93810476D02*
X109467080Y-93858095D01*
X109467080Y-93858095D02*
X109514700Y-93905714D01*
X109514700Y-93905714D02*
X109562319Y-94000952D01*
X109562319Y-94000952D02*
X109562319Y-94239047D01*
X109562319Y-94239047D02*
X109514700Y-94334285D01*
X109514700Y-94334285D02*
X109467080Y-94381904D01*
X143359580Y-108966666D02*
X143407200Y-109014285D01*
X143407200Y-109014285D02*
X143454819Y-109157142D01*
X143454819Y-109157142D02*
X143454819Y-109252380D01*
X143454819Y-109252380D02*
X143407200Y-109395237D01*
X143407200Y-109395237D02*
X143311961Y-109490475D01*
X143311961Y-109490475D02*
X143216723Y-109538094D01*
X143216723Y-109538094D02*
X143026247Y-109585713D01*
X143026247Y-109585713D02*
X142883390Y-109585713D01*
X142883390Y-109585713D02*
X142692914Y-109538094D01*
X142692914Y-109538094D02*
X142597676Y-109490475D01*
X142597676Y-109490475D02*
X142502438Y-109395237D01*
X142502438Y-109395237D02*
X142454819Y-109252380D01*
X142454819Y-109252380D02*
X142454819Y-109157142D01*
X142454819Y-109157142D02*
X142502438Y-109014285D01*
X142502438Y-109014285D02*
X142550057Y-108966666D01*
X142454819Y-108633332D02*
X142454819Y-107966666D01*
X142454819Y-107966666D02*
X143454819Y-108395237D01*
X120647142Y-78269580D02*
X120599523Y-78317200D01*
X120599523Y-78317200D02*
X120456666Y-78364819D01*
X120456666Y-78364819D02*
X120361428Y-78364819D01*
X120361428Y-78364819D02*
X120218571Y-78317200D01*
X120218571Y-78317200D02*
X120123333Y-78221961D01*
X120123333Y-78221961D02*
X120075714Y-78126723D01*
X120075714Y-78126723D02*
X120028095Y-77936247D01*
X120028095Y-77936247D02*
X120028095Y-77793390D01*
X120028095Y-77793390D02*
X120075714Y-77602914D01*
X120075714Y-77602914D02*
X120123333Y-77507676D01*
X120123333Y-77507676D02*
X120218571Y-77412438D01*
X120218571Y-77412438D02*
X120361428Y-77364819D01*
X120361428Y-77364819D02*
X120456666Y-77364819D01*
X120456666Y-77364819D02*
X120599523Y-77412438D01*
X120599523Y-77412438D02*
X120647142Y-77460057D01*
X121599523Y-78364819D02*
X121028095Y-78364819D01*
X121313809Y-78364819D02*
X121313809Y-77364819D01*
X121313809Y-77364819D02*
X121218571Y-77507676D01*
X121218571Y-77507676D02*
X121123333Y-77602914D01*
X121123333Y-77602914D02*
X121028095Y-77650533D01*
X121980476Y-77460057D02*
X122028095Y-77412438D01*
X122028095Y-77412438D02*
X122123333Y-77364819D01*
X122123333Y-77364819D02*
X122361428Y-77364819D01*
X122361428Y-77364819D02*
X122456666Y-77412438D01*
X122456666Y-77412438D02*
X122504285Y-77460057D01*
X122504285Y-77460057D02*
X122551904Y-77555295D01*
X122551904Y-77555295D02*
X122551904Y-77650533D01*
X122551904Y-77650533D02*
X122504285Y-77793390D01*
X122504285Y-77793390D02*
X121932857Y-78364819D01*
X121932857Y-78364819D02*
X122551904Y-78364819D01*
X125383333Y-100229580D02*
X125335714Y-100277200D01*
X125335714Y-100277200D02*
X125192857Y-100324819D01*
X125192857Y-100324819D02*
X125097619Y-100324819D01*
X125097619Y-100324819D02*
X124954762Y-100277200D01*
X124954762Y-100277200D02*
X124859524Y-100181961D01*
X124859524Y-100181961D02*
X124811905Y-100086723D01*
X124811905Y-100086723D02*
X124764286Y-99896247D01*
X124764286Y-99896247D02*
X124764286Y-99753390D01*
X124764286Y-99753390D02*
X124811905Y-99562914D01*
X124811905Y-99562914D02*
X124859524Y-99467676D01*
X124859524Y-99467676D02*
X124954762Y-99372438D01*
X124954762Y-99372438D02*
X125097619Y-99324819D01*
X125097619Y-99324819D02*
X125192857Y-99324819D01*
X125192857Y-99324819D02*
X125335714Y-99372438D01*
X125335714Y-99372438D02*
X125383333Y-99420057D01*
X126240476Y-99658152D02*
X126240476Y-100324819D01*
X126002381Y-99277200D02*
X125764286Y-99991485D01*
X125764286Y-99991485D02*
X126383333Y-99991485D01*
X127244819Y-113391904D02*
X128054342Y-113391904D01*
X128054342Y-113391904D02*
X128149580Y-113344285D01*
X128149580Y-113344285D02*
X128197200Y-113296666D01*
X128197200Y-113296666D02*
X128244819Y-113201428D01*
X128244819Y-113201428D02*
X128244819Y-113010952D01*
X128244819Y-113010952D02*
X128197200Y-112915714D01*
X128197200Y-112915714D02*
X128149580Y-112868095D01*
X128149580Y-112868095D02*
X128054342Y-112820476D01*
X128054342Y-112820476D02*
X127244819Y-112820476D01*
X128244819Y-111820476D02*
X128244819Y-112391904D01*
X128244819Y-112106190D02*
X127244819Y-112106190D01*
X127244819Y-112106190D02*
X127387676Y-112201428D01*
X127387676Y-112201428D02*
X127482914Y-112296666D01*
X127482914Y-112296666D02*
X127530533Y-112391904D01*
X131359580Y-86342857D02*
X131407200Y-86390476D01*
X131407200Y-86390476D02*
X131454819Y-86533333D01*
X131454819Y-86533333D02*
X131454819Y-86628571D01*
X131454819Y-86628571D02*
X131407200Y-86771428D01*
X131407200Y-86771428D02*
X131311961Y-86866666D01*
X131311961Y-86866666D02*
X131216723Y-86914285D01*
X131216723Y-86914285D02*
X131026247Y-86961904D01*
X131026247Y-86961904D02*
X130883390Y-86961904D01*
X130883390Y-86961904D02*
X130692914Y-86914285D01*
X130692914Y-86914285D02*
X130597676Y-86866666D01*
X130597676Y-86866666D02*
X130502438Y-86771428D01*
X130502438Y-86771428D02*
X130454819Y-86628571D01*
X130454819Y-86628571D02*
X130454819Y-86533333D01*
X130454819Y-86533333D02*
X130502438Y-86390476D01*
X130502438Y-86390476D02*
X130550057Y-86342857D01*
X131454819Y-85390476D02*
X131454819Y-85961904D01*
X131454819Y-85676190D02*
X130454819Y-85676190D01*
X130454819Y-85676190D02*
X130597676Y-85771428D01*
X130597676Y-85771428D02*
X130692914Y-85866666D01*
X130692914Y-85866666D02*
X130740533Y-85961904D01*
X130883390Y-84819047D02*
X130835771Y-84914285D01*
X130835771Y-84914285D02*
X130788152Y-84961904D01*
X130788152Y-84961904D02*
X130692914Y-85009523D01*
X130692914Y-85009523D02*
X130645295Y-85009523D01*
X130645295Y-85009523D02*
X130550057Y-84961904D01*
X130550057Y-84961904D02*
X130502438Y-84914285D01*
X130502438Y-84914285D02*
X130454819Y-84819047D01*
X130454819Y-84819047D02*
X130454819Y-84628571D01*
X130454819Y-84628571D02*
X130502438Y-84533333D01*
X130502438Y-84533333D02*
X130550057Y-84485714D01*
X130550057Y-84485714D02*
X130645295Y-84438095D01*
X130645295Y-84438095D02*
X130692914Y-84438095D01*
X130692914Y-84438095D02*
X130788152Y-84485714D01*
X130788152Y-84485714D02*
X130835771Y-84533333D01*
X130835771Y-84533333D02*
X130883390Y-84628571D01*
X130883390Y-84628571D02*
X130883390Y-84819047D01*
X130883390Y-84819047D02*
X130931009Y-84914285D01*
X130931009Y-84914285D02*
X130978628Y-84961904D01*
X130978628Y-84961904D02*
X131073866Y-85009523D01*
X131073866Y-85009523D02*
X131264342Y-85009523D01*
X131264342Y-85009523D02*
X131359580Y-84961904D01*
X131359580Y-84961904D02*
X131407200Y-84914285D01*
X131407200Y-84914285D02*
X131454819Y-84819047D01*
X131454819Y-84819047D02*
X131454819Y-84628571D01*
X131454819Y-84628571D02*
X131407200Y-84533333D01*
X131407200Y-84533333D02*
X131359580Y-84485714D01*
X131359580Y-84485714D02*
X131264342Y-84438095D01*
X131264342Y-84438095D02*
X131073866Y-84438095D01*
X131073866Y-84438095D02*
X130978628Y-84485714D01*
X130978628Y-84485714D02*
X130931009Y-84533333D01*
X130931009Y-84533333D02*
X130883390Y-84628571D01*
X148857142Y-82809580D02*
X148809523Y-82857200D01*
X148809523Y-82857200D02*
X148666666Y-82904819D01*
X148666666Y-82904819D02*
X148571428Y-82904819D01*
X148571428Y-82904819D02*
X148428571Y-82857200D01*
X148428571Y-82857200D02*
X148333333Y-82761961D01*
X148333333Y-82761961D02*
X148285714Y-82666723D01*
X148285714Y-82666723D02*
X148238095Y-82476247D01*
X148238095Y-82476247D02*
X148238095Y-82333390D01*
X148238095Y-82333390D02*
X148285714Y-82142914D01*
X148285714Y-82142914D02*
X148333333Y-82047676D01*
X148333333Y-82047676D02*
X148428571Y-81952438D01*
X148428571Y-81952438D02*
X148571428Y-81904819D01*
X148571428Y-81904819D02*
X148666666Y-81904819D01*
X148666666Y-81904819D02*
X148809523Y-81952438D01*
X148809523Y-81952438D02*
X148857142Y-82000057D01*
X149809523Y-82904819D02*
X149238095Y-82904819D01*
X149523809Y-82904819D02*
X149523809Y-81904819D01*
X149523809Y-81904819D02*
X149428571Y-82047676D01*
X149428571Y-82047676D02*
X149333333Y-82142914D01*
X149333333Y-82142914D02*
X149238095Y-82190533D01*
X150428571Y-81904819D02*
X150523809Y-81904819D01*
X150523809Y-81904819D02*
X150619047Y-81952438D01*
X150619047Y-81952438D02*
X150666666Y-82000057D01*
X150666666Y-82000057D02*
X150714285Y-82095295D01*
X150714285Y-82095295D02*
X150761904Y-82285771D01*
X150761904Y-82285771D02*
X150761904Y-82523866D01*
X150761904Y-82523866D02*
X150714285Y-82714342D01*
X150714285Y-82714342D02*
X150666666Y-82809580D01*
X150666666Y-82809580D02*
X150619047Y-82857200D01*
X150619047Y-82857200D02*
X150523809Y-82904819D01*
X150523809Y-82904819D02*
X150428571Y-82904819D01*
X150428571Y-82904819D02*
X150333333Y-82857200D01*
X150333333Y-82857200D02*
X150285714Y-82809580D01*
X150285714Y-82809580D02*
X150238095Y-82714342D01*
X150238095Y-82714342D02*
X150190476Y-82523866D01*
X150190476Y-82523866D02*
X150190476Y-82285771D01*
X150190476Y-82285771D02*
X150238095Y-82095295D01*
X150238095Y-82095295D02*
X150285714Y-82000057D01*
X150285714Y-82000057D02*
X150333333Y-81952438D01*
X150333333Y-81952438D02*
X150428571Y-81904819D01*
X147473809Y-120604819D02*
X148045237Y-120604819D01*
X147759523Y-121604819D02*
X147759523Y-120604819D01*
X148949999Y-121604819D02*
X148616666Y-121128628D01*
X148378571Y-121604819D02*
X148378571Y-120604819D01*
X148378571Y-120604819D02*
X148759523Y-120604819D01*
X148759523Y-120604819D02*
X148854761Y-120652438D01*
X148854761Y-120652438D02*
X148902380Y-120700057D01*
X148902380Y-120700057D02*
X148949999Y-120795295D01*
X148949999Y-120795295D02*
X148949999Y-120938152D01*
X148949999Y-120938152D02*
X148902380Y-121033390D01*
X148902380Y-121033390D02*
X148854761Y-121081009D01*
X148854761Y-121081009D02*
X148759523Y-121128628D01*
X148759523Y-121128628D02*
X148378571Y-121128628D01*
X149330952Y-121557200D02*
X149426190Y-121604819D01*
X149426190Y-121604819D02*
X149616666Y-121604819D01*
X149616666Y-121604819D02*
X149711904Y-121557200D01*
X149711904Y-121557200D02*
X149759523Y-121461961D01*
X149759523Y-121461961D02*
X149759523Y-121414342D01*
X149759523Y-121414342D02*
X149711904Y-121319104D01*
X149711904Y-121319104D02*
X149616666Y-121271485D01*
X149616666Y-121271485D02*
X149473809Y-121271485D01*
X149473809Y-121271485D02*
X149378571Y-121223866D01*
X149378571Y-121223866D02*
X149330952Y-121128628D01*
X149330952Y-121128628D02*
X149330952Y-121081009D01*
X149330952Y-121081009D02*
X149378571Y-120985771D01*
X149378571Y-120985771D02*
X149473809Y-120938152D01*
X149473809Y-120938152D02*
X149616666Y-120938152D01*
X149616666Y-120938152D02*
X149711904Y-120985771D01*
X150045238Y-120938152D02*
X150426190Y-120938152D01*
X150188095Y-120604819D02*
X150188095Y-121461961D01*
X150188095Y-121461961D02*
X150235714Y-121557200D01*
X150235714Y-121557200D02*
X150330952Y-121604819D01*
X150330952Y-121604819D02*
X150426190Y-121604819D01*
X123294819Y-83872857D02*
X122818628Y-84206190D01*
X123294819Y-84444285D02*
X122294819Y-84444285D01*
X122294819Y-84444285D02*
X122294819Y-84063333D01*
X122294819Y-84063333D02*
X122342438Y-83968095D01*
X122342438Y-83968095D02*
X122390057Y-83920476D01*
X122390057Y-83920476D02*
X122485295Y-83872857D01*
X122485295Y-83872857D02*
X122628152Y-83872857D01*
X122628152Y-83872857D02*
X122723390Y-83920476D01*
X122723390Y-83920476D02*
X122771009Y-83968095D01*
X122771009Y-83968095D02*
X122818628Y-84063333D01*
X122818628Y-84063333D02*
X122818628Y-84444285D01*
X123294819Y-82920476D02*
X123294819Y-83491904D01*
X123294819Y-83206190D02*
X122294819Y-83206190D01*
X122294819Y-83206190D02*
X122437676Y-83301428D01*
X122437676Y-83301428D02*
X122532914Y-83396666D01*
X122532914Y-83396666D02*
X122580533Y-83491904D01*
X122294819Y-82301428D02*
X122294819Y-82206190D01*
X122294819Y-82206190D02*
X122342438Y-82110952D01*
X122342438Y-82110952D02*
X122390057Y-82063333D01*
X122390057Y-82063333D02*
X122485295Y-82015714D01*
X122485295Y-82015714D02*
X122675771Y-81968095D01*
X122675771Y-81968095D02*
X122913866Y-81968095D01*
X122913866Y-81968095D02*
X123104342Y-82015714D01*
X123104342Y-82015714D02*
X123199580Y-82063333D01*
X123199580Y-82063333D02*
X123247200Y-82110952D01*
X123247200Y-82110952D02*
X123294819Y-82206190D01*
X123294819Y-82206190D02*
X123294819Y-82301428D01*
X123294819Y-82301428D02*
X123247200Y-82396666D01*
X123247200Y-82396666D02*
X123199580Y-82444285D01*
X123199580Y-82444285D02*
X123104342Y-82491904D01*
X123104342Y-82491904D02*
X122913866Y-82539523D01*
X122913866Y-82539523D02*
X122675771Y-82539523D01*
X122675771Y-82539523D02*
X122485295Y-82491904D01*
X122485295Y-82491904D02*
X122390057Y-82444285D01*
X122390057Y-82444285D02*
X122342438Y-82396666D01*
X122342438Y-82396666D02*
X122294819Y-82301428D01*
X146107142Y-128352438D02*
X146011904Y-128304819D01*
X146011904Y-128304819D02*
X145869047Y-128304819D01*
X145869047Y-128304819D02*
X145726190Y-128352438D01*
X145726190Y-128352438D02*
X145630952Y-128447676D01*
X145630952Y-128447676D02*
X145583333Y-128542914D01*
X145583333Y-128542914D02*
X145535714Y-128733390D01*
X145535714Y-128733390D02*
X145535714Y-128876247D01*
X145535714Y-128876247D02*
X145583333Y-129066723D01*
X145583333Y-129066723D02*
X145630952Y-129161961D01*
X145630952Y-129161961D02*
X145726190Y-129257200D01*
X145726190Y-129257200D02*
X145869047Y-129304819D01*
X145869047Y-129304819D02*
X145964285Y-129304819D01*
X145964285Y-129304819D02*
X146107142Y-129257200D01*
X146107142Y-129257200D02*
X146154761Y-129209580D01*
X146154761Y-129209580D02*
X146154761Y-128876247D01*
X146154761Y-128876247D02*
X145964285Y-128876247D01*
X146583333Y-128638152D02*
X146583333Y-129304819D01*
X146583333Y-128733390D02*
X146630952Y-128685771D01*
X146630952Y-128685771D02*
X146726190Y-128638152D01*
X146726190Y-128638152D02*
X146869047Y-128638152D01*
X146869047Y-128638152D02*
X146964285Y-128685771D01*
X146964285Y-128685771D02*
X147011904Y-128781009D01*
X147011904Y-128781009D02*
X147011904Y-129304819D01*
X147916666Y-129304819D02*
X147916666Y-128304819D01*
X147916666Y-129257200D02*
X147821428Y-129304819D01*
X147821428Y-129304819D02*
X147630952Y-129304819D01*
X147630952Y-129304819D02*
X147535714Y-129257200D01*
X147535714Y-129257200D02*
X147488095Y-129209580D01*
X147488095Y-129209580D02*
X147440476Y-129114342D01*
X147440476Y-129114342D02*
X147440476Y-128828628D01*
X147440476Y-128828628D02*
X147488095Y-128733390D01*
X147488095Y-128733390D02*
X147535714Y-128685771D01*
X147535714Y-128685771D02*
X147630952Y-128638152D01*
X147630952Y-128638152D02*
X147821428Y-128638152D01*
X147821428Y-128638152D02*
X147916666Y-128685771D01*
X128347619Y-94804819D02*
X128347619Y-93804819D01*
X128347619Y-93804819D02*
X128585714Y-93804819D01*
X128585714Y-93804819D02*
X128728571Y-93852438D01*
X128728571Y-93852438D02*
X128823809Y-93947676D01*
X128823809Y-93947676D02*
X128871428Y-94042914D01*
X128871428Y-94042914D02*
X128919047Y-94233390D01*
X128919047Y-94233390D02*
X128919047Y-94376247D01*
X128919047Y-94376247D02*
X128871428Y-94566723D01*
X128871428Y-94566723D02*
X128823809Y-94661961D01*
X128823809Y-94661961D02*
X128728571Y-94757200D01*
X128728571Y-94757200D02*
X128585714Y-94804819D01*
X128585714Y-94804819D02*
X128347619Y-94804819D01*
X129919047Y-94804819D02*
X129585714Y-94328628D01*
X129347619Y-94804819D02*
X129347619Y-93804819D01*
X129347619Y-93804819D02*
X129728571Y-93804819D01*
X129728571Y-93804819D02*
X129823809Y-93852438D01*
X129823809Y-93852438D02*
X129871428Y-93900057D01*
X129871428Y-93900057D02*
X129919047Y-93995295D01*
X129919047Y-93995295D02*
X129919047Y-94138152D01*
X129919047Y-94138152D02*
X129871428Y-94233390D01*
X129871428Y-94233390D02*
X129823809Y-94281009D01*
X129823809Y-94281009D02*
X129728571Y-94328628D01*
X129728571Y-94328628D02*
X129347619Y-94328628D01*
X130300000Y-94757200D02*
X130395238Y-94804819D01*
X130395238Y-94804819D02*
X130585714Y-94804819D01*
X130585714Y-94804819D02*
X130680952Y-94757200D01*
X130680952Y-94757200D02*
X130728571Y-94661961D01*
X130728571Y-94661961D02*
X130728571Y-94614342D01*
X130728571Y-94614342D02*
X130680952Y-94519104D01*
X130680952Y-94519104D02*
X130585714Y-94471485D01*
X130585714Y-94471485D02*
X130442857Y-94471485D01*
X130442857Y-94471485D02*
X130347619Y-94423866D01*
X130347619Y-94423866D02*
X130300000Y-94328628D01*
X130300000Y-94328628D02*
X130300000Y-94281009D01*
X130300000Y-94281009D02*
X130347619Y-94185771D01*
X130347619Y-94185771D02*
X130442857Y-94138152D01*
X130442857Y-94138152D02*
X130585714Y-94138152D01*
X130585714Y-94138152D02*
X130680952Y-94185771D01*
X131014286Y-94138152D02*
X131395238Y-94138152D01*
X131157143Y-93804819D02*
X131157143Y-94661961D01*
X131157143Y-94661961D02*
X131204762Y-94757200D01*
X131204762Y-94757200D02*
X131300000Y-94804819D01*
X131300000Y-94804819D02*
X131395238Y-94804819D01*
X149354819Y-117566666D02*
X148878628Y-117899999D01*
X149354819Y-118138094D02*
X148354819Y-118138094D01*
X148354819Y-118138094D02*
X148354819Y-117757142D01*
X148354819Y-117757142D02*
X148402438Y-117661904D01*
X148402438Y-117661904D02*
X148450057Y-117614285D01*
X148450057Y-117614285D02*
X148545295Y-117566666D01*
X148545295Y-117566666D02*
X148688152Y-117566666D01*
X148688152Y-117566666D02*
X148783390Y-117614285D01*
X148783390Y-117614285D02*
X148831009Y-117661904D01*
X148831009Y-117661904D02*
X148878628Y-117757142D01*
X148878628Y-117757142D02*
X148878628Y-118138094D01*
X148450057Y-117185713D02*
X148402438Y-117138094D01*
X148402438Y-117138094D02*
X148354819Y-117042856D01*
X148354819Y-117042856D02*
X148354819Y-116804761D01*
X148354819Y-116804761D02*
X148402438Y-116709523D01*
X148402438Y-116709523D02*
X148450057Y-116661904D01*
X148450057Y-116661904D02*
X148545295Y-116614285D01*
X148545295Y-116614285D02*
X148640533Y-116614285D01*
X148640533Y-116614285D02*
X148783390Y-116661904D01*
X148783390Y-116661904D02*
X149354819Y-117233332D01*
X149354819Y-117233332D02*
X149354819Y-116614285D01*
X123733333Y-109009580D02*
X123685714Y-109057200D01*
X123685714Y-109057200D02*
X123542857Y-109104819D01*
X123542857Y-109104819D02*
X123447619Y-109104819D01*
X123447619Y-109104819D02*
X123304762Y-109057200D01*
X123304762Y-109057200D02*
X123209524Y-108961961D01*
X123209524Y-108961961D02*
X123161905Y-108866723D01*
X123161905Y-108866723D02*
X123114286Y-108676247D01*
X123114286Y-108676247D02*
X123114286Y-108533390D01*
X123114286Y-108533390D02*
X123161905Y-108342914D01*
X123161905Y-108342914D02*
X123209524Y-108247676D01*
X123209524Y-108247676D02*
X123304762Y-108152438D01*
X123304762Y-108152438D02*
X123447619Y-108104819D01*
X123447619Y-108104819D02*
X123542857Y-108104819D01*
X123542857Y-108104819D02*
X123685714Y-108152438D01*
X123685714Y-108152438D02*
X123733333Y-108200057D01*
X124114286Y-108200057D02*
X124161905Y-108152438D01*
X124161905Y-108152438D02*
X124257143Y-108104819D01*
X124257143Y-108104819D02*
X124495238Y-108104819D01*
X124495238Y-108104819D02*
X124590476Y-108152438D01*
X124590476Y-108152438D02*
X124638095Y-108200057D01*
X124638095Y-108200057D02*
X124685714Y-108295295D01*
X124685714Y-108295295D02*
X124685714Y-108390533D01*
X124685714Y-108390533D02*
X124638095Y-108533390D01*
X124638095Y-108533390D02*
X124066667Y-109104819D01*
X124066667Y-109104819D02*
X124685714Y-109104819D01*
X128499580Y-86342857D02*
X128547200Y-86390476D01*
X128547200Y-86390476D02*
X128594819Y-86533333D01*
X128594819Y-86533333D02*
X128594819Y-86628571D01*
X128594819Y-86628571D02*
X128547200Y-86771428D01*
X128547200Y-86771428D02*
X128451961Y-86866666D01*
X128451961Y-86866666D02*
X128356723Y-86914285D01*
X128356723Y-86914285D02*
X128166247Y-86961904D01*
X128166247Y-86961904D02*
X128023390Y-86961904D01*
X128023390Y-86961904D02*
X127832914Y-86914285D01*
X127832914Y-86914285D02*
X127737676Y-86866666D01*
X127737676Y-86866666D02*
X127642438Y-86771428D01*
X127642438Y-86771428D02*
X127594819Y-86628571D01*
X127594819Y-86628571D02*
X127594819Y-86533333D01*
X127594819Y-86533333D02*
X127642438Y-86390476D01*
X127642438Y-86390476D02*
X127690057Y-86342857D01*
X128594819Y-85390476D02*
X128594819Y-85961904D01*
X128594819Y-85676190D02*
X127594819Y-85676190D01*
X127594819Y-85676190D02*
X127737676Y-85771428D01*
X127737676Y-85771428D02*
X127832914Y-85866666D01*
X127832914Y-85866666D02*
X127880533Y-85961904D01*
X127928152Y-84533333D02*
X128594819Y-84533333D01*
X127547200Y-84771428D02*
X128261485Y-85009523D01*
X128261485Y-85009523D02*
X128261485Y-84390476D01*
X148924819Y-109242857D02*
X148448628Y-109576190D01*
X148924819Y-109814285D02*
X147924819Y-109814285D01*
X147924819Y-109814285D02*
X147924819Y-109433333D01*
X147924819Y-109433333D02*
X147972438Y-109338095D01*
X147972438Y-109338095D02*
X148020057Y-109290476D01*
X148020057Y-109290476D02*
X148115295Y-109242857D01*
X148115295Y-109242857D02*
X148258152Y-109242857D01*
X148258152Y-109242857D02*
X148353390Y-109290476D01*
X148353390Y-109290476D02*
X148401009Y-109338095D01*
X148401009Y-109338095D02*
X148448628Y-109433333D01*
X148448628Y-109433333D02*
X148448628Y-109814285D01*
X148924819Y-108290476D02*
X148924819Y-108861904D01*
X148924819Y-108576190D02*
X147924819Y-108576190D01*
X147924819Y-108576190D02*
X148067676Y-108671428D01*
X148067676Y-108671428D02*
X148162914Y-108766666D01*
X148162914Y-108766666D02*
X148210533Y-108861904D01*
X148258152Y-107433333D02*
X148924819Y-107433333D01*
X147877200Y-107671428D02*
X148591485Y-107909523D01*
X148591485Y-107909523D02*
X148591485Y-107290476D01*
X144423809Y-77254819D02*
X144757142Y-78254819D01*
X144757142Y-78254819D02*
X145090475Y-77254819D01*
X145566666Y-78254819D02*
X145471428Y-78207200D01*
X145471428Y-78207200D02*
X145423809Y-78111961D01*
X145423809Y-78111961D02*
X145423809Y-77254819D01*
X146328571Y-78207200D02*
X146233333Y-78254819D01*
X146233333Y-78254819D02*
X146042857Y-78254819D01*
X146042857Y-78254819D02*
X145947619Y-78207200D01*
X145947619Y-78207200D02*
X145900000Y-78111961D01*
X145900000Y-78111961D02*
X145900000Y-77731009D01*
X145900000Y-77731009D02*
X145947619Y-77635771D01*
X145947619Y-77635771D02*
X146042857Y-77588152D01*
X146042857Y-77588152D02*
X146233333Y-77588152D01*
X146233333Y-77588152D02*
X146328571Y-77635771D01*
X146328571Y-77635771D02*
X146376190Y-77731009D01*
X146376190Y-77731009D02*
X146376190Y-77826247D01*
X146376190Y-77826247D02*
X145900000Y-77921485D01*
X147233333Y-78254819D02*
X147233333Y-77254819D01*
X147233333Y-78207200D02*
X147138095Y-78254819D01*
X147138095Y-78254819D02*
X146947619Y-78254819D01*
X146947619Y-78254819D02*
X146852381Y-78207200D01*
X146852381Y-78207200D02*
X146804762Y-78159580D01*
X146804762Y-78159580D02*
X146757143Y-78064342D01*
X146757143Y-78064342D02*
X146757143Y-77778628D01*
X146757143Y-77778628D02*
X146804762Y-77683390D01*
X146804762Y-77683390D02*
X146852381Y-77635771D01*
X146852381Y-77635771D02*
X146947619Y-77588152D01*
X146947619Y-77588152D02*
X147138095Y-77588152D01*
X147138095Y-77588152D02*
X147233333Y-77635771D01*
X132534819Y-104616666D02*
X132058628Y-104949999D01*
X132534819Y-105188094D02*
X131534819Y-105188094D01*
X131534819Y-105188094D02*
X131534819Y-104807142D01*
X131534819Y-104807142D02*
X131582438Y-104711904D01*
X131582438Y-104711904D02*
X131630057Y-104664285D01*
X131630057Y-104664285D02*
X131725295Y-104616666D01*
X131725295Y-104616666D02*
X131868152Y-104616666D01*
X131868152Y-104616666D02*
X131963390Y-104664285D01*
X131963390Y-104664285D02*
X132011009Y-104711904D01*
X132011009Y-104711904D02*
X132058628Y-104807142D01*
X132058628Y-104807142D02*
X132058628Y-105188094D01*
X131868152Y-103759523D02*
X132534819Y-103759523D01*
X131487200Y-103997618D02*
X132201485Y-104235713D01*
X132201485Y-104235713D02*
X132201485Y-103616666D01*
X150804819Y-92166666D02*
X150328628Y-92499999D01*
X150804819Y-92738094D02*
X149804819Y-92738094D01*
X149804819Y-92738094D02*
X149804819Y-92357142D01*
X149804819Y-92357142D02*
X149852438Y-92261904D01*
X149852438Y-92261904D02*
X149900057Y-92214285D01*
X149900057Y-92214285D02*
X149995295Y-92166666D01*
X149995295Y-92166666D02*
X150138152Y-92166666D01*
X150138152Y-92166666D02*
X150233390Y-92214285D01*
X150233390Y-92214285D02*
X150281009Y-92261904D01*
X150281009Y-92261904D02*
X150328628Y-92357142D01*
X150328628Y-92357142D02*
X150328628Y-92738094D01*
X149804819Y-91309523D02*
X149804819Y-91499999D01*
X149804819Y-91499999D02*
X149852438Y-91595237D01*
X149852438Y-91595237D02*
X149900057Y-91642856D01*
X149900057Y-91642856D02*
X150042914Y-91738094D01*
X150042914Y-91738094D02*
X150233390Y-91785713D01*
X150233390Y-91785713D02*
X150614342Y-91785713D01*
X150614342Y-91785713D02*
X150709580Y-91738094D01*
X150709580Y-91738094D02*
X150757200Y-91690475D01*
X150757200Y-91690475D02*
X150804819Y-91595237D01*
X150804819Y-91595237D02*
X150804819Y-91404761D01*
X150804819Y-91404761D02*
X150757200Y-91309523D01*
X150757200Y-91309523D02*
X150709580Y-91261904D01*
X150709580Y-91261904D02*
X150614342Y-91214285D01*
X150614342Y-91214285D02*
X150376247Y-91214285D01*
X150376247Y-91214285D02*
X150281009Y-91261904D01*
X150281009Y-91261904D02*
X150233390Y-91309523D01*
X150233390Y-91309523D02*
X150185771Y-91404761D01*
X150185771Y-91404761D02*
X150185771Y-91595237D01*
X150185771Y-91595237D02*
X150233390Y-91690475D01*
X150233390Y-91690475D02*
X150281009Y-91738094D01*
X150281009Y-91738094D02*
X150376247Y-91785713D01*
X139609580Y-107116666D02*
X139657200Y-107164285D01*
X139657200Y-107164285D02*
X139704819Y-107307142D01*
X139704819Y-107307142D02*
X139704819Y-107402380D01*
X139704819Y-107402380D02*
X139657200Y-107545237D01*
X139657200Y-107545237D02*
X139561961Y-107640475D01*
X139561961Y-107640475D02*
X139466723Y-107688094D01*
X139466723Y-107688094D02*
X139276247Y-107735713D01*
X139276247Y-107735713D02*
X139133390Y-107735713D01*
X139133390Y-107735713D02*
X138942914Y-107688094D01*
X138942914Y-107688094D02*
X138847676Y-107640475D01*
X138847676Y-107640475D02*
X138752438Y-107545237D01*
X138752438Y-107545237D02*
X138704819Y-107402380D01*
X138704819Y-107402380D02*
X138704819Y-107307142D01*
X138704819Y-107307142D02*
X138752438Y-107164285D01*
X138752438Y-107164285D02*
X138800057Y-107116666D01*
X139133390Y-106545237D02*
X139085771Y-106640475D01*
X139085771Y-106640475D02*
X139038152Y-106688094D01*
X139038152Y-106688094D02*
X138942914Y-106735713D01*
X138942914Y-106735713D02*
X138895295Y-106735713D01*
X138895295Y-106735713D02*
X138800057Y-106688094D01*
X138800057Y-106688094D02*
X138752438Y-106640475D01*
X138752438Y-106640475D02*
X138704819Y-106545237D01*
X138704819Y-106545237D02*
X138704819Y-106354761D01*
X138704819Y-106354761D02*
X138752438Y-106259523D01*
X138752438Y-106259523D02*
X138800057Y-106211904D01*
X138800057Y-106211904D02*
X138895295Y-106164285D01*
X138895295Y-106164285D02*
X138942914Y-106164285D01*
X138942914Y-106164285D02*
X139038152Y-106211904D01*
X139038152Y-106211904D02*
X139085771Y-106259523D01*
X139085771Y-106259523D02*
X139133390Y-106354761D01*
X139133390Y-106354761D02*
X139133390Y-106545237D01*
X139133390Y-106545237D02*
X139181009Y-106640475D01*
X139181009Y-106640475D02*
X139228628Y-106688094D01*
X139228628Y-106688094D02*
X139323866Y-106735713D01*
X139323866Y-106735713D02*
X139514342Y-106735713D01*
X139514342Y-106735713D02*
X139609580Y-106688094D01*
X139609580Y-106688094D02*
X139657200Y-106640475D01*
X139657200Y-106640475D02*
X139704819Y-106545237D01*
X139704819Y-106545237D02*
X139704819Y-106354761D01*
X139704819Y-106354761D02*
X139657200Y-106259523D01*
X139657200Y-106259523D02*
X139609580Y-106211904D01*
X139609580Y-106211904D02*
X139514342Y-106164285D01*
X139514342Y-106164285D02*
X139323866Y-106164285D01*
X139323866Y-106164285D02*
X139228628Y-106211904D01*
X139228628Y-106211904D02*
X139181009Y-106259523D01*
X139181009Y-106259523D02*
X139133390Y-106354761D01*
X122654819Y-104961904D02*
X123464342Y-104961904D01*
X123464342Y-104961904D02*
X123559580Y-104914285D01*
X123559580Y-104914285D02*
X123607200Y-104866666D01*
X123607200Y-104866666D02*
X123654819Y-104771428D01*
X123654819Y-104771428D02*
X123654819Y-104580952D01*
X123654819Y-104580952D02*
X123607200Y-104485714D01*
X123607200Y-104485714D02*
X123559580Y-104438095D01*
X123559580Y-104438095D02*
X123464342Y-104390476D01*
X123464342Y-104390476D02*
X122654819Y-104390476D01*
X122750057Y-103961904D02*
X122702438Y-103914285D01*
X122702438Y-103914285D02*
X122654819Y-103819047D01*
X122654819Y-103819047D02*
X122654819Y-103580952D01*
X122654819Y-103580952D02*
X122702438Y-103485714D01*
X122702438Y-103485714D02*
X122750057Y-103438095D01*
X122750057Y-103438095D02*
X122845295Y-103390476D01*
X122845295Y-103390476D02*
X122940533Y-103390476D01*
X122940533Y-103390476D02*
X123083390Y-103438095D01*
X123083390Y-103438095D02*
X123654819Y-104009523D01*
X123654819Y-104009523D02*
X123654819Y-103390476D01*
X137484166Y-84999246D02*
X137436547Y-85046866D01*
X137436547Y-85046866D02*
X137293690Y-85094485D01*
X137293690Y-85094485D02*
X137198452Y-85094485D01*
X137198452Y-85094485D02*
X137055595Y-85046866D01*
X137055595Y-85046866D02*
X136960357Y-84951627D01*
X136960357Y-84951627D02*
X136912738Y-84856389D01*
X136912738Y-84856389D02*
X136865119Y-84665913D01*
X136865119Y-84665913D02*
X136865119Y-84523056D01*
X136865119Y-84523056D02*
X136912738Y-84332580D01*
X136912738Y-84332580D02*
X136960357Y-84237342D01*
X136960357Y-84237342D02*
X137055595Y-84142104D01*
X137055595Y-84142104D02*
X137198452Y-84094485D01*
X137198452Y-84094485D02*
X137293690Y-84094485D01*
X137293690Y-84094485D02*
X137436547Y-84142104D01*
X137436547Y-84142104D02*
X137484166Y-84189723D01*
X138388928Y-84094485D02*
X137912738Y-84094485D01*
X137912738Y-84094485D02*
X137865119Y-84570675D01*
X137865119Y-84570675D02*
X137912738Y-84523056D01*
X137912738Y-84523056D02*
X138007976Y-84475437D01*
X138007976Y-84475437D02*
X138246071Y-84475437D01*
X138246071Y-84475437D02*
X138341309Y-84523056D01*
X138341309Y-84523056D02*
X138388928Y-84570675D01*
X138388928Y-84570675D02*
X138436547Y-84665913D01*
X138436547Y-84665913D02*
X138436547Y-84904008D01*
X138436547Y-84904008D02*
X138388928Y-84999246D01*
X138388928Y-84999246D02*
X138341309Y-85046866D01*
X138341309Y-85046866D02*
X138246071Y-85094485D01*
X138246071Y-85094485D02*
X138007976Y-85094485D01*
X138007976Y-85094485D02*
X137912738Y-85046866D01*
X137912738Y-85046866D02*
X137865119Y-84999246D01*
X118469580Y-97082857D02*
X118517200Y-97130476D01*
X118517200Y-97130476D02*
X118564819Y-97273333D01*
X118564819Y-97273333D02*
X118564819Y-97368571D01*
X118564819Y-97368571D02*
X118517200Y-97511428D01*
X118517200Y-97511428D02*
X118421961Y-97606666D01*
X118421961Y-97606666D02*
X118326723Y-97654285D01*
X118326723Y-97654285D02*
X118136247Y-97701904D01*
X118136247Y-97701904D02*
X117993390Y-97701904D01*
X117993390Y-97701904D02*
X117802914Y-97654285D01*
X117802914Y-97654285D02*
X117707676Y-97606666D01*
X117707676Y-97606666D02*
X117612438Y-97511428D01*
X117612438Y-97511428D02*
X117564819Y-97368571D01*
X117564819Y-97368571D02*
X117564819Y-97273333D01*
X117564819Y-97273333D02*
X117612438Y-97130476D01*
X117612438Y-97130476D02*
X117660057Y-97082857D01*
X118564819Y-96130476D02*
X118564819Y-96701904D01*
X118564819Y-96416190D02*
X117564819Y-96416190D01*
X117564819Y-96416190D02*
X117707676Y-96511428D01*
X117707676Y-96511428D02*
X117802914Y-96606666D01*
X117802914Y-96606666D02*
X117850533Y-96701904D01*
X117564819Y-95225714D02*
X117564819Y-95701904D01*
X117564819Y-95701904D02*
X118041009Y-95749523D01*
X118041009Y-95749523D02*
X117993390Y-95701904D01*
X117993390Y-95701904D02*
X117945771Y-95606666D01*
X117945771Y-95606666D02*
X117945771Y-95368571D01*
X117945771Y-95368571D02*
X117993390Y-95273333D01*
X117993390Y-95273333D02*
X118041009Y-95225714D01*
X118041009Y-95225714D02*
X118136247Y-95178095D01*
X118136247Y-95178095D02*
X118374342Y-95178095D01*
X118374342Y-95178095D02*
X118469580Y-95225714D01*
X118469580Y-95225714D02*
X118517200Y-95273333D01*
X118517200Y-95273333D02*
X118564819Y-95368571D01*
X118564819Y-95368571D02*
X118564819Y-95606666D01*
X118564819Y-95606666D02*
X118517200Y-95701904D01*
X118517200Y-95701904D02*
X118469580Y-95749523D01*
X152704819Y-105066666D02*
X152228628Y-105399999D01*
X152704819Y-105638094D02*
X151704819Y-105638094D01*
X151704819Y-105638094D02*
X151704819Y-105257142D01*
X151704819Y-105257142D02*
X151752438Y-105161904D01*
X151752438Y-105161904D02*
X151800057Y-105114285D01*
X151800057Y-105114285D02*
X151895295Y-105066666D01*
X151895295Y-105066666D02*
X152038152Y-105066666D01*
X152038152Y-105066666D02*
X152133390Y-105114285D01*
X152133390Y-105114285D02*
X152181009Y-105161904D01*
X152181009Y-105161904D02*
X152228628Y-105257142D01*
X152228628Y-105257142D02*
X152228628Y-105638094D01*
X151704819Y-104161904D02*
X151704819Y-104638094D01*
X151704819Y-104638094D02*
X152181009Y-104685713D01*
X152181009Y-104685713D02*
X152133390Y-104638094D01*
X152133390Y-104638094D02*
X152085771Y-104542856D01*
X152085771Y-104542856D02*
X152085771Y-104304761D01*
X152085771Y-104304761D02*
X152133390Y-104209523D01*
X152133390Y-104209523D02*
X152181009Y-104161904D01*
X152181009Y-104161904D02*
X152276247Y-104114285D01*
X152276247Y-104114285D02*
X152514342Y-104114285D01*
X152514342Y-104114285D02*
X152609580Y-104161904D01*
X152609580Y-104161904D02*
X152657200Y-104209523D01*
X152657200Y-104209523D02*
X152704819Y-104304761D01*
X152704819Y-104304761D02*
X152704819Y-104542856D01*
X152704819Y-104542856D02*
X152657200Y-104638094D01*
X152657200Y-104638094D02*
X152609580Y-104685713D01*
X136959523Y-116154819D02*
X136483333Y-116154819D01*
X136483333Y-116154819D02*
X136435714Y-116631009D01*
X136435714Y-116631009D02*
X136483333Y-116583390D01*
X136483333Y-116583390D02*
X136578571Y-116535771D01*
X136578571Y-116535771D02*
X136816666Y-116535771D01*
X136816666Y-116535771D02*
X136911904Y-116583390D01*
X136911904Y-116583390D02*
X136959523Y-116631009D01*
X136959523Y-116631009D02*
X137007142Y-116726247D01*
X137007142Y-116726247D02*
X137007142Y-116964342D01*
X137007142Y-116964342D02*
X136959523Y-117059580D01*
X136959523Y-117059580D02*
X136911904Y-117107200D01*
X136911904Y-117107200D02*
X136816666Y-117154819D01*
X136816666Y-117154819D02*
X136578571Y-117154819D01*
X136578571Y-117154819D02*
X136483333Y-117107200D01*
X136483333Y-117107200D02*
X136435714Y-117059580D01*
X137292857Y-116154819D02*
X137626190Y-117154819D01*
X137626190Y-117154819D02*
X137959523Y-116154819D01*
X105416666Y-105204819D02*
X105416666Y-105919104D01*
X105416666Y-105919104D02*
X105369047Y-106061961D01*
X105369047Y-106061961D02*
X105273809Y-106157200D01*
X105273809Y-106157200D02*
X105130952Y-106204819D01*
X105130952Y-106204819D02*
X105035714Y-106204819D01*
X105845238Y-105300057D02*
X105892857Y-105252438D01*
X105892857Y-105252438D02*
X105988095Y-105204819D01*
X105988095Y-105204819D02*
X106226190Y-105204819D01*
X106226190Y-105204819D02*
X106321428Y-105252438D01*
X106321428Y-105252438D02*
X106369047Y-105300057D01*
X106369047Y-105300057D02*
X106416666Y-105395295D01*
X106416666Y-105395295D02*
X106416666Y-105490533D01*
X106416666Y-105490533D02*
X106369047Y-105633390D01*
X106369047Y-105633390D02*
X105797619Y-106204819D01*
X105797619Y-106204819D02*
X106416666Y-106204819D01*
X138038095Y-126804819D02*
X138609523Y-126804819D01*
X138323809Y-127804819D02*
X138323809Y-126804819D01*
X138942857Y-127804819D02*
X138942857Y-126804819D01*
X139419047Y-127138152D02*
X139419047Y-127804819D01*
X139419047Y-127233390D02*
X139466666Y-127185771D01*
X139466666Y-127185771D02*
X139561904Y-127138152D01*
X139561904Y-127138152D02*
X139704761Y-127138152D01*
X139704761Y-127138152D02*
X139799999Y-127185771D01*
X139799999Y-127185771D02*
X139847618Y-127281009D01*
X139847618Y-127281009D02*
X139847618Y-127804819D01*
X140180952Y-127138152D02*
X140561904Y-127138152D01*
X140323809Y-126804819D02*
X140323809Y-127661961D01*
X140323809Y-127661961D02*
X140371428Y-127757200D01*
X140371428Y-127757200D02*
X140466666Y-127804819D01*
X140466666Y-127804819D02*
X140561904Y-127804819D01*
X144109580Y-94416666D02*
X144157200Y-94464285D01*
X144157200Y-94464285D02*
X144204819Y-94607142D01*
X144204819Y-94607142D02*
X144204819Y-94702380D01*
X144204819Y-94702380D02*
X144157200Y-94845237D01*
X144157200Y-94845237D02*
X144061961Y-94940475D01*
X144061961Y-94940475D02*
X143966723Y-94988094D01*
X143966723Y-94988094D02*
X143776247Y-95035713D01*
X143776247Y-95035713D02*
X143633390Y-95035713D01*
X143633390Y-95035713D02*
X143442914Y-94988094D01*
X143442914Y-94988094D02*
X143347676Y-94940475D01*
X143347676Y-94940475D02*
X143252438Y-94845237D01*
X143252438Y-94845237D02*
X143204819Y-94702380D01*
X143204819Y-94702380D02*
X143204819Y-94607142D01*
X143204819Y-94607142D02*
X143252438Y-94464285D01*
X143252438Y-94464285D02*
X143300057Y-94416666D01*
X144204819Y-93940475D02*
X144204819Y-93749999D01*
X144204819Y-93749999D02*
X144157200Y-93654761D01*
X144157200Y-93654761D02*
X144109580Y-93607142D01*
X144109580Y-93607142D02*
X143966723Y-93511904D01*
X143966723Y-93511904D02*
X143776247Y-93464285D01*
X143776247Y-93464285D02*
X143395295Y-93464285D01*
X143395295Y-93464285D02*
X143300057Y-93511904D01*
X143300057Y-93511904D02*
X143252438Y-93559523D01*
X143252438Y-93559523D02*
X143204819Y-93654761D01*
X143204819Y-93654761D02*
X143204819Y-93845237D01*
X143204819Y-93845237D02*
X143252438Y-93940475D01*
X143252438Y-93940475D02*
X143300057Y-93988094D01*
X143300057Y-93988094D02*
X143395295Y-94035713D01*
X143395295Y-94035713D02*
X143633390Y-94035713D01*
X143633390Y-94035713D02*
X143728628Y-93988094D01*
X143728628Y-93988094D02*
X143776247Y-93940475D01*
X143776247Y-93940475D02*
X143823866Y-93845237D01*
X143823866Y-93845237D02*
X143823866Y-93654761D01*
X143823866Y-93654761D02*
X143776247Y-93559523D01*
X143776247Y-93559523D02*
X143728628Y-93511904D01*
X143728628Y-93511904D02*
X143633390Y-93464285D01*
X151207142Y-109831009D02*
X150873809Y-109831009D01*
X150873809Y-110354819D02*
X150873809Y-109354819D01*
X150873809Y-109354819D02*
X151349999Y-109354819D01*
X152207142Y-110354819D02*
X151730952Y-110354819D01*
X151730952Y-110354819D02*
X151730952Y-109354819D01*
X152397619Y-109354819D02*
X152969047Y-109354819D01*
X152683333Y-110354819D02*
X152683333Y-109354819D01*
X126398095Y-91232319D02*
X126398095Y-92041842D01*
X126398095Y-92041842D02*
X126445714Y-92137080D01*
X126445714Y-92137080D02*
X126493333Y-92184700D01*
X126493333Y-92184700D02*
X126588571Y-92232319D01*
X126588571Y-92232319D02*
X126779047Y-92232319D01*
X126779047Y-92232319D02*
X126874285Y-92184700D01*
X126874285Y-92184700D02*
X126921904Y-92137080D01*
X126921904Y-92137080D02*
X126969523Y-92041842D01*
X126969523Y-92041842D02*
X126969523Y-91232319D01*
X127874285Y-91232319D02*
X127683809Y-91232319D01*
X127683809Y-91232319D02*
X127588571Y-91279938D01*
X127588571Y-91279938D02*
X127540952Y-91327557D01*
X127540952Y-91327557D02*
X127445714Y-91470414D01*
X127445714Y-91470414D02*
X127398095Y-91660890D01*
X127398095Y-91660890D02*
X127398095Y-92041842D01*
X127398095Y-92041842D02*
X127445714Y-92137080D01*
X127445714Y-92137080D02*
X127493333Y-92184700D01*
X127493333Y-92184700D02*
X127588571Y-92232319D01*
X127588571Y-92232319D02*
X127779047Y-92232319D01*
X127779047Y-92232319D02*
X127874285Y-92184700D01*
X127874285Y-92184700D02*
X127921904Y-92137080D01*
X127921904Y-92137080D02*
X127969523Y-92041842D01*
X127969523Y-92041842D02*
X127969523Y-91803747D01*
X127969523Y-91803747D02*
X127921904Y-91708509D01*
X127921904Y-91708509D02*
X127874285Y-91660890D01*
X127874285Y-91660890D02*
X127779047Y-91613271D01*
X127779047Y-91613271D02*
X127588571Y-91613271D01*
X127588571Y-91613271D02*
X127493333Y-91660890D01*
X127493333Y-91660890D02*
X127445714Y-91708509D01*
X127445714Y-91708509D02*
X127398095Y-91803747D01*
X141261905Y-89404819D02*
X141261905Y-88404819D01*
X141261905Y-88404819D02*
X141500000Y-88404819D01*
X141500000Y-88404819D02*
X141642857Y-88452438D01*
X141642857Y-88452438D02*
X141738095Y-88547676D01*
X141738095Y-88547676D02*
X141785714Y-88642914D01*
X141785714Y-88642914D02*
X141833333Y-88833390D01*
X141833333Y-88833390D02*
X141833333Y-88976247D01*
X141833333Y-88976247D02*
X141785714Y-89166723D01*
X141785714Y-89166723D02*
X141738095Y-89261961D01*
X141738095Y-89261961D02*
X141642857Y-89357200D01*
X141642857Y-89357200D02*
X141500000Y-89404819D01*
X141500000Y-89404819D02*
X141261905Y-89404819D01*
X142785714Y-89404819D02*
X142214286Y-89404819D01*
X142500000Y-89404819D02*
X142500000Y-88404819D01*
X142500000Y-88404819D02*
X142404762Y-88547676D01*
X142404762Y-88547676D02*
X142309524Y-88642914D01*
X142309524Y-88642914D02*
X142214286Y-88690533D01*
X127204819Y-85616666D02*
X126728628Y-85949999D01*
X127204819Y-86188094D02*
X126204819Y-86188094D01*
X126204819Y-86188094D02*
X126204819Y-85807142D01*
X126204819Y-85807142D02*
X126252438Y-85711904D01*
X126252438Y-85711904D02*
X126300057Y-85664285D01*
X126300057Y-85664285D02*
X126395295Y-85616666D01*
X126395295Y-85616666D02*
X126538152Y-85616666D01*
X126538152Y-85616666D02*
X126633390Y-85664285D01*
X126633390Y-85664285D02*
X126681009Y-85711904D01*
X126681009Y-85711904D02*
X126728628Y-85807142D01*
X126728628Y-85807142D02*
X126728628Y-86188094D01*
X127204819Y-85140475D02*
X127204819Y-84949999D01*
X127204819Y-84949999D02*
X127157200Y-84854761D01*
X127157200Y-84854761D02*
X127109580Y-84807142D01*
X127109580Y-84807142D02*
X126966723Y-84711904D01*
X126966723Y-84711904D02*
X126776247Y-84664285D01*
X126776247Y-84664285D02*
X126395295Y-84664285D01*
X126395295Y-84664285D02*
X126300057Y-84711904D01*
X126300057Y-84711904D02*
X126252438Y-84759523D01*
X126252438Y-84759523D02*
X126204819Y-84854761D01*
X126204819Y-84854761D02*
X126204819Y-85045237D01*
X126204819Y-85045237D02*
X126252438Y-85140475D01*
X126252438Y-85140475D02*
X126300057Y-85188094D01*
X126300057Y-85188094D02*
X126395295Y-85235713D01*
X126395295Y-85235713D02*
X126633390Y-85235713D01*
X126633390Y-85235713D02*
X126728628Y-85188094D01*
X126728628Y-85188094D02*
X126776247Y-85140475D01*
X126776247Y-85140475D02*
X126823866Y-85045237D01*
X126823866Y-85045237D02*
X126823866Y-84854761D01*
X126823866Y-84854761D02*
X126776247Y-84759523D01*
X126776247Y-84759523D02*
X126728628Y-84711904D01*
X126728628Y-84711904D02*
X126633390Y-84664285D01*
X116859580Y-94492857D02*
X116907200Y-94540476D01*
X116907200Y-94540476D02*
X116954819Y-94683333D01*
X116954819Y-94683333D02*
X116954819Y-94778571D01*
X116954819Y-94778571D02*
X116907200Y-94921428D01*
X116907200Y-94921428D02*
X116811961Y-95016666D01*
X116811961Y-95016666D02*
X116716723Y-95064285D01*
X116716723Y-95064285D02*
X116526247Y-95111904D01*
X116526247Y-95111904D02*
X116383390Y-95111904D01*
X116383390Y-95111904D02*
X116192914Y-95064285D01*
X116192914Y-95064285D02*
X116097676Y-95016666D01*
X116097676Y-95016666D02*
X116002438Y-94921428D01*
X116002438Y-94921428D02*
X115954819Y-94778571D01*
X115954819Y-94778571D02*
X115954819Y-94683333D01*
X115954819Y-94683333D02*
X116002438Y-94540476D01*
X116002438Y-94540476D02*
X116050057Y-94492857D01*
X116954819Y-93540476D02*
X116954819Y-94111904D01*
X116954819Y-93826190D02*
X115954819Y-93826190D01*
X115954819Y-93826190D02*
X116097676Y-93921428D01*
X116097676Y-93921428D02*
X116192914Y-94016666D01*
X116192914Y-94016666D02*
X116240533Y-94111904D01*
X115954819Y-92683333D02*
X115954819Y-92873809D01*
X115954819Y-92873809D02*
X116002438Y-92969047D01*
X116002438Y-92969047D02*
X116050057Y-93016666D01*
X116050057Y-93016666D02*
X116192914Y-93111904D01*
X116192914Y-93111904D02*
X116383390Y-93159523D01*
X116383390Y-93159523D02*
X116764342Y-93159523D01*
X116764342Y-93159523D02*
X116859580Y-93111904D01*
X116859580Y-93111904D02*
X116907200Y-93064285D01*
X116907200Y-93064285D02*
X116954819Y-92969047D01*
X116954819Y-92969047D02*
X116954819Y-92778571D01*
X116954819Y-92778571D02*
X116907200Y-92683333D01*
X116907200Y-92683333D02*
X116859580Y-92635714D01*
X116859580Y-92635714D02*
X116764342Y-92588095D01*
X116764342Y-92588095D02*
X116526247Y-92588095D01*
X116526247Y-92588095D02*
X116431009Y-92635714D01*
X116431009Y-92635714D02*
X116383390Y-92683333D01*
X116383390Y-92683333D02*
X116335771Y-92778571D01*
X116335771Y-92778571D02*
X116335771Y-92969047D01*
X116335771Y-92969047D02*
X116383390Y-93064285D01*
X116383390Y-93064285D02*
X116431009Y-93111904D01*
X116431009Y-93111904D02*
X116526247Y-93159523D01*
X131607142Y-97534819D02*
X131273809Y-97058628D01*
X131035714Y-97534819D02*
X131035714Y-96534819D01*
X131035714Y-96534819D02*
X131416666Y-96534819D01*
X131416666Y-96534819D02*
X131511904Y-96582438D01*
X131511904Y-96582438D02*
X131559523Y-96630057D01*
X131559523Y-96630057D02*
X131607142Y-96725295D01*
X131607142Y-96725295D02*
X131607142Y-96868152D01*
X131607142Y-96868152D02*
X131559523Y-96963390D01*
X131559523Y-96963390D02*
X131511904Y-97011009D01*
X131511904Y-97011009D02*
X131416666Y-97058628D01*
X131416666Y-97058628D02*
X131035714Y-97058628D01*
X132559523Y-97534819D02*
X131988095Y-97534819D01*
X132273809Y-97534819D02*
X132273809Y-96534819D01*
X132273809Y-96534819D02*
X132178571Y-96677676D01*
X132178571Y-96677676D02*
X132083333Y-96772914D01*
X132083333Y-96772914D02*
X131988095Y-96820533D01*
X132940476Y-96630057D02*
X132988095Y-96582438D01*
X132988095Y-96582438D02*
X133083333Y-96534819D01*
X133083333Y-96534819D02*
X133321428Y-96534819D01*
X133321428Y-96534819D02*
X133416666Y-96582438D01*
X133416666Y-96582438D02*
X133464285Y-96630057D01*
X133464285Y-96630057D02*
X133511904Y-96725295D01*
X133511904Y-96725295D02*
X133511904Y-96820533D01*
X133511904Y-96820533D02*
X133464285Y-96963390D01*
X133464285Y-96963390D02*
X132892857Y-97534819D01*
X132892857Y-97534819D02*
X133511904Y-97534819D01*
X149107142Y-85559580D02*
X149059523Y-85607200D01*
X149059523Y-85607200D02*
X148916666Y-85654819D01*
X148916666Y-85654819D02*
X148821428Y-85654819D01*
X148821428Y-85654819D02*
X148678571Y-85607200D01*
X148678571Y-85607200D02*
X148583333Y-85511961D01*
X148583333Y-85511961D02*
X148535714Y-85416723D01*
X148535714Y-85416723D02*
X148488095Y-85226247D01*
X148488095Y-85226247D02*
X148488095Y-85083390D01*
X148488095Y-85083390D02*
X148535714Y-84892914D01*
X148535714Y-84892914D02*
X148583333Y-84797676D01*
X148583333Y-84797676D02*
X148678571Y-84702438D01*
X148678571Y-84702438D02*
X148821428Y-84654819D01*
X148821428Y-84654819D02*
X148916666Y-84654819D01*
X148916666Y-84654819D02*
X149059523Y-84702438D01*
X149059523Y-84702438D02*
X149107142Y-84750057D01*
X150059523Y-85654819D02*
X149488095Y-85654819D01*
X149773809Y-85654819D02*
X149773809Y-84654819D01*
X149773809Y-84654819D02*
X149678571Y-84797676D01*
X149678571Y-84797676D02*
X149583333Y-84892914D01*
X149583333Y-84892914D02*
X149488095Y-84940533D01*
X151011904Y-85654819D02*
X150440476Y-85654819D01*
X150726190Y-85654819D02*
X150726190Y-84654819D01*
X150726190Y-84654819D02*
X150630952Y-84797676D01*
X150630952Y-84797676D02*
X150535714Y-84892914D01*
X150535714Y-84892914D02*
X150440476Y-84940533D01*
X140333333Y-80245180D02*
X140333333Y-79530895D01*
X140333333Y-79530895D02*
X140380952Y-79388038D01*
X140380952Y-79388038D02*
X140476190Y-79292800D01*
X140476190Y-79292800D02*
X140619047Y-79245180D01*
X140619047Y-79245180D02*
X140714285Y-79245180D01*
X139952380Y-80245180D02*
X139333333Y-80245180D01*
X139333333Y-80245180D02*
X139666666Y-79864228D01*
X139666666Y-79864228D02*
X139523809Y-79864228D01*
X139523809Y-79864228D02*
X139428571Y-79816609D01*
X139428571Y-79816609D02*
X139380952Y-79768990D01*
X139380952Y-79768990D02*
X139333333Y-79673752D01*
X139333333Y-79673752D02*
X139333333Y-79435657D01*
X139333333Y-79435657D02*
X139380952Y-79340419D01*
X139380952Y-79340419D02*
X139428571Y-79292800D01*
X139428571Y-79292800D02*
X139523809Y-79245180D01*
X139523809Y-79245180D02*
X139809523Y-79245180D01*
X139809523Y-79245180D02*
X139904761Y-79292800D01*
X139904761Y-79292800D02*
X139952380Y-79340419D01*
X126170363Y-77530180D02*
X126170363Y-77292085D01*
X126408458Y-77387323D02*
X126170363Y-77292085D01*
X126170363Y-77292085D02*
X125932268Y-77387323D01*
X126313220Y-77101609D02*
X126170363Y-77292085D01*
X126170363Y-77292085D02*
X126027506Y-77101609D01*
X118423333Y-75794819D02*
X118090000Y-75318628D01*
X117851905Y-75794819D02*
X117851905Y-74794819D01*
X117851905Y-74794819D02*
X118232857Y-74794819D01*
X118232857Y-74794819D02*
X118328095Y-74842438D01*
X118328095Y-74842438D02*
X118375714Y-74890057D01*
X118375714Y-74890057D02*
X118423333Y-74985295D01*
X118423333Y-74985295D02*
X118423333Y-75128152D01*
X118423333Y-75128152D02*
X118375714Y-75223390D01*
X118375714Y-75223390D02*
X118328095Y-75271009D01*
X118328095Y-75271009D02*
X118232857Y-75318628D01*
X118232857Y-75318628D02*
X117851905Y-75318628D01*
X118994762Y-75223390D02*
X118899524Y-75175771D01*
X118899524Y-75175771D02*
X118851905Y-75128152D01*
X118851905Y-75128152D02*
X118804286Y-75032914D01*
X118804286Y-75032914D02*
X118804286Y-74985295D01*
X118804286Y-74985295D02*
X118851905Y-74890057D01*
X118851905Y-74890057D02*
X118899524Y-74842438D01*
X118899524Y-74842438D02*
X118994762Y-74794819D01*
X118994762Y-74794819D02*
X119185238Y-74794819D01*
X119185238Y-74794819D02*
X119280476Y-74842438D01*
X119280476Y-74842438D02*
X119328095Y-74890057D01*
X119328095Y-74890057D02*
X119375714Y-74985295D01*
X119375714Y-74985295D02*
X119375714Y-75032914D01*
X119375714Y-75032914D02*
X119328095Y-75128152D01*
X119328095Y-75128152D02*
X119280476Y-75175771D01*
X119280476Y-75175771D02*
X119185238Y-75223390D01*
X119185238Y-75223390D02*
X118994762Y-75223390D01*
X118994762Y-75223390D02*
X118899524Y-75271009D01*
X118899524Y-75271009D02*
X118851905Y-75318628D01*
X118851905Y-75318628D02*
X118804286Y-75413866D01*
X118804286Y-75413866D02*
X118804286Y-75604342D01*
X118804286Y-75604342D02*
X118851905Y-75699580D01*
X118851905Y-75699580D02*
X118899524Y-75747200D01*
X118899524Y-75747200D02*
X118994762Y-75794819D01*
X118994762Y-75794819D02*
X119185238Y-75794819D01*
X119185238Y-75794819D02*
X119280476Y-75747200D01*
X119280476Y-75747200D02*
X119328095Y-75699580D01*
X119328095Y-75699580D02*
X119375714Y-75604342D01*
X119375714Y-75604342D02*
X119375714Y-75413866D01*
X119375714Y-75413866D02*
X119328095Y-75318628D01*
X119328095Y-75318628D02*
X119280476Y-75271009D01*
X119280476Y-75271009D02*
X119185238Y-75223390D01*
X141904819Y-103611904D02*
X142714342Y-103611904D01*
X142714342Y-103611904D02*
X142809580Y-103564285D01*
X142809580Y-103564285D02*
X142857200Y-103516666D01*
X142857200Y-103516666D02*
X142904819Y-103421428D01*
X142904819Y-103421428D02*
X142904819Y-103230952D01*
X142904819Y-103230952D02*
X142857200Y-103135714D01*
X142857200Y-103135714D02*
X142809580Y-103088095D01*
X142809580Y-103088095D02*
X142714342Y-103040476D01*
X142714342Y-103040476D02*
X141904819Y-103040476D01*
X141904819Y-102659523D02*
X141904819Y-102040476D01*
X141904819Y-102040476D02*
X142285771Y-102373809D01*
X142285771Y-102373809D02*
X142285771Y-102230952D01*
X142285771Y-102230952D02*
X142333390Y-102135714D01*
X142333390Y-102135714D02*
X142381009Y-102088095D01*
X142381009Y-102088095D02*
X142476247Y-102040476D01*
X142476247Y-102040476D02*
X142714342Y-102040476D01*
X142714342Y-102040476D02*
X142809580Y-102088095D01*
X142809580Y-102088095D02*
X142857200Y-102135714D01*
X142857200Y-102135714D02*
X142904819Y-102230952D01*
X142904819Y-102230952D02*
X142904819Y-102516666D01*
X142904819Y-102516666D02*
X142857200Y-102611904D01*
X142857200Y-102611904D02*
X142809580Y-102659523D01*
X125954819Y-86342857D02*
X125478628Y-86676190D01*
X125954819Y-86914285D02*
X124954819Y-86914285D01*
X124954819Y-86914285D02*
X124954819Y-86533333D01*
X124954819Y-86533333D02*
X125002438Y-86438095D01*
X125002438Y-86438095D02*
X125050057Y-86390476D01*
X125050057Y-86390476D02*
X125145295Y-86342857D01*
X125145295Y-86342857D02*
X125288152Y-86342857D01*
X125288152Y-86342857D02*
X125383390Y-86390476D01*
X125383390Y-86390476D02*
X125431009Y-86438095D01*
X125431009Y-86438095D02*
X125478628Y-86533333D01*
X125478628Y-86533333D02*
X125478628Y-86914285D01*
X125954819Y-85390476D02*
X125954819Y-85961904D01*
X125954819Y-85676190D02*
X124954819Y-85676190D01*
X124954819Y-85676190D02*
X125097676Y-85771428D01*
X125097676Y-85771428D02*
X125192914Y-85866666D01*
X125192914Y-85866666D02*
X125240533Y-85961904D01*
X125954819Y-84438095D02*
X125954819Y-85009523D01*
X125954819Y-84723809D02*
X124954819Y-84723809D01*
X124954819Y-84723809D02*
X125097676Y-84819047D01*
X125097676Y-84819047D02*
X125192914Y-84914285D01*
X125192914Y-84914285D02*
X125240533Y-85009523D01*
X137455838Y-87066111D02*
X137408219Y-87113731D01*
X137408219Y-87113731D02*
X137265362Y-87161350D01*
X137265362Y-87161350D02*
X137170124Y-87161350D01*
X137170124Y-87161350D02*
X137027267Y-87113731D01*
X137027267Y-87113731D02*
X136932029Y-87018492D01*
X136932029Y-87018492D02*
X136884410Y-86923254D01*
X136884410Y-86923254D02*
X136836791Y-86732778D01*
X136836791Y-86732778D02*
X136836791Y-86589921D01*
X136836791Y-86589921D02*
X136884410Y-86399445D01*
X136884410Y-86399445D02*
X136932029Y-86304207D01*
X136932029Y-86304207D02*
X137027267Y-86208969D01*
X137027267Y-86208969D02*
X137170124Y-86161350D01*
X137170124Y-86161350D02*
X137265362Y-86161350D01*
X137265362Y-86161350D02*
X137408219Y-86208969D01*
X137408219Y-86208969D02*
X137455838Y-86256588D01*
X138312981Y-86161350D02*
X138122505Y-86161350D01*
X138122505Y-86161350D02*
X138027267Y-86208969D01*
X138027267Y-86208969D02*
X137979648Y-86256588D01*
X137979648Y-86256588D02*
X137884410Y-86399445D01*
X137884410Y-86399445D02*
X137836791Y-86589921D01*
X137836791Y-86589921D02*
X137836791Y-86970873D01*
X137836791Y-86970873D02*
X137884410Y-87066111D01*
X137884410Y-87066111D02*
X137932029Y-87113731D01*
X137932029Y-87113731D02*
X138027267Y-87161350D01*
X138027267Y-87161350D02*
X138217743Y-87161350D01*
X138217743Y-87161350D02*
X138312981Y-87113731D01*
X138312981Y-87113731D02*
X138360600Y-87066111D01*
X138360600Y-87066111D02*
X138408219Y-86970873D01*
X138408219Y-86970873D02*
X138408219Y-86732778D01*
X138408219Y-86732778D02*
X138360600Y-86637540D01*
X138360600Y-86637540D02*
X138312981Y-86589921D01*
X138312981Y-86589921D02*
X138217743Y-86542302D01*
X138217743Y-86542302D02*
X138027267Y-86542302D01*
X138027267Y-86542302D02*
X137932029Y-86589921D01*
X137932029Y-86589921D02*
X137884410Y-86637540D01*
X137884410Y-86637540D02*
X137836791Y-86732778D01*
D11*
X135192580Y-100638095D02*
X134383057Y-100638095D01*
X134383057Y-100638095D02*
X134287819Y-100685714D01*
X134287819Y-100685714D02*
X134240200Y-100733333D01*
X134240200Y-100733333D02*
X134192580Y-100828571D01*
X134192580Y-100828571D02*
X134192580Y-101019047D01*
X134192580Y-101019047D02*
X134240200Y-101114285D01*
X134240200Y-101114285D02*
X134287819Y-101161904D01*
X134287819Y-101161904D02*
X134383057Y-101209523D01*
X134383057Y-101209523D02*
X135192580Y-101209523D01*
X135192580Y-101590476D02*
X135192580Y-102257142D01*
X135192580Y-102257142D02*
X134192580Y-101828571D01*
D10*
X120727142Y-79559580D02*
X120679523Y-79607200D01*
X120679523Y-79607200D02*
X120536666Y-79654819D01*
X120536666Y-79654819D02*
X120441428Y-79654819D01*
X120441428Y-79654819D02*
X120298571Y-79607200D01*
X120298571Y-79607200D02*
X120203333Y-79511961D01*
X120203333Y-79511961D02*
X120155714Y-79416723D01*
X120155714Y-79416723D02*
X120108095Y-79226247D01*
X120108095Y-79226247D02*
X120108095Y-79083390D01*
X120108095Y-79083390D02*
X120155714Y-78892914D01*
X120155714Y-78892914D02*
X120203333Y-78797676D01*
X120203333Y-78797676D02*
X120298571Y-78702438D01*
X120298571Y-78702438D02*
X120441428Y-78654819D01*
X120441428Y-78654819D02*
X120536666Y-78654819D01*
X120536666Y-78654819D02*
X120679523Y-78702438D01*
X120679523Y-78702438D02*
X120727142Y-78750057D01*
X121679523Y-79654819D02*
X121108095Y-79654819D01*
X121393809Y-79654819D02*
X121393809Y-78654819D01*
X121393809Y-78654819D02*
X121298571Y-78797676D01*
X121298571Y-78797676D02*
X121203333Y-78892914D01*
X121203333Y-78892914D02*
X121108095Y-78940533D01*
X122012857Y-78654819D02*
X122631904Y-78654819D01*
X122631904Y-78654819D02*
X122298571Y-79035771D01*
X122298571Y-79035771D02*
X122441428Y-79035771D01*
X122441428Y-79035771D02*
X122536666Y-79083390D01*
X122536666Y-79083390D02*
X122584285Y-79131009D01*
X122584285Y-79131009D02*
X122631904Y-79226247D01*
X122631904Y-79226247D02*
X122631904Y-79464342D01*
X122631904Y-79464342D02*
X122584285Y-79559580D01*
X122584285Y-79559580D02*
X122536666Y-79607200D01*
X122536666Y-79607200D02*
X122441428Y-79654819D01*
X122441428Y-79654819D02*
X122155714Y-79654819D01*
X122155714Y-79654819D02*
X122060476Y-79607200D01*
X122060476Y-79607200D02*
X122012857Y-79559580D01*
X129844819Y-86302857D02*
X129368628Y-86636190D01*
X129844819Y-86874285D02*
X128844819Y-86874285D01*
X128844819Y-86874285D02*
X128844819Y-86493333D01*
X128844819Y-86493333D02*
X128892438Y-86398095D01*
X128892438Y-86398095D02*
X128940057Y-86350476D01*
X128940057Y-86350476D02*
X129035295Y-86302857D01*
X129035295Y-86302857D02*
X129178152Y-86302857D01*
X129178152Y-86302857D02*
X129273390Y-86350476D01*
X129273390Y-86350476D02*
X129321009Y-86398095D01*
X129321009Y-86398095D02*
X129368628Y-86493333D01*
X129368628Y-86493333D02*
X129368628Y-86874285D01*
X129844819Y-85350476D02*
X129844819Y-85921904D01*
X129844819Y-85636190D02*
X128844819Y-85636190D01*
X128844819Y-85636190D02*
X128987676Y-85731428D01*
X128987676Y-85731428D02*
X129082914Y-85826666D01*
X129082914Y-85826666D02*
X129130533Y-85921904D01*
X128844819Y-85017142D02*
X128844819Y-84398095D01*
X128844819Y-84398095D02*
X129225771Y-84731428D01*
X129225771Y-84731428D02*
X129225771Y-84588571D01*
X129225771Y-84588571D02*
X129273390Y-84493333D01*
X129273390Y-84493333D02*
X129321009Y-84445714D01*
X129321009Y-84445714D02*
X129416247Y-84398095D01*
X129416247Y-84398095D02*
X129654342Y-84398095D01*
X129654342Y-84398095D02*
X129749580Y-84445714D01*
X129749580Y-84445714D02*
X129797200Y-84493333D01*
X129797200Y-84493333D02*
X129844819Y-84588571D01*
X129844819Y-84588571D02*
X129844819Y-84874285D01*
X129844819Y-84874285D02*
X129797200Y-84969523D01*
X129797200Y-84969523D02*
X129749580Y-85017142D01*
X145095238Y-116354819D02*
X145095238Y-115354819D01*
X145095238Y-115354819D02*
X145476190Y-115354819D01*
X145476190Y-115354819D02*
X145571428Y-115402438D01*
X145571428Y-115402438D02*
X145619047Y-115450057D01*
X145619047Y-115450057D02*
X145666666Y-115545295D01*
X145666666Y-115545295D02*
X145666666Y-115688152D01*
X145666666Y-115688152D02*
X145619047Y-115783390D01*
X145619047Y-115783390D02*
X145571428Y-115831009D01*
X145571428Y-115831009D02*
X145476190Y-115878628D01*
X145476190Y-115878628D02*
X145095238Y-115878628D01*
X146000000Y-115354819D02*
X146238095Y-116354819D01*
X146238095Y-116354819D02*
X146428571Y-115640533D01*
X146428571Y-115640533D02*
X146619047Y-116354819D01*
X146619047Y-116354819D02*
X146857143Y-115354819D01*
X147238095Y-116354819D02*
X147238095Y-115354819D01*
X147238095Y-115354819D02*
X147571428Y-116069104D01*
X147571428Y-116069104D02*
X147904761Y-115354819D01*
X147904761Y-115354819D02*
X147904761Y-116354819D01*
X130283333Y-109959580D02*
X130235714Y-110007200D01*
X130235714Y-110007200D02*
X130092857Y-110054819D01*
X130092857Y-110054819D02*
X129997619Y-110054819D01*
X129997619Y-110054819D02*
X129854762Y-110007200D01*
X129854762Y-110007200D02*
X129759524Y-109911961D01*
X129759524Y-109911961D02*
X129711905Y-109816723D01*
X129711905Y-109816723D02*
X129664286Y-109626247D01*
X129664286Y-109626247D02*
X129664286Y-109483390D01*
X129664286Y-109483390D02*
X129711905Y-109292914D01*
X129711905Y-109292914D02*
X129759524Y-109197676D01*
X129759524Y-109197676D02*
X129854762Y-109102438D01*
X129854762Y-109102438D02*
X129997619Y-109054819D01*
X129997619Y-109054819D02*
X130092857Y-109054819D01*
X130092857Y-109054819D02*
X130235714Y-109102438D01*
X130235714Y-109102438D02*
X130283333Y-109150057D01*
X130616667Y-109054819D02*
X131235714Y-109054819D01*
X131235714Y-109054819D02*
X130902381Y-109435771D01*
X130902381Y-109435771D02*
X131045238Y-109435771D01*
X131045238Y-109435771D02*
X131140476Y-109483390D01*
X131140476Y-109483390D02*
X131188095Y-109531009D01*
X131188095Y-109531009D02*
X131235714Y-109626247D01*
X131235714Y-109626247D02*
X131235714Y-109864342D01*
X131235714Y-109864342D02*
X131188095Y-109959580D01*
X131188095Y-109959580D02*
X131140476Y-110007200D01*
X131140476Y-110007200D02*
X131045238Y-110054819D01*
X131045238Y-110054819D02*
X130759524Y-110054819D01*
X130759524Y-110054819D02*
X130664286Y-110007200D01*
X130664286Y-110007200D02*
X130616667Y-109959580D01*
X126033333Y-115809580D02*
X125985714Y-115857200D01*
X125985714Y-115857200D02*
X125842857Y-115904819D01*
X125842857Y-115904819D02*
X125747619Y-115904819D01*
X125747619Y-115904819D02*
X125604762Y-115857200D01*
X125604762Y-115857200D02*
X125509524Y-115761961D01*
X125509524Y-115761961D02*
X125461905Y-115666723D01*
X125461905Y-115666723D02*
X125414286Y-115476247D01*
X125414286Y-115476247D02*
X125414286Y-115333390D01*
X125414286Y-115333390D02*
X125461905Y-115142914D01*
X125461905Y-115142914D02*
X125509524Y-115047676D01*
X125509524Y-115047676D02*
X125604762Y-114952438D01*
X125604762Y-114952438D02*
X125747619Y-114904819D01*
X125747619Y-114904819D02*
X125842857Y-114904819D01*
X125842857Y-114904819D02*
X125985714Y-114952438D01*
X125985714Y-114952438D02*
X126033333Y-115000057D01*
X126985714Y-115904819D02*
X126414286Y-115904819D01*
X126700000Y-115904819D02*
X126700000Y-114904819D01*
X126700000Y-114904819D02*
X126604762Y-115047676D01*
X126604762Y-115047676D02*
X126509524Y-115142914D01*
X126509524Y-115142914D02*
X126414286Y-115190533D01*
X148357142Y-74052438D02*
X148261904Y-74004819D01*
X148261904Y-74004819D02*
X148119047Y-74004819D01*
X148119047Y-74004819D02*
X147976190Y-74052438D01*
X147976190Y-74052438D02*
X147880952Y-74147676D01*
X147880952Y-74147676D02*
X147833333Y-74242914D01*
X147833333Y-74242914D02*
X147785714Y-74433390D01*
X147785714Y-74433390D02*
X147785714Y-74576247D01*
X147785714Y-74576247D02*
X147833333Y-74766723D01*
X147833333Y-74766723D02*
X147880952Y-74861961D01*
X147880952Y-74861961D02*
X147976190Y-74957200D01*
X147976190Y-74957200D02*
X148119047Y-75004819D01*
X148119047Y-75004819D02*
X148214285Y-75004819D01*
X148214285Y-75004819D02*
X148357142Y-74957200D01*
X148357142Y-74957200D02*
X148404761Y-74909580D01*
X148404761Y-74909580D02*
X148404761Y-74576247D01*
X148404761Y-74576247D02*
X148214285Y-74576247D01*
X148833333Y-74338152D02*
X148833333Y-75004819D01*
X148833333Y-74433390D02*
X148880952Y-74385771D01*
X148880952Y-74385771D02*
X148976190Y-74338152D01*
X148976190Y-74338152D02*
X149119047Y-74338152D01*
X149119047Y-74338152D02*
X149214285Y-74385771D01*
X149214285Y-74385771D02*
X149261904Y-74481009D01*
X149261904Y-74481009D02*
X149261904Y-75004819D01*
X150166666Y-75004819D02*
X150166666Y-74004819D01*
X150166666Y-74957200D02*
X150071428Y-75004819D01*
X150071428Y-75004819D02*
X149880952Y-75004819D01*
X149880952Y-75004819D02*
X149785714Y-74957200D01*
X149785714Y-74957200D02*
X149738095Y-74909580D01*
X149738095Y-74909580D02*
X149690476Y-74814342D01*
X149690476Y-74814342D02*
X149690476Y-74528628D01*
X149690476Y-74528628D02*
X149738095Y-74433390D01*
X149738095Y-74433390D02*
X149785714Y-74385771D01*
X149785714Y-74385771D02*
X149880952Y-74338152D01*
X149880952Y-74338152D02*
X150071428Y-74338152D01*
X150071428Y-74338152D02*
X150166666Y-74385771D01*
X120707142Y-80789580D02*
X120659523Y-80837200D01*
X120659523Y-80837200D02*
X120516666Y-80884819D01*
X120516666Y-80884819D02*
X120421428Y-80884819D01*
X120421428Y-80884819D02*
X120278571Y-80837200D01*
X120278571Y-80837200D02*
X120183333Y-80741961D01*
X120183333Y-80741961D02*
X120135714Y-80646723D01*
X120135714Y-80646723D02*
X120088095Y-80456247D01*
X120088095Y-80456247D02*
X120088095Y-80313390D01*
X120088095Y-80313390D02*
X120135714Y-80122914D01*
X120135714Y-80122914D02*
X120183333Y-80027676D01*
X120183333Y-80027676D02*
X120278571Y-79932438D01*
X120278571Y-79932438D02*
X120421428Y-79884819D01*
X120421428Y-79884819D02*
X120516666Y-79884819D01*
X120516666Y-79884819D02*
X120659523Y-79932438D01*
X120659523Y-79932438D02*
X120707142Y-79980057D01*
X121659523Y-80884819D02*
X121088095Y-80884819D01*
X121373809Y-80884819D02*
X121373809Y-79884819D01*
X121373809Y-79884819D02*
X121278571Y-80027676D01*
X121278571Y-80027676D02*
X121183333Y-80122914D01*
X121183333Y-80122914D02*
X121088095Y-80170533D01*
X121992857Y-79884819D02*
X122659523Y-79884819D01*
X122659523Y-79884819D02*
X122230952Y-80884819D01*
X143254819Y-112566666D02*
X142778628Y-112899999D01*
X143254819Y-113138094D02*
X142254819Y-113138094D01*
X142254819Y-113138094D02*
X142254819Y-112757142D01*
X142254819Y-112757142D02*
X142302438Y-112661904D01*
X142302438Y-112661904D02*
X142350057Y-112614285D01*
X142350057Y-112614285D02*
X142445295Y-112566666D01*
X142445295Y-112566666D02*
X142588152Y-112566666D01*
X142588152Y-112566666D02*
X142683390Y-112614285D01*
X142683390Y-112614285D02*
X142731009Y-112661904D01*
X142731009Y-112661904D02*
X142778628Y-112757142D01*
X142778628Y-112757142D02*
X142778628Y-113138094D01*
X142254819Y-112233332D02*
X142254819Y-111614285D01*
X142254819Y-111614285D02*
X142635771Y-111947618D01*
X142635771Y-111947618D02*
X142635771Y-111804761D01*
X142635771Y-111804761D02*
X142683390Y-111709523D01*
X142683390Y-111709523D02*
X142731009Y-111661904D01*
X142731009Y-111661904D02*
X142826247Y-111614285D01*
X142826247Y-111614285D02*
X143064342Y-111614285D01*
X143064342Y-111614285D02*
X143159580Y-111661904D01*
X143159580Y-111661904D02*
X143207200Y-111709523D01*
X143207200Y-111709523D02*
X143254819Y-111804761D01*
X143254819Y-111804761D02*
X143254819Y-112090475D01*
X143254819Y-112090475D02*
X143207200Y-112185713D01*
X143207200Y-112185713D02*
X143159580Y-112233332D01*
X119878095Y-91364819D02*
X119878095Y-92174342D01*
X119878095Y-92174342D02*
X119925714Y-92269580D01*
X119925714Y-92269580D02*
X119973333Y-92317200D01*
X119973333Y-92317200D02*
X120068571Y-92364819D01*
X120068571Y-92364819D02*
X120259047Y-92364819D01*
X120259047Y-92364819D02*
X120354285Y-92317200D01*
X120354285Y-92317200D02*
X120401904Y-92269580D01*
X120401904Y-92269580D02*
X120449523Y-92174342D01*
X120449523Y-92174342D02*
X120449523Y-91364819D01*
X121354285Y-91698152D02*
X121354285Y-92364819D01*
X121116190Y-91317200D02*
X120878095Y-92031485D01*
X120878095Y-92031485D02*
X121497142Y-92031485D01*
X151083333Y-115834819D02*
X150750000Y-115358628D01*
X150511905Y-115834819D02*
X150511905Y-114834819D01*
X150511905Y-114834819D02*
X150892857Y-114834819D01*
X150892857Y-114834819D02*
X150988095Y-114882438D01*
X150988095Y-114882438D02*
X151035714Y-114930057D01*
X151035714Y-114930057D02*
X151083333Y-115025295D01*
X151083333Y-115025295D02*
X151083333Y-115168152D01*
X151083333Y-115168152D02*
X151035714Y-115263390D01*
X151035714Y-115263390D02*
X150988095Y-115311009D01*
X150988095Y-115311009D02*
X150892857Y-115358628D01*
X150892857Y-115358628D02*
X150511905Y-115358628D01*
X152035714Y-115834819D02*
X151464286Y-115834819D01*
X151750000Y-115834819D02*
X151750000Y-114834819D01*
X151750000Y-114834819D02*
X151654762Y-114977676D01*
X151654762Y-114977676D02*
X151559524Y-115072914D01*
X151559524Y-115072914D02*
X151464286Y-115120533D01*
X150849235Y-95725882D02*
X150373044Y-96059215D01*
X150849235Y-96297310D02*
X149849235Y-96297310D01*
X149849235Y-96297310D02*
X149849235Y-95916358D01*
X149849235Y-95916358D02*
X149896854Y-95821120D01*
X149896854Y-95821120D02*
X149944473Y-95773501D01*
X149944473Y-95773501D02*
X150039711Y-95725882D01*
X150039711Y-95725882D02*
X150182568Y-95725882D01*
X150182568Y-95725882D02*
X150277806Y-95773501D01*
X150277806Y-95773501D02*
X150325425Y-95821120D01*
X150325425Y-95821120D02*
X150373044Y-95916358D01*
X150373044Y-95916358D02*
X150373044Y-96297310D01*
X149849235Y-95392548D02*
X149849235Y-94725882D01*
X149849235Y-94725882D02*
X150849235Y-95154453D01*
D12*
%TO.C,U5*%
X110197500Y-92310000D02*
X110397500Y-92310000D01*
X110197500Y-96930000D02*
X110197500Y-92310000D01*
X110397500Y-96930000D02*
X110197500Y-96930000D01*
X115217500Y-92310000D02*
X115417500Y-92310000D01*
X115417500Y-92310000D02*
X115417500Y-96930000D01*
X115417500Y-96930000D02*
X115217500Y-96930000D01*
X115687500Y-92010000D02*
X115217500Y-91670000D01*
X115687500Y-91330000D01*
X115687500Y-92010000D01*
G36*
X115687500Y-92010000D02*
G01*
X115217500Y-91670000D01*
X115687500Y-91330000D01*
X115687500Y-92010000D01*
G37*
D11*
%TO.C,L1*%
X136217158Y-90277545D02*
X137517158Y-90277545D01*
X136217158Y-97877545D02*
X136217158Y-90277545D01*
X137517158Y-97877545D02*
X136217158Y-97877545D01*
X141667158Y-90277545D02*
X142967158Y-90277545D01*
X142967158Y-90277545D02*
X142967158Y-97877545D01*
X142967158Y-97877545D02*
X141667158Y-97877545D01*
D12*
%TO.C,C7*%
X143890000Y-108940580D02*
X143890000Y-108659420D01*
X144910000Y-108940580D02*
X144910000Y-108659420D01*
%TO.C,C12*%
X124107836Y-77590000D02*
X123892164Y-77590000D01*
X124107836Y-78310000D02*
X123892164Y-78310000D01*
%TO.C,C4*%
X125409420Y-100790000D02*
X125690580Y-100790000D01*
X125409420Y-101810000D02*
X125690580Y-101810000D01*
%TO.C,U1*%
X128630000Y-111720000D02*
X128680000Y-111720000D01*
X128630000Y-113540000D02*
X128630000Y-111720000D01*
X128680000Y-113540000D02*
X128630000Y-113540000D01*
X129800000Y-111720000D02*
X130580000Y-111720000D01*
X131700000Y-111720000D02*
X131750000Y-111720000D01*
X131750000Y-111720000D02*
X131750000Y-113540000D01*
X131750000Y-113540000D02*
X131700000Y-113540000D01*
X128680000Y-114080000D02*
X128350000Y-114320000D01*
X128350000Y-113840000D01*
X128680000Y-114080000D01*
G36*
X128680000Y-114080000D02*
G01*
X128350000Y-114320000D01*
X128350000Y-113840000D01*
X128680000Y-114080000D01*
G37*
%TO.C,C18*%
X130640000Y-83307836D02*
X130640000Y-83092164D01*
X131360000Y-83307836D02*
X131360000Y-83092164D01*
%TO.C,C10*%
X146461252Y-81540000D02*
X145038748Y-81540000D01*
X146461252Y-83360000D02*
X145038748Y-83360000D01*
%TO.C,TP5*%
X148250000Y-118900000D02*
X149650000Y-118900000D01*
X148250000Y-120300000D02*
X148250000Y-118900000D01*
X149650000Y-118900000D02*
X149650000Y-120300000D01*
X149650000Y-120300000D02*
X148250000Y-120300000D01*
%TO.C,R10*%
X123620000Y-83353641D02*
X123620000Y-83046359D01*
X124380000Y-83353641D02*
X124380000Y-83046359D01*
%TO.C,TP3*%
X146050000Y-126600000D02*
X147450000Y-126600000D01*
X146050000Y-128000000D02*
X146050000Y-126600000D01*
X147450000Y-126600000D02*
X147450000Y-128000000D01*
X147450000Y-128000000D02*
X146050000Y-128000000D01*
%TO.C,TP7*%
X129100000Y-92100000D02*
X130500000Y-92100000D01*
X129100000Y-93500000D02*
X129100000Y-92100000D01*
X130500000Y-92100000D02*
X130500000Y-93500000D01*
X130500000Y-93500000D02*
X129100000Y-93500000D01*
%TO.C,R2*%
X148277500Y-115037258D02*
X148277500Y-114562742D01*
X149322500Y-115037258D02*
X149322500Y-114562742D01*
%TO.C,C2*%
X123759420Y-106590000D02*
X124040580Y-106590000D01*
X123759420Y-107610000D02*
X124040580Y-107610000D01*
%TO.C,C14*%
X127780000Y-83092164D02*
X127780000Y-83307836D01*
X128500000Y-83092164D02*
X128500000Y-83307836D01*
%TO.C,R14*%
X149377500Y-108837258D02*
X149377500Y-108362742D01*
X150422500Y-108837258D02*
X150422500Y-108362742D01*
%TO.C,TP8*%
X142400000Y-77100000D02*
X143800000Y-77100000D01*
X142400000Y-78500000D02*
X142400000Y-77100000D01*
X143800000Y-77100000D02*
X143800000Y-78500000D01*
X143800000Y-78500000D02*
X142400000Y-78500000D01*
%TO.C,R4*%
X130127500Y-104212742D02*
X130127500Y-104687258D01*
X131172500Y-104212742D02*
X131172500Y-104687258D01*
%TO.C,R6*%
X148427500Y-92587258D02*
X148427500Y-92112742D01*
X149472500Y-92587258D02*
X149472500Y-92112742D01*
%TO.C,C8*%
X140515000Y-106688748D02*
X140515000Y-107211252D01*
X141985000Y-106688748D02*
X141985000Y-107211252D01*
%TO.C,U2*%
X124040000Y-103290000D02*
X124090000Y-103290000D01*
X124040000Y-105110000D02*
X124040000Y-103290000D01*
X124090000Y-105110000D02*
X124040000Y-105110000D01*
X125210000Y-103290000D02*
X125990000Y-103290000D01*
X127110000Y-103290000D02*
X127160000Y-103290000D01*
X127160000Y-103290000D02*
X127160000Y-105110000D01*
X127160000Y-105110000D02*
X127110000Y-105110000D01*
X124090000Y-105650000D02*
X123760000Y-105890000D01*
X123760000Y-105410000D01*
X124090000Y-105650000D01*
G36*
X124090000Y-105650000D02*
G01*
X123760000Y-105890000D01*
X123760000Y-105410000D01*
X124090000Y-105650000D01*
G37*
%TO.C,C5*%
X140139581Y-83904666D02*
X140662085Y-83904666D01*
X140139581Y-85374666D02*
X140662085Y-85374666D01*
%TO.C,C15*%
X115990000Y-96590580D02*
X115990000Y-96309420D01*
X117010000Y-96590580D02*
X117010000Y-96309420D01*
%TO.C,R5*%
X150277500Y-105237258D02*
X150277500Y-104762742D01*
X151322500Y-105237258D02*
X151322500Y-104762742D01*
%TO.C,TP1*%
X136450000Y-114450000D02*
X137850000Y-114450000D01*
X136450000Y-115850000D02*
X136450000Y-114450000D01*
X137850000Y-114450000D02*
X137850000Y-115850000D01*
X137850000Y-115850000D02*
X136450000Y-115850000D01*
%TO.C,J2*%
X105350000Y-107200000D02*
X105350000Y-108540000D01*
X105350000Y-111260000D02*
X105350000Y-113000000D01*
X105350000Y-113000000D02*
X119650000Y-113000000D01*
X106840000Y-107200000D02*
X105350000Y-107200000D01*
X106840000Y-107200000D02*
X106840000Y-106000000D01*
X118160000Y-107200000D02*
X119650000Y-107200000D01*
X119650000Y-107200000D02*
X119650000Y-108540000D01*
X119650000Y-113000000D02*
X119650000Y-111260000D01*
X118914005Y-106500000D02*
G75*
G02*
X118085995Y-106500000I-414005J0D01*
G01*
X118085995Y-106500000D02*
G75*
G02*
X118914005Y-106500000I414005J0D01*
G01*
%TO.C,TP6*%
X138600000Y-125100000D02*
X140000000Y-125100000D01*
X138600000Y-126500000D02*
X138600000Y-125100000D01*
X140000000Y-125100000D02*
X140000000Y-126500000D01*
X140000000Y-126500000D02*
X138600000Y-126500000D01*
%TO.C,C9*%
X144840000Y-93488748D02*
X144840000Y-94911252D01*
X146660000Y-93488748D02*
X146660000Y-94911252D01*
%TO.C,TP9*%
X151150000Y-107650000D02*
X152550000Y-107650000D01*
X151150000Y-109050000D02*
X151150000Y-107650000D01*
X152550000Y-107650000D02*
X152550000Y-109050000D01*
X152550000Y-109050000D02*
X151150000Y-109050000D01*
%TO.C,U6*%
X126240000Y-87890000D02*
X128060000Y-87890000D01*
X126240000Y-87940000D02*
X126240000Y-87890000D01*
X126240000Y-89840000D02*
X126240000Y-89060000D01*
X126240000Y-91010000D02*
X126240000Y-90960000D01*
X128060000Y-87890000D02*
X128060000Y-87940000D01*
X128060000Y-90960000D02*
X128060000Y-91010000D01*
X128060000Y-91010000D02*
X126240000Y-91010000D01*
X128840000Y-91290000D02*
X128360000Y-91290000D01*
X128600000Y-90960000D01*
X128840000Y-91290000D01*
G36*
X128840000Y-91290000D02*
G01*
X128360000Y-91290000D01*
X128600000Y-90960000D01*
X128840000Y-91290000D01*
G37*
%TO.C,D1*%
X150110000Y-87300000D02*
X144600000Y-87300000D01*
X150110000Y-90600000D02*
X144600000Y-90600000D01*
X150110000Y-90600000D02*
X150110000Y-87300000D01*
%TO.C,R9*%
X126370000Y-83353641D02*
X126370000Y-83046359D01*
X127130000Y-83353641D02*
X127130000Y-83046359D01*
%TO.C,C16*%
X115980000Y-90779420D02*
X115980000Y-91060580D01*
X117000000Y-90779420D02*
X117000000Y-91060580D01*
%TO.C,R12*%
X132487258Y-95127500D02*
X132012742Y-95127500D01*
X132487258Y-96172500D02*
X132012742Y-96172500D01*
%TO.C,C11*%
X146461252Y-84290000D02*
X145038748Y-84290000D01*
X146461252Y-86110000D02*
X145038748Y-86110000D01*
%TO.C,J3*%
X125550000Y-79400000D02*
X125550000Y-81550000D01*
X125550000Y-81550000D02*
X126450000Y-81550000D01*
X138950000Y-79400000D02*
X138950000Y-81500000D01*
X138950000Y-81500000D02*
X138050000Y-81500000D01*
%TO.C,R8*%
X118466359Y-76090000D02*
X118773641Y-76090000D01*
X118466359Y-76850000D02*
X118773641Y-76850000D01*
D10*
%TO.C,U3*%
X143399999Y-104547668D02*
X143399999Y-101352332D01*
X149900001Y-104547668D02*
X149900001Y-101352332D01*
D13*
X143157093Y-105737630D02*
G75*
G02*
X142907091Y-105737630I-125001J0D01*
G01*
X142907091Y-105737630D02*
G75*
G02*
X143157093Y-105737630I125001J0D01*
G01*
D12*
%TO.C,R11*%
X125120000Y-83353641D02*
X125120000Y-83046359D01*
X125880000Y-83353641D02*
X125880000Y-83046359D01*
%TO.C,C6*%
X140111253Y-85971531D02*
X140633757Y-85971531D01*
X140111253Y-87441531D02*
X140633757Y-87441531D01*
%TO.C,C13*%
X123892164Y-78840000D02*
X124107836Y-78840000D01*
X123892164Y-79560000D02*
X124107836Y-79560000D01*
%TO.C,R13*%
X128970000Y-83323641D02*
X128970000Y-83016359D01*
X129730000Y-83323641D02*
X129730000Y-83016359D01*
%TO.C,TP2*%
X145800000Y-113650000D02*
X147200000Y-113650000D01*
X145800000Y-115050000D02*
X145800000Y-113650000D01*
X147200000Y-113650000D02*
X147200000Y-115050000D01*
X147200000Y-115050000D02*
X145800000Y-115050000D01*
%TO.C,C3*%
X128140580Y-109240000D02*
X127859420Y-109240000D01*
X128140580Y-110260000D02*
X127859420Y-110260000D01*
%TO.C,C1*%
X128359420Y-114990000D02*
X128640580Y-114990000D01*
X128359420Y-116010000D02*
X128640580Y-116010000D01*
%TO.C,TP4*%
X148300000Y-72300000D02*
X149700000Y-72300000D01*
X148300000Y-73700000D02*
X148300000Y-72300000D01*
X149700000Y-72300000D02*
X149700000Y-73700000D01*
X149700000Y-73700000D02*
X148300000Y-73700000D01*
%TO.C,C17*%
X123892164Y-79840000D02*
X124107836Y-79840000D01*
X123892164Y-80560000D02*
X124107836Y-80560000D01*
%TO.C,R3*%
X143877500Y-112162742D02*
X143877500Y-112637258D01*
X144922500Y-112162742D02*
X144922500Y-112637258D01*
%TO.C,U4*%
X119710000Y-87912500D02*
X121530000Y-87912500D01*
X119710000Y-87962500D02*
X119710000Y-87912500D01*
X119710000Y-89862500D02*
X119710000Y-89082500D01*
X119710000Y-91032500D02*
X119710000Y-90982500D01*
X121530000Y-87912500D02*
X121530000Y-87962500D01*
X121530000Y-90982500D02*
X121530000Y-91032500D01*
X121530000Y-91032500D02*
X119710000Y-91032500D01*
X122310000Y-91312500D02*
X121830000Y-91312500D01*
X122070000Y-90982500D01*
X122310000Y-91312500D01*
G36*
X122310000Y-91312500D02*
G01*
X121830000Y-91312500D01*
X122070000Y-90982500D01*
X122310000Y-91312500D01*
G37*
%TO.C,R1*%
X151487258Y-113427500D02*
X151012742Y-113427500D01*
X151487258Y-114472500D02*
X151012742Y-114472500D01*
%TO.C,R7*%
X148421916Y-95796474D02*
X148421916Y-95321958D01*
X149466916Y-95796474D02*
X149466916Y-95321958D01*
%TD*%
M02*
