%TF.GenerationSoftware,KiCad,Pcbnew,9.0.9-9.0.9~ubuntu24.04.1*%
%TF.CreationDate,2026-08-12T11:20:00-04:00*%
%TF.ProjectId,tv070hat,74763037-3068-4617-942e-6b696361645f,rev?*%
%TF.SameCoordinates,Original*%
%TF.FileFunction,Soldermask,Top*%
%TF.FilePolarity,Negative*%
%FSLAX46Y46*%
G04 Gerber Fmt 4.6, Leading zero omitted, Abs format (unit mm)*
G04 Created by KiCad (PCBNEW 9.0.9-9.0.9~ubuntu24.04.1) date 2026-08-12 11:20:00*
%MOMM*%
%LPD*%
G01*
G04 APERTURE LIST*
G04 Aperture macros list*
%AMRoundRect*
0 Rectangle with rounded corners*
0 $1 Rounding radius*
0 $2 $3 $4 $5 $6 $7 $8 $9 X,Y pos of 4 corners*
0 Add a 4 corners polygon primitive as box body*
4,1,4,$2,$3,$4,$5,$6,$7,$8,$9,$2,$3,0*
0 Add four circle primitives for the rounded corners*
1,1,$1+$1,$2,$3*
1,1,$1+$1,$4,$5*
1,1,$1+$1,$6,$7*
1,1,$1+$1,$8,$9*
0 Add four rect primitives between the rounded corners*
20,1,$1+$1,$2,$3,$4,$5,0*
20,1,$1+$1,$4,$5,$6,$7,0*
20,1,$1+$1,$6,$7,$8,$9,0*
20,1,$1+$1,$8,$9,$2,$3,0*%
G04 Aperture macros list end*
%ADD10RoundRect,0.100000X-0.100000X0.637500X-0.100000X-0.637500X0.100000X-0.637500X0.100000X0.637500X0*%
%ADD11R,3.500000X2.350000*%
%ADD12RoundRect,0.225000X0.250000X-0.225000X0.250000X0.225000X-0.250000X0.225000X-0.250000X-0.225000X0*%
%ADD13RoundRect,0.140000X0.140000X0.170000X-0.140000X0.170000X-0.140000X-0.170000X0.140000X-0.170000X0*%
%ADD14RoundRect,0.225000X-0.225000X-0.250000X0.225000X-0.250000X0.225000X0.250000X-0.225000X0.250000X0*%
%ADD15RoundRect,0.150000X0.150000X-0.512500X0.150000X0.512500X-0.150000X0.512500X-0.150000X-0.512500X0*%
%ADD16RoundRect,0.140000X0.170000X-0.140000X0.170000X0.140000X-0.170000X0.140000X-0.170000X-0.140000X0*%
%ADD17RoundRect,0.250000X0.325000X0.650000X-0.325000X0.650000X-0.325000X-0.650000X0.325000X-0.650000X0*%
%ADD18R,1.000000X1.000000*%
%ADD19RoundRect,0.135000X0.185000X-0.135000X0.185000X0.135000X-0.185000X0.135000X-0.185000X-0.135000X0*%
%ADD20RoundRect,0.200000X0.275000X-0.200000X0.275000X0.200000X-0.275000X0.200000X-0.275000X-0.200000X0*%
%ADD21RoundRect,0.140000X-0.170000X0.140000X-0.170000X-0.140000X0.170000X-0.140000X0.170000X0.140000X0*%
%ADD22RoundRect,0.200000X-0.275000X0.200000X-0.275000X-0.200000X0.275000X-0.200000X0.275000X0.200000X0*%
%ADD23RoundRect,0.250000X-0.475000X0.250000X-0.475000X-0.250000X0.475000X-0.250000X0.475000X0.250000X0*%
%ADD24RoundRect,0.250000X-0.250000X-0.475000X0.250000X-0.475000X0.250000X0.475000X-0.250000X0.475000X0*%
%ADD25R,0.300000X1.300000*%
%ADD26R,1.800000X2.200000*%
%ADD27RoundRect,0.250000X-0.650000X0.325000X-0.650000X-0.325000X0.650000X-0.325000X0.650000X0.325000X0*%
%ADD28RoundRect,0.150000X0.512500X0.150000X-0.512500X0.150000X-0.512500X-0.150000X0.512500X-0.150000X0*%
%ADD29RoundRect,0.250000X1.000000X0.650000X-1.000000X0.650000X-1.000000X-0.650000X1.000000X-0.650000X0*%
%ADD30RoundRect,0.225000X-0.250000X0.225000X-0.250000X-0.225000X0.250000X-0.225000X0.250000X0.225000X0*%
%ADD31RoundRect,0.200000X0.200000X0.275000X-0.200000X0.275000X-0.200000X-0.275000X0.200000X-0.275000X0*%
%ADD32R,0.300000X0.800000*%
%ADD33R,0.300000X0.650000*%
%ADD34R,0.400000X0.950000*%
%ADD35RoundRect,0.135000X-0.135000X-0.185000X0.135000X-0.185000X0.135000X0.185000X-0.135000X0.185000X0*%
%ADD36R,0.400000X1.500000*%
%ADD37C,4.500000*%
%ADD38RoundRect,0.140000X-0.140000X-0.170000X0.140000X-0.170000X0.140000X0.170000X-0.140000X0.170000X0*%
%ADD39RoundRect,0.225000X0.225000X0.250000X-0.225000X0.250000X-0.225000X-0.250000X0.225000X-0.250000X0*%
%ADD40R,1.700000X1.700000*%
%ADD41C,1.700000*%
G04 APERTURE END LIST*
%TO.C,U3*%
G36*
X144830000Y-104345000D02*
G01*
X148470000Y-104345000D01*
X148470000Y-101555000D01*
X144830000Y-101555000D01*
X144830000Y-104345000D01*
G37*
%TD*%
D10*
%TO.C,U5*%
X114757500Y-91757500D03*
X114107500Y-91757500D03*
X113457500Y-91757500D03*
X112807500Y-91757500D03*
X112157500Y-91757500D03*
X111507500Y-91757500D03*
X110857500Y-91757500D03*
X110857500Y-97482500D03*
X111507500Y-97482500D03*
X112157500Y-97482500D03*
X112807500Y-97482500D03*
X113457500Y-97482500D03*
X114107500Y-97482500D03*
X114757500Y-97482500D03*
%TD*%
D11*
%TO.C,L1*%
X139567158Y-91052545D03*
X139567158Y-97102545D03*
%TD*%
D12*
%TO.C,C7*%
X144400000Y-109575000D03*
X144400000Y-108025000D03*
%TD*%
D13*
%TO.C,C12*%
X124480000Y-77950000D03*
X123520000Y-77950000D03*
%TD*%
D14*
%TO.C,C4*%
X124775000Y-101300000D03*
X126325000Y-101300000D03*
%TD*%
D15*
%TO.C,U1*%
X129240000Y-113767500D03*
X130190000Y-113767500D03*
X131140000Y-113767500D03*
X131140000Y-111492500D03*
X129240000Y-111492500D03*
%TD*%
D16*
%TO.C,C18*%
X131000000Y-83680000D03*
X131000000Y-82720000D03*
%TD*%
D17*
%TO.C,C10*%
X147225000Y-82450000D03*
X144275000Y-82450000D03*
%TD*%
D18*
%TO.C,TP5*%
X148950000Y-119600000D03*
%TD*%
D19*
%TO.C,R10*%
X124000000Y-83710000D03*
X124000000Y-82690000D03*
%TD*%
D18*
%TO.C,TP3*%
X146750000Y-127300000D03*
%TD*%
%TO.C,TP7*%
X129800000Y-92800000D03*
%TD*%
D20*
%TO.C,R2*%
X148800000Y-115625000D03*
X148800000Y-113975000D03*
%TD*%
D14*
%TO.C,C2*%
X123125000Y-107100000D03*
X124675000Y-107100000D03*
%TD*%
D21*
%TO.C,C14*%
X128140000Y-82720000D03*
X128140000Y-83680000D03*
%TD*%
D20*
%TO.C,R14*%
X149900000Y-109425000D03*
X149900000Y-107775000D03*
%TD*%
D18*
%TO.C,TP8*%
X143100000Y-77800000D03*
%TD*%
D22*
%TO.C,R4*%
X130650000Y-103625000D03*
X130650000Y-105275000D03*
%TD*%
D20*
%TO.C,R6*%
X148950000Y-93175000D03*
X148950000Y-91525000D03*
%TD*%
D23*
%TO.C,C8*%
X141250000Y-106000000D03*
X141250000Y-107900000D03*
%TD*%
D15*
%TO.C,U2*%
X124650000Y-105337500D03*
X125600000Y-105337500D03*
X126550000Y-105337500D03*
X126550000Y-103062500D03*
X124650000Y-103062500D03*
%TD*%
D24*
%TO.C,C5*%
X139450833Y-84639666D03*
X141350833Y-84639666D03*
%TD*%
D12*
%TO.C,C15*%
X116500000Y-97225000D03*
X116500000Y-95675000D03*
%TD*%
D20*
%TO.C,R5*%
X150800000Y-105825000D03*
X150800000Y-104175000D03*
%TD*%
D18*
%TO.C,TP1*%
X137150000Y-115150000D03*
%TD*%
D25*
%TO.C,J2*%
X117750000Y-106650000D03*
X117250000Y-106650000D03*
X116750000Y-106650000D03*
X116250000Y-106650000D03*
X115750000Y-106650000D03*
X115250000Y-106650000D03*
X114750000Y-106650000D03*
X114250000Y-106650000D03*
X113750000Y-106650000D03*
X113250000Y-106650000D03*
X112750000Y-106650000D03*
X112250000Y-106650000D03*
X111750000Y-106650000D03*
X111250000Y-106650000D03*
X110750000Y-106650000D03*
X110250000Y-106650000D03*
X109750000Y-106650000D03*
X109250000Y-106650000D03*
X108750000Y-106650000D03*
X108250000Y-106650000D03*
X107750000Y-106650000D03*
X107250000Y-106650000D03*
D26*
X105350000Y-109900000D03*
X119650000Y-109900000D03*
%TD*%
D18*
%TO.C,TP6*%
X139300000Y-125800000D03*
%TD*%
D27*
%TO.C,C9*%
X145750000Y-92725000D03*
X145750000Y-95675000D03*
%TD*%
D18*
%TO.C,TP9*%
X151850000Y-108350000D03*
%TD*%
D28*
%TO.C,U6*%
X128287500Y-90400000D03*
X128287500Y-89450000D03*
X128287500Y-88500000D03*
X126012500Y-88500000D03*
X126012500Y-90400000D03*
%TD*%
D29*
%TO.C,D1*%
X148600000Y-88950000D03*
X144600000Y-88950000D03*
%TD*%
D19*
%TO.C,R9*%
X126750000Y-83710000D03*
X126750000Y-82690000D03*
%TD*%
D30*
%TO.C,C16*%
X116490000Y-90145000D03*
X116490000Y-91695000D03*
%TD*%
D31*
%TO.C,R12*%
X133075000Y-95650000D03*
X131425000Y-95650000D03*
%TD*%
D17*
%TO.C,C11*%
X147225000Y-85200000D03*
X144275000Y-85200000D03*
%TD*%
D32*
%TO.C,J3*%
X126550000Y-78325000D03*
D33*
X126850000Y-81200000D03*
D32*
X127150000Y-78325000D03*
D33*
X127450000Y-81200000D03*
D32*
X127750000Y-78325000D03*
D33*
X128050000Y-81200000D03*
D32*
X128350000Y-78325000D03*
D33*
X128650000Y-81200000D03*
D32*
X128950000Y-78325000D03*
D33*
X129250000Y-81200000D03*
D32*
X129550000Y-78325000D03*
D33*
X129850000Y-81200000D03*
D32*
X130150000Y-78325000D03*
D33*
X130450000Y-81200000D03*
D32*
X130750000Y-78325000D03*
D33*
X131050000Y-81200000D03*
D32*
X131350000Y-78325000D03*
D33*
X131650000Y-81200000D03*
D32*
X131950000Y-78325000D03*
D33*
X132250000Y-81200000D03*
D32*
X132550000Y-78325000D03*
D33*
X132850000Y-81200000D03*
D32*
X133150000Y-78325000D03*
D33*
X133450000Y-81200000D03*
D32*
X133750000Y-78325000D03*
D33*
X134050000Y-81200000D03*
D32*
X134350000Y-78325000D03*
D33*
X134650000Y-81200000D03*
D32*
X134950000Y-78325000D03*
D33*
X135250000Y-81200000D03*
D32*
X135550000Y-78325000D03*
D33*
X135850000Y-81200000D03*
D32*
X136150000Y-78325000D03*
D33*
X136450000Y-81200000D03*
D32*
X136750000Y-78325000D03*
D33*
X137050000Y-81200000D03*
D32*
X137350000Y-78325000D03*
D33*
X137650000Y-81200000D03*
D32*
X137950000Y-78325000D03*
D34*
X138650000Y-78600000D03*
X125850000Y-78600000D03*
%TD*%
D35*
%TO.C,R8*%
X118110000Y-76470000D03*
X119130000Y-76470000D03*
%TD*%
D36*
%TO.C,U3*%
X143725000Y-105850000D03*
X144375001Y-105850000D03*
X145024999Y-105850000D03*
X145675000Y-105850000D03*
X146324999Y-105850000D03*
X146975000Y-105850000D03*
X147624999Y-105850000D03*
X148275000Y-105850000D03*
X148924999Y-105850000D03*
X149575000Y-105850000D03*
X149575000Y-100050000D03*
X148924999Y-100050000D03*
X148275001Y-100050000D03*
X147625000Y-100050000D03*
X146975001Y-100050000D03*
X146324999Y-100050000D03*
X145675000Y-100050000D03*
X145024999Y-100050000D03*
X144375000Y-100050000D03*
X143725000Y-100050000D03*
%TD*%
D19*
%TO.C,R11*%
X125500000Y-83710000D03*
X125500000Y-82690000D03*
%TD*%
D24*
%TO.C,C6*%
X139422505Y-86706531D03*
X141322505Y-86706531D03*
%TD*%
D37*
%TO.C,U7*%
X156750000Y-69700000D03*
X107750000Y-69700000D03*
X156750000Y-127700000D03*
X107750000Y-127700000D03*
%TD*%
D38*
%TO.C,C13*%
X123520000Y-79200000D03*
X124480000Y-79200000D03*
%TD*%
D19*
%TO.C,R13*%
X129350000Y-83680000D03*
X129350000Y-82660000D03*
%TD*%
D18*
%TO.C,TP2*%
X146500000Y-114350000D03*
%TD*%
D39*
%TO.C,C3*%
X128775000Y-109750000D03*
X127225000Y-109750000D03*
%TD*%
D14*
%TO.C,C1*%
X127725000Y-115500000D03*
X129275000Y-115500000D03*
%TD*%
D18*
%TO.C,TP4*%
X149000000Y-73000000D03*
%TD*%
D38*
%TO.C,C17*%
X123520000Y-80200000D03*
X124480000Y-80200000D03*
%TD*%
D22*
%TO.C,R3*%
X144400000Y-111575000D03*
X144400000Y-113225000D03*
%TD*%
D28*
%TO.C,U4*%
X121757500Y-90422500D03*
X121757500Y-89472500D03*
X121757500Y-88522500D03*
X119482500Y-88522500D03*
X119482500Y-90422500D03*
%TD*%
D31*
%TO.C,R1*%
X152075000Y-113950000D03*
X150425000Y-113950000D03*
%TD*%
D20*
%TO.C,R7*%
X148944416Y-96384216D03*
X148944416Y-94734216D03*
%TD*%
D40*
%TO.C,J5*%
X155460000Y-74600000D03*
D41*
X158000000Y-74600000D03*
X155460000Y-77140000D03*
X158000000Y-77140000D03*
X155460000Y-79680000D03*
X158000000Y-79680000D03*
X155460000Y-82220000D03*
X158000000Y-82220000D03*
X155460000Y-84760000D03*
X158000000Y-84760000D03*
X155460000Y-87300000D03*
X158000000Y-87300000D03*
X155460000Y-89840000D03*
X158000000Y-89840000D03*
X155460000Y-92380000D03*
X158000000Y-92380000D03*
X155460000Y-94920000D03*
X158000000Y-94920000D03*
X155460000Y-97460000D03*
X158000000Y-97460000D03*
X155460000Y-100000000D03*
X158000000Y-100000000D03*
X155460000Y-102540000D03*
X158000000Y-102540000D03*
X155460000Y-105080000D03*
X158000000Y-105080000D03*
X155460000Y-107620000D03*
X158000000Y-107620000D03*
X155460000Y-110160000D03*
X158000000Y-110160000D03*
X155460000Y-112700000D03*
X158000000Y-112700000D03*
X155460000Y-115240000D03*
X158000000Y-115240000D03*
X155460000Y-117780000D03*
X158000000Y-117780000D03*
X155460000Y-120320000D03*
X158000000Y-120320000D03*
X155460000Y-122860000D03*
X158000000Y-122860000D03*
%TD*%
M02*
