ISO-10303-21;
HEADER;
FILE_DESCRIPTION(('FreeCAD Model'),'2;1');
FILE_NAME('Open CASCADE Shape Model','2026-05-08T11:24:17',(''),(''),
  'Open CASCADE STEP processor 7.8','FreeCAD','Unknown');
FILE_SCHEMA(('AUTOMOTIVE_DESIGN { 1 0 10303 214 1 1 1 1 }'));
ENDSEC;
DATA;
#1 = APPLICATION_PROTOCOL_DEFINITION('international standard',
  'automotive_design',2000,#2);
#2 = APPLICATION_CONTEXT(
  'core data for automotive mechanical design processes');
#3 = SHAPE_DEFINITION_REPRESENTATION(#4,#10);
#4 = PRODUCT_DEFINITION_SHAPE('','',#5);
#5 = PRODUCT_DEFINITION('design','',#6,#9);
#6 = PRODUCT_DEFINITION_FORMATION('','',#7);
#7 = PRODUCT('Bracket','Bracket','',(#8));
#8 = PRODUCT_CONTEXT('',#2,'mechanical');
#9 = PRODUCT_DEFINITION_CONTEXT('part definition',#2,'design');
#10 = SHAPE_REPRESENTATION('',(#11,#15),#19);
#11 = AXIS2_PLACEMENT_3D('',#12,#13,#14);
#12 = CARTESIAN_POINT('',(0.,0.,0.));
#13 = DIRECTION('',(0.,0.,1.));
#14 = DIRECTION('',(1.,0.,-0.));
#15 = AXIS2_PLACEMENT_3D('',#16,#17,#18);
#16 = CARTESIAN_POINT('',(0.,0.,0.));
#17 = DIRECTION('',(0.,0.,1.));
#18 = DIRECTION('',(1.,0.,0.));
#19 = ( GEOMETRIC_REPRESENTATION_CONTEXT(3) 
GLOBAL_UNCERTAINTY_ASSIGNED_CONTEXT((#23)) GLOBAL_UNIT_ASSIGNED_CONTEXT(
(#20,#21,#22)) REPRESENTATION_CONTEXT('Context #1',
  '3D Context with UNIT and UNCERTAINTY') );
#20 = ( LENGTH_UNIT() NAMED_UNIT(*) SI_UNIT(.MILLI.,.METRE.) );
#21 = ( NAMED_UNIT(*) PLANE_ANGLE_UNIT() SI_UNIT($,.RADIAN.) );
#22 = ( NAMED_UNIT(*) SI_UNIT($,.STERADIAN.) SOLID_ANGLE_UNIT() );
#23 = UNCERTAINTY_MEASURE_WITH_UNIT(LENGTH_MEASURE(1.E-07),#20,
  'distance_accuracy_value','confusion accuracy');
#24 = PRODUCT_RELATED_PRODUCT_CATEGORY('part',$,(#7));
#25 = SHAPE_DEFINITION_REPRESENTATION(#26,#32);
#26 = PRODUCT_DEFINITION_SHAPE('','',#27);
#27 = PRODUCT_DEFINITION('design','',#28,#31);
#28 = PRODUCT_DEFINITION_FORMATION('','',#29);
#29 = PRODUCT('Body001','Body001','',(#30));
#30 = PRODUCT_CONTEXT('',#2,'mechanical');
#31 = PRODUCT_DEFINITION_CONTEXT('part definition',#2,'design');
#32 = ADVANCED_BREP_SHAPE_REPRESENTATION('',(#11,#33),#703);
#33 = MANIFOLD_SOLID_BREP('',#34);
#34 = CLOSED_SHELL('',(#35,#139,#170,#194,#218,#242,#310,#334,#358,#382,
    #406,#430,#498,#515,#535,#560,#585,#610,#635,#652,#669,#686));
#35 = ADVANCED_FACE('',(#36),#134,.T.);
#36 = FACE_BOUND('',#37,.T.);
#37 = EDGE_LOOP('',(#38,#48,#56,#64,#72,#80,#88,#96,#104,#112,#120,#128)
  );
#38 = ORIENTED_EDGE('',*,*,#39,.F.);
#39 = EDGE_CURVE('',#40,#42,#44,.T.);
#40 = VERTEX_POINT('',#41);
#41 = CARTESIAN_POINT('',(-55.,-40.,0.));
#42 = VERTEX_POINT('',#43);
#43 = CARTESIAN_POINT('',(-53.5,-40.,0.));
#44 = LINE('',#45,#46);
#45 = CARTESIAN_POINT('',(-55.,-40.,0.));
#46 = VECTOR('',#47,1.);
#47 = DIRECTION('',(1.,0.,0.));
#48 = ORIENTED_EDGE('',*,*,#49,.T.);
#49 = EDGE_CURVE('',#40,#50,#52,.T.);
#50 = VERTEX_POINT('',#51);
#51 = CARTESIAN_POINT('',(-55.,-40.,-5.5));
#52 = LINE('',#53,#54);
#53 = CARTESIAN_POINT('',(-55.,-40.,0.));
#54 = VECTOR('',#55,1.);
#55 = DIRECTION('',(-0.,-0.,-1.));
#56 = ORIENTED_EDGE('',*,*,#57,.T.);
#57 = EDGE_CURVE('',#50,#58,#60,.T.);
#58 = VERTEX_POINT('',#59);
#59 = CARTESIAN_POINT('',(55.,-40.,-5.5));
#60 = LINE('',#61,#62);
#61 = CARTESIAN_POINT('',(-55.,-40.,-5.5));
#62 = VECTOR('',#63,1.);
#63 = DIRECTION('',(1.,0.,0.));
#64 = ORIENTED_EDGE('',*,*,#65,.F.);
#65 = EDGE_CURVE('',#66,#58,#68,.T.);
#66 = VERTEX_POINT('',#67);
#67 = CARTESIAN_POINT('',(55.,-40.,0.));
#68 = LINE('',#69,#70);
#69 = CARTESIAN_POINT('',(55.,-40.,0.));
#70 = VECTOR('',#71,1.);
#71 = DIRECTION('',(-0.,-0.,-1.));
#72 = ORIENTED_EDGE('',*,*,#73,.F.);
#73 = EDGE_CURVE('',#74,#66,#76,.T.);
#74 = VERTEX_POINT('',#75);
#75 = CARTESIAN_POINT('',(53.5,-40.,0.));
#76 = LINE('',#77,#78);
#77 = CARTESIAN_POINT('',(-55.,-40.,0.));
#78 = VECTOR('',#79,1.);
#79 = DIRECTION('',(1.,0.,0.));
#80 = ORIENTED_EDGE('',*,*,#81,.T.);
#81 = EDGE_CURVE('',#74,#82,#84,.T.);
#82 = VERTEX_POINT('',#83);
#83 = CARTESIAN_POINT('',(53.5,-40.,-0.8));
#84 = LINE('',#85,#86);
#85 = CARTESIAN_POINT('',(53.5,-40.,0.));
#86 = VECTOR('',#87,1.);
#87 = DIRECTION('',(-0.,-0.,-1.));
#88 = ORIENTED_EDGE('',*,*,#89,.F.);
#89 = EDGE_CURVE('',#90,#82,#92,.T.);
#90 = VERTEX_POINT('',#91);
#91 = CARTESIAN_POINT('',(50.5,-40.,-0.8));
#92 = LINE('',#93,#94);
#93 = CARTESIAN_POINT('',(-53.5,-40.,-0.8));
#94 = VECTOR('',#95,1.);
#95 = DIRECTION('',(1.,0.,0.));
#96 = ORIENTED_EDGE('',*,*,#97,.T.);
#97 = EDGE_CURVE('',#90,#98,#100,.T.);
#98 = VERTEX_POINT('',#99);
#99 = CARTESIAN_POINT('',(50.5,-40.,-3.4));
#100 = LINE('',#101,#102);
#101 = CARTESIAN_POINT('',(50.5,-40.,-0.8));
#102 = VECTOR('',#103,1.);
#103 = DIRECTION('',(-0.,-0.,-1.));
#104 = ORIENTED_EDGE('',*,*,#105,.F.);
#105 = EDGE_CURVE('',#106,#98,#108,.T.);
#106 = VERTEX_POINT('',#107);
#107 = CARTESIAN_POINT('',(-50.5,-40.,-3.4));
#108 = LINE('',#109,#110);
#109 = CARTESIAN_POINT('',(-50.5,-40.,-3.4));
#110 = VECTOR('',#111,1.);
#111 = DIRECTION('',(1.,0.,0.));
#112 = ORIENTED_EDGE('',*,*,#113,.F.);
#113 = EDGE_CURVE('',#114,#106,#116,.T.);
#114 = VERTEX_POINT('',#115);
#115 = CARTESIAN_POINT('',(-50.5,-40.,-0.8));
#116 = LINE('',#117,#118);
#117 = CARTESIAN_POINT('',(-50.5,-40.,-0.8));
#118 = VECTOR('',#119,1.);
#119 = DIRECTION('',(-0.,-0.,-1.));
#120 = ORIENTED_EDGE('',*,*,#121,.F.);
#121 = EDGE_CURVE('',#122,#114,#124,.T.);
#122 = VERTEX_POINT('',#123);
#123 = CARTESIAN_POINT('',(-53.5,-40.,-0.8));
#124 = LINE('',#125,#126);
#125 = CARTESIAN_POINT('',(-53.5,-40.,-0.8));
#126 = VECTOR('',#127,1.);
#127 = DIRECTION('',(1.,0.,0.));
#128 = ORIENTED_EDGE('',*,*,#129,.F.);
#129 = EDGE_CURVE('',#42,#122,#130,.T.);
#130 = LINE('',#131,#132);
#131 = CARTESIAN_POINT('',(-53.5,-40.,0.));
#132 = VECTOR('',#133,1.);
#133 = DIRECTION('',(-0.,-0.,-1.));
#134 = PLANE('',#135);
#135 = AXIS2_PLACEMENT_3D('',#136,#137,#138);
#136 = CARTESIAN_POINT('',(-55.,-40.,0.));
#137 = DIRECTION('',(0.,-1.,0.));
#138 = DIRECTION('',(1.,0.,0.));
#139 = ADVANCED_FACE('',(#140),#165,.T.);
#140 = FACE_BOUND('',#141,.T.);
#141 = EDGE_LOOP('',(#142,#150,#151,#159));
#142 = ORIENTED_EDGE('',*,*,#143,.T.);
#143 = EDGE_CURVE('',#144,#40,#146,.T.);
#144 = VERTEX_POINT('',#145);
#145 = CARTESIAN_POINT('',(-55.,60.,0.));
#146 = LINE('',#147,#148);
#147 = CARTESIAN_POINT('',(-55.,60.,0.));
#148 = VECTOR('',#149,1.);
#149 = DIRECTION('',(0.,-1.,0.));
#150 = ORIENTED_EDGE('',*,*,#39,.T.);
#151 = ORIENTED_EDGE('',*,*,#152,.F.);
#152 = EDGE_CURVE('',#153,#42,#155,.T.);
#153 = VERTEX_POINT('',#154);
#154 = CARTESIAN_POINT('',(-53.5,60.,0.));
#155 = LINE('',#156,#157);
#156 = CARTESIAN_POINT('',(-53.5,60.,0.));
#157 = VECTOR('',#158,1.);
#158 = DIRECTION('',(0.,-1.,0.));
#159 = ORIENTED_EDGE('',*,*,#160,.T.);
#160 = EDGE_CURVE('',#153,#144,#161,.T.);
#161 = LINE('',#162,#163);
#162 = CARTESIAN_POINT('',(55.,60.,0.));
#163 = VECTOR('',#164,1.);
#164 = DIRECTION('',(-1.,0.,0.));
#165 = PLANE('',#166);
#166 = AXIS2_PLACEMENT_3D('',#167,#168,#169);
#167 = CARTESIAN_POINT('',(0.,10.,0.));
#168 = DIRECTION('',(0.,0.,1.));
#169 = DIRECTION('',(1.,0.,0.));
#170 = ADVANCED_FACE('',(#171),#189,.F.);
#171 = FACE_BOUND('',#172,.F.);
#172 = EDGE_LOOP('',(#173,#181,#187,#188));
#173 = ORIENTED_EDGE('',*,*,#174,.T.);
#174 = EDGE_CURVE('',#153,#175,#177,.T.);
#175 = VERTEX_POINT('',#176);
#176 = CARTESIAN_POINT('',(-53.5,60.,-0.8));
#177 = LINE('',#178,#179);
#178 = CARTESIAN_POINT('',(-53.5,60.,0.));
#179 = VECTOR('',#180,1.);
#180 = DIRECTION('',(-0.,-0.,-1.));
#181 = ORIENTED_EDGE('',*,*,#182,.T.);
#182 = EDGE_CURVE('',#175,#122,#183,.T.);
#183 = LINE('',#184,#185);
#184 = CARTESIAN_POINT('',(-53.5,60.,-0.8));
#185 = VECTOR('',#186,1.);
#186 = DIRECTION('',(0.,-1.,0.));
#187 = ORIENTED_EDGE('',*,*,#129,.F.);
#188 = ORIENTED_EDGE('',*,*,#152,.F.);
#189 = PLANE('',#190);
#190 = AXIS2_PLACEMENT_3D('',#191,#192,#193);
#191 = CARTESIAN_POINT('',(-53.5,60.,0.));
#192 = DIRECTION('',(-1.,0.,0.));
#193 = DIRECTION('',(0.,-1.,0.));
#194 = ADVANCED_FACE('',(#195),#213,.T.);
#195 = FACE_BOUND('',#196,.T.);
#196 = EDGE_LOOP('',(#197,#205,#206,#207));
#197 = ORIENTED_EDGE('',*,*,#198,.T.);
#198 = EDGE_CURVE('',#199,#175,#201,.T.);
#199 = VERTEX_POINT('',#200);
#200 = CARTESIAN_POINT('',(-50.5,60.,-0.8));
#201 = LINE('',#202,#203);
#202 = CARTESIAN_POINT('',(53.5,60.,-0.8));
#203 = VECTOR('',#204,1.);
#204 = DIRECTION('',(-1.,0.,0.));
#205 = ORIENTED_EDGE('',*,*,#182,.T.);
#206 = ORIENTED_EDGE('',*,*,#121,.T.);
#207 = ORIENTED_EDGE('',*,*,#208,.F.);
#208 = EDGE_CURVE('',#199,#114,#209,.T.);
#209 = LINE('',#210,#211);
#210 = CARTESIAN_POINT('',(-50.5,60.,-0.8));
#211 = VECTOR('',#212,1.);
#212 = DIRECTION('',(0.,-1.,0.));
#213 = PLANE('',#214);
#214 = AXIS2_PLACEMENT_3D('',#215,#216,#217);
#215 = CARTESIAN_POINT('',(2.174878634674E-13,10.,-0.8));
#216 = DIRECTION('',(0.,0.,1.));
#217 = DIRECTION('',(1.,0.,0.));
#218 = ADVANCED_FACE('',(#219),#237,.F.);
#219 = FACE_BOUND('',#220,.F.);
#220 = EDGE_LOOP('',(#221,#229,#235,#236));
#221 = ORIENTED_EDGE('',*,*,#222,.T.);
#222 = EDGE_CURVE('',#199,#223,#225,.T.);
#223 = VERTEX_POINT('',#224);
#224 = CARTESIAN_POINT('',(-50.5,60.,-3.4));
#225 = LINE('',#226,#227);
#226 = CARTESIAN_POINT('',(-50.5,60.,-0.8));
#227 = VECTOR('',#228,1.);
#228 = DIRECTION('',(-0.,-0.,-1.));
#229 = ORIENTED_EDGE('',*,*,#230,.T.);
#230 = EDGE_CURVE('',#223,#106,#231,.T.);
#231 = LINE('',#232,#233);
#232 = CARTESIAN_POINT('',(-50.5,60.,-3.4));
#233 = VECTOR('',#234,1.);
#234 = DIRECTION('',(0.,-1.,0.));
#235 = ORIENTED_EDGE('',*,*,#113,.F.);
#236 = ORIENTED_EDGE('',*,*,#208,.F.);
#237 = PLANE('',#238);
#238 = AXIS2_PLACEMENT_3D('',#239,#240,#241);
#239 = CARTESIAN_POINT('',(-50.5,60.,-0.8));
#240 = DIRECTION('',(-1.,0.,0.));
#241 = DIRECTION('',(0.,-1.,0.));
#242 = ADVANCED_FACE('',(#243,#261,#272,#283,#294),#305,.T.);
#243 = FACE_BOUND('',#244,.T.);
#244 = EDGE_LOOP('',(#245,#246,#247,#255));
#245 = ORIENTED_EDGE('',*,*,#230,.T.);
#246 = ORIENTED_EDGE('',*,*,#105,.T.);
#247 = ORIENTED_EDGE('',*,*,#248,.T.);
#248 = EDGE_CURVE('',#98,#249,#251,.T.);
#249 = VERTEX_POINT('',#250);
#250 = CARTESIAN_POINT('',(50.5,60.,-3.4));
#251 = LINE('',#252,#253);
#252 = CARTESIAN_POINT('',(50.5,-40.,-3.4));
#253 = VECTOR('',#254,1.);
#254 = DIRECTION('',(0.,1.,0.));
#255 = ORIENTED_EDGE('',*,*,#256,.T.);
#256 = EDGE_CURVE('',#249,#223,#257,.T.);
#257 = LINE('',#258,#259);
#258 = CARTESIAN_POINT('',(50.5,60.,-3.4));
#259 = VECTOR('',#260,1.);
#260 = DIRECTION('',(-1.,0.,0.));
#261 = FACE_BOUND('',#262,.T.);
#262 = EDGE_LOOP('',(#263));
#263 = ORIENTED_EDGE('',*,*,#264,.F.);
#264 = EDGE_CURVE('',#265,#265,#267,.T.);
#265 = VERTEX_POINT('',#266);
#266 = CARTESIAN_POINT('',(-12.6,-29.,-3.4));
#267 = CIRCLE('',#268,2.5);
#268 = AXIS2_PLACEMENT_3D('',#269,#270,#271);
#269 = CARTESIAN_POINT('',(-15.1,-29.,-3.4));
#270 = DIRECTION('',(0.,0.,1.));
#271 = DIRECTION('',(1.,0.,0.));
#272 = FACE_BOUND('',#273,.T.);
#273 = EDGE_LOOP('',(#274));
#274 = ORIENTED_EDGE('',*,*,#275,.F.);
#275 = EDGE_CURVE('',#276,#276,#278,.T.);
#276 = VERTEX_POINT('',#277);
#277 = CARTESIAN_POINT('',(36.4,-29.,-3.4));
#278 = CIRCLE('',#279,2.5);
#279 = AXIS2_PLACEMENT_3D('',#280,#281,#282);
#280 = CARTESIAN_POINT('',(33.9,-29.,-3.4));
#281 = DIRECTION('',(0.,0.,1.));
#282 = DIRECTION('',(1.,0.,0.));
#283 = FACE_BOUND('',#284,.T.);
#284 = EDGE_LOOP('',(#285));
#285 = ORIENTED_EDGE('',*,*,#286,.F.);
#286 = EDGE_CURVE('',#287,#287,#289,.T.);
#287 = VERTEX_POINT('',#288);
#288 = CARTESIAN_POINT('',(-12.6,29.,-3.4));
#289 = CIRCLE('',#290,2.5);
#290 = AXIS2_PLACEMENT_3D('',#291,#292,#293);
#291 = CARTESIAN_POINT('',(-15.1,29.,-3.4));
#292 = DIRECTION('',(0.,0.,1.));
#293 = DIRECTION('',(1.,0.,0.));
#294 = FACE_BOUND('',#295,.T.);
#295 = EDGE_LOOP('',(#296));
#296 = ORIENTED_EDGE('',*,*,#297,.F.);
#297 = EDGE_CURVE('',#298,#298,#300,.T.);
#298 = VERTEX_POINT('',#299);
#299 = CARTESIAN_POINT('',(36.4,29.,-3.4));
#300 = CIRCLE('',#301,2.5);
#301 = AXIS2_PLACEMENT_3D('',#302,#303,#304);
#302 = CARTESIAN_POINT('',(33.9,29.,-3.4));
#303 = DIRECTION('',(0.,0.,1.));
#304 = DIRECTION('',(1.,0.,0.));
#305 = PLANE('',#306);
#306 = AXIS2_PLACEMENT_3D('',#307,#308,#309);
#307 = CARTESIAN_POINT('',(2.443418601778E-13,10.,-3.4));
#308 = DIRECTION('',(0.,0.,1.));
#309 = DIRECTION('',(1.,0.,0.));
#310 = ADVANCED_FACE('',(#311),#329,.F.);
#311 = FACE_BOUND('',#312,.F.);
#312 = EDGE_LOOP('',(#313,#314,#315,#323));
#313 = ORIENTED_EDGE('',*,*,#97,.T.);
#314 = ORIENTED_EDGE('',*,*,#248,.T.);
#315 = ORIENTED_EDGE('',*,*,#316,.F.);
#316 = EDGE_CURVE('',#317,#249,#319,.T.);
#317 = VERTEX_POINT('',#318);
#318 = CARTESIAN_POINT('',(50.5,60.,-0.8));
#319 = LINE('',#320,#321);
#320 = CARTESIAN_POINT('',(50.5,60.,-0.8));
#321 = VECTOR('',#322,1.);
#322 = DIRECTION('',(-0.,-0.,-1.));
#323 = ORIENTED_EDGE('',*,*,#324,.F.);
#324 = EDGE_CURVE('',#90,#317,#325,.T.);
#325 = LINE('',#326,#327);
#326 = CARTESIAN_POINT('',(50.5,-40.,-0.8));
#327 = VECTOR('',#328,1.);
#328 = DIRECTION('',(0.,1.,0.));
#329 = PLANE('',#330);
#330 = AXIS2_PLACEMENT_3D('',#331,#332,#333);
#331 = CARTESIAN_POINT('',(50.5,-40.,-0.8));
#332 = DIRECTION('',(1.,0.,0.));
#333 = DIRECTION('',(0.,1.,0.));
#334 = ADVANCED_FACE('',(#335),#353,.T.);
#335 = FACE_BOUND('',#336,.T.);
#336 = EDGE_LOOP('',(#337,#345,#346,#347));
#337 = ORIENTED_EDGE('',*,*,#338,.T.);
#338 = EDGE_CURVE('',#339,#317,#341,.T.);
#339 = VERTEX_POINT('',#340);
#340 = CARTESIAN_POINT('',(53.5,60.,-0.8));
#341 = LINE('',#342,#343);
#342 = CARTESIAN_POINT('',(53.5,60.,-0.8));
#343 = VECTOR('',#344,1.);
#344 = DIRECTION('',(-1.,0.,0.));
#345 = ORIENTED_EDGE('',*,*,#324,.F.);
#346 = ORIENTED_EDGE('',*,*,#89,.T.);
#347 = ORIENTED_EDGE('',*,*,#348,.T.);
#348 = EDGE_CURVE('',#82,#339,#349,.T.);
#349 = LINE('',#350,#351);
#350 = CARTESIAN_POINT('',(53.5,-40.,-0.8));
#351 = VECTOR('',#352,1.);
#352 = DIRECTION('',(0.,1.,0.));
#353 = PLANE('',#354);
#354 = AXIS2_PLACEMENT_3D('',#355,#356,#357);
#355 = CARTESIAN_POINT('',(2.174878634674E-13,10.,-0.8));
#356 = DIRECTION('',(0.,0.,1.));
#357 = DIRECTION('',(1.,0.,0.));
#358 = ADVANCED_FACE('',(#359),#377,.F.);
#359 = FACE_BOUND('',#360,.F.);
#360 = EDGE_LOOP('',(#361,#362,#363,#371));
#361 = ORIENTED_EDGE('',*,*,#81,.T.);
#362 = ORIENTED_EDGE('',*,*,#348,.T.);
#363 = ORIENTED_EDGE('',*,*,#364,.F.);
#364 = EDGE_CURVE('',#365,#339,#367,.T.);
#365 = VERTEX_POINT('',#366);
#366 = CARTESIAN_POINT('',(53.5,60.,0.));
#367 = LINE('',#368,#369);
#368 = CARTESIAN_POINT('',(53.5,60.,0.));
#369 = VECTOR('',#370,1.);
#370 = DIRECTION('',(-0.,-0.,-1.));
#371 = ORIENTED_EDGE('',*,*,#372,.F.);
#372 = EDGE_CURVE('',#74,#365,#373,.T.);
#373 = LINE('',#374,#375);
#374 = CARTESIAN_POINT('',(53.5,-40.,0.));
#375 = VECTOR('',#376,1.);
#376 = DIRECTION('',(0.,1.,0.));
#377 = PLANE('',#378);
#378 = AXIS2_PLACEMENT_3D('',#379,#380,#381);
#379 = CARTESIAN_POINT('',(53.5,-40.,0.));
#380 = DIRECTION('',(1.,0.,0.));
#381 = DIRECTION('',(0.,1.,0.));
#382 = ADVANCED_FACE('',(#383),#401,.T.);
#383 = FACE_BOUND('',#384,.T.);
#384 = EDGE_LOOP('',(#385,#386,#387,#395));
#385 = ORIENTED_EDGE('',*,*,#372,.F.);
#386 = ORIENTED_EDGE('',*,*,#73,.T.);
#387 = ORIENTED_EDGE('',*,*,#388,.T.);
#388 = EDGE_CURVE('',#66,#389,#391,.T.);
#389 = VERTEX_POINT('',#390);
#390 = CARTESIAN_POINT('',(55.,60.,0.));
#391 = LINE('',#392,#393);
#392 = CARTESIAN_POINT('',(55.,-40.,0.));
#393 = VECTOR('',#394,1.);
#394 = DIRECTION('',(0.,1.,0.));
#395 = ORIENTED_EDGE('',*,*,#396,.T.);
#396 = EDGE_CURVE('',#389,#365,#397,.T.);
#397 = LINE('',#398,#399);
#398 = CARTESIAN_POINT('',(55.,60.,0.));
#399 = VECTOR('',#400,1.);
#400 = DIRECTION('',(-1.,0.,0.));
#401 = PLANE('',#402);
#402 = AXIS2_PLACEMENT_3D('',#403,#404,#405);
#403 = CARTESIAN_POINT('',(0.,10.,0.));
#404 = DIRECTION('',(0.,0.,1.));
#405 = DIRECTION('',(1.,0.,0.));
#406 = ADVANCED_FACE('',(#407),#425,.T.);
#407 = FACE_BOUND('',#408,.T.);
#408 = EDGE_LOOP('',(#409,#410,#418,#424));
#409 = ORIENTED_EDGE('',*,*,#65,.T.);
#410 = ORIENTED_EDGE('',*,*,#411,.T.);
#411 = EDGE_CURVE('',#58,#412,#414,.T.);
#412 = VERTEX_POINT('',#413);
#413 = CARTESIAN_POINT('',(55.,60.,-5.5));
#414 = LINE('',#415,#416);
#415 = CARTESIAN_POINT('',(55.,-40.,-5.5));
#416 = VECTOR('',#417,1.);
#417 = DIRECTION('',(0.,1.,0.));
#418 = ORIENTED_EDGE('',*,*,#419,.F.);
#419 = EDGE_CURVE('',#389,#412,#420,.T.);
#420 = LINE('',#421,#422);
#421 = CARTESIAN_POINT('',(55.,60.,0.));
#422 = VECTOR('',#423,1.);
#423 = DIRECTION('',(-0.,-0.,-1.));
#424 = ORIENTED_EDGE('',*,*,#388,.F.);
#425 = PLANE('',#426);
#426 = AXIS2_PLACEMENT_3D('',#427,#428,#429);
#427 = CARTESIAN_POINT('',(55.,-40.,0.));
#428 = DIRECTION('',(1.,0.,0.));
#429 = DIRECTION('',(0.,1.,0.));
#430 = ADVANCED_FACE('',(#431,#449,#460,#471,#482),#493,.F.);
#431 = FACE_BOUND('',#432,.F.);
#432 = EDGE_LOOP('',(#433,#434,#435,#443));
#433 = ORIENTED_EDGE('',*,*,#57,.T.);
#434 = ORIENTED_EDGE('',*,*,#411,.T.);
#435 = ORIENTED_EDGE('',*,*,#436,.T.);
#436 = EDGE_CURVE('',#412,#437,#439,.T.);
#437 = VERTEX_POINT('',#438);
#438 = CARTESIAN_POINT('',(-55.,60.,-5.5));
#439 = LINE('',#440,#441);
#440 = CARTESIAN_POINT('',(55.,60.,-5.5));
#441 = VECTOR('',#442,1.);
#442 = DIRECTION('',(-1.,0.,0.));
#443 = ORIENTED_EDGE('',*,*,#444,.T.);
#444 = EDGE_CURVE('',#437,#50,#445,.T.);
#445 = LINE('',#446,#447);
#446 = CARTESIAN_POINT('',(-55.,60.,-5.5));
#447 = VECTOR('',#448,1.);
#448 = DIRECTION('',(0.,-1.,0.));
#449 = FACE_BOUND('',#450,.F.);
#450 = EDGE_LOOP('',(#451));
#451 = ORIENTED_EDGE('',*,*,#452,.T.);
#452 = EDGE_CURVE('',#453,#453,#455,.T.);
#453 = VERTEX_POINT('',#454);
#454 = CARTESIAN_POINT('',(-13.65,-29.,-5.5));
#455 = CIRCLE('',#456,1.45);
#456 = AXIS2_PLACEMENT_3D('',#457,#458,#459);
#457 = CARTESIAN_POINT('',(-15.1,-29.,-5.5));
#458 = DIRECTION('',(0.,0.,-1.));
#459 = DIRECTION('',(1.,0.,0.));
#460 = FACE_BOUND('',#461,.F.);
#461 = EDGE_LOOP('',(#462));
#462 = ORIENTED_EDGE('',*,*,#463,.T.);
#463 = EDGE_CURVE('',#464,#464,#466,.T.);
#464 = VERTEX_POINT('',#465);
#465 = CARTESIAN_POINT('',(35.35,-29.,-5.5));
#466 = CIRCLE('',#467,1.45);
#467 = AXIS2_PLACEMENT_3D('',#468,#469,#470);
#468 = CARTESIAN_POINT('',(33.9,-29.,-5.5));
#469 = DIRECTION('',(0.,0.,-1.));
#470 = DIRECTION('',(1.,0.,0.));
#471 = FACE_BOUND('',#472,.F.);
#472 = EDGE_LOOP('',(#473));
#473 = ORIENTED_EDGE('',*,*,#474,.T.);
#474 = EDGE_CURVE('',#475,#475,#477,.T.);
#475 = VERTEX_POINT('',#476);
#476 = CARTESIAN_POINT('',(-13.65,29.,-5.5));
#477 = CIRCLE('',#478,1.45);
#478 = AXIS2_PLACEMENT_3D('',#479,#480,#481);
#479 = CARTESIAN_POINT('',(-15.1,29.,-5.5));
#480 = DIRECTION('',(0.,0.,-1.));
#481 = DIRECTION('',(1.,0.,0.));
#482 = FACE_BOUND('',#483,.F.);
#483 = EDGE_LOOP('',(#484));
#484 = ORIENTED_EDGE('',*,*,#485,.T.);
#485 = EDGE_CURVE('',#486,#486,#488,.T.);
#486 = VERTEX_POINT('',#487);
#487 = CARTESIAN_POINT('',(35.35,29.,-5.5));
#488 = CIRCLE('',#489,1.45);
#489 = AXIS2_PLACEMENT_3D('',#490,#491,#492);
#490 = CARTESIAN_POINT('',(33.9,29.,-5.5));
#491 = DIRECTION('',(0.,0.,-1.));
#492 = DIRECTION('',(1.,0.,0.));
#493 = PLANE('',#494);
#494 = AXIS2_PLACEMENT_3D('',#495,#496,#497);
#495 = CARTESIAN_POINT('',(0.,10.,-5.5));
#496 = DIRECTION('',(0.,0.,1.));
#497 = DIRECTION('',(1.,0.,0.));
#498 = ADVANCED_FACE('',(#499),#510,.T.);
#499 = FACE_BOUND('',#500,.T.);
#500 = EDGE_LOOP('',(#501,#507,#508,#509));
#501 = ORIENTED_EDGE('',*,*,#502,.T.);
#502 = EDGE_CURVE('',#144,#437,#503,.T.);
#503 = LINE('',#504,#505);
#504 = CARTESIAN_POINT('',(-55.,60.,0.));
#505 = VECTOR('',#506,1.);
#506 = DIRECTION('',(-0.,-0.,-1.));
#507 = ORIENTED_EDGE('',*,*,#444,.T.);
#508 = ORIENTED_EDGE('',*,*,#49,.F.);
#509 = ORIENTED_EDGE('',*,*,#143,.F.);
#510 = PLANE('',#511);
#511 = AXIS2_PLACEMENT_3D('',#512,#513,#514);
#512 = CARTESIAN_POINT('',(-55.,60.,0.));
#513 = DIRECTION('',(-1.,0.,0.));
#514 = DIRECTION('',(0.,-1.,0.));
#515 = ADVANCED_FACE('',(#516),#530,.T.);
#516 = FACE_BOUND('',#517,.T.);
#517 = EDGE_LOOP('',(#518,#519,#520,#521,#522,#523,#524,#525,#526,#527,
    #528,#529));
#518 = ORIENTED_EDGE('',*,*,#396,.F.);
#519 = ORIENTED_EDGE('',*,*,#419,.T.);
#520 = ORIENTED_EDGE('',*,*,#436,.T.);
#521 = ORIENTED_EDGE('',*,*,#502,.F.);
#522 = ORIENTED_EDGE('',*,*,#160,.F.);
#523 = ORIENTED_EDGE('',*,*,#174,.T.);
#524 = ORIENTED_EDGE('',*,*,#198,.F.);
#525 = ORIENTED_EDGE('',*,*,#222,.T.);
#526 = ORIENTED_EDGE('',*,*,#256,.F.);
#527 = ORIENTED_EDGE('',*,*,#316,.F.);
#528 = ORIENTED_EDGE('',*,*,#338,.F.);
#529 = ORIENTED_EDGE('',*,*,#364,.F.);
#530 = PLANE('',#531);
#531 = AXIS2_PLACEMENT_3D('',#532,#533,#534);
#532 = CARTESIAN_POINT('',(55.,60.,0.));
#533 = DIRECTION('',(0.,1.,0.));
#534 = DIRECTION('',(-1.,0.,0.));
#535 = ADVANCED_FACE('',(#536),#555,.F.);
#536 = FACE_BOUND('',#537,.T.);
#537 = EDGE_LOOP('',(#538,#546,#547,#548));
#538 = ORIENTED_EDGE('',*,*,#539,.F.);
#539 = EDGE_CURVE('',#265,#540,#542,.T.);
#540 = VERTEX_POINT('',#541);
#541 = CARTESIAN_POINT('',(-13.65,-29.,-4.45));
#542 = LINE('',#543,#544);
#543 = CARTESIAN_POINT('',(-12.6,-29.,-3.4));
#544 = VECTOR('',#545,1.);
#545 = DIRECTION('',(-0.707106781187,0.,-0.707106781187));
#546 = ORIENTED_EDGE('',*,*,#264,.T.);
#547 = ORIENTED_EDGE('',*,*,#539,.T.);
#548 = ORIENTED_EDGE('',*,*,#549,.F.);
#549 = EDGE_CURVE('',#540,#540,#550,.T.);
#550 = CIRCLE('',#551,1.45);
#551 = AXIS2_PLACEMENT_3D('',#552,#553,#554);
#552 = CARTESIAN_POINT('',(-15.1,-29.,-4.45));
#553 = DIRECTION('',(0.,0.,1.));
#554 = DIRECTION('',(1.,0.,0.));
#555 = CONICAL_SURFACE('',#556,2.5,0.785398163397);
#556 = AXIS2_PLACEMENT_3D('',#557,#558,#559);
#557 = CARTESIAN_POINT('',(-15.1,-29.,-3.4));
#558 = DIRECTION('',(0.,0.,1.));
#559 = DIRECTION('',(1.,0.,0.));
#560 = ADVANCED_FACE('',(#561),#580,.F.);
#561 = FACE_BOUND('',#562,.T.);
#562 = EDGE_LOOP('',(#563,#571,#572,#573));
#563 = ORIENTED_EDGE('',*,*,#564,.F.);
#564 = EDGE_CURVE('',#276,#565,#567,.T.);
#565 = VERTEX_POINT('',#566);
#566 = CARTESIAN_POINT('',(35.35,-29.,-4.45));
#567 = LINE('',#568,#569);
#568 = CARTESIAN_POINT('',(36.4,-29.,-3.4));
#569 = VECTOR('',#570,1.);
#570 = DIRECTION('',(-0.707106781187,0.,-0.707106781187));
#571 = ORIENTED_EDGE('',*,*,#275,.T.);
#572 = ORIENTED_EDGE('',*,*,#564,.T.);
#573 = ORIENTED_EDGE('',*,*,#574,.F.);
#574 = EDGE_CURVE('',#565,#565,#575,.T.);
#575 = CIRCLE('',#576,1.45);
#576 = AXIS2_PLACEMENT_3D('',#577,#578,#579);
#577 = CARTESIAN_POINT('',(33.9,-29.,-4.45));
#578 = DIRECTION('',(0.,0.,1.));
#579 = DIRECTION('',(1.,0.,0.));
#580 = CONICAL_SURFACE('',#581,2.5,0.785398163397);
#581 = AXIS2_PLACEMENT_3D('',#582,#583,#584);
#582 = CARTESIAN_POINT('',(33.9,-29.,-3.4));
#583 = DIRECTION('',(0.,0.,1.));
#584 = DIRECTION('',(1.,0.,0.));
#585 = ADVANCED_FACE('',(#586),#605,.F.);
#586 = FACE_BOUND('',#587,.T.);
#587 = EDGE_LOOP('',(#588,#596,#597,#598));
#588 = ORIENTED_EDGE('',*,*,#589,.F.);
#589 = EDGE_CURVE('',#287,#590,#592,.T.);
#590 = VERTEX_POINT('',#591);
#591 = CARTESIAN_POINT('',(-13.65,29.,-4.45));
#592 = LINE('',#593,#594);
#593 = CARTESIAN_POINT('',(-12.6,29.,-3.4));
#594 = VECTOR('',#595,1.);
#595 = DIRECTION('',(-0.707106781187,0.,-0.707106781187));
#596 = ORIENTED_EDGE('',*,*,#286,.T.);
#597 = ORIENTED_EDGE('',*,*,#589,.T.);
#598 = ORIENTED_EDGE('',*,*,#599,.F.);
#599 = EDGE_CURVE('',#590,#590,#600,.T.);
#600 = CIRCLE('',#601,1.45);
#601 = AXIS2_PLACEMENT_3D('',#602,#603,#604);
#602 = CARTESIAN_POINT('',(-15.1,29.,-4.45));
#603 = DIRECTION('',(0.,0.,1.));
#604 = DIRECTION('',(1.,0.,0.));
#605 = CONICAL_SURFACE('',#606,2.5,0.785398163397);
#606 = AXIS2_PLACEMENT_3D('',#607,#608,#609);
#607 = CARTESIAN_POINT('',(-15.1,29.,-3.4));
#608 = DIRECTION('',(0.,0.,1.));
#609 = DIRECTION('',(1.,0.,0.));
#610 = ADVANCED_FACE('',(#611),#630,.F.);
#611 = FACE_BOUND('',#612,.T.);
#612 = EDGE_LOOP('',(#613,#621,#622,#623));
#613 = ORIENTED_EDGE('',*,*,#614,.F.);
#614 = EDGE_CURVE('',#298,#615,#617,.T.);
#615 = VERTEX_POINT('',#616);
#616 = CARTESIAN_POINT('',(35.35,29.,-4.45));
#617 = LINE('',#618,#619);
#618 = CARTESIAN_POINT('',(36.4,29.,-3.4));
#619 = VECTOR('',#620,1.);
#620 = DIRECTION('',(-0.707106781187,0.,-0.707106781187));
#621 = ORIENTED_EDGE('',*,*,#297,.T.);
#622 = ORIENTED_EDGE('',*,*,#614,.T.);
#623 = ORIENTED_EDGE('',*,*,#624,.F.);
#624 = EDGE_CURVE('',#615,#615,#625,.T.);
#625 = CIRCLE('',#626,1.45);
#626 = AXIS2_PLACEMENT_3D('',#627,#628,#629);
#627 = CARTESIAN_POINT('',(33.9,29.,-4.45));
#628 = DIRECTION('',(0.,0.,1.));
#629 = DIRECTION('',(1.,0.,0.));
#630 = CONICAL_SURFACE('',#631,2.5,0.785398163397);
#631 = AXIS2_PLACEMENT_3D('',#632,#633,#634);
#632 = CARTESIAN_POINT('',(33.9,29.,-3.4));
#633 = DIRECTION('',(0.,0.,1.));
#634 = DIRECTION('',(1.,0.,0.));
#635 = ADVANCED_FACE('',(#636),#647,.F.);
#636 = FACE_BOUND('',#637,.T.);
#637 = EDGE_LOOP('',(#638,#644,#645,#646));
#638 = ORIENTED_EDGE('',*,*,#639,.F.);
#639 = EDGE_CURVE('',#540,#453,#640,.T.);
#640 = LINE('',#641,#642);
#641 = CARTESIAN_POINT('',(-13.65,-29.,-4.45));
#642 = VECTOR('',#643,1.);
#643 = DIRECTION('',(-4.463208139197E-17,0.,-1.));
#644 = ORIENTED_EDGE('',*,*,#549,.T.);
#645 = ORIENTED_EDGE('',*,*,#639,.T.);
#646 = ORIENTED_EDGE('',*,*,#452,.T.);
#647 = CYLINDRICAL_SURFACE('',#648,1.45);
#648 = AXIS2_PLACEMENT_3D('',#649,#650,#651);
#649 = CARTESIAN_POINT('',(-15.1,-29.,-4.45));
#650 = DIRECTION('',(-0.,-0.,-1.));
#651 = DIRECTION('',(1.,0.,0.));
#652 = ADVANCED_FACE('',(#653),#664,.F.);
#653 = FACE_BOUND('',#654,.T.);
#654 = EDGE_LOOP('',(#655,#661,#662,#663));
#655 = ORIENTED_EDGE('',*,*,#656,.F.);
#656 = EDGE_CURVE('',#565,#464,#657,.T.);
#657 = LINE('',#658,#659);
#658 = CARTESIAN_POINT('',(35.35,-29.,-4.45));
#659 = VECTOR('',#660,1.);
#660 = DIRECTION('',(-4.463208139197E-17,0.,-1.));
#661 = ORIENTED_EDGE('',*,*,#574,.T.);
#662 = ORIENTED_EDGE('',*,*,#656,.T.);
#663 = ORIENTED_EDGE('',*,*,#463,.T.);
#664 = CYLINDRICAL_SURFACE('',#665,1.45);
#665 = AXIS2_PLACEMENT_3D('',#666,#667,#668);
#666 = CARTESIAN_POINT('',(33.9,-29.,-4.45));
#667 = DIRECTION('',(-0.,-0.,-1.));
#668 = DIRECTION('',(1.,0.,0.));
#669 = ADVANCED_FACE('',(#670),#681,.F.);
#670 = FACE_BOUND('',#671,.T.);
#671 = EDGE_LOOP('',(#672,#678,#679,#680));
#672 = ORIENTED_EDGE('',*,*,#673,.F.);
#673 = EDGE_CURVE('',#590,#475,#674,.T.);
#674 = LINE('',#675,#676);
#675 = CARTESIAN_POINT('',(-13.65,29.,-4.45));
#676 = VECTOR('',#677,1.);
#677 = DIRECTION('',(-4.463208139197E-17,0.,-1.));
#678 = ORIENTED_EDGE('',*,*,#599,.T.);
#679 = ORIENTED_EDGE('',*,*,#673,.T.);
#680 = ORIENTED_EDGE('',*,*,#474,.T.);
#681 = CYLINDRICAL_SURFACE('',#682,1.45);
#682 = AXIS2_PLACEMENT_3D('',#683,#684,#685);
#683 = CARTESIAN_POINT('',(-15.1,29.,-4.45));
#684 = DIRECTION('',(-0.,-0.,-1.));
#685 = DIRECTION('',(1.,0.,0.));
#686 = ADVANCED_FACE('',(#687),#698,.F.);
#687 = FACE_BOUND('',#688,.T.);
#688 = EDGE_LOOP('',(#689,#695,#696,#697));
#689 = ORIENTED_EDGE('',*,*,#690,.F.);
#690 = EDGE_CURVE('',#615,#486,#691,.T.);
#691 = LINE('',#692,#693);
#692 = CARTESIAN_POINT('',(35.35,29.,-4.45));
#693 = VECTOR('',#694,1.);
#694 = DIRECTION('',(-4.463208139197E-17,0.,-1.));
#695 = ORIENTED_EDGE('',*,*,#624,.T.);
#696 = ORIENTED_EDGE('',*,*,#690,.T.);
#697 = ORIENTED_EDGE('',*,*,#485,.T.);
#698 = CYLINDRICAL_SURFACE('',#699,1.45);
#699 = AXIS2_PLACEMENT_3D('',#700,#701,#702);
#700 = CARTESIAN_POINT('',(33.9,29.,-4.45));
#701 = DIRECTION('',(-0.,-0.,-1.));
#702 = DIRECTION('',(1.,0.,0.));
#703 = ( GEOMETRIC_REPRESENTATION_CONTEXT(3) 
GLOBAL_UNCERTAINTY_ASSIGNED_CONTEXT((#707)) GLOBAL_UNIT_ASSIGNED_CONTEXT
((#704,#705,#706)) REPRESENTATION_CONTEXT('Context #1',
  '3D Context with UNIT and UNCERTAINTY') );
#704 = ( LENGTH_UNIT() NAMED_UNIT(*) SI_UNIT(.MILLI.,.METRE.) );
#705 = ( NAMED_UNIT(*) PLANE_ANGLE_UNIT() SI_UNIT($,.RADIAN.) );
#706 = ( NAMED_UNIT(*) SI_UNIT($,.STERADIAN.) SOLID_ANGLE_UNIT() );
#707 = UNCERTAINTY_MEASURE_WITH_UNIT(LENGTH_MEASURE(1.E-07),#704,
  'distance_accuracy_value','confusion accuracy');
#708 = CONTEXT_DEPENDENT_SHAPE_REPRESENTATION(#709,#711);
#709 = ( REPRESENTATION_RELATIONSHIP('','',#32,#10) 
REPRESENTATION_RELATIONSHIP_WITH_TRANSFORMATION(#710) 
SHAPE_REPRESENTATION_RELATIONSHIP() );
#710 = ITEM_DEFINED_TRANSFORMATION('','',#11,#15);
#711 = PRODUCT_DEFINITION_SHAPE('Placement','Placement of an item',#712
  );
#712 = NEXT_ASSEMBLY_USAGE_OCCURRENCE('1','Body001','',#5,#27,$);
#713 = PRODUCT_RELATED_PRODUCT_CATEGORY('part',$,(#29));
#714 = MECHANICAL_DESIGN_GEOMETRIC_PRESENTATION_REPRESENTATION('',(#715)
  ,#703);
#715 = STYLED_ITEM('color',(#716),#33);
#716 = PRESENTATION_STYLE_ASSIGNMENT((#717,#723));
#717 = SURFACE_STYLE_USAGE(.BOTH.,#718);
#718 = SURFACE_SIDE_STYLE('',(#719));
#719 = SURFACE_STYLE_FILL_AREA(#720);
#720 = FILL_AREA_STYLE('',(#721));
#721 = FILL_AREA_STYLE_COLOUR('',#722);
#722 = COLOUR_RGB('',0.800000010877,0.800000010877,0.901960800373);
#723 = CURVE_STYLE('',#724,POSITIVE_LENGTH_MEASURE(0.1),#725);
#724 = DRAUGHTING_PRE_DEFINED_CURVE_FONT('continuous');
#725 = COLOUR_RGB('',9.803921802644E-02,9.803921802644E-02,
  9.803921802644E-02);
ENDSEC;
END-ISO-10303-21;
